<?xml version="1.0" encoding="utf-8"?>
<!-- Generator: Adobe Illustrator 21.1.0, SVG Export Plug-In . SVG Version: 6.00 Build 0)  -->
<svg version="1.1" id="Layer_1" xmlns="http://www.w3.org/2000/svg" xmlns:xlink="http://www.w3.org/1999/xlink" x="0px" y="0px"
	 viewBox="0 0 1000 1300" style="enable-background:new 0 0 1000 1300;" xml:space="preserve">
<style type="text/css">
	.st0{fill:#744946;}
</style>
<g>
	<path class="st0" d="M223.2,589.5c29.4,24.5,32.9,25,77.3,38s92.3,22.1,141.2,22.4c3.3,0,7.1-0.1,9.4-1.7c1.7-1.2,2.1-3,2.3-4.6
		c1.3-9.5,1.8-14.5-0.4-23.9"/>
</g>
<g>
	<path class="st0" d="M560.6,617.9c3.4,9.7,5,14.4,8.4,24.1c0.4,1.1,0.8,2.2,2.1,2.9c1.6,0.9,3.8,0.8,5.9,0.7
		c44-2.3,87.2-12.3,121.5-30.2c23.4-12.2,33-10.2,54.2-35.2"/>
</g>
</svg>
