<?xml version="1.0" encoding="utf-8"?>
<!-- Generator: Adobe Illustrator 21.1.0, SVG Export Plug-In . SVG Version: 6.00 Build 0)  -->
<svg version="1.1"
	 id="svg4992" xmlns:cc="http://creativecommons.org/ns#" xmlns:dc="http://purl.org/dc/elements/1.1/" xmlns:rdf="http://www.w3.org/1999/02/22-rdf-syntax-ns#"
	 xmlns="http://www.w3.org/2000/svg" xmlns:xlink="http://www.w3.org/1999/xlink" x="0px" y="0px" viewBox="0 0 1000 1300"
	 style="enable-background:new 0 0 1000 1300;" xml:space="preserve">
<path id="path188" d="M621.5,624.8c5.2,5.2,12.7,9.5,16,16.2c-3.7,8.1-16.6,10.6-22.2,3c-13.1-15.6-33.4-22-52.9-24.9
	c-5.3-4.2,2.8-9.4,7.2-9.9C588.1,607.6,606.1,615.2,621.5,624.8L621.5,624.8z"/>
<path id="path204" d="M412.5,607.7c3.3,1.4,10.1,4,7.8,8.8c-14.4,4-30,6.8-41.9,16.6c-7.6,4.9-12.5,15.9-22.8,14.8
	c-3.6-1.2-12.9-3.6-9.9-9C362.4,620.4,386.8,606.5,412.5,607.7L412.5,607.7z"/>
</svg>
