<?xml version="1.0" encoding="utf-8"?>
<!-- Generator: Adobe Illustrator 21.1.0, SVG Export Plug-In . SVG Version: 6.00 Build 0)  -->
<svg version="1.1"
	 id="svg2" xmlns:cc="http://creativecommons.org/ns#" xmlns:dc="http://purl.org/dc/elements/1.1/" xmlns:inkscape="http://www.inkscape.org/namespaces/inkscape" xmlns:ns1="http://sozi.baierouge.fr" xmlns:rdf="http://www.w3.org/1999/02/22-rdf-syntax-ns#" xmlns:sodipodi="http://sodipodi.sourceforge.net/DTD/sodipodi-0.dtd" xmlns:svg="http://www.w3.org/2000/svg"
	 xmlns="http://www.w3.org/2000/svg" xmlns:xlink="http://www.w3.org/1999/xlink" x="0px" y="0px" viewBox="0 0 1000 1300"
	 style="enable-background:new 0 0 1000 1300;" xml:space="preserve">
<style type="text/css">
	.st0{fill:#63201F;}
</style>
<title  id="title7538">Female cartoon avatar</title>
<path id="path12630" class="st0" d="M537.4,637.8c-12.4,4.5,2,28,11.6,22.3c9.7-5.5,41.6-18.6,65-21.8c24.8-3.5,50.7-2.3,76.1,1.6
	c-24.2-8.1-49.9-13.6-76.7-14.4C588.2,624.9,549.8,633.3,537.4,637.8L537.4,637.8z"/>
<path id="path12662" class="st0" d="M414.7,637.8c13.1,4.5-2.1,28-12.3,22.3c-10.2-5.5-44-18.6-68.8-21.8
	c-26.3-3.5-53.6-2.3-80.4,1.6c25.6-8.1,52.7-13.6,81.1-14.4C361.1,624.9,401.5,633.3,414.7,637.8L414.7,637.8z"/>
</svg>
