<?xml version="1.0" encoding="utf-8"?>
<!-- Generator: Adobe Illustrator 21.1.0, SVG Export Plug-In . SVG Version: 6.00 Build 0)  -->
<svg version="1.1" id="Layer_1" xmlns="http://www.w3.org/2000/svg" xmlns:xlink="http://www.w3.org/1999/xlink" x="0px" y="0px"
	 viewBox="0 0 1000 1300" style="enable-background:new 0 0 1000 1300;" xml:space="preserve">
<style type="text/css">
	.st0{fill:#E55745;}
	.st1{fill:#DE2D17;}
	.st2{fill:#490800;}
	.st3{fill:#FFFFFF;}
</style>
<path id="path36256_5_" class="st0" d="M418,310.5c0,0-24.4-21.8-28-24.5c-0.9-0.7-1.9-1.3-3-2.1c-0.6-0.3-1.1-0.8-1.7-1.2
	c-0.7-0.3-1.2-0.8-1.9-1.2c-2.6-1.8-5.6-3.5-8.8-5.5c-1.6-0.9-3.4-1.8-5.2-2.8c-1.8-0.8-3.6-1.9-5.6-2.7c-1.9-0.9-3.9-1.8-6-2.6
	c-1-0.3-2-0.8-3.1-1.2l-3.1-1.1c-1-0.3-2.1-0.8-3.3-1.1c-1-0.3-2.2-0.7-3.4-0.9c-2.2-0.6-4.5-1.1-6.7-1.6c-2.2-0.6-4.6-0.9-6.9-1.1
	c-2.4-0.3-4.6-0.6-7-0.6c-4.6-0.3-9.2-0.3-13.7,0s-8.9,1-13,1.8c-4.3,0.9-8.2,1.9-11.9,3.3c-1.8,0.7-3.7,1.3-5.4,2s-3.4,1.3-4.9,2.1
	c-1.6,0.7-3.1,1.5-4.5,2.1c-1.5,0.7-2.7,1.3-3.9,2.1c-1.2,0.6,0.1,4.3-0.8,4.9c-1.1,0.6-2.2,0.7-4.8,0.1c-1.7,1.1-3.7,0.7-4.6,1.1
	c-0.9,0.7-1.5,0.9-1.5,0.9s0.4-0.3,1.2-1.1c0.9-0.8,0.3-1,2.2-3.3c0.8-0.6,0.2-1.1,1.2-1.8c1-0.8,1.8-2.2,1.8-2.2s1.6-2.1,2.9-3
	c3.7-3,3.8-2.8,5.5-3.7c1.6-0.8,2.7-1.3,5.2-2.9c2.4-1.5,3.7-2.5,5.5-3.4c4.3-2.2,9.9-4.3,14.2-5.4c5.3-2.4,13.9-4.7,18.9-4.5
	c5.4,0.2,10.7,2,15.5,2.4c2.4,0.1,3.5,1,5.7,1.2c2.4,0.4,5.3,1.3,7.5,2c4.7,0.9,8.7,1.7,13,3.3c4.2,1.7,10.6,4.8,11.7,5.2"/>
<path id="path36256_2_" class="st0" d="M405,292.6c0.6,0.4,4.9,5.1,5.5,5.5c1.1,0.9,1.8,2.6,2.8,3.4"/>
<path id="path36256_3_" class="st0" d="M395.9,282"/>
<path id="path36256_1_" class="st1" d="M423.1,319.8c0,0-23.1-22.2-26.5-25.1c-0.9-0.7-1.9-1.5-2.9-2.4c-0.4-0.4-1.1-0.8-1.7-1.3
	c-0.6-0.3-1.2-0.9-1.8-1.3c-2.5-1.9-5.4-3.8-8.4-6c-1.6-1-3.3-2-4.9-3.1c-1.8-0.9-3.5-2.1-5.4-3c-1.9-1-3.8-2-5.8-2.9
	c-1-0.4-1.9-0.9-3-1.5l-3.1-1.3c-1-0.4-2-0.9-3.1-1.2c-1-0.4-2.1-0.8-3.3-1.1c-2.2-0.7-4.4-1.5-6.7-2c-2.2-0.7-4.5-1.1-6.9-1.6
	c-2.4-0.4-4.6-0.9-6.9-1c-4.6-0.6-9.2-0.9-13.7-0.8s-8.9,0.4-13.2,1c-4.3,0.7-8.3,1.5-12,2.5c-1.9,0.6-3.7,1.1-5.5,1.7
	c-1.8,0.7-3.5,1.1-5.1,1.8c-1.7,0.6-3.1,1.3-4.6,1.9s-2.8,1.2-4.2,1.9c-1.2,0.6-2.5,1.1-3.5,1.8c-1.1,0.4-1.6,2.5-2.5,2.9
	c-1.8,1-3.7,0.4-4.7,0.9c-0.9,0.6-1.5,0.8-1.5,0.8s0.4-0.3,1.3-1s-0.6-1.8,1.1-3c0.8-0.6,1.6-1.2,2.6-1.8c1-0.7,0.8-1.6,2-2.4
	s1.6-1.8,3.1-2.6c3.9-2.8,3.8-1.8,5.5-2.5c1.6-0.7,3.5-1.7,5.2-2.5c1.8-0.7,4.3-2.5,6.2-2.9c3.8-1.3,10-4.8,14.4-5.6
	c5.4-2,14.2-2.7,19.1-3.4c5.7-0.8,10.9,1.6,15.6,2.4c2.4,0.3,3.8,1.3,6.1,1.7c2.4,0.6,4.4,1.5,6.6,2.2c4.6,1.2,7.9,3.1,12.1,4.9
	c5.3,2,12.4,4.5,13.4,4.9s6.9,4.6,7.8,5.2c2,1,0.9,1,2.7,2c1.9,1,0.8,0.4,2.6,2c1.7,1.2,3.3,3,4.9,4c4.4,4.2,6.9,7.1,8.3,8.1
	c1.3,1.1,5.2,6.3,6.4,7.2c0.7,0.6,2.4,3.6,2.9,4c0.6,0.6,4.7,5.7,5.3,6.3c1,0.9,1.6,1.8,2.1,2.9c0.4,0.8,1,2.4,1.6,3.6
	C422.7,317.6,423.1,319.8,423.1,319.8z"/>
<path id="path36246" d="M421.3,319.2c-3.4-0.6-14.1-4.5-20-3.6c-69.4,10.9-106.8,11.1-135-20.4c-0.2-0.2,0.4,1.2,1.6,3.3
	c1.7,2.9,3.4,5.3,4.8,6.9c0,0-16.4,3.3-17.5,14.5c0,0,4.3-10.5,20.6-11.9c0,0,5.1,4.6,7.1,5.3c0,0-14.6,3.6-16.6,13.5
	c0,0,4.4-9.1,19.9-11.7c0,0,6.3,3.9,9.9,4.5c0,0-14.1,1.9-19.5,12.8c0,0,11.6-8.8,25.6-10.7c0,0,23.6,9.3,100.1-3.3
	C402.1,318.4,408.5,317,421.3,319.2z"/>
<path id="circle36248" class="st2" d="M370.7,296.1c0,14.7-14.2,26.7-31.7,26.7s-31.7-11.9-31.7-26.7s14.2-26.7,31.7-26.7
	S370.7,281.3,370.7,296.1z"/>
<path id="path36250" d="M307.4,287.4c-4.5,11.7,0.3,24.7,12.7,31.6c11,6.2,25.8,6,36.9,0.1c11.7-6.3,17.8-18.2,14.5-29.6
	c-3.4-11.6-15.6-20-29.7-20.7C326.6,267.8,312.8,275.6,307.4,287.4c-0.4,0.9,2.8,0.6,3.3-0.3c6.4-14.2,25.4-21.3,41.8-13.9
	c13.5,6,19.8,19.9,14.8,31.9c-6,14.3-25.8,21.1-41.8,13.9c-13.7-6.1-19.5-19.7-14.8-31.9C311.1,286.2,307.9,286.4,307.4,287.4z"/>
<path id="circle36252" d="M353.4,296.8c0,6.5-6.3,11.7-13.9,11.7s-13.9-5.3-13.9-11.7c0-6.5,6.3-11.7,13.9-11.7
	C347.1,285.1,353.4,290.3,353.4,296.8z"/>
<path id="ellipse36254" class="st3" d="M330.5,289.8c1.7-1.7,3.9-2.2,5.2-1.5c1.2,0.8,0.8,2.8-0.8,4.5c-1.7,1.7-3.9,2.2-5.2,1.5
	C328.4,293.5,328.9,291.4,330.5,289.8z"/>
<path id="path36256" d="M417.6,308.8c0,0-1.6-1.8-4-4.9c-0.7-0.8-1.5-1.6-2.1-2.6c-0.3-0.4-0.9-0.9-1.2-1.5c-0.4-0.4-1-1-1.5-1.5
	c-1.9-2.1-4.3-4.4-6.7-6.9c-1.2-1.1-2.7-2.5-4-3.7c-1.5-1.2-2.9-2.6-4.6-3.8c-1.6-1.3-3.1-2.7-5.1-3.9c-0.9-0.7-1.7-1.2-2.6-2
	l-2.8-1.9c-0.9-0.7-1.8-1.2-2.9-1.9c-0.9-0.7-1.9-1.2-3-1.8c-2-1.2-4-2.4-6.3-3.6c-2-1.2-4.3-2.2-6.5-3.3c-2.2-1-4.4-2.1-6.7-2.9
	c-4.6-1.9-9.2-3.7-13.8-5.1c-4.7-1.3-9.3-2.6-13.9-3.6s-9.1-1.7-13.3-2.2c-2.1-0.2-4.3-0.4-6.3-0.7c-2-0.1-3.9-0.3-5.8-0.4
	c-1.9-0.1-3.7-0.1-5.4-0.2c-1.7-0.1-3.3-0.1-4.9-0.1c-1.5-0.1-2.9,0-4.3,0s-2.5,0-3.7,0c-2.1,0.1-3.9,0.2-5.1,0.2
	c-1.1,0.1-1.8,0.1-1.8,0.1s0.6-0.1,1.8-0.2c1.2-0.1,2.8-0.3,5.1-0.7c1-0.1,2.4-0.2,3.6-0.3s2.8-0.2,4.3-0.3s3.1-0.1,4.9-0.2
	c1.7-0.1,3.6-0.1,5.5,0c1.9,0,3.8,0.1,6,0.1c2,0.1,4.2,0.2,6.3,0.4c4.4,0.3,9,1,13.7,1.8c4.7,0.9,9.6,2,14.4,3.4
	c4.8,1.3,9.7,3,14.3,5.1c2.4,1,4.7,2,6.9,3c2.2,1.1,4.5,2.2,6.6,3.5c4.4,2.4,8.4,5.1,12.1,7.8c0.9,0.7,1.8,1.3,2.7,2
	c0.9,0.7,1.8,1.3,2.6,2c1.7,1.3,3.3,2.8,4.9,4s2.9,2.8,4.4,4.2c1.3,1.3,2.6,2.7,3.9,4s2.2,2.6,3.5,3.7c1,1.2,2,2.5,2.9,3.5
	c0.4,0.6,0.8,1.1,1.3,1.6c0.3,0.6,0.8,1,1.1,1.6c0.8,1,1.3,1.9,2,2.7c1.2,1.7,2,2.9,2.7,3.9C417.2,308.3,417.6,308.8,417.6,308.8z"
	/>
<path id="path36258" d="M268.8,286.3c-24.4-4.3-44-18.4-44-18.4c20.5,12.9,44.4,9.2,44.4,9.2c-22.7-2.7-32.1-20.4-32.1-20.4
	c6.1,11.1,39.4,15.4,39.4,15.4c-19.1-4.4-25.8-21.1-25.8-21.1c11.2,18.2,39.5,17.1,39.5,17.1c-17.4-3.3-21.7-20.5-21.7-20.5
	c7.4,21.1,38.5,16.8,38.5,16.8c-14.2-1.9-18.1-18.6-18.1-18.6c2.6,14.2,29.2,15.6,29.2,15.6C382.4,260,423,319.9,423,319.9
	C332.4,237.2,268.8,286.3,268.8,286.3"/>
<path id="path36256_9_" class="st0" d="M614.2,263c1-0.3,7.5-3.5,11.7-5.2c4.4-1.6,8.3-2.2,13-3.3c2.4-0.7,5.2-1.6,7.5-2
	c2.4-0.3,3.4-1.1,5.7-1.2c4.8-0.4,10-2.2,15.5-2.4c4.9-0.2,13.6,2.1,18.9,4.5c4.3,1.1,9.9,3.1,14.2,5.4c1.7,0.9,3.1,1.9,5.5,3.4
	c2.6,1.6,3.6,2.1,5.2,2.9c1.6,0.8,1.7,0.7,5.5,3.7c1.5,0.9,2.9,3,2.9,3s0.8,1.5,1.8,2.2s0.4,1.2,1.2,1.8c1.8,2.2,1.3,2.5,2.2,3.3
	s1.2,1.1,1.2,1.1s-0.6-0.3-1.5-0.9s-2.9,0-4.6-1.1c-2.6,0.6-3.7,0.4-4.8-0.1c-1-0.7,0.3-4.4-0.8-4.9c-1.2-0.8-2.6-1.5-3.9-2.1
	c-1.5-0.7-2.9-1.5-4.5-2.1c-1.6-0.8-3.3-1.3-4.9-2.1c-1.8-0.6-3.6-1.3-5.4-2c-3.7-1.2-7.6-2.4-11.9-3.3c-4.3-0.9-8.7-1.5-13-1.8
	s-9-0.3-13.7,0c-2.4,0-4.6,0.3-7,0.6c-2.4,0.3-4.6,0.6-6.9,1.1c-2.4,0.4-4.5,1-6.7,1.6c-1.1,0.2-2.2,0.6-3.4,0.9s-2.2,0.7-3.3,1.1
	l-3.1,1.1c-1.1,0.4-2,0.9-3.1,1.2c-2.1,0.8-4,1.7-6,2.6c-2,0.8-3.8,1.8-5.6,2.7c-1.8,1-3.5,1.9-5.2,2.8c-3.1,2-6.2,3.7-8.8,5.5
	c-0.7,0.3-1.2,0.8-1.9,1.2c-0.6,0.4-1.2,0.9-1.7,1.2c-1.1,0.9-2.1,1.6-3,2.1c-3.6,2.7-28,24.5-28,24.5"/>
<path id="path36256_7_" class="st0" d="M585.1,269.3"/>
<path id="path36256_6_" class="st1" d="M559.8,314.9c0.7-1.2,1.1-2.7,1.6-3.6c0.7-1,1.1-2,2.1-2.9c0.6-0.6,4.7-5.7,5.3-6.3
	c0.6-0.3,2.4-3.5,2.9-4c1.2-0.9,5.1-6.1,6.4-7.2c1.5-1,3.9-4,8.3-8.1c1.6-1.1,3.1-2.9,4.9-4c1.8-1.6,0.7-1,2.6-2c1.9-1,0.8-1,2.7-2
	c1-0.6,6.7-4.7,7.8-5.2c1-0.4,8.1-2.9,13.4-4.9c4.3-1.8,7.4-3.8,12.1-4.9c2.2-0.8,4.4-1.7,6.6-2.2c2.2-0.4,3.7-1.5,6.1-1.7
	c4.7-0.7,9.9-3.1,15.6-2.4c4.9,0.7,13.7,1.3,19.1,3.4c4.3,0.9,10.6,4.4,14.4,5.6c1.9,0.6,4.4,2.4,6.2,2.9c1.7,0.8,3.6,1.7,5.2,2.5
	c1.6,0.7,1.6-0.3,5.5,2.5c1.5,0.8,1.9,1.9,3.1,2.6c1.2,0.8,1,1.7,2,2.4c1,0.6,1.7,1.2,2.6,1.8c1.7,1.2,0.2,2.4,1.1,3
	c0.9,0.7,1.3,1,1.3,1s-0.6-0.2-1.5-0.8c-0.9-0.4-2.9,0.1-4.7-0.9c-0.9-0.4-1.3-2.5-2.5-2.9c-1-0.6-2.2-1.2-3.5-1.8
	c-1.3-0.7-2.7-1.3-4.2-1.9s-3-1.2-4.6-1.9c-1.6-0.7-3.3-1.2-5.1-1.8c-1.8-0.4-3.6-1.1-5.5-1.7c-3.7-1-7.8-1.9-12-2.5
	c-4.3-0.7-8.7-0.9-13.2-1s-9,0.2-13.7,0.8c-2.4,0.1-4.6,0.6-6.9,1c-2.2,0.4-4.6,0.9-6.9,1.6c-2.4,0.6-4.5,1.2-6.7,2
	c-1.1,0.3-2.2,0.7-3.3,1.1s-2.1,0.8-3.1,1.2l-3.1,1.3c-1,0.6-2,1-3,1.5c-2,0.9-3.9,1.9-5.8,2.9c-1.9,0.9-3.7,2-5.4,3
	c-1.7,1.1-3.4,2.1-4.9,3.1c-3,2.2-6,4-8.4,6c-0.6,0.3-1.2,0.9-1.8,1.3c-0.6,0.6-1.1,0.9-1.7,1.3c-1,0.9-2,1.7-2.9,2.4
	c-3.4,2.9-26.5,25.1-26.5,25.1S558.5,317.4,559.8,314.9z"/>
<path id="path36246_1_" d="M578.8,318.2c76.5,12.7,100.1,3.3,100.1,3.3c14.1,1.9,25.6,10.7,25.6,10.7c-5.4-10.9-19.5-12.8-19.5-12.8
	c3.6-0.7,9.9-4.5,9.9-4.5c15.5,2.6,19.9,11.7,19.9,11.7c-2-9.9-16.6-13.5-16.6-13.5c2-0.7,7.1-5.3,7.1-5.3
	c16.3,1.5,20.6,11.9,20.6,11.9c-1.1-11.1-17.5-14.5-17.5-14.5c1.5-1.6,3.1-3.9,4.8-6.9c1.1-2,1.8-3.4,1.6-3.3
	c-28.1,31.5-65.6,31.3-135,20.4c-6-0.9-16.6,3-20,3.6C572.7,316.7,579.1,318.2,578.8,318.2z"/>
<path id="circle36248_1_" class="st2" d="M642.2,269.1c17.5,0,31.7,11.9,31.7,26.7s-14.2,26.7-31.7,26.7s-31.7-11.9-31.7-26.7
	C610.4,281,624.6,269.1,642.2,269.1z"/>
<path id="path36250_1_" d="M670.5,286.7c4.6,12.3-1.1,26-14.8,31.9c-16.1,7.2-35.9,0.3-41.8-13.9c-4.9-12.1,1.3-26,14.8-31.9
	C645.1,265.5,664.1,272.5,670.5,286.7c0.4,0.9,3.7,1.2,3.3,0.3c-5.4-11.8-19.2-19.6-34.4-18.7c-14.1,0.8-26.3,9.2-29.7,20.7
	c-3.3,11.4,2.8,23.4,14.5,29.6c11.1,5.8,25.9,6.1,36.9-0.1c12.4-6.9,17.2-19.9,12.7-31.6C673.3,286.1,670.1,285.9,670.5,286.7z"/>
<path id="circle36252_1_" d="M641.7,284.9c7.6,0,13.9,5.3,13.9,11.7c0,6.5-6.3,11.7-13.9,11.7c-7.6,0-13.9-5.3-13.9-11.7
	C627.8,290,634,284.9,641.7,284.9z"/>
<path id="ellipse36254_1_" class="st3" d="M651.5,294c-1.2,0.8-3.5,0.2-5.2-1.5s-2-3.6-0.8-4.5c1.2-0.8,3.5-0.2,5.2,1.5
	C652.3,291.2,652.6,293.2,651.5,294z"/>
<path id="path36256_4_" d="M564.7,306.8c0.7-1,1.5-2.2,2.7-3.9c0.7-0.9,1.3-1.8,2-2.7c0.3-0.6,0.8-1,1.1-1.6c0.4-0.4,0.9-1,1.3-1.6
	c1-1,1.9-2.2,2.9-3.5c1.1-1.1,2.2-2.5,3.5-3.7c1.2-1.2,2.5-2.6,3.9-4c1.5-1.3,2.8-2.8,4.4-4.2s3.1-2.7,4.9-4c0.8-0.7,1.7-1.5,2.6-2
	c0.9-0.7,1.8-1.3,2.7-2c3.8-2.7,7.8-5.4,12.1-7.8c2-1.3,4.4-2.4,6.6-3.5c2.2-1,4.5-2.1,6.9-3c4.7-2,9.6-3.7,14.3-5.1
	c4.8-1.3,9.7-2.5,14.4-3.4c4.7-0.8,9.3-1.5,13.7-1.8c2.1-0.2,4.3-0.3,6.3-0.4c2-0.1,3.9-0.1,6-0.1c2,0,3.7-0.1,5.5,0
	s3.5,0.1,4.9,0.2c1.5,0.1,3,0.1,4.3,0.3c1.2,0.1,2.6,0.2,3.6,0.3c2.2,0.3,3.8,0.4,5.1,0.7c1.1,0.2,1.8,0.2,1.8,0.2s-0.7,0-1.8-0.1
	c-1.1,0-2.8-0.1-5.1-0.2c-1.1,0-2.2-0.1-3.7,0c-1.2-0.1-2.8-0.1-4.3,0c-1.6,0-3.1,0-4.9,0.1c-1.7,0.1-3.5,0.1-5.4,0.2
	c-1.9,0-3.8,0.2-5.8,0.4s-4.2,0.4-6.3,0.7c-4.3,0.6-8.7,1.2-13.3,2.2s-9.3,2.2-13.9,3.6c-4.6,1.3-9.3,3.1-13.8,5.1
	c-2.4,0.9-4.6,1.9-6.7,2.9s-4.4,2.1-6.5,3.3c-2.2,1.1-4.2,2.4-6.3,3.6c-1,0.6-2,1.2-3,1.8c-1,0.7-1.9,1.2-2.9,1.9l-2.8,1.9
	c-0.9,0.7-1.7,1.3-2.6,2c-1.8,1.2-3.5,2.6-5.1,3.9c-1.7,1.2-3,2.6-4.6,3.8c-1.3,1.2-2.8,2.6-4,3.7c-2.5,2.5-4.8,4.7-6.7,6.9
	c-0.4,0.4-1,1-1.5,1.5c-0.3,0.6-0.9,1-1.2,1.5c-0.8,1-1.6,1.8-2.1,2.6c-2.6,3.1-4,4.9-4,4.9S563.9,308,564.7,306.8z"/>
<path id="path36258_1_" d="M712.2,286c0,0-63.5-48.9-154.3,33.6c0,0,40.7-59.9,104.8-58.5c0,0,26.7-1.5,29.2-15.6
	c0,0-3.9,16.6-18.1,18.6c0,0,31.2,4.4,38.5-16.8c0,0-4.3,17.2-21.7,20.5c0,0,28.3,1.2,39.5-17.1c0,0-6.6,16.9-25.8,21.1
	c0,0,33.3-4.3,39.4-15.4c0,0-9.3,17.7-32.1,20.4c0,0,24,3.8,44.4-9.2C756.3,267.7,736.8,281.7,712.2,286"/>
</svg>
