<?xml version="1.0" encoding="utf-8"?>
<!-- Generator: Adobe Illustrator 21.1.0, SVG Export Plug-In . SVG Version: 6.00 Build 0)  -->
<svg version="1.1" id="Layer_1" xmlns="http://www.w3.org/2000/svg" xmlns:xlink="http://www.w3.org/1999/xlink" x="0px" y="0px"
	 viewBox="0 0 1000 1300" style="enable-background:new 0 0 1000 1300;" xml:space="preserve">
<style type="text/css">
	.st0{fill:#1F1210;}
	.st1{fill:#380B06;}
	.st2{fill:#FFFFFF;}
</style>
<path id="path36190_3_" d="M251.9,368.3"/>
<path id="path36190_1_" d="M257.6,311.5c0,0,28.9,34.4,40.1,40.1c0,0,29.4,12.3,121.2-8.1c-0.3,0,7.4-2.2,22.8,1.2
	c-4-1-16.9-7.3-24-5.9c-83.3,17.6-128.2,18-162-32.8C255.4,306.1,256.2,308.3,257.6,311.5"/>
<path id="circle36192" class="st0" d="M375.5,307.7c0,23.7-17,42.9-38.1,42.9s-38.1-19.2-38.1-42.9c0-23.7,17-42.9,38.1-42.9
	S375.5,284,375.5,307.7z"/>
<path id="path36194" d="M299.7,293.7c-5.4,18.8,0.4,39.7,15.3,50.8c13.2,9.9,30.9,9.5,44.3,0c14-9.9,21.3-29.3,17.4-47.7
	c-4-18.6-18.8-32.2-35.6-33.4C322.8,262.4,306,274.7,299.7,293.7c-0.4,1.4,3.4,0.8,3.9-0.6c7.7-22.9,30.5-34.2,50.2-22.5
	c16.2,9.5,23.8,32.2,17.8,51.4c-7.2,23.1-30.9,34-50.2,22.5c-16.6-9.9-23.3-31.8-17.8-51.4C303.9,291.7,300,292.3,299.7,293.7z"/>
<path id="circle36196" class="st1" d="M354.7,308.9c0,10.5-7.6,18.8-16.7,18.8s-16.7-8.5-16.7-18.8c0-10.3,7.6-18.8,16.7-18.8
	S354.7,298.6,354.7,308.9z"/>
<path id="ellipse36198" class="st2" d="M327.2,297.6c2-2.6,4.7-3.6,6.2-2.2s0.9,4.7-0.9,7.3c-2,2.6-4.7,3.6-6.2,2.2
	C324.8,303.4,325.3,300.2,327.2,297.6z"/>
<path id="path36202_2_" d="M247.6,300.4c14.4-12.3,31.6-33.6,42.5-37.2c75.6-24.5,151.7,70.2,151.7,70.2
	c-51.8-81.5-130.4-84.8-154.7-80.1"/>
<path id="path36202_4_" d="M246.1,237.1"/>
<path id="path36190_4_" d="M705.4,351.6"/>
<path id="path36190_2_" d="M703.4,306c1.3-3.2,2.2-5.5,1.9-5.3c-33.7,50.8-78.7,50.2-162,32.8c-7.2-1.6-20,4.9-24,5.9
	c15.4-3.4,23.1-1.2,22.8-1.2c91.8,20.4,121.2,8.1,121.2,8.1C674.5,340.6,703.4,306,703.4,306"/>
<path id="circle36192_1_" class="st0" d="M623.5,259.3c21.1,0,38.1,19.2,38.1,42.9s-17,42.9-38.1,42.9s-38.1-19.2-38.1-42.9
	S602.4,259.3,623.5,259.3z"/>
<path id="path36194_1_" d="M657.4,287.6c5.5,19.6-1.2,41.5-17.8,51.4c-19.3,11.5-43.1,0.8-50.2-22.5c-5.9-19.4,1.6-41.9,17.8-51.4
	C626.9,253.4,649.7,264.8,657.4,287.6c0.5,1.4,4.3,2,3.9,0.6c-6.3-19-23.1-31.4-41.3-30.3c-16.9,1.2-31.6,14.8-35.6,33.4
	c-3.9,18.2,3.4,37.8,17.4,47.7c13.4,9.5,31,9.9,44.3,0c14.8-10.9,20.6-31.8,15.3-50.8C661,286.8,657.1,286.2,657.4,287.6z"/>
<path id="circle36196_1_" class="st1" d="M623,284.6c9.2,0,16.7,8.5,16.7,18.8c0,10.3-7.6,18.8-16.7,18.8c-9.2,0-16.7-8.5-16.7-18.8
	C606.2,293.1,613.8,284.6,623,284.6z"/>
<path id="ellipse36198_1_" class="st2" d="M634.7,299.4c-1.5,1.4-4.2,0.4-6.2-2.2c-2-2.6-2.4-5.9-0.9-7.3c1.5-1.4,4.2-0.4,6.2,2.2
	C635.6,294.7,636.2,297.9,634.7,299.4z"/>
<path id="path36202_3_" d="M673.8,247.8c-24.3-4.5-102.8-1.2-154.7,80.1c0,0,76.1-94.5,151.7-70.2c10.9,3.4,28.1,24.9,42.5,37.2"/>
<path id="path36202_1_" d="M710.8,231.4"/>
</svg>
