<?xml version="1.0" encoding="utf-8"?>
<!-- Generator: Adobe Illustrator 21.1.0, SVG Export Plug-In . SVG Version: 6.00 Build 0)  -->
<svg version="1.1" id="Layer_1" xmlns="http://www.w3.org/2000/svg" xmlns:xlink="http://www.w3.org/1999/xlink" x="0px" y="0px"
	 viewBox="0 0 1000 1300" style="enable-background:new 0 0 1000 1300;" xml:space="preserve">
<style type="text/css">
	.st0{fill:#D3A199;stroke:#010101;stroke-width:0.147;}
	.st1{fill:#240500;stroke:#010101;stroke-width:0.147;}
	.st2{fill:#020202;stroke:#020202;stroke-width:0.147;}
	.st3{fill:#635761;stroke:#635761;stroke-width:0.147;}
	.st4{fill:#030303;stroke:#030303;stroke-width:0.147;}
	.st5{fill:#FFFFFF;stroke:#FFFFFF;stroke-width:0.147;}
	.st6{fill:#FDFDFD;stroke:#FDFDFD;stroke-width:0.147;}
	.st7{fill:#FCFCFC;stroke:#FCFCFC;stroke-width:0.147;}
	.st8{fill:#FEFEFE;stroke:#FEFEFE;stroke-width:0.147;}
	.st9{fill:#C19E37;stroke:#C19E37;stroke-width:0.147;}
	.st10{fill:#9D6F02;stroke:#9D6F02;stroke-width:0.147;}
	.st11{fill:#C8A43E;stroke:#C8A43E;stroke-width:0.147;}
	.st12{fill:#D8A101;stroke:#D8A101;stroke-width:0.147;}
	.st13{fill:#FEFAFD;stroke:#FEFAFD;stroke-width:0.147;}
	.st14{fill:#BCA17B;stroke:#BCA17B;stroke-width:0.147;}
	.st15{fill:#7A4C05;stroke:#7A4C05;stroke-width:0.147;}
	.st16{fill:#666666;stroke:#666666;stroke-width:0.147;}
	.st17{fill:#634245;stroke:#634245;stroke-width:0.147;}
	.st18{fill:#492527;stroke:#492527;stroke-width:0.147;}
	.st19{fill:#58416B;stroke:#58416B;stroke-width:0.147;}
	.st20{fill:#704A27;stroke:#704A27;stroke-width:0.147;}
	.st21{fill:#9F99AB;stroke:#9F99AB;stroke-width:0.147;}
	.st22{fill:#9F94AF;stroke:#9F94AF;stroke-width:0.147;}
	.st23{fill:#E1B637;stroke:#E1B637;stroke-width:0.147;}
	.st24{fill:#323B38;stroke:#323B38;stroke-width:0.147;}
	.st25{fill:#644349;stroke:#644349;stroke-width:0.147;}
	.st26{fill:#B49A6E;stroke:#B49A6E;stroke-width:0.147;}
	.st27{fill:#63444A;stroke:#63444A;stroke-width:0.147;}
	.st28{fill:#9D8170;stroke:#9D8170;stroke-width:0.147;}
	.st29{fill:#E9D0CC;stroke:#FDFDFD;stroke-width:0.147;}
	.st30{fill:#71472B;stroke:#71472B;stroke-width:0.147;}
	.st31{fill:#240500;stroke:#020202;stroke-width:0.147;}
	.st32{fill:#654340;stroke:#654340;stroke-width:0.147;}
	.st33{fill:#422033;stroke:#422033;stroke-width:0.147;}
	.st34{fill:#010101;stroke:#010101;stroke-width:0.147;}
	.st35{fill:#240500;stroke:#FDFDFD;stroke-width:0.147;}
	.st36{fill:#FBFDFC;stroke:#FBFDFC;stroke-width:0.147;}
	.st37{fill:#B0912D;stroke:#B0912D;stroke-width:0.147;}
	.st38{fill:#B69835;stroke:#B69835;stroke-width:0.147;}
	.st39{fill:#FDFAFD;stroke:#FDFAFD;stroke-width:0.147;}
	.st40{fill:#B4996B;stroke:#B4996B;stroke-width:0.147;}
	.st41{fill:#7C4C05;stroke:#7C4C05;stroke-width:0.147;}
	.st42{fill:#58585A;stroke:#58585A;stroke-width:0.147;}
	.st43{fill:#624343;stroke:#624343;stroke-width:0.147;}
	.st44{fill:#56416B;stroke:#56416B;stroke-width:0.147;}
	.st45{fill:#9D94AD;stroke:#9D94AD;stroke-width:0.147;}
	.st46{fill:#744A22;stroke:#744A22;stroke-width:0.147;}
	.st47{fill:#B29A71;stroke:#B29A71;stroke-width:0.147;}
	.st48{fill:#64444A;stroke:#64444A;stroke-width:0.147;}
	.st49{fill:#714828;stroke:#714828;stroke-width:0.147;}
	.st50{fill:#64453B;stroke:#64453B;stroke-width:0.147;}
	.st51{fill:#48222B;stroke:#48222B;stroke-width:0.147;}
	.st52{fill:#240500;stroke:#030303;stroke-width:0.147;}
	.st53{fill:#585858;stroke:#585858;stroke-width:0.147;}
	.st54{fill:#240500;stroke:#000000;stroke-width:0.147;}
	.st55{fill:#240500;stroke:#635761;stroke-width:0.147;}
	.st56{fill:#240500;stroke:#FFFFFF;stroke-width:0.147;}
	.st57{fill:#240500;stroke:#FEFEFE;stroke-width:0.147;}
	.st58{fill:#240500;stroke:#A3A3A3;stroke-width:0.147;}
	.st59{fill:#240500;stroke:#414141;stroke-width:0.147;}
</style>
<g>
	<g>
		<path class="st0" d="M301.8,270.6c16.2-7.3,34.1-10.4,51.4-6.6c15.7,3.5,29.9,12.9,42.6,23.8c14.3,12.1,27.2,26.4,38.2,42.5
			c5.2,7.5,9.8,15.5,14.5,23.4c-2.3-2.2-3.7-5.3-5.5-7.9c-13.6-20.6-29.8-39-48.1-54c-12.9-10.6-27.1-20-43-23.3
			c-16.5-3.5-33.6-0.3-49.2,6.5c-16.7,7.3-31.7,19-45.3,32.3c-9.8,9.5-18.9,19.8-28,30.1c-1.5,1.7-2.8,3.5-4.6,4.8
			c10-13.1,20.1-26.2,31.5-37.8C269.8,290.4,284.8,278.1,301.8,270.6z"/>
		<path class="st1" d="M350.3,277.8l0.2,0c1,9.5,4.2,18.8,9.9,25.8c1.4,1.6,2.6,3.7,4.5,4.4c-3.8-4.6-7-9.9-8.9-15.9
			c-1.5-4.2-2-8.8-2.5-13.3c0.4,1.6,0.7,3.2,0.9,4.9c1.7,10.9,7.4,20.9,15.5,26.9c-1-1.6-2.3-3-3.3-4.6c-2.9-4.5-5.2-9.6-6.1-15.1
			c2.1,7.3,5.3,14.4,10.6,19.3c-2.5-5.5-5-11.5-4.8-17.9c0.7,7.2,3.3,14.2,7.4,19.8c0.6,0.9,1.5,1.4,2.3,2.1
			c-0.5-2.9-1.5-5.7-1.9-8.7c-0.6-4.7-0.5-9.6,0.9-14.2c-1.5,8.4-0.7,17.9,3.8,25c-0.8-6.3-0.7-13.1,1.6-19.1
			c-0.7,3.5-1.5,7.1-1.4,10.7c-0.1,3.2,0.4,6.4,1.2,9.5c0.1,0.6,0.5,1,0.9,1.4c-1.4-2.9-1.5-6.3-0.7-9.5c-0.2-2-0.5-3.9-0.5-5.9
			c0.2,1.7,0.4,3.5,0.7,5.2c1-1.8,2-3.7,3.5-5c0.2,0.1,0.5,0.3,0.7,0.4c-1.6,0.6-2.5,2.5-3.2,4c-0.6,1.1-0.5,2.4-0.5,3.6
			c-1.2,2.3,0.2,5.5,1.9,6.9c-0.6-2.1-1.9-4-1.7-6.3c0.1,0,0.2,0.1,0.3,0.2c0.6,2.3,1.6,4.5,2.7,6.5c0.3,0,1-0.1,1.3-0.1
			c-0.4-3.5-0.7-7.4,1.2-10.4c0.9-1.7,2.5-2.8,4.2-3.2c-1.2,0.9-2.7,1.4-3.4,2.9c0,3.5-0.1,7.1,0.7,10.6c0.2,0.1,0.6,0.4,0.8,0.5
			c-0.4,1.5,0.2,2.8,0.8,4c0.2-0.3,0.6-1,0.8-1.3c0,0.8,0,1.5-0.1,2.3c0.9,1.1,1.9,2.3,3,3.2c-1.2-3-1.6-6.3-1.4-9.7
			c1.6,4,1.4,9.2,4.5,12.4c1.4,0.4,2.3,2.1,3.8,2c1.9-0.1,4.3-0.4,5.6-2.2l-0.1-0.3c-1.5,0.9-3.2,1.6-4.9,0.9
			c-1.8-0.6-3.1-2.5-3.8-4.4c-0.6-1.5-0.3-3.3-1-4.7c0.3-0.3,0.7-0.7,1-1c0.5,2.3,0.8,4.8,1.7,7c1,2.1,3.2,3.2,5.2,2.3
			c2.6-0.8,4.2-3.5,5.8-5.7c0.2,0.2,0.6,0.5,0.8,0.6c-0.2,0.1-0.7,0.2-0.9,0.2c-1,1.3-1.9,2.7-3,4c0,0.1-0.1,0.4-0.1,0.5
			c1.2,0,2-1.5,2.9-2.3c0.4,0.4,0.9,0.9,1.3,1.4c-0.5-0.3-0.9-0.5-1.3-0.8c-1.9,2.1-4,3.9-6.5,4.9c0.7,0.3,1.4,0.8,2.2,1
			c5-0.1,9.7-2.4,14-5c0.3,0.4,0.6,0.9,0.9,1.3c-0.5-0.3-1-1.1-1.6-0.5c-3.5,2.6-7.6,4.1-11.7,5.1c1.9,0.9,3.7,2,5.7,2.6
			c0.6,0.2,1,0.9,1.7,0.9c5.6,0.7,11.6,0.5,16.5,4c2.5,1.9,5.1,5,4.6,8.7c-0.5,2.8-3.1,4-5.4,4.3c-8.8,1.3-17.7,2.3-26.5,3.4
			c-14.6,3.3-27.1,13.3-41.1,18.6c-0.4,2.6-0.6,5.5,0.2,8c1.6,1.9,3.5,3.7,4.2,6.3c-1.2-0.7-1.7-2.6-2.9-3.4
			c0.7,1.7,1.8,3.2,2.8,4.7c0.1-0.4,0.8-1.5,0.8-0.4c0.5,2.4,1.8,4.8,1.2,7.3c-0.2-1.6-0.3-3.4-1.2-4.8c-1.7-2.9-3.8-5.4-5.4-8.4
			c-1.5-1.9-4-2.3-5.6-3.9c1.6,0,3.2,0.4,4.6,1.3c-0.6-2.2-0.2-4.5,0.6-6.5c-10.8,4.3-22.1,6.5-33.5,6.8c0.3,0.3,1,1,1.4,1.3
			c-1-0.1-2-0.5-3,0c-1.4,0.6-2.2,2.2-3,3.6c-3.7,7.4-4.8,16.1-4,24.5c0.1,0.9,0.3,1.7,0.5,2.6c0.8-7.1,1.8-14.5,4.9-20.9
			c1.6-3.4,3.9-6.5,6.9-8.2c-0.2,0.4-0.5,1.2-0.6,1.5c1.2-1.6,2.9-2.7,4.8-2.6c-1.3,1-2.8,1.6-3.7,3.1c-4.3,5.9-6.8,13.2-8.5,20.6
			c-0.6,2.2-0.8,4.5-1.5,6.7c1-9.7,4-19.2,8.4-27.6c-1.6,1.5-2.6,3.7-4,5.5c-4.7,7.3-5.7,16.6-6.6,25.4c-0.2-2.3-0.5-4.6-1-6.9
			c-0.8-7,0-14.3,2.1-20.9c0.7-2,1.3-4.2,2.6-5.7c0.8-1,1.9-1.4,2.9-2c-22,0.4-43.9-7.4-62.2-21.5c-0.5,0.1-0.9,0.3-1.3,0.6
			c-6.3,3.7-13.5,5.8-20.6,5.4c-7.4-0.3-14.6-2.8-20.9-7.4c-0.7-0.5-1.4-1.1-2-1.8c0.8,0.4,1.5,1,2.3,1.5c11,7.9,25.4,9.3,37.3,3.2
			c5.8-3,11-7.5,15.3-12.9c-10.5,7.6-23.8,10.1-35.7,6c-2.3-0.8-4.6-1.6-6.6-3c5.4,2.4,11,4.3,16.8,4.3c10.3,0.6,20.4-4.2,28.3-11.5
			c-1.5,0.3-2.9,0.9-4.3,1.6c-7.3,3.5-15.2,5.1-23.1,5c-3.4-0.3-6.9-0.5-10.2-1.7c1.6,0.1,3.2,0.6,4.7,0.8
			c8.8,1.1,17.8-0.2,25.9-4.3c-7.2,0.6-14.5-0.7-21.1-4.2c-2.1-1.2-4.2-2.3-5.9-4c1.5,0.8,2.7,1.8,4.2,2.6c8.1,4.7,17.6,6,26.4,3.8
			c-3.2-0.1-6.4,0.2-9.6-0.3c-8.6-1-16.9-4.5-24-10.1c-0.6-0.5-1.2-1-1.7-1.6c5.4,4.1,11.2,7.6,17.5,9.4c5.4,1.5,11.1,2.3,16.7,1.5
			c-1.3-0.4-2.7-0.4-4.1-0.7c-7.6-1.5-14.7-5.8-20.2-12.1c-1.6-2-3.3-4-4.4-6.5c1.3,1.6,2.3,3.8,4,5c7,4.7,14.9,7.7,23,8.2
			c2.6,0.1,5.2,0.3,7.8-0.4c-4,0-8-0.3-11.8-1.7c-2.8-1-5.8-1.3-8.5-2.6c-2.1-0.9-4.2-1.7-6-3.2c2.8,1.3,5.5,2.9,8.5,3.5
			c-1.2-1.5-3.4-1.7-4.3-3.4c0.1,0,0.3,0.1,0.4,0.1c2.9,1.9,5.8,3.8,9.1,4.6c5.1,0.7,10.2-0.1,15.2-1.4c0.9-0.3,2.4-0.2,2.3-1.7
			c-9,3.5-18.8,1.2-27.4-2.5c0,0.2,0,0.6-0.1,0.8c-1.1-0.7-1.9-1.7-3-2.3c-2.3-1.2-4.6-2.4-6.6-4c1.8,0.7,3.3,2.1,5.2,2.7
			c-0.5-0.9-1.2-1.6-1.7-2.5c1.6,1.4,2.9,3.5,4.9,4.3c6.7,2.8,13.8,4.8,20.9,4.4c3.3-0.4,6.6-1.3,9.4-3.3
			c-5.2,1.5-10.3-0.6-15.3-2.1c-4.3-1.5-8.7-3.1-12.7-5.5c7.1,2.8,14.1,5.8,21.6,6.9c3.6,0.5,7.8-0.6,10-4.3
			c-6.4,1.9-13.2,2.2-19.5,0c-4-1.5-8-3.5-11.1-6.8c3.1,2.1,6.1,4.4,9.6,5.6c8,3.1,17.2,2.4,24.6-2.2c-8.4,0.8-17,0-24.9-3.3
			c-3.2-1.4-6.5-2.8-9.3-5.2c3.9,2.2,7.9,4.4,12.2,5.7c7.7,2.4,15.9,3,23.7,0.9c1.6-0.4,3.2-1.1,4.5-2.2c-7.5,1.7-15.9,0.6-22.1-4.8
			c1,0.4,1.9,1,2.8,1.6c7.2,4.1,15.9,4.1,23.2,0.1c-1.5-0.3-3,0.3-4.5,0.3c-6.9-0.3-13.8-3.3-18.8-9c-1-1.1-1.9-2.3-2.6-3.7
			c2.5,3.3,5.4,6.3,8.8,8.2c4.1,2.3,8.7,3.4,13.2,3c-4.1-2.5-7.2-6.3-10.7-9.8c-1.4-1.6-3.1-2.9-4.3-4.7c4.8,3.8,8.6,9.1,13.8,12.5
			c3.4,2.2,7.8,2.8,11.3,0.7c-6.6-0.5-12.2-5.1-16.5-10.5c-1.8-2.3-3.5-4.6-5-7.1c2.2,2.4,3.9,5.3,6.2,7.7c3.9,4.6,9,8.1,14.7,8.5
			c-1.9-1-3.8-2.3-5.4-3.8c-3.4-2-6.6-4.4-9-7.9c2.5,2.4,4.9,5,7.9,6.6c-0.9-1.7-1.9-3.4-2.3-5.4c1.2,2.2,2.1,4.8,4.1,6.3
			c3.3,1.7,6.9,2.5,10.5,2.6c-1.9-2.1-3.3-4.7-5-6.9c-5.3-4.3-11.3-7.3-17.7-8.4c5.7,0.1,10.9,3,15.9,5.9c-2.7-3.8-5.5-8.4-10-9.1
			c2.8-0.2,5.2,1.8,7,4c1.9,2.1,3.5,4.6,5.5,6.6c3,2.2,6.2,4.1,8.9,6.8c0.9,1,2.2,0.3,3.3,0.3c-1.3-0.9-2.9-1.2-4.1-2.3
			c-4-3.3-7.4-7.6-9.9-12.6c-0.7-1.4-1.4-2.8-1.7-4.4c1.9,4.2,4.2,8.3,7.3,11.5c2.1,2.3,4.6,4.1,7.1,5.8c1.1-0.4,1.6-1.7,2.4-2.7
			c-3.8-2.3-7.4-5.4-9.4-9.8c1,1.2,1.8,2.6,2.9,3.7c1.9,2.3,4.3,3.9,6.8,5.2c0.2-0.5,0.3-1,0.5-1.5c-1.3-2.1-2.6-4.1-4.3-5.7
			c-4.3-4.2-8.3-9-13.3-12.4c0.5,0.1,1.1,0.1,1.6,0.5c3.7,3.1,7.7,5.8,11,9.5c1.8,1.9,3.3,4.2,5.5,5.7c-0.3-4.8-3.2-8.8-6.7-11.1
			c-1.8-1.4-3.9-2.2-5.7-3.6c4.6,2,9.4,4.7,11.9,9.8c1,1.8,1.2,3.9,1.5,6c2.4,2.3,5.2,4.4,8.4,4.8c-6.4-4.5-10.3-12-13.4-19.6
			c3,5.4,5.5,11.3,9.9,15.4c3.3,3.4,7.7,5,12.1,5.2c-8.2-3.8-14.7-12.5-15.9-22.7c1,4,2.3,8,4.4,11.4l0.7,0.4
			c-1-2.3-2.2-4.6-2.3-7.3c0.9,4,2.9,7.7,5.8,10.1c2.5,2.2,5.5,3.6,8.5,4.5c-1.2-1.3-2.8-2.2-3.7-3.8c-0.4-1.6-1.5-2.9-2.2-4.3
			c-2.2-4-3.3-8.8-3.7-13.5c0.8,2.8,1,5.8,2.1,8.5c1.7,5,5.2,8.8,8.8,12.1c0,0.4-0.1,0.7-0.1,1.1c3.2,1.9,6.6,3.3,10.1,4.2
			c-0.7-0.8-1.4-1.7-2.3-2.1c-2.6-1.1-4.7-3.3-6.4-5.8c-3.9-5.6-7.2-12.2-8.2-19.4c1.7,7.4,5,14.4,9.9,19.7c1.4,1.4,2.7,3.1,4.1,4.4
			c-1.4-2.9-3.6-5.1-5.2-7.9c-2.9-4.8-4.8-10.2-6.7-15.5c1.1,1.6,1.6,3.7,2.4,5.5c1.7,3.8,3.3,7.9,5.8,11c-0.6-2.1-1.5-4.1-2-6.2
			c1.1,2.2,1.8,4.6,2.8,6.9c0.6,1.5,1.7,2.4,2.6,3.6c0.1-0.2,0.2-0.5,0.3-0.7l0.3,0.2c1.3,2.5,3.8,3.5,6,4.6c-1.3-1.6-3-2.9-4.1-4.8
			c0.1,0,0.4,0,0.5,0c1.6,1.5,3.1,3.3,4.9,4.6c-3.5-5.3-6.5-11.3-7.9-17.9C351,283.9,350.8,280.8,350.3,277.8 M331.4,295.3
			c-0.3,0.5,0.4,1.4,0.9,1.1C332.6,295.8,331.8,295,331.4,295.3 M332.2,296.3c0.1,0.2,0.2,0.7,0.3,0.9c1.6,2,3.5,3.7,5.5,5.1
			c3.6,2.5,7.8,3.4,11.9,4.1c-1.3-0.8-2.6-1.6-4.1-1.8c-3.1-0.5-5.9-2.3-8.6-4C335.4,299.6,334,297.7,332.2,296.3 M325.1,301.6
			c0.2,0.7,0.2,1.6,0.7,2.2c0.7,0.3,1.5,0.4,2.3,0.5C327.2,303.5,326.1,302.6,325.1,301.6 M312.3,304.7c1.1,1.4,2.2,2.8,3.2,4.3
			c0.9,0.3,1.9,0,2.9,0C316.2,307.6,314.2,306.3,312.3,304.7 M321.3,307.1c0.5,0.3,0.9,0.6,1.4,0.7c1.2-0.7,1.9-2.2,1.7-3.7
			C323.4,305.2,322.4,306.2,321.3,307.1 M325.7,305.1c-0.4,1.1-0.9,2.1-1.6,2.9c4-0.8,8.1-1.3,12.2-1.7c-0.9-1-2.1-0.5-3.2-0.5
			C330.6,305.6,328.1,306.3,325.7,305.1 M352.5,302.9c0.7,1.2,1.6,2.1,2.7,2.8C354.5,304.5,353.7,303.4,352.5,302.9 M306.3,308.7
			c1.7,1.3,3.8,1.5,5.7,1.6C310.1,309.7,308.2,309.1,306.3,308.7 M356.7,305.7c1.8,1.8,4.1,3,6.5,3c-0.8-0.7-1.7-1.4-2.6-1.9
			C359.3,306.4,357.9,306,356.7,305.7 M317,310.5c-1.9,0.5-3.7,1-5.6,1.3c-1.8,0.1-2.9,2.1-4.6,2.6c-2.4,0.6-4.5,2.1-6.8,3.1v0.3
			c-1.5,1.1-0.9,3.4-1.5,5.1c-0.7,2.5-0.1,5.1,0,7.5c0.3-4.1,0.6-8.3,1.5-12.3c0,1.5,0.1,2.9-0.1,4.4c-0.1,2.7-0.1,5.5,0.1,8.3
			c0.2,5.1,1.6,9.9,2.6,14.8l0.1-0.2c0.1,0.2,0.2,0.6,0.2,0.8c0.1,0.2,0.3,0.5,0.4,0.7c3.8,11.6,12.7,20.8,23.1,24.1
			c4.6,1.5,9.4,1.3,14,0.9c7.7-1,15.8-2.6,22.3-7.8c5.5-4.1,8.9-11,11.3-17.8c1.5-4.2,3.1-8.4,3.5-12.9c1-4.1,0.8-8.6-0.2-12.7
			c0.3,0.5,0.7,1,1.1,1.5c-0.2-0.9,0-2.1-0.8-2.6c0.4-0.7-0.1-1.8-0.7-1.9l0.1-0.3c-0.8-0.6-1.5-1.4-2.4-1.8c-0.7-0.9-1.5-1.5-2.4-2
			c-2-0.9-3.7-2.3-5.5-3.6c-0.2,0.2-0.5,0.3-0.7,0.5c-0.6-0.4-1.3-0.8-2-1c-1.3-0.1-2.6,0.5-3.9,0c-1.6-0.5-3.1-1.4-4.7-1.6
			c-1-0.1-1.9-0.2-2.9-0.3c0.7,0.7,1.3,1.4,2.1,2.1c0.6,1.1,1.2,2.5,2.4,2.9c2,3.1,3.3,6.8,4.3,10.4c0.1,2.3,0.3,4.6,0.6,6.9
			c-0.2,1.5-0.4,3-0.7,4.5c-2.3,11.4-11.9,19.9-21.9,20.4c-8.5,0.6-17-4.6-21.4-13c-3-5.6-4.2-12.4-3.3-18.9
			c0.4-2.7,1.3-5.3,2.2-7.9c0.8-0.5,1-1.7,1.5-2.5c0.5-0.9,1.1-1.8,1.6-2.7C318.9,310.2,317.9,310.4,317,310.5 M336.2,313.5
			c-2.6,1.4-4.1,4.8-4,8c0.2,2.1,1.2,4,2.7,5.3c-2.5,0.9-5.3,0.4-7.6,1.7c-1.5,0.8-1.2,2.9-1.1,4.5c0.2,3.1-0.6,6.2,0.1,9.3
			c0.2,1.1,1.5,1,2.3,1.2c4,0.3,8,0.1,11.9-0.5c1.2-0.1,1.9-1.2,2.5-2.2c1.3-2.4,2.4-4.9,3.4-7.5c1.9,0.6,4,0.3,5.5-1.3
			c2.5-2.8,3.2-7.6,1.5-11.2c-1.3-3.2-4.9-4.9-7.8-3.3C344,313.5,339.5,311.4,336.2,313.5 M386.9,320.7c0.2,0,0.7,0,0.9,0
			c-0.9-4-0.6-8.1-0.5-12.3C385.1,312,385.9,316.8,386.9,320.7 M295,322.3c-0.9,0.7-1.9,1.1-2.4,2.3c-1,2.2-2.5,4.1-4.2,5.6
			c0.5,5.4-2.1,11-6.3,13.5c-1.6,1.8-3,3.8-4.7,5.4c-2,3.3-4.2,6.3-6.8,9c16.4,12.3,36.1,18.7,55.6,18c-11.6-4.1-21.7-14-26.3-27.1
			c-3.3-9.3-3.8-19.8-1.8-29.6C297.1,320.5,296.1,321.5,295,322.3 M293.3,321.6C293.6,323.2,294.6,320.7,293.3,321.6 M290.3,325
			c-0.5,1.3-1.2,2.5-1.9,3.7c1.4-1.3,2.6-2.7,3.7-4.4C291.4,324.5,290.8,324.7,290.3,325 M378.1,317.9c3.1,8.8,2.1,18.5-0.1,27.4
			c-1.8,8.3-6,15.8-11.7,21.2c12.2-4.3,24.6-8.6,37.3-9.8c4.1-4.6,8.2-10.3,8.4-17.2c-2.4-1.3-4.7-2.9-6.9-4.5
			c-1.3-0.4-2.7,0.1-4.1-0.3c-1.6-0.3-2.6-1.9-4-2.8c-1.1-0.7-1.9-1.8-2.7-2.8c-1.8-0.8-3.7-1.9-4.7-4c-0.8-0.1-1.6,0-2.3-0.5
			c-0.5-0.6-0.8-1.4-1.3-2.1c-0.9-0.6-1.6-1.5-2.3-2.4c-1.3-0.7-2.4,0.7-3.4,1.4C379.8,320.2,379.2,318.7,378.1,317.9 M249.7,332.3
			C249.9,332.5,249.9,332.5,249.7,332.3 M250.6,333c0,0.2,0.1,0.4,0.1,0.6c6.9,7,16.2,11.2,25.4,10.6c3.4-0.2,6.6-2.6,7.9-6.2
			c-1.7,1.3-3.5,2.3-5.6,2.4c-9.4,0.4-19-2.1-27.2-7.5C250.9,332.9,250.7,333,250.6,333 M385.1,319.4c-0.5,0.6,0.3,1.6,0.9,1.1
			C386.5,319.9,385.6,318.9,385.1,319.4 M286.1,334.8c-1,1.4-1.3,3.1-1.6,4.9c1.9-2.4,3.2-5.6,3.2-8.9
			C286.1,331.2,287.2,333.6,286.1,334.8 M284.6,332.6c0.2,0.3,0.4,0.7,0.7,1c0.8-0.1,0.7-1.3,1.1-2
			C285.8,332,285.2,332.3,284.6,332.6 M387.5,321.7c0,1.2,0.8,1.9,1.6,2.4C388.6,323.3,388.7,321.5,387.5,321.7 M270.8,337.1
			c3.5,0.8,7.2,0.9,10.8,0c1.1-0.4,2.6-0.8,3.1-2.2C280.2,337.1,275.4,337.2,270.8,337.1 M401.5,333c-0.1,0.8,1.2,0.9,1.6,0.6
			C403.2,332.8,401.9,332.5,401.5,333 M413.3,338.8c0.1,2.5,0,5-0.7,7.4c-1.3,4.7-4.4,8.3-7.6,11.3c7.6-1.8,15.3-3,23.1-4.3
			c1.6-0.2,3.3-0.3,4.7-1.4c0.9-0.7,1.2-2.2,0.7-3.3c-1.3-3.4-4.2-5.5-7.1-6.7C422.1,340.1,417.7,339.7,413.3,338.8 M265.3,362.2
			c24.4,17.5,54.6,24,82.9,17.4c9.2-2.1,18.1-5.6,26.6-10c7.7-3.9,15.4-8.1,23.6-10.6c-12.6,2.2-24.7,7.2-36.8,11.5
			c-8.3,5.3-17.8,8.3-27.3,7.4c-3.8-0.1-7.5,0.6-11.3,0.3c-18.7-0.4-37.4-7.2-52.7-19.7C268.6,359.8,267,361.1,265.3,362.2z"/>
		<path class="st2" d="M337.6,286.5c1.6,2.8,2.8,5.8,4.6,8.5c1.6,2.7,3.9,4.7,5,7.7c-1.5-0.7-2.7-2.1-3.6-3.7
			C341.3,295.1,339.1,291,337.6,286.5z"/>
		<path class="st3" d="M282.9,297.8c0.6-0.2,0.8,0,0.7,0.7C283,298.8,282.8,298.5,282.9,297.8z"/>
		<path class="st4" d="M335.5,293.2c1.3,1.6,2.7,3.2,3.7,5C337.6,297,336.5,295.1,335.5,293.2z"/>
		<path class="st4" d="M349.7,292.1c1.2,2.6,2.7,4.8,4.3,7c0,0.1,0.1,0.4,0.1,0.5c-1.6-0.9-2.1-3.5-3.6-4.8c0.4,1.9,1.2,3.6,1.9,5.4
			l-0.3-0.2C350.3,298.1,350.3,294.8,349.7,292.1z"/>
		<path class="st5" d="M331.4,295.3c0.5-0.3,1.2,0.5,0.9,1.1C331.8,296.7,331.1,295.8,331.4,295.3z"/>
		<path class="st6" d="M332.2,296.3c1.7,1.4,3.1,3.2,5,4.3c2.7,1.7,5.5,3.4,8.6,4c1.5,0.3,2.8,1.1,4.1,1.8
			c-4.1-0.7-8.3-1.7-11.9-4.1c-2-1.4-3.9-3.1-5.5-5.1C332.4,297,332.3,296.6,332.2,296.3z"/>
		<path class="st7" d="M325.1,301.6c1,0.9,2,1.8,3,2.7c-0.8-0.2-1.6-0.3-2.3-0.5C325.4,303.3,325.4,302.4,325.1,301.6z"/>
		<path class="st6" d="M312.3,304.7c1.9,1.6,4,2.9,6.1,4.3c-1,0-1.9,0.3-2.9,0C314.4,307.5,313.4,306.1,312.3,304.7z"/>
		<path class="st6" d="M321.3,307.1c1.1-1,2.1-2,3.1-3c0.2,1.5-0.5,3.1-1.7,3.7C322.3,307.7,321.8,307.4,321.3,307.1z"/>
		<path class="st8" d="M325.7,305.1c2.3,1.2,4.9,0.6,7.3,0.8c1.1,0,2.3-0.5,3.2,0.5c-4.1,0.4-8.2,0.9-12.2,1.7
			C324.8,307.1,325.3,306.1,325.7,305.1z"/>
		<path class="st7" d="M352.5,302.9c1.1,0.6,2,1.6,2.7,2.8C354.1,305,353.2,304,352.5,302.9z"/>
		<path class="st7" d="M306.3,308.7c1.9,0.5,3.8,1,5.7,1.6C310.1,310.1,308,309.9,306.3,308.7z"/>
		<path class="st6" d="M356.7,305.7c1.3,0.4,2.6,0.7,4,1.1c0.9,0.5,1.8,1.2,2.6,1.9C360.7,308.6,358.5,307.4,356.7,305.7z"/>
		<path class="st9" d="M317,310.5c0.9-0.1,1.8-0.3,2.8-0.5c-0.5,0.9-1.1,1.8-1.6,2.7C317.7,311.9,317.4,311.2,317,310.5z"/>
		<path class="st10" d="M311.4,311.8c1.9-0.3,3.8-0.9,5.6-1.3c0.4,0.7,0.7,1.5,1.1,2.2c-0.5,0.8-0.7,2-1.5,2.5
			c-3.4,0.6-6.4,2.5-9.5,4.1c0.1,5.4-0.1,10.8,0.7,16.1c0.7,5.1,2.5,10.2,5.6,14c3.7,4.7,8.8,7.6,13.9,9.8c3,0.9,6.1,1.6,9.2,1.5
			c8.5-0.9,16.9-3.6,24.1-8.8c4.2-3,6.7-8.2,7.7-13.6c1-5.3,1.9-10.8,1.2-16.3c-0.2-2-0.4-3.9-0.5-5.8c0-0.2,0-0.5-0.1-0.7
			c-2.3-1.3-4.7-2.1-7.2-2.9c-1.2-0.5-2.5-0.4-3.8-0.1c-0.4,0-0.9,0.1-1.3,0.1c-1.2-0.4-1.7-1.8-2.4-2.9c0.3-0.6,0.6-1.2,0.9-1.7
			c1.7,0.2,3.2,1,4.7,1.6c1.3,0.4,2.6-0.1,3.9,0c0.7,0.2,1.3,0.6,2,1c0.2-0.2,0.5-0.4,0.7-0.5c1.8,1.3,3.6,2.7,5.5,3.6
			c0.9,0.4,1.8,1.1,2.4,2c-0.2,0-0.5,0.1-0.7,0.1c-0.8,0.1-1.6,0.3-2.5,0.4c0.3,0.6,0.6,1.2,1,1.8c3,7,0.7,14.9,0.1,22.3
			c-1.1,3.3-2,6.7-3.6,9.7c-1.6,2.3-3.4,4.5-5.6,6c-1.5,1-3,2-4.5,3c0.3,0.8,0.7,1.5,0.9,2.3c-0.1,0.9-0.5,1.6-0.7,2.4
			c-8,2.9-16.3,5.1-24.7,4.8c-1.9-0.4-3.8-0.7-5.8-1c-2.6-1.2-5.4-1.5-8.2-2.3c-1.5-0.4-2-2.3-3.1-3.3c-1.2-1-2.7-1.7-3.7-3.1
			c-2.4-3-4.1-6.5-5.9-10c-1.1-2-1.9-4.2-2.6-6.4c-0.5,0.8-1,1.5-1.6,2.2c-0.2,0.2-0.5,0.7-0.6,0.9l-0.1,0.2
			c-1-4.9-2.4-9.8-2.6-14.8c0.4,0.1,0.9,0.2,1.3,0.3c1,3.1,1.8,6.2,2.8,9.3c-0.2-3.5-1.2-6.9-1.4-10.4c-0.2-2.4,0-4.8,0.1-7.1
			c-0.6-0.1-1.1-0.1-1.7-0.2c-0.4,0-0.8-0.1-1.2-0.1c0.1-1.5,0.1-2.9,0.1-4.4v-0.3v-0.3c2.3-1,4.4-2.5,6.8-3.1
			C308.5,314,309.6,311.9,311.4,311.8z"/>
		<path class="st11" d="M352.4,307.7c1,0.1,1.9,0.3,2.9,0.3c-0.3,0.6-0.6,1.1-0.9,1.7C353.8,309.1,353.1,308.4,352.4,307.7z"/>
		<path class="st12" d="M307.1,319.3c3.1-1.6,6.1-3.5,9.5-4.1c-0.9,2.6-1.8,5.1-2.2,7.9c-0.9,6.5,0.2,13.3,3.3,18.9
			c4.4,8.4,13,13.5,21.4,13c10-0.5,19.6-9,21.9-20.4c0.3-1.5,0.4-3,0.7-4.5c0.1,0.2,0.3,0.6,0.5,0.8c0.1-2.9-0.2-5.7-0.7-8.6
			c-0.1,0.2-0.2,0.6-0.3,0.9c-1-3.7-2.3-7.3-4.3-10.4c0.4,0,0.9-0.1,1.3-0.1c3.7,1.2,7.4,2.1,11,3.7c0.1,2,0.3,3.9,0.5,5.8
			c0.7,5.5-0.3,10.9-1.2,16.3c-1,5.4-3.5,10.6-7.7,13.6c-7.2,5.2-15.7,7.9-24.1,8.8c-3.1,0.2-6.2-0.5-9.2-1.5
			c-5.1-2.2-10.2-5.1-13.9-9.8c-3.1-3.9-4.9-8.9-5.6-14C307.1,330.1,307.3,324.7,307.1,319.3z"/>
		<path class="st13" d="M336.2,313.5c3.3-2,7.8,0,9.2,4c2.8-1.6,6.4,0.1,7.8,3.3c1.6,3.6,1,8.4-1.5,11.2c-1.4,1.6-3.6,1.9-5.5,1.3
			c-1.8-0.8-3.2-2.4-4.1-4.4c-2.5,0.1-5.2-0.2-7.2-2c-1.4-1.3-2.4-3.2-2.7-5.3C332,318.2,333.5,314.8,336.2,313.5z"/>
		<path class="st14" d="M298.5,322.9c0.6-1.7-0.1-4,1.5-5.1v0.3c-0.9,4-1.1,8.2-1.5,12.3C298.3,328,297.8,325.4,298.5,322.9z"/>
		<path class="st6" d="M386.9,320.7c-1-3.9-1.9-8.7,0.4-12.3c-0.1,4.1-0.4,8.2,0.5,12.3C387.6,320.7,387.2,320.7,386.9,320.7z"/>
		<path class="st15" d="M358.1,312.5c1.2-0.3,2.6-0.3,3.8,0.1c2.4,0.8,4.9,1.6,7.2,2.9c0,0.2,0.1,0.5,0.1,0.7
			C365.5,314.6,361.8,313.7,358.1,312.5z"/>
		<path class="st5" d="M295,322.3c1.1-0.8,2.1-1.8,3.1-2.8c-2,9.8-1.5,20.2,1.8,29.6c4.6,13,14.7,23,26.3,27.1
			c-19.5,0.7-39.2-5.7-55.6-18c2.6-2.6,4.8-5.7,6.8-9c1.7-1.7,3.2-3.6,4.7-5.4c4.2-2.5,6.8-8.1,6.3-13.5c1.7-1.5,3.2-3.4,4.2-5.6
			C293,323.4,294.1,322.9,295,322.3z"/>
		<path class="st16" d="M293.3,321.6C294.6,320.7,293.6,323.2,293.3,321.6z"/>
		<path class="st14" d="M299.9,322.5c0.4,0,0.8,0.1,1.2,0.1c-0.2,2.8-0.2,5.7,0.2,8.5c-0.4-0.1-0.9-0.2-1.3-0.3
			C299.8,328,299.7,325.3,299.9,322.5z"/>
		<path class="st17" d="M301.1,322.7c0.5,0.1,1.1,0.1,1.7,0.2c-0.1,2.4-0.2,4.8-0.1,7.1c0.2,3.5,1.2,6.9,1.4,10.4
			c-1-3.1-1.8-6.2-2.8-9.3C300.9,328.3,300.9,325.5,301.1,322.7z"/>
		<path class="st8" d="M290.3,325c0.6-0.2,1.1-0.5,1.7-0.7c-1.1,1.6-2.3,3.1-3.7,4.4C289,327.5,289.8,326.3,290.3,325z"/>
		<path class="st18" d="M371.5,316.1c0.8-0.1,1.6-0.3,2.5-0.4c0.1,0.2,0.4,0.5,0.5,0.7c-0.4,0.4-0.8,0.9-1.2,1.3
			c-0.2,0-0.6,0.1-0.8,0.2C372.1,317.3,371.8,316.7,371.5,316.1z"/>
		<path class="st19" d="M373.9,315.7c0.2,0,0.5-0.1,0.7-0.1c0.9,0.4,1.6,1.2,2.4,1.8l-0.1,0.3c-0.4,0.8,0.2,1.5,0.7,1.9
			c0.8,0.6,0.6,1.7,0.8,2.6c-0.4-0.5-0.7-1-1.1-1.5c-0.4-0.8-0.9-1.6-1.4-2.4c-0.2,4.5,1.2,8.9,0.4,13.4c0,0.2-0.1,0.7-0.1,0.9
			c-0.7-0.5-1.3-1-1.9-1.6c0-2.6,0.4-5.2,0.1-7.7c-0.2-1.9-0.7-3.7-1.2-5.5c0.4-0.4,0.9-0.8,1.2-1.3
			C374.3,316.2,374.1,315.9,373.9,315.7z"/>
		<path class="st20" d="M372.4,317.9c0.2-0.1,0.6-0.2,0.8-0.2c0.5,1.8,1,3.6,1.2,5.5c0.4,2.6-0.1,5.1-0.1,7.7c0,1.7,0.1,3.5-0.2,5.2
			c-0.3,1.5-1,2.7-1.6,4C373.2,332.8,375.5,324.9,372.4,317.9z"/>
		<path class="st21" d="M377.7,319.6c-0.5-0.4-1.1-1.1-0.7-1.9C377.6,317.8,378.1,318.9,377.7,319.6z"/>
		<path class="st22" d="M376,318.2c0.5,0.8,0.9,1.6,1.4,2.4c1,4.1,1.2,8.5,0.2,12.7c-0.4-0.6-0.8-1.1-1.2-1.7
			C377.3,327.1,375.8,322.7,376,318.2z"/>
		<path class="st5" d="M378.1,317.9c1.2,0.8,1.7,2.2,2.2,3.6c1-0.6,2.1-2.1,3.4-1.4c0.7,0.9,1.5,1.7,2.3,2.4
			c0.4,0.7,0.7,1.5,1.3,2.1c0.7,0.5,1.6,0.4,2.3,0.5c1,2.1,2.8,3.2,4.7,4c0.9,1,1.7,2.1,2.7,2.8c1.3,0.9,2.4,2.5,4,2.8
			c1.3,0.4,2.8,0,4.1,0.3c2.3,1.5,4.5,3.2,6.9,4.5c-0.2,6.9-4.3,12.6-8.4,17.2c-12.8,1.2-25.1,5.5-37.3,9.8
			c5.7-5.4,9.9-12.9,11.7-21.2C380.2,336.4,381.2,326.6,378.1,317.9z"/>
		<path class="st6" d="M249.7,332.3C249.9,332.5,249.9,332.5,249.7,332.3z"/>
		<path class="st6" d="M250.6,333c0.1,0,0.4-0.1,0.5-0.1c8.2,5.4,17.8,7.9,27.2,7.5c2.1,0,3.9-1.1,5.6-2.4c-1.3,3.6-4.5,6-7.9,6.2
			c-9.3,0.6-18.5-3.6-25.4-10.6C250.6,333.5,250.6,333.2,250.6,333z"/>
		<path class="st8" d="M385.1,319.4c0.5-0.5,1.5,0.5,0.9,1.1C385.4,321,384.5,320,385.1,319.4z"/>
		<path class="st23" d="M361.1,323.1c0.1-0.2,0.2-0.6,0.3-0.9c0.5,2.8,0.7,5.7,0.7,8.6c-0.1-0.2-0.3-0.6-0.5-0.8
			C361.5,327.7,361.3,325.4,361.1,323.1z"/>
		<path class="st6" d="M286.1,334.8c1-1.2,0-3.6,1.6-4c-0.1,3.3-1.3,6.5-3.2,8.9C284.8,337.9,285.2,336.2,286.1,334.8z"/>
		<path class="st6" d="M284.6,332.6c0.6-0.3,1.2-0.6,1.7-0.9c-0.3,0.6-0.2,1.9-1.1,2C285.1,333.4,284.8,333,284.6,332.6z"/>
		<path class="st24" d="M334.8,326.8c2.1,1.8,4.7,2.1,7.2,2c0.9,2,2.3,3.7,4.1,4.4c-1,2.6-2.1,5.1-3.4,7.5c-0.5,1-1.3,2.1-2.5,2.2
			c-3.9,0.6-7.9,0.8-11.9,0.5c-0.8-0.2-2-0.1-2.3-1.2c-0.7-3,0.1-6.2-0.1-9.3c-0.1-1.5-0.4-3.7,1.1-4.5
			C329.6,327.2,332.3,327.7,334.8,326.8z"/>
		<path class="st8" d="M387.5,321.7c1.2-0.2,1.2,1.5,1.6,2.4C388.2,323.6,387.5,322.9,387.5,321.7z"/>
		<path class="st6" d="M270.8,337.1c4.7,0.1,9.5,0,13.8-2.2c-0.5,1.4-1.9,1.8-3.1,2.2C278,338,274.3,337.9,270.8,337.1z"/>
		<path class="st25" d="M374.4,330.9c0.6,0.5,1.3,1,1.9,1.6c-1.1,7.6-3.3,15.2-7.4,21.3c-0.2-1.3-0.2-2.7,0.1-3.9
			c1.5-3.1,2.5-6.4,3.6-9.7c0.6-1.3,1.4-2.5,1.6-4C374.5,334.4,374.4,332.7,374.4,330.9z"/>
		<path class="st26" d="M376.3,332.5c0-0.2,0.1-0.7,0.1-0.9c0.4,0.6,0.8,1.1,1.2,1.7c-0.5,4.5-2.1,8.7-3.5,12.9
			c-2.4,6.9-5.8,13.7-11.3,17.8c-6.5,5.2-14.6,6.8-22.3,7.8c-4.7,0.5-9.5,0.7-14-0.9c-10.4-3.3-19.2-12.5-23.1-24.1
			c1.1,1.7,1.8,3.6,3,5.3c1,1.3,2.3,2.2,3.3,3.5c0.6,1.4,0.6,3.2,1.7,4.3c4.9,5.6,11.6,9.5,18.5,9.4c0.7,0,1.3,0,2,0
			c6.9,1.1,14.2,0.9,20.9-1.6c2.5-1,4.8-2.5,6.9-4.3c3.5-2.6,6.6-5.8,9.1-9.7C373,347.6,375.2,340.1,376.3,332.5z"/>
		<path class="st27" d="M303.4,344.5c0.5-0.7,1-1.5,1.6-2.2c0.7,2.2,1.5,4.4,2.6,6.4c1.8,3.4,3.5,7,5.9,10c1,1.3,2.5,2,3.7,3.1
			c1.1,1,1.6,2.9,3.1,3.3c2.7,0.8,5.5,1.1,8.2,2.3c0.5,0.6,1,1.3,1.4,2c-7,0.1-13.6-3.9-18.5-9.4c-1.1-1.1-1.1-2.9-1.7-4.3
			c-1-1.3-2.3-2.2-3.3-3.5c-1.2-1.6-2-3.5-3-5.3c-0.1-0.2-0.3-0.5-0.4-0.7C303.7,346,303.7,345,303.4,344.5z"/>
		<path class="st7" d="M401.5,333c0.4-0.5,1.7-0.3,1.6,0.6C402.7,333.9,401.4,333.8,401.5,333z"/>
		<path class="st28" d="M302.8,345.4c0.2-0.2,0.5-0.7,0.6-0.9c0.3,0.5,0.3,1.5-0.4,1.6C302.9,346,302.8,345.6,302.8,345.4z"/>
		<path class="st5" d="M413.3,338.8c4.3,1,8.8,1.4,13,3c2.9,1.2,5.8,3.3,7.1,6.7c0.5,1.1,0.2,2.6-0.7,3.3c-1.4,1.1-3.1,1.2-4.7,1.4
			c-7.7,1.2-15.4,2.5-23.1,4.3c3.2-3,6.3-6.7,7.6-11.3C413.4,343.8,413.4,341.3,413.3,338.8z"/>
		<path class="st29" d="M265.3,362.2c1.7-1,3.3-2.3,4.9-3.7c15.3,12.5,33.9,19.3,52.7,19.7c3.8,0.3,7.5-0.5,11.3-0.3
			c9.5,0.9,19-2.1,27.3-7.4c12.1-4.4,24.2-9.4,36.8-11.5c-8.2,2.6-15.9,6.6-23.6,10.6c-8.5,4.4-17.4,8-26.6,10
			C319.9,386.2,289.7,379.7,265.3,362.2z"/>
		<path class="st30" d="M363.3,355.9c2.2-1.5,4-3.7,5.6-6c-0.3,1.3-0.3,2.6-0.1,3.9c-2.4,3.8-5.6,7.1-9.1,9.7
			c-0.2,0.1-0.6,0.2-0.8,0.2c0.2-0.8,0.6-1.6,0.7-2.4c-0.2-0.8-0.6-1.5-0.9-2.3C360.3,357.9,361.8,356.9,363.3,355.9z"/>
		<path class="st31" d="M256.6,373.5c2.6-3,6.1-5.5,10-5.1c-0.1,0.2-0.3,0.5-0.4,0.6c-3.1,1.3-6.5,2.3-9,5c-2.4,2.4-3.8,5.7-4.8,9.2
			C252.6,379.4,254.4,376.1,256.6,373.5z"/>
		<path class="st31" d="M265.9,369.5c2.7-1,5.8-0.8,8.1,1.3c-3-0.3-6.1-1-9.1,0c-3.2,1.1-5.8,4-7.1,7.6c5-4.9,11.9-6.6,18.4-5.6
			c-1.5,1-3.4,0.9-5.1,1.2c-4.7,0-9.7,1.3-13.2,5.2c-1.1,1.1-0.8,2.9-1.1,4.4c-0.1-0.9-0.1-1.8-0.1-2.7c-0.7,1.1-1.2,2.2-1.8,3.3
			c0.4-2.4,2.1-4,2.7-6.3C258.9,373.8,262.1,370.6,265.9,369.5z"/>
		<path class="st32" d="M334.3,368.5c8.4,0.3,16.7-1.9,24.7-4.8c0.2-0.1,0.6-0.2,0.8-0.2c-2.1,1.8-4.4,3.3-6.9,4.3
			c-6.7,2.5-13.9,2.7-20.9,1.6C332.7,369.1,333.5,368.7,334.3,368.5z"/>
		<path class="st33" d="M328.5,367.4c1.9,0.3,3.9,0.6,5.8,1c-0.8,0.3-1.5,0.7-2.3,0.9c-0.7,0-1.4,0-2,0
			C329.4,368.7,329,368,328.5,367.4z"/>
		<path class="st1" d="M269.5,375.9c3.4-2.1,7.9-3.3,11.4-0.6c2.1,0.2,4.4,0.1,6.3,1.3c-4.3,0.2-8.7-0.3-12.8,1.6
			c-5.2,2.1-9.3,6.8-12,12.3c2.9-8.2,10.2-13.9,17.8-15c-1.9-0.9-4-0.4-6-0.2c-5,0.8-9.2,4.7-12.4,9.1c-1.3,1.7-2.4,3.6-3.7,5.2
			C261,384.2,264.6,379,269.5,375.9z"/>
		<path class="st1" d="M279.9,378.5c2.9-1.1,6.3-1.6,9.2-0.4c-2.9,0.5-5.8,0.7-8.7,1.4c-5.5,1.5-10.5,5.6-13.6,11.1
			c-0.4,0.7-0.8,1.4-1.3,2C268.2,385.8,273.8,380.8,279.9,378.5z"/>
		<path class="st31" d="M284.6,381.2c1.8-1,3.7-2,5.7-2.1c-2.4,1.9-5,3.3-7.5,4.9c-3.2,2.2-5.9,5.2-8.2,8.5c-0.4,0.7-1,1.3-1.1,2.2
			c3.5-4.1,7.4-7.9,12.1-10.3c1.7-0.7,2.8-2.7,4.4-3.5c1.8-1,4.1-1.2,6,0c-2,0.2-4.1,0.2-5.8,1.6c2.6-0.6,5.1-1.1,7.7-0.5
			c2.1,0.2,3.9,1.6,5.8,2.3c0.8,0.4,1.4,1.4,2.4,1.3c1.6-0.3,3-1.1,4.7-1.2c-1.1,1.2-2.6,1.5-3.8,2.3c2,0,3.9-0.6,5.9-0.4
			c-2.3,1-4.8,1.1-7,2.4c-4.1,1.7-7.7,4.8-10,9.2c-2.5,4.8-3.2,10.5-3.4,16c-0.2,2.5,0.1,5-0.2,7.4c-0.5-8.6-0.5-18,3.8-25.4
			c1.6-3,4.1-5,6.6-7.1c-4.9,2.2-9.4,6.5-11,12.4c-0.7,2.1-0.6,4.5-0.5,6.8c-1.1-4.3,0.3-9,2.6-12.6c2.7-4.4,7-7,11.2-9.3
			c-5.6-0.2-11.1,2.9-14.7,7.8c-3.8,5.1-5.9,11.5-6.8,18c-1,6.6-0.4,13.3,1.1,19.7c-1.2-2.9-1.5-6.2-1.7-9.4
			c-0.9-7.3,0.3-14.7,2.8-21.4c0.4-1.2,0.2-2.5,0.5-3.8c1.1-5.8,5-10.8,10-12.6c1.3-0.6,2.7-0.7,4.1-1c-3-0.4-6.2-0.3-9.2,0.3
			c-1.2,0.4-2.6,0.4-3.6,1.4c-4,4.7-7.1,10.3-10.5,15.6c2.5-5.4,5.8-10.2,8.9-15.1c-3.7,1.9-7.1,4.7-10.1,7.9
			c-1.9,2.1-4.2,4-4.8,7.2c0-0.4,0-1.1,0-1.5c-1,1-1.7,2.3-2.7,3.3c0.7-1.8,2.1-3,3.1-4.5c1-1.4,1.6-3.1,2.5-4.5
			C276.4,388.4,280.2,384.2,284.6,381.2 M293.3,386.7c-4,2.4-6.8,7.3-7.3,12.4c0.9-1.3,1.4-2.8,2.2-4.1c2.2-3.8,5.2-7,8.9-8.8
			c2.1-1,4.3-1,6.5-1.4C300.1,384.8,296.4,384.8,293.3,386.7z"/>
		<path class="st2" d="M378,374c0.2-1.3,0.9-2.4,1.8-3.1c0,2.5-1.5,4.7-1.3,7.3c0.1,1.8,0.8,3.4,1.2,5.1
			C378,380.7,377.6,377.2,378,374z"/>
		<path class="st34" d="M380.8,370.9c0.6,0,1.3,0.3,1.6,1c0.6,1.1,1.5,2.1,2.2,3.2C383.1,373.9,381.1,373.1,380.8,370.9z"/>
		<path class="st4" d="M374.4,372.8c1.1,1.5,1,3.4,0.7,5.2c1.8,2.3,3.5,4.7,4.4,7.6c-1.3-2.1-2.6-4.3-4.3-6.1c0,1.9,0.1,3.7,0.2,5.6
			c-0.6-2-0.7-4.1-1-6.1c-1-0.9-2.3-1.7-2.8-3.2c0.8,0.2,1.6,0.5,2.4,0.9C373.9,375.4,374,374.1,374.4,372.8z"/>
		<path class="st31" d="M367.6,377c2.8,1.2,3.8,4.8,4.5,7.8c1,3.8,1.1,7.8,0.2,11.6c0.1-3,0.5-6.1-0.3-9
			C371.4,383.6,369.2,380.5,367.6,377z"/>
		<path class="st35" d="M293.3,386.7c3.1-2,6.8-2,10.3-1.8c-2.2,0.4-4.5,0.4-6.5,1.4c-3.7,1.8-6.7,5-8.9,8.8
			c-0.8,1.3-1.3,2.8-2.2,4.1C286.5,394,289.2,389.1,293.3,386.7z"/>
		<path class="st31" d="M366.6,378.8c0.2,0.2,0.5,0.6,0.6,0.8c0.9,3.3,0.9,6.8,1.8,10.1c0.9,4,2.4,7.8,3.9,11.6
			c-1.8-2.7-2.8-5.8-3.9-8.9C367.7,388,366.4,383.5,366.6,378.8z"/>
		<path class="st1" d="M306.8,391.5c3.6-3,7.6-5.7,12-6.6c-1.8,1.5-4,2.4-5.9,3.9c-6.4,3.9-13.1,8.7-16.6,16.4
			c-1.6,3.5-2.1,7.5-1.8,11.4c-1.1-5.6,0.6-11.5,3.8-15.9C300.7,397.1,303.7,394.1,306.8,391.5z"/>
		<path class="st4" d="M339.7,389.8c1.4-2.7,3.4-5.2,6-6.3c-2.7,3.3-5.4,6.7-6.8,11c-0.5,3.8,0,7.6,0.1,11.4
			c-0.9-2.5-0.6-5.2-0.9-7.9c-0.6,1.7-0.6,3.7-0.7,5.5c0,3.6,0,7.2,0.2,10.8h-0.3c-0.3-6.1-1.1-12.3,0.3-18.2c1-3.4,0-7.5,2.1-10.5
			C339.9,387,339.7,388.4,339.7,389.8z"/>
		<path class="st31" d="M348.6,385.3c1-1.6,2.7-2.1,4.3-2.3c1.8,0.8,3,2.7,3.6,4.8c1,3.5,1.8,7.2,2.1,11c0.3,3.2,0.7,6.3,0.1,9.5
			c-0.1-8.3-1.1-17-5.3-23.9c-0.7-0.1-1.4-0.2-2.1-0.3c-0.9,0.9-1.6,1.8-2.4,2.8c0.4,2.4,0.7,4.9,1.3,7.3c1.2-2.2,2.6-4.5,4.6-5.7
			c-1.2,2.7-2.8,5.1-4.2,7.6c0.4,1.5,0.8,3,1,4.5c-0.6-1.2-0.9-2.5-1.2-3.8c-1.8,3.5-2.6,7.6-2.8,11.6c-0.1,2.7,0.3,5.3,0.4,7.9
			c-0.8-3.6-1-7.3-0.8-11c-0.7-4.5-1.3-9-1.9-13.5c-3.7,6.1-5.5,13.6-5.5,20.9c-0.7-7.8,1.5-15.5,5-22.1c0.6-1.1,0.1-2.6,0.3-3.8
			c0.4,0.5,0.7,1.1,1,1.7c0.6-1.1,1.5-2.1,1.4-3.5C348,385.1,348.3,385.2,348.6,385.3 M346.5,390.3c0,4.6,0.5,9.1,0.9,13.6
			c0.8-2.9,1.3-6,2.6-8.8c-0.7-2.3-1.3-4.7-2-7C347.4,388.8,346.8,389.4,346.5,390.3z"/>
		<path class="st2" d="M310.3,392.2c1.8-2.6,4.4-4.6,7.2-5.5c-1,1.5-2.6,2.4-3.8,3.7c-4.7,3.7-7.9,9.9-8.7,16.5
			c-0.1,0.9-0.2,1.7-0.4,2.6C304.5,403.1,306.7,396.9,310.3,392.2z"/>
		<path class="st2" d="M313.9,391.5c2.2-2.6,5.2-4.3,8.4-4.7c-0.8,1-2.1,1.4-3.1,2.1c-2.5,1.7-5,3.5-6.9,6.2
			c-3.5,4.8-5.3,10.9-6.1,17c-0.2,1.4-0.3,2.9-0.5,4.3C305.9,407.4,308.2,397.9,313.9,391.5z"/>
		<path class="st4" d="M334.3,392.8c1.2-1.7,2.3-3.6,4-4.9c-1.2,3.3-3.3,6-4.8,9c-2.2,7.8-2.8,16.1-2.2,24.2
			c-1.2-6.9-0.5-14,0.4-20.9c-3.5,6.2-5.4,13.4-7.1,20.5c1.1-8.4,4-16.4,7.5-23.8c0.9-2.6,1.2-5.7,2.9-7.9
			C334.8,390.3,334.5,391.6,334.3,392.8z"/>
		<path class="st2" d="M313.7,394c1.7-2.6,5.1-4.1,7.6-2.2c-3.5-0.3-7.2,2.1-8.4,6c-2.2,6.4,0.4,13.8-2.4,20
			c0.8-3.3,1.2-6.7,0.9-10.2C311.3,403,311,397.8,313.7,394z"/>
		<path class="st6" d="M346.5,390.3c0.3-0.9,0.9-1.5,1.4-2.2c0.7,2.3,1.4,4.7,2,7c-1.2,2.8-1.8,5.8-2.6,8.8
			C347,399.4,346.4,394.9,346.5,390.3z"/>
	</g>
	<g>
		<path class="st0" d="M610.1,264.8c19.6-3.7,39.7,1.5,57.4,11.4c16.1,9.1,30.2,22.3,42.9,36.8c9.2,10.5,17.5,21.9,25.9,33.2
			c-1.3-0.9-2.2-2.2-3.2-3.4c-12.2-14.6-24.6-29.2-38.5-41.7c-12.5-11.4-26.4-21-41.6-26.8c-11.7-4.5-24.1-6.9-36.4-5.6
			c-16.2,1.3-31.2,9.6-44.7,19.6c-22,16.3-41.3,37.4-57.1,61.5c-0.7,0.9-1.4,1.8-2.2,2.6c4.5-7.1,8.8-14.5,13.7-21.3
			c11.5-16.3,25-30.9,39.9-43C579.4,277.1,594,267.8,610.1,264.8z"/>
		<path class="st1" d="M611.6,279.3l0.2,0.1c-0.6,9.7-4.3,18.8-9.7,26.2c4.3-3,7.8-7.5,10.3-12.4c-0.6,2.9-1.2,5.9-2.4,8.6
			c3.1-1.9,3.7-6.1,5.4-9.2c-0.3,1.7-1.2,3.3-1.6,5c3.8-4.5,5.7-10.6,8.3-16c-1.6,5.2-3.8,10.3-6.5,14.9c-1.7,3-4.1,5.2-5.7,8.3
			c3.7-3.6,7.4-7.4,10-12.2c2.1-3.6,3.3-7.6,4.6-11.6c-1.5,8.4-5.6,15.9-10.8,21.9c-1.9,2.2-4.8,2.6-6.6,4.9
			c3.4-0.8,6.8-1.9,9.9-3.8c0-0.2,0.1-0.7,0.1-0.9c2.3-2.4,4.9-4.6,6.8-7.5c2.6-3.8,3.8-8.5,4.4-13.2c0.1,6.3-2.5,12.3-5.9,17.1
			c1.7-1,2.6-3,4-4.4c-1.9,3.6-4.9,6.2-7.9,8.7c3-0.8,5.9-2.2,8.5-4.2c2.8-2.2,4.7-5.5,5.8-9.1c-0.2,2.5-1.6,4.5-2.5,6.7
			c1.2-0.6,1.6-2.2,2.4-3.3c1.5-2.6,2.2-5.6,3.1-8.4c-1.3,8.3-6,15.7-12.4,19.8c-1.2,0.8-2.5,1.3-3.7,2.1c4.4-0.1,8.8-1.7,12.2-5
			c4.3-3.9,6.8-9.6,9.8-14.7c-1.4,3.7-3.4,7.1-5.4,10.4c-2.2,3.5-5,6.3-8.2,8.5c3.3-0.2,6.1-2.4,8.7-4.6c0-3.8,1.7-7.3,4.1-9.7
			c2.7-2.7,6-4.5,9.3-5.7c-2.9,1.9-6.2,3.2-8.7,5.9c-2.1,2.2-3.6,5.2-3.8,8.4c2.7-2.2,4.8-5.2,7.5-7.5c3.1-3,6.7-5.1,9.9-8.1
			c0.3,0.1,0.6,0.2,0.9,0.3c-3.9,2.4-7.2,6-10.6,9.2c-2.7,2.5-5.5,5-7.2,8.5c0.1,0.3,0.3,1.1,0.4,1.5c4-1.7,7.2-5.1,10-8.8
			c-2.1,4.4-5.7,7.5-9.6,9.6c0.5,1.1,1.2,2.1,2.1,2.9c3-2,6-4,8.4-6.8c2.8-3,4.8-6.9,6.7-10.6c-2.3,6.9-6.7,12.5-11.8,16.8
			c-1.4,1.2-3.1,1.7-4.6,2.5c0.9,0.2,1.8,0.3,2.6,0.4c2.9-2.8,6.3-4.9,9.6-7.1c3-2.8,5.2-6.7,8.5-9.1c1.2-0.9,2.7-1.4,4.2-1.4
			c-4.5,0.8-7.3,5.2-10.1,8.9c5.1-2.7,10.5-5.7,16.2-5.5c-4.9,0.6-9.6,2.4-13.9,5.1c-1.8,1.2-3.8,2.1-5,4c-1.4,1.9-2.7,3.9-4.3,5.6
			c3.6-0.1,7.2-0.7,10.5-2.3c2.1-1.4,3-4,4.3-6.2c-0.5,1.9-1.5,3.6-2.4,5.3c2.9-1.4,5.3-3.9,7.8-6.1c-2.4,3.5-5.9,5.7-9.2,7.6
			c-1.4,1.4-3,2.3-4.7,3.3c6.5-0.2,12-4.9,16.3-10.2c1.6-1.8,3-4,4.7-5.8c-2.8,4.4-6,8.5-9.8,11.9c-3.5,3.2-7.7,5.2-12.2,5.6
			c3.2,2.1,7.3,1.7,10.5-0.1c4.7-2.7,8.3-7.1,12.5-10.7c1.3-1,2.3-2.5,3.8-3.2c-2.9,3.1-5.9,5.8-8.8,8.8c-2.4,2.6-5,4.9-8,6.7
			c7.2,0.8,14.7-2.1,20-8c0.7-0.8,1.3-1.6,2.1-2.3c-4.6,7.3-12.5,11.3-20.2,11.8c-1.9,0.3-3.8-0.6-5.7-0.4c7.1,4.2,16,4.4,23.2,0.4
			c0.9-0.5,1.7-1,2.6-1.5c-2.2,2.1-5,3.2-7.7,4.1c-4.6,1.5-9.4,1.2-14,0.3c1.8,1.7,4.2,2.2,6.5,2.8c9.4,1.9,19.3,0.5,28.1-3.6
			c1.7-0.8,3.3-1.8,5-2.5c-6.4,4.5-13.9,6.8-21.3,7.6c-4.3,0.5-8.6,0.2-12.8-0.2c8.6,5.6,19.6,5.9,28.6,1c2.1-1,4-2.6,6-3.9
			c-6.6,6.2-15.5,8.9-23.9,7.9c-2.4-0.3-4.8-0.9-7.2-1.6c2.1,3.6,6.2,4.9,9.8,4.5c7.6-0.9,15-3.7,22.2-6.6
			c-4.2,2.4-8.8,3.9-13.3,5.4c-5,1.4-10.2,3.3-15.3,1.7c3.7,2.4,7.9,3.8,12.1,3.7c6.3,0,12.6-1.7,18.5-4.1c2-0.8,3.2-2.9,4.9-4.2
			c-0.7,1-1.6,1.8-2.3,2.8c1.9-0.6,3.7-2,5.5-2.8c-1.9,1.7-4.2,2.6-6.4,3.8c-1.7,0.9-3,2.5-4.6,3.4c-1.2,0.9-2.6,1.3-3.6,2.4
			c3.1-0.4,5.9-2.1,8.8-3.3c-4,2.9-8.7,4.1-13.3,5.1c-4.2,1.5-8.7,2-13.1,1.9c3.8,1,7.7,0.6,11.5,0.3c6.8-0.9,13.4-3.6,19.3-7.4
			c1.5-1.1,2.4-3,3.7-4.4c-6.4,11-17.8,17.7-29.2,18.1c2.4,0.8,4.9,0.6,7.4,0.6c9-0.4,17.9-3.6,25.5-9.2c0.7-0.5,1.4-1.1,2.1-1.5
			c-1.9,2-4.2,3.4-6.4,4.8c-5.6,3.4-11.8,5.6-18.2,6.4c-3.8,0.6-7.6,0.3-11.4,0.3c9.5,2.5,19.8,1.1,28.5-4.2
			c0.9-0.5,1.6-1.1,2.6-1.5c-7.8,6.4-17.7,8.6-27.1,7.7c9.5,5.2,20.5,6.3,30.9,4.1c-4.9,1.6-10.1,1.7-15.1,1.4
			c-5-0.5-10-1.6-14.7-3.6c-2.7-1.1-5.3-2.7-8.1-3.5c6.5,6.2,14.3,10.8,22.8,12c6.5,0.9,13.1,0.1,19.3-2.4c1.2-0.5,2.4-1.1,3.7-1.5
			c-2.7,1.8-5.7,2.8-8.7,3.6c-11.7,3.2-24.3,0.2-34.3-7.3c5.4,7,12.4,12.8,20.2,15.6c9.7,3.3,20.4,2.3,29.4-2.7
			c1.9-0.9,3.6-2.3,5.5-3.4c-2.1,2.1-4.7,3.5-7.2,4.8c-8.7,4.3-18.7,5.3-27.8,2.3c-3.5-1.1-6.9-2.8-10-4.9
			c-15.9,11.8-34.4,18.8-53.3,20c-15,0.9-30.1-1.5-44.2-7.6c0.7,2,1.2,4.2,0.6,6.4c1.5-0.7,3-1.1,4.6-1.1c-1.9,1.9-5,2-6.3,4.8
			c-1.9,3.6-5.3,6.2-6.1,10.5c-0.1,0.4-0.3,1.1-0.4,1.5c0.2-4.9,2.2-9.7,5.3-13c0.7-0.8,1.5-1.4,1.6-2.6c0.4-2.2,0.3-4.5,0.1-6.7
			c-13.1-5.4-24.8-14.8-38.4-19c-2.7-0.9-5.5-1.1-8.3-1.5c-6.9-1.2-13.8-2-20.7-3.3c-1.4-0.3-3-0.8-4-2.1c-1.3-1.5-1.4-3.9-0.6-5.8
			c1.2-3,3.8-5.1,6.4-6.3c4.7-2.1,9.8-1.9,14.7-2.4c2.4-1.1,4.9-2,7.2-3.3c-4.2-1.1-8.4-2.9-12-5.7c-0.4,0.3-0.9,0.6-1.3,0.9
			c0.5-0.5,0.9-1.8,1.6-1c4,2.7,8.5,4.6,13.1,5c0.9,0,1.6-0.6,2.4-1c-2.4-1-4.5-2.9-6.3-5c-0.5,0.2-0.9,0.4-1.4,0.6
			c0.4-0.4,0.7-0.8,1.2-1.2c0.7,0.7,1.5,1.4,2.2,2.1c1.4,1.6,3.3,2.2,5,3.4c-0.2,0.5-0.7,0.8-1,1.2c0.7-0.1,1.3-0.2,2-0.2
			c-0.3-0.3-0.7-0.7-0.7-1.2c1.5,0.2,3,0.1,4.1-1.1c2.5-1,3.6-4.1,4.3-6.8c0.6-2.1,1-4.2,1.6-6.2c0.7,3.1-0.2,6.5-1.3,9.4
			c1.1-0.9,2.1-1.8,2.9-3.1c-0.1-0.6-0.1-1.2-0.2-1.8c0.3,0.1,0.9,0.3,1.2,0.4c0.7-1.4,0.4-3.1,1.3-4.3c1-2.4,0.7-5.2,0.9-7.8
			c-0.1-1.1,0.3-2.3-0.4-3.2c-0.8-1-2-1.5-3-2.2c2.1,0.5,4.1,2.1,4.9,4.5c1.3,2.9,0.7,6.3,0.4,9.4c0.5,0,1,0,1.5-0.1
			c1.5-2.6,2.6-5.5,3.5-8.5c-0.2-2.8-2-5-3.6-6.9c1.9,1,2.9,3.2,3.8,5.2c0.3-1.9,0.5-3.7,0.8-5.6c-0.1,2.1-0.5,4.2-0.5,6.4
			c0.2,1.9,0.6,3.7,0.3,5.6c-0.1,1.4-0.8,2.6-1.2,3.9c0.9-0.9,1-2.3,1.4-3.6c1.4-5.9,0.9-12.2-0.5-18.1c2.3,6,2.1,12.8,1.4,19.2
			c4.6-7.1,5.6-16.5,4.1-25c1.5,4.9,1.2,10.2,0.4,15.3c-0.3,2.7-1.5,5.1-1.9,7.7c2.7-1.6,4.3-4.7,5.9-7.5c2.6-4.7,3.7-10.1,4.7-15.5
			c-0.4,6.9-2.7,13.5-5.7,19.4c3.7-3.4,6.7-7.9,8.8-12.9c1-2.1,1.5-4.4,2.4-6.5c-1.5,7.8-5.5,14.7-10.4,20.3
			c6-4.5,11.2-10.8,14.1-18.4c1.8-4.3,2.7-9,3.2-13.7c-0.2,11-5.1,21.3-11.7,29c1.2-0.4,2.2-1.4,3-2.5
			C606.4,299.3,610.8,289.6,611.6,279.3 M628.8,299.2c0.6,0.2,1.5-0.9,1.4-1.5C629.5,297.5,628.6,298.4,628.8,299.2 M603.6,305.7
			c1.7-0.7,3.5-1.6,4.9-2.8c1.5-2.1,2.7-4.6,3.2-7.3C609.3,299.4,606.7,302.8,603.6,305.7 M627.5,300c-2.8,2.5-6.1,4.2-9.5,5.4
			c-2,0.4-4.1,0.9-5.8,2.1c4.7-0.6,9.6-1.9,13.6-5.1c1.1-0.9,2.5-1.7,3-3.3C628.3,299.4,627.8,299.6,627.5,300 M633.9,305.9
			c0.8-0.2,1.6-0.2,2.3-0.6c0.2-0.6,0.5-1.3,0.7-2C635.9,304.1,634.9,305,633.9,305.9 M643.6,310.8c0.9,0.1,1.8,0.2,2.8,0.3
			c0.9-1.5,2-2.7,3-4.1C647.6,308.3,645.6,309.6,643.6,310.8 M637.4,305.8c-0.1,1.6,0.7,3.1,1.8,3.9c0.5-0.3,0.9-0.6,1.4-0.9
			C639.4,308,638.6,306.6,637.4,305.8 M628.7,307.2c-1.1-0.2-2.2-0.3-3.2,0.4c4.1,0.5,8.2,1.1,12.3,2c-0.6-0.9-1.2-1.9-1.6-3
			C633.8,307.9,631.2,307.1,628.7,307.2 M606.7,306.7c1.1-0.7,2.1-1.7,2.9-2.9C608.4,304.4,607.4,305.4,606.7,306.7 M650.3,312.1
			c1.9,0.1,3.8-0.3,5.5-1.3C653.9,311.1,652.1,311.7,650.3,312.1 M598.9,309.3c2.3,0.1,4.5-1,6.3-2.7
			C602.9,307,600.6,307.4,598.9,309.3 M642.1,311.8c0.5,0.9,1.1,1.8,1.7,2.7c0.2,0.9,0.5,1.8,1.2,2.2c0.6,1.8,1.3,3.6,1.8,5.5
			c2.1,9.4-0.5,20.1-6.8,26.7c-4.9,5.2-11.7,8.1-18.4,7.3c-8.9-0.8-17-7.8-20.2-17.4c-2.8-8.4-1-18.1,3.6-25.1
			c1.1-0.7,1.9-1.8,2.5-3c0.9-0.7,1.7-1.5,2.6-2.2c-1.2,0.2-2.4,0.4-3.6,0.5c-1.6,0.2-3.1,1-4.7,1.5c-1.3,0.4-2.6-0.3-3.9,0
			c-1.6,0.4-3.3,0.5-4.7,1.7c-1.8,1.4-4,2.1-5.8,3.5c-0.2,0.2-0.4,0.3-0.5,0.5c-0.5,0.4-0.9,0.8-1.3,1.2c-0.5,0.4-1,0.9-1.2,1.5
			c-0.9,2.3-1.3,4.8-1.4,7.3c-0.4,3.2-0.7,6.5,0.2,9.7c1,3.9,1.9,7.9,3.8,11.4c2.3,6.9,5.7,13.7,11.1,17.9c7,5.2,15.4,7,23.5,8.1
			c4.7,0.4,9.5,0.6,14.1-1.1c10.8-3.6,19.6-13.4,23.7-25.3c1.6-4.4,2.7-8.9,3.4-13.6c0.6-3.8,0.5-7.7,0.4-11.6
			c-0.4-1-1.2-1.6-1.9-2.2c-1.2-0.8-2.4-1.5-3.6-2.1c-1.3-0.6-2.8-0.8-4-1.8c-0.9-0.7-1.6-1.7-2.8-1.8c-2-0.3-3.9-0.9-5.9-1.5
			C643.8,312.1,642.9,312,642.1,311.8 M616.3,318.6c-2.3-1.3-5.1-0.6-6.8,1.5c-2.9,3.4-2.6,9.3,0.2,12.7c1.4,1.7,3.7,2.2,5.6,1.5
			c0.1,1.8-0.4,3.7-0.1,5.5c1,0.9,2.4,1.2,3.7,1.5c3.3,0.8,6.6,1.8,10,1.7c1.9,0.1,3-2.1,4.2-3.5c2.2-3.2,4.6-6.3,6.5-9.8
			c-3.7-1.4-7.7-1.6-11.2-3.6c2.6-4.2,0.3-10.6-3.8-11.9C621.3,313.2,617.7,315.1,616.3,318.6 M574.6,308.6
			c0.1,3.9,0.3,7.8-0.7,11.5c-0.3,0.8,1.2,1.3,1,0.1C575.9,316.6,576.7,312,574.6,308.6 M663.6,321.8c2.7,13.7,0,28.9-7.8,39.9
			c-5.5,7.8-13.1,13.4-21.4,16c19.6,1.2,39.5-4.7,56.2-16.6c-2.5-2.5-4.6-5.5-6.4-8.7c-1.2-1.6-2.7-2.9-3.8-4.6
			c-1-1.7-2.8-2.4-4-3.9c-2.3-2.9-3.7-7-3.1-11c-1.9-1.8-3.5-4.1-4.6-6.7C666.9,324.8,665.1,323.5,663.6,321.8 M578.9,318.6
			c2.1-1.3,2.5-4.4,2.5-6.9C580.5,314,579.9,316.4,578.9,318.6 M667.6,324c0,0.7,0.2,0.9,0.8,0.5C668.4,323.8,668.1,323.6,667.6,324
			 M669.6,326.6c0.9,1.5,1.9,3,3.2,4.1C672,329,671.4,327,669.6,326.6 M581.3,321.8c-1-0.8-1.9-1.6-3.2-1.7
			c-0.9,1.5-2.6,2.2-3.3,3.9c-0.5,1.2-1.8,1.2-2.8,1.1c-0.7,1-1.3,2.1-2.3,2.7c-0.8,0.6-1.8,0.8-2.6,1.4c-0.8,0.9-1.6,1.8-2.6,2.5
			c-1.3,0.8-2.3,2.1-3.6,2.7c-1.5,0.5-3,0.2-4.5,0.3c-2.4,1.5-4.7,3.2-7.2,4.4c0.1,6.9,4,12.6,8,17.3c1.8,0.5,3.6,0.5,5.4,0.9
			c10.8,1.9,21.2,5.8,31.5,9.8c-5.3-5.5-9.2-12.8-10.9-20.8c-0.6-3.1-1.4-6.2-1.9-9.4c-1-6.4-0.5-13.3,2.4-18.9
			C582.7,319,581.9,320.3,581.3,321.8 M701.1,334.9c-7.8,2.7-16.4,3.8-24.2,0.5c-0.1,0.8,0.2,1.2,0.8,1.3c5.3,1.7,10.8,2.8,16.2,2.4
			c2.6-0.3,4.9-1.7,7.2-2.9c1.2-0.7,2.4-1.4,3.4-2.5C703.4,334.1,702.3,334.6,701.1,334.9 M704.6,339.4c-6.5,2.8-13.4,4.1-20.4,3.9
			c-2.4,0.1-4.7-0.9-6.7-2.5c0.8,2.4,2.5,4.4,4.6,5.3c2.5,1.2,5.3,1.1,8,0.9c6.3-0.6,12.3-3.1,17.5-7.2c1.6-1.4,3.4-2.6,4.6-4.5
			C709.7,336.7,707.3,338.4,704.6,339.4 M576,319.6c-0.3,0.8-0.1,1.1,0.6,0.9C576.9,319.8,576.7,319.4,576,319.6 M673.7,333.3
			c-0.1,3.3,1.2,6.6,3,9c-0.2-1.7-0.5-3.4-1.5-4.7C674.4,336.3,675.2,334.1,673.7,333.3 M675.2,334.4c0.1,0.9,0.3,1.8,1.2,2.1
			c0.1-0.3,0.3-1,0.4-1.3C676.2,334.9,675.6,334.6,675.2,334.4 M573.4,321.6c-0.3,0.9-0.6,1.7-0.8,2.6c0.7-0.5,1.3-1.2,1.9-2
			C574.1,322.1,573.8,321.8,573.4,321.6 M676.7,337.6c0.7,1.6,2.4,2,3.8,2.5c2.9,0.6,5.9,0.8,8.8,0.3c-2.6-0.5-5.3-0.3-7.9-1
			C679.8,339,678.3,338.1,676.7,337.6 M534.8,340.9c-2.7,1-5.4,2.9-6.9,5.9c-0.4,1-0.8,2.3-0.1,3.3c0.6,1.1,1.8,1.5,2.9,1.8
			c8.5,1.5,16.9,3.1,25.2,5.2c-2.1-2.2-4.3-4.5-5.7-7.4c-1.9-3.4-2.6-7.5-2.2-11.5C543.7,339.1,539.1,339.4,534.8,340.9
			 M633.3,379.7c-2.2-0.2-4.4-0.5-6.6-0.5c-8.5,0.6-17-1.8-24.5-6.3c-1.3-0.8-2.6-1.8-4-2.2c-11.6-4.4-23.1-9.5-35.2-11.9
			c2.1,1,4.3,1.6,6.5,2.6c4.4,1.9,8.6,4.2,12.8,6.5c8.5,4.7,17.2,9.1,26.3,11.7c11.7,3.6,24,4.8,36.1,3.9
			c17.9-1.3,35.5-7.7,50.9-18.1c-1.7-1.1-3.3-2.4-4.8-3.8C674.1,374.5,653.5,381,633.3,379.7 M594.9,390.8c0.7,0.1,1.3-1.1,1.4-1.8
			C595.6,389,594.7,389.9,594.9,390.8 M594,392.1c0.5,0.1,1.1-0.8,0.9-1.4C594.3,390.6,593.8,391.6,594,392.1 M593.6,392.1
			c0,0.2-0.1,0.6-0.1,0.8l0.3,0c0-0.2,0.1-0.6,0.1-0.8L593.6,392.1z"/>
		<path class="st2" d="M620.3,295.8c1.6-2.3,2.7-5.1,4.2-7.5c-1.4,4.1-3.6,7.8-5.7,11.5c-1,1.7-2.3,3.4-4,4
			C616.1,300.7,618.6,298.6,620.3,295.8z"/>
		<path class="st5" d="M628.8,299.2c-0.2-0.8,0.8-1.7,1.4-1.5C630.2,298.3,629.3,299.4,628.8,299.2z"/>
		<path class="st6" d="M603.6,305.7c3.1-2.9,5.8-6.3,8.1-10.1c-0.5,2.7-1.7,5.2-3.2,7.3C607,304.1,605.3,305,603.6,305.7z"/>
		<path class="st6" d="M627.5,300c0.4-0.3,0.8-0.6,1.3-0.8c-0.5,1.5-1.9,2.3-3,3.3c-4,3.2-8.8,4.4-13.6,5.1c1.8-1.3,3.8-1.7,5.8-2.1
			C621.3,304.1,624.7,302.5,627.5,300z"/>
		<path class="st7" d="M633.9,305.9c1-0.9,2-1.8,3-2.6c-0.2,0.7-0.4,1.3-0.7,2C635.6,305.8,634.7,305.7,633.9,305.9z"/>
		<path class="st36" d="M643.6,310.8c2-1.2,4-2.5,5.8-3.9c-1,1.4-2.1,2.7-3,4.1C645.5,310.9,644.6,310.9,643.6,310.8z"/>
		<path class="st8" d="M637.4,305.8c1.2,0.8,2,2.2,3.3,3c-0.5,0.3-1,0.6-1.4,0.9C638.1,308.9,637.3,307.4,637.4,305.8z"/>
		<path class="st6" d="M628.7,307.2c2.5-0.1,5.1,0.6,7.5-0.6c0.4,1.1,1,2.1,1.6,3c-4.1-0.9-8.2-1.5-12.3-2
			C626.5,306.9,627.6,307.1,628.7,307.2z"/>
		<path class="st8" d="M606.7,306.7c0.7-1.2,1.7-2.2,2.9-2.9C608.8,304.9,607.8,306,606.7,306.7z"/>
		<path class="st7" d="M650.3,312.1c1.8-0.5,3.6-1.1,5.5-1.3C654,311.8,652.1,312.3,650.3,312.1z"/>
		<path class="st7" d="M598.9,309.3c1.7-1.9,4.1-2.3,6.3-2.7C603.4,308.3,601.2,309.4,598.9,309.3z"/>
		<path class="st37" d="M642.1,311.8c0.9,0.2,1.8,0.4,2.7,0.6c-0.3,0.7-0.7,1.4-1,2.1C643.2,313.6,642.6,312.7,642.1,311.8z"/>
		<path class="st10" d="M644.7,312.3c1.9,0.6,3.9,1.2,5.9,1.5c1.1,0.1,1.9,1.1,2.8,1.8c1.2,0.9,2.7,1.2,4,1.8
			c1.2,0.6,2.4,1.3,3.6,2.1c1.1,1.4,1.5,3.3,1.2,5.1c-0.5,0.1-1,0.2-1.5,0.3c-0.5,0.1-1.1,0.1-1.7,0.2c-0.2,3.2,0.1,6.4-0.5,9.6
			c-0.4,2.1-0.7,4.3-0.9,6.4c0.8-2.7,1.5-5.3,2.6-7.9c0.8,0,1.5,0,2.3,0c-0.7,4.6-1.8,9.2-3.4,13.6c-0.2,0-0.7,0.1-0.9,0.1
			c-0.7-0.7-1.3-1.4-1.9-2.2c-1.2,4.2-3.7,7.6-5.7,11.3c-1,1.8-2.1,3.6-3.5,5.1c-1.3,1.3-3,2-4.2,3.4c-0.9,1-1.6,2.3-3,2.6
			c-2.6,0.6-5.3,0.9-7.9,2c-1.8,0.4-3.6,0.6-5.4,0.7c-5.2,0.1-10.5-0.3-15.5-2c-3.5-1.3-7.5-1.6-10.2-4.7c0.3-1.1,0.7-2.2,1-3.3
			c-2.6-1.8-5.3-3.4-7.4-6c-1.1-1.4-2.1-2.8-3-4.4c-0.9-2.2-1.6-4.5-2.4-6.8c-0.5-4.3-1.2-8.5-1.8-12.8c-0.3-4.5,0.2-9.1,2.4-12.9
			c-0.9-0.4-1.9-0.9-2.8-1.3c1.9-1.4,4-2.1,5.8-3.5c1.4-1.1,3.1-1.3,4.7-1.7c1.3-0.2,2.6,0.4,3.9,0c1.6-0.5,3.1-1.3,4.7-1.5
			c0.3,0.6,0.7,1.1,1,1.7c-0.6,1.2-1.4,2.3-2.5,3c-0.2-0.1-0.6-0.2-0.9-0.3c-1.3-0.5-2.6-0.5-3.9-0.1c-2.7,0.9-5.5,1.6-8.1,3.1
			c0.2,0,0.6,0,0.9,0.1c-0.8,4.8-1.5,9.8-1,14.7c0.5,4.2,0.9,8.4,2.2,12.3c1.3,4.1,4,7.6,7.2,9.9c7.2,4.9,15.4,7.8,23.7,8.7
			c4.2,0,8.5-0.8,12.3-2.9c6-2.7,11.5-7.5,14.2-14.3c3-7.3,2.8-15.7,2.9-23.6c-3.1-1.8-6.2-3.5-9.6-4.6c-0.7-0.4-1-1.4-1.2-2.2
			C644.1,313.7,644.4,313,644.7,312.3z"/>
		<path class="st38" d="M606.4,309c1.2-0.1,2.4-0.3,3.6-0.5c-0.9,0.7-1.7,1.5-2.6,2.2C607.1,310.1,606.7,309.5,606.4,309z"/>
		<path class="st12" d="M644.9,316.7c3.3,1.2,6.4,2.8,9.6,4.6c-0.1,7.9,0.1,16.2-2.9,23.6c-2.7,6.8-8.3,11.6-14.2,14.3
			c-3.8,2.1-8.1,2.9-12.3,2.9c-8.3-0.9-16.5-3.8-23.7-8.7c-3.2-2.3-5.9-5.8-7.2-9.9c-1.3-3.9-1.7-8.2-2.2-12.3
			c-0.5-4.9,0.2-9.9,1-14.7c3.7-1,7.4-2.3,11.1-3.1c0.2,0.1,0.6,0.2,0.9,0.3c-4.7,7-6.4,16.8-3.6,25.1c3.2,9.5,11.4,16.6,20.2,17.4
			c6.7,0.8,13.5-2.1,18.4-7.3c6.2-6.6,8.9-17.2,6.8-26.7C646.3,320.3,645.6,318.5,644.9,316.7z"/>
		<path class="st39" d="M616.3,318.6c1.4-3.5,5-5.5,8.2-4.3c4.2,1.3,6.4,7.7,3.8,11.9c-1.9,3.3-5.5,4.1-8.8,3.9
			c-1.3,1.6-2.3,3.7-4.3,4.2c-1.9,0.7-4.2,0.2-5.6-1.5c-2.7-3.3-3.1-9.3-0.2-12.7C611.2,318,614.1,317.3,616.3,318.6z"/>
		<path class="st40" d="M660.9,319.4c0.7,0.6,1.5,1.2,1.9,2.2c0.1,3.9,0.2,7.7-0.4,11.6c-0.8,0-1.5,0-2.3,0c0.4-2.8,0.3-5.6,0.5-8.3
			c0.5-0.1,1-0.2,1.5-0.3C662.4,322.7,662.1,320.8,660.9,319.4z"/>
		<path class="st8" d="M574.6,308.6c2.2,3.4,1.3,7.9,0.4,11.6c0.1,1.1-1.4,0.7-1-0.1C574.9,316.4,574.6,312.5,574.6,308.6z"/>
		<path class="st41" d="M600.2,313.3c1.3-0.4,2.6-0.4,3.9,0.1c-3.8,0.7-7.4,2.1-11.1,3.1c-0.2,0-0.6,0-0.9-0.1
			C594.6,315,597.4,314.2,600.2,313.3z"/>
		<path class="st5" d="M663.6,321.8c1.5,1.7,3.3,3,5,4.4c1,2.6,2.6,4.9,4.6,6.7c-0.6,4,0.7,8.1,3.1,11c1.2,1.5,3,2.2,4,3.9
			c1.1,1.7,2.6,3,3.8,4.6c1.8,3.2,3.9,6.2,6.4,8.7c-16.7,11.9-36.6,17.8-56.2,16.6c8.3-2.6,16-8.3,21.4-16
			C663.6,350.7,666.3,335.5,663.6,321.8z"/>
		<path class="st6" d="M578.9,318.6c0.9-2.2,1.6-4.6,2.5-6.9C581.4,314.3,581,317.3,578.9,318.6z"/>
		<path class="st42" d="M667.6,324c0.5-0.4,0.8-0.2,0.8,0.5C667.8,324.8,667.6,324.7,667.6,324z"/>
		<path class="st27" d="M586.7,316.1c0.2-0.2,0.4-0.3,0.5-0.5c0.9,0.4,1.8,0.9,2.8,1.3c-2.2,3.8-2.7,8.4-2.4,12.9
			c-0.3,1.5-0.8,3.1-0.6,4.7c0.3,2.8,1.3,5.6,2.4,8.1c0.7,2.3,1.5,4.5,2.4,6.8c0.7,2,1.1,4.2,1.4,6.3c-4.4-6.3-6.8-14.3-7.8-22.2
			c0.6-0.8,1.5-1.5,1.6-2.7c0.2-2.1-0.1-4.3,0.1-6.4c0.1-2.2,0.8-4.3,1.5-6.3C587.9,317.4,587.3,316.8,586.7,316.1z"/>
		<path class="st43" d="M659,325.1c0.5,0,1.1-0.1,1.7-0.2c-0.1,2.8-0.1,5.6-0.5,8.3c-1,2.5-1.8,5.2-2.6,7.9c0.1-2.2,0.5-4.3,0.9-6.4
			C659,331.5,658.8,328.3,659,325.1z"/>
		<path class="st7" d="M669.6,326.6c1.8,0.4,2.4,2.4,3.2,4.1C671.5,329.5,670.5,328.2,669.6,326.6z"/>
		<path class="st44" d="M585.4,317.4c0.4-0.5,0.9-0.9,1.3-1.2c0.6,0.6,1.2,1.3,1.8,1.9c-0.7,2.1-1.3,4.1-1.5,6.3
			c-0.2,2.1,0.1,4.3-0.1,6.4c-0.1,1.1-1,1.9-1.6,2.7c0-0.2-0.1-0.7-0.1-0.9c-0.5-3.2-0.3-6.5,0.3-9.6
			C585.8,321,585.6,319.2,585.4,317.4z"/>
		<path class="st45" d="M584.1,318.9c0.2-0.7,0.7-1.1,1.2-1.5c0.2,1.8,0.5,3.7,0.1,5.5c-0.6,3.2-0.8,6.4-0.3,9.6
			c-0.4,0-1.1-0.1-1.5-0.1c-0.4-2.1-1-4.1-0.9-6.3C582.8,323.7,583.3,321.2,584.1,318.9z"/>
		<path class="st5" d="M581.3,321.8c0.6-1.5,1.4-2.8,2.5-3.8c-2.9,5.7-3.4,12.5-2.4,18.9c0.5,3.2,1.3,6.3,1.9,9.4
			c1.7,8,5.6,15.3,10.9,20.8c-10.3-4-20.7-7.9-31.5-9.8c-1.8-0.5-3.7-0.4-5.4-0.9c-4-4.7-7.9-10.4-8-17.3c2.5-1.3,4.8-2.9,7.2-4.4
			c1.5-0.1,3,0.2,4.5-0.3c1.4-0.6,2.4-1.9,3.6-2.7c1-0.7,1.7-1.6,2.6-2.5c0.8-0.6,1.7-0.8,2.6-1.4c1-0.6,1.6-1.7,2.3-2.7
			c1,0.1,2.3,0.1,2.8-1.1c0.7-1.7,2.4-2.3,3.3-3.9C579.4,320.2,580.4,321,581.3,321.8z"/>
		<path class="st7" d="M701.1,334.9c1.2-0.4,2.3-0.9,3.5-1.2c-1,1.1-2.2,1.7-3.4,2.5c-2.3,1.2-4.7,2.6-7.2,2.9
			c-5.5,0.5-11-0.7-16.2-2.4c-0.6-0.1-0.9-0.6-0.8-1.3C684.7,338.8,693.3,337.6,701.1,334.9z"/>
		<path class="st6" d="M704.6,339.4c2.6-1.1,5-2.7,7.6-4.1c-1.2,1.9-3,3.1-4.6,4.5c-5.2,4.1-11.3,6.6-17.5,7.2
			c-2.7,0.2-5.5,0.3-8-0.9c-2.1-0.9-3.8-2.9-4.6-5.3c2,1.6,4.3,2.6,6.7,2.5C691.2,343.5,698.2,342.3,704.6,339.4z"/>
		<path class="st7" d="M576,319.6c0.7-0.2,0.9,0.2,0.6,0.9C575.9,320.7,575.7,320.4,576,319.6z"/>
		<path class="st24" d="M619.6,330.1c3.2,0.2,6.9-0.6,8.8-3.9c3.5,2,7.5,2.1,11.2,3.6c-1.9,3.5-4.3,6.6-6.5,9.8
			c-1.2,1.4-2.2,3.6-4.2,3.5c-3.4,0-6.7-0.9-10-1.7c-1.3-0.4-2.6-0.6-3.7-1.5c-0.3-1.8,0.2-3.7,0.1-5.5
			C617.3,333.7,618.3,331.7,619.6,330.1z"/>
		<path class="st7" d="M673.7,333.3c1.5,0.8,0.6,3,1.6,4.3c0.9,1.4,1.2,3.1,1.5,4.7C674.9,339.8,673.6,336.6,673.7,333.3z"/>
		<path class="st7" d="M675.2,334.4c0.5,0.3,1,0.5,1.5,0.8c-0.1,0.3-0.3,1-0.4,1.3C675.5,336.2,675.3,335.3,675.2,334.4z"/>
		<path class="st6" d="M573.4,321.6c0.4,0.2,0.7,0.4,1.1,0.7c-0.6,0.7-1.2,1.4-1.9,2C572.8,323.4,573.1,322.5,573.4,321.6z"/>
		<path class="st34" d="M564.5,320.6c0.2,0.1,0.5,0.3,0.7,0.5c-0.3,2.5-0.4,5.1-1.9,7.2c-1.5,2.6-4.8,3.3-7,1.6
			c-0.7-0.3-1.4-1.5-2.3-0.9c0.4-0.7-0.3-1.3-0.6-1.8c-0.6-0.9-1.2-1.8-1.7-2.7c-0.3,0.2-1,0.4-1.3,0.6c0.4-0.4,0.9-0.8,1.3-1.2
			c1.6,2.7,3.6,5.8,6.6,6.1c2,0.4,3.8-1.3,4.5-3.3C563.6,324.6,563.9,322.6,564.5,320.6z"/>
		<path class="st8" d="M676.7,337.6c1.6,0.6,3,1.4,4.7,1.7c2.6,0.7,5.3,0.5,7.9,1c-2.9,0.6-5.9,0.3-8.8-0.3
			C679.1,339.6,677.5,339.1,676.7,337.6z"/>
		<path class="st3" d="M582.7,326.2c0,2.1,0.5,4.2,0.9,6.3c0.6,5.1,1.9,9.9,3,14.8c-1.8-3.5-2.8-7.5-3.8-11.4
			C582.1,332.7,582.4,329.4,582.7,326.2z"/>
		<path class="st46" d="M587.5,329.8c0.6,4.3,1.2,8.5,1.8,12.8c-1.1-2.6-2-5.3-2.4-8.1C586.8,332.9,587.3,331.3,587.5,329.8z"/>
		<path class="st47" d="M583.7,332.5c0.4,0,1.1,0.1,1.5,0.1c0,0.2,0.1,0.7,0.1,0.9c1.1,7.9,3.4,16,7.8,22.2c0.9,1.4,1.9,2.6,3,3.7
			c3.3,3.9,7.3,7.2,11.7,9.2c6.8,2.8,14.1,3.1,21.2,2.3c0.6,0,1.2,0,1.8,0c7.1,0.2,13.9-3.6,18.9-9.1c1-1,1-2.7,1.6-4
			c1.1-1.4,2.5-2.3,3.6-3.7c1.6-2,2.6-4.6,3.5-7.2c0.2,0,0.7-0.1,0.9-0.1c-4.1,11.9-12.9,21.7-23.7,25.3c-4.6,1.6-9.4,1.5-14.1,1.1
			c-8.2-1-16.5-2.9-23.5-8.1c-5.5-4.2-8.8-11-11.1-17.9C585.6,342.3,584.3,337.5,583.7,332.5z"/>
		<path class="st48" d="M656.3,344.6c0.6,0.8,1.2,1.5,1.9,2.2c-0.9,2.5-1.8,5.1-3.5,7.2c-1,1.4-2.5,2.3-3.6,3.7
			c-55.1,1.6-0.5,3-1.6,4c-5,5.6-11.9,9.4-18.9,9.1c0.5-0.7,0.9-1.3,1.4-2c2.6-1,5.2-1.4,7.9-2c1.3-0.2,2.1-1.5,3-2.6
			c1.2-1.5,2.9-2.1,4.2-3.4c1.4-1.5,2.4-3.3,3.5-5.1C652.6,352.3,655.1,348.8,656.3,344.6z"/>
		<path class="st5" d="M534.8,340.9c4.3-1.6,8.8-1.8,13.2-2.7c-0.5,4,0.3,8.1,2.2,11.5c1.5,2.9,3.6,5.1,5.7,7.4
			c-8.3-2.1-16.8-3.7-25.2-5.2c-1-0.3-2.2-0.7-2.9-1.8c-0.7-1-0.3-2.3,0.1-3.3C529.4,343.8,532.1,342,534.8,340.9z"/>
		<path class="st6" d="M633.3,379.7c20.2,1.2,40.7-5.2,57.6-18.2c1.5,1.4,3.1,2.7,4.8,3.8c-15.5,10.4-33,16.8-50.9,18.1
			c-12.1,0.9-24.4-0.3-36.1-3.9c-9.2-2.6-17.9-6.9-26.3-11.7c-4.3-2.3-8.5-4.6-12.8-6.5c-2.1-0.9-4.4-1.6-6.5-2.6
			c12.1,2.5,23.6,7.5,35.2,11.9c1.4,0.5,2.7,1.4,4,2.2c7.5,4.5,16.1,6.9,24.5,6.3C628.9,379.2,631.1,379.5,633.3,379.7z"/>
		<path class="st49" d="M591.7,349.4c0.9,1.5,1.9,3,3,4.4c2.1,2.5,4.8,4.1,7.4,6c-0.4,1.1-0.7,2.1-1,3.3c-1.5-1.5-2.9-3.2-4.9-3.5
			c-1.1-1.2-2.1-2.4-3-3.7C592.8,353.5,592.5,351.4,591.7,349.4z"/>
		<path class="st4" d="M694.1,371.6c3-0.7,5.8,1.1,8.1,3.2c3.3,2.9,5.7,7.4,6.1,12.3c-1-4-2.6-8-5.6-10.6
			C700.3,373.9,696.9,373.4,694.1,371.6z"/>
		<path class="st50" d="M596.1,359.4c2,0.3,3.5,2,4.9,3.5c2.7,3.1,6.7,3.5,10.2,4.7c5,1.6,10.3,2,15.5,2c0.7,0.5,1.5,0.9,2.2,1.3
			c-7.1,0.8-14.4,0.5-21.2-2.3C603.4,366.6,599.4,363.3,596.1,359.4z"/>
		<path class="st4" d="M686.9,373.8c1.2-1.4,3.1-1.7,4.8-1.8c4.2,0.3,8.5,2.9,10.5,7.3c0.8,1.5,1,3.2,1.8,4.6c0.6,1,1.2,2.2,1.4,3.4
			c-0.5-0.9-0.9-1.9-1.5-2.8c-0.1,0.6-0.2,1.9-0.4,2.6c-0.1-1.4,0.1-2.8-0.7-4c-3-3.8-7.5-5.6-11.8-5.8c-2.2-0.3-4.7-0.2-6.6-1.4
			c6.3-0.9,13,1,18,5.7c-1.1-3.7-3.9-6.5-7.2-7.6C692.6,373,689.7,373.5,686.9,373.8z"/>
		<path class="st51" d="M626.8,369.6c1.8-0.1,3.6-0.3,5.4-0.7c-0.5,0.7-0.9,1.3-1.4,2c-0.6,0-1.2,0-1.8,0
			C628.2,370.5,627.5,370.1,626.8,369.6z"/>
		<path class="st34" d="M679.7,378c1.8-1.2,3.8-1.7,5.9-1.3c4.6,0.7,8.6,4,11.6,8c1.6,2.2,3.3,4.4,4.4,7c-2.3-3.2-4.4-6.7-7.2-9.3
			c-3.8-3.7-9.1-5.4-13.9-4.2c7.5,1.2,14.5,6.9,17.4,15c-1.7-3-3.4-6-5.8-8.2c-3.6-3.4-8.2-5.5-12.8-5.5c-1.9-0.1-3.8-0.2-5.7-0.3
			C675.4,378,677.6,378.1,679.7,378z"/>
		<path class="st2" d="M671.5,380.7c3.5-1.4,7.4-0.3,10.7,1.3c5.4,2.6,10.3,7.4,12.4,13.8c-2.1-4.3-5-8.2-8.9-10.7
			C681.5,381.8,676.3,381.5,671.5,380.7z"/>
		<path class="st34" d="M670.2,381.5c4.6,0.7,8.4,4.2,11.7,7.8c1.9,2.4,3.9,4.9,5.2,7.8c-0.2-0.1-0.7-0.3-1-0.4
			c0-0.1-0.1-0.3-0.2-0.4c-1.1-2.7-3-4.7-4.9-6.7C677.9,386.2,673.7,384.4,670.2,381.5z"/>
		<path class="st2" d="M578.9,371.4c0.3,0,0.9-0.1,1.1-0.2c-0.5,2.1-2.5,3-4,4.1C577,374,578,372.7,578.9,371.4z"/>
		<path class="st2" d="M580.9,371.2c1.3,0.8,1.8,2.5,1.8,4.1c0.3,3.1-0.5,6.3-2.3,8.6c0.9-2.4,1.8-5.1,1.4-7.7
			C581.5,374.6,581,372.9,580.9,371.2z"/>
		<path class="st31" d="M664.7,383.3c1.6-1.3,3.7-0.9,5.4-0.2c1.9,0.8,2.9,3,4.7,3.8c3.3,1.8,6.3,4.4,9,7.3c0.7,0.7,1.2,1.7,2.2,2
			c0,0.1,0.1,0.3,0.2,0.4c0.1,0.3,0.3,0.7,0.4,0.9c0.2-0.1,0.6-0.3,0.8-0.4c1,3.3,3.5,5.3,4.9,8.2c-0.8-0.8-1.4-1.8-2-2.7
			c-0.2,0-0.6,0.1-0.8,0.1c-0.7-2.1-2.1-3.9-3.6-5.4c-3.2-3.8-6.8-7.1-11-9.3c3,4.9,6.3,9.8,8.6,15.3c-3.4-5.4-6.3-11.3-10.5-16
			c-4-1.9-8.4-2-12.7-1.7c3,0.6,6,1.5,8.4,3.8c2.7,2.3,4.5,5.7,5.4,9.4c0.4,1.6-0.1,3.3,0.6,4.9c3.4,9.6,3.7,20.8,0.5,30.5
			c1.4-6,2.2-12.3,1.5-18.5c-0.9-8.7-3.9-17.6-10-23.1c-3.2-2.6-7.1-4.5-11.1-4.3c3.9,2.2,7.9,4.7,10.5,8.9
			c2.6,3.7,3.8,8.7,2.9,13.3c0-3.1,0-6.2-1.3-9c-2-4.9-5.8-8.6-10.1-10.6c2.6,2.2,5.2,4.5,6.8,7.8c4,7.4,3.6,16.4,3.2,24.7
			c-0.1,0-0.2,0.1-0.2,0.1c0.2-5.2,0.2-10.6-0.7-15.7c-0.7-4-2.2-8-4.6-11c-3.3-4.2-8.1-6.6-12.9-7.7c-0.5-0.1-1-0.4-1.5-0.7
			c1.9-0.1,3.8,0.4,5.7,0.5c-1.2-0.9-2.7-1.2-3.7-2.4c1.9,0,3.7,1.7,5.6,1.1c1.2-1.1,2.7-1.4,4-2.1c1.8-1,3.9-1.1,5.9-1.2
			c1.8-0.2,3.5,0.7,5.3,0.9C668.8,383.7,666.7,383.3,664.7,383.3 M657.1,387.1c2.6,0.6,5.3,0.7,7.6,2.3c4.3,2.7,7.1,7.3,9.3,12.1
			c-0.2-4.7-2.7-9.1-6-11.7C664.9,387.3,660.9,387,657.1,387.1z"/>
		<path class="st52" d="M585.9,373.4c1.2,0.7,0.5,2.6,0.6,3.8c0.8-0.3,1.7-0.7,2.6-0.8c-0.8,1.2-1.8,2.2-2.9,2.9
			c-0.2,2.1-0.6,4.2-1,6.2c-0.1-1.8,0.2-3.7,0.2-5.5c-1.7,1.5-2.9,3.7-4.3,5.5c0.9-2.7,2.6-4.9,4.3-7
			C585.4,376.8,585.4,375,585.9,373.4z"/>
		<path class="st31" d="M589.5,381.7c0.6-1.8,1.9-3.2,3.4-4.1c-1.1,2.9-3.1,5.3-3.9,8.3c-1.2,3.3-1.1,6.9-1.1,10.5
			C586.8,391.5,587.7,386.2,589.5,381.7z"/>
		<path class="st53" d="M701.9,392.2C702.1,392.5,702.1,392.5,701.9,392.2z"/>
		<path class="st35" d="M657.1,387.1c3.8-0.1,7.8,0.2,11,2.8c3.3,2.6,5.8,7,6,11.7c-2.2-4.8-5.1-9.4-9.3-12.1
			C662.5,387.7,659.7,387.7,657.1,387.1z"/>
		<path class="st1" d="M591.9,387.8c0.6-2.8,0.6-5.9,1.9-8.5c0.5,4.1-0.9,8.1-1.9,12c-1.2,3.5-2.4,7.1-4.4,10.1
			C589.3,397,591.1,392.6,591.9,387.8z"/>
		<path class="st31" d="M641.5,386.7c2.7,0.5,5.2,2.1,7.6,3.5c4.5,3.2,8.8,7,12.1,11.7c3.3,4.6,5.2,10.7,4.2,16.7
			c-0.1,0-0.2,0-0.2,0c0.9-5.1-0.7-10.5-3.3-14.7c-4.1-6.3-10-10.5-16-14.2c5.7,4.9,9.7,13,9.3,21.3c-0.4-5.2-1.8-10.5-4.7-14.5
			c-2.1-3.3-5.4-5.2-7.8-8.1c1.1,0.3,2.1,0.9,3.2,1.3C644.5,388.6,642.9,388,641.5,386.7z"/>
		<path class="st31" d="M630.5,387c1.3-1.4,3.4-1.3,4.8-0.1c1.8,1.3,2.5,3.8,3.2,5.9c2.4,7.6,2.9,15.9,1.8,23.9c0-0.2,0-0.7,0-0.9
			c0-4.6,0.3-9.3-0.5-13.9c-0.8-4.7-2.1-9.4-4.6-13.3C634.2,386.9,632.2,386.7,630.5,387z"/>
		<path class="st31" d="M607.4,384c1.7,0.1,3.4,0.8,4.5,2.4c0.2-0.1,0.5-0.3,0.7-0.3c-0.1,1.5,1,2.5,1.6,3.7
			c0.2-0.6,0.5-1.2,0.8-1.8c0.2,1.4-0.2,3,0.6,4.3c3.4,6.7,5,14.5,4.5,22.2c-0.3-1.8-0.2-3.6-0.4-5.3c-0.5-5.7-2.1-11.3-4.9-16.1
			c-0.9,3.8-0.8,7.8-2.1,11.4c0.1-4.4,1-8.8,1-13.2c-0.4-0.7-0.9-1.4-1.4-2c-0.8,2.2-1.4,4.6-2.2,6.9c1.2,3,1.8,6.3,2.5,9.5
			c0,3.9,0.1,8-1.2,11.8c1.2-6.5,1-13.6-1.7-19.6c-0.5,1.4-0.9,2.8-1.5,4.1c0.3-1.6,0.9-3.2,1.2-4.8c-1.2-2.7-2.8-5.1-4.1-7.8
			c2.1,1.2,3.5,3.6,4.6,5.9c0.6-2.4,1-4.9,1.5-7.4c-0.7-0.9-1.3-2-2.2-2.7c-0.7-0.1-1.4,0-2.1-0.1c-4.6,6.8-5.6,15.6-6,23.9
			c-0.5-6.6,0.7-13.1,2.4-19.4C604.1,387.3,605.4,385.1,607.4,384z"/>
		<path class="st31" d="M614.8,384.7c2.6,1.1,4.6,3.7,5.9,6.4c-0.1-1.5-0.1-2.9,0.1-4.4c1.5,2.7,1.2,5.9,1.5,8.9
			c1,4.8,1.3,9.8,0.6,14.6c-0.3,2.3-0.5,4.6-0.9,6.9c0.2-5.7,1.3-11.7,0.1-17.3c-0.3,2.3-0.5,4.7-0.9,7c-0.1,0-0.2,0-0.3,0
			c0.5-3.3,0.6-6.7,0.5-10.1c-0.4-3.1-2.2-5.7-3.7-8.2C616.9,387.2,615.7,386.2,614.8,384.7z"/>
		<path class="st31" d="M638.3,388.5c2.9,0.6,5.7,2.1,7.8,4.6c5.8,6.5,8.2,16.2,8,25.4c-0.4-3.6-0.6-7.2-1.5-10.7
			c-1.3-5.6-4-11-8.1-14.5c-1.4-1.1-2.8-2.3-4.3-3.2C639.5,389.6,638.6,389.3,638.3,388.5z"/>
		<path class="st54" d="M624.1,387.5c1.3,0,2.7,0.4,3.8,1.5c0.4,0.5,0.9,1.1,1.3,1.7c0.1-0.3,0.4-0.9,0.6-1.2
			c2.3,2.1,4.2,4.7,5.4,7.7c2.5,5.9,3.8,12.5,4.1,19l-0.3,0.2c-0.5-6-1.6-12.1-4.1-17.5c-1.5-3-3.3-5.8-5.4-8.3
			c4.1,8.5,7,17.9,7.7,27.6c-1.6-9.6-4-19.4-9.3-27.3C627,389.3,625.4,388.6,624.1,387.5z"/>
		<path class="st55" d="M627.8,389c0.7-0.3,1.3,0,1.9,0.5c-0.1,0.3-0.4,0.9-0.6,1.2C628.7,390.1,628.3,389.6,627.8,389z"/>
		<path class="st31" d="M622.2,389.1c1.5,1.4,2.6,3.3,3.8,5c-0.1-1.2-0.4-2.4-0.3-3.5c1.1,1.9,1.6,4.2,2.2,6.4
			c0.4,2,1.5,3.7,2.2,5.6c2.4,6.2,4.6,12.7,5.2,19.5c-1.6-7-3.4-14.2-6.7-20.5c0.5,4.7,1,9.4,0.8,14.1c-0.1,2.4-0.3,4.9-0.4,7.3
			l-0.2,0c0.4-8.1,0.2-16.5-1.8-24.4C625.4,395.3,623.2,392.5,622.2,389.1z"/>
		<path class="st31" d="M639,393.5c1.2-1-57.9-7.9,4.2-0.4c2.7,1,4.5,3.9,5.1,6.9c1.1,5-0.1,10.2,0.3,15.3c0.1,1.4,0.5,2.7,0.6,4.1
			c-2.4-6.2,0.1-13.1-1.8-19.4C646.3,395.9,642.7,393.3,639,393.5z"/>
		<path class="st56" d="M594.9,390.8c-0.2-0.8,0.7-1.8,1.4-1.8C596.1,389.6,595.6,390.9,594.9,390.8z"/>
		<path class="st57" d="M594,392.1c-0.2-0.6,0.3-1.5,0.9-1.4C595.1,391.3,594.5,392.2,594,392.1z"/>
		<path class="st56" d="M593.6,392.1h0.4c0,0.2-0.1,0.6-0.1,0.8l-0.3,0C593.6,392.7,593.6,392.3,593.6,392.1z"/>
		<path class="st58" d="M639.2,416.3c0.3-0.1,0.8-0.3,1.1-0.4c0,0.2,0,0.7,0,0.9c0,0.5-0.2,1-0.5,1.4c-0.1,0.2-0.4,0.5-0.5,0.6
			l-0.2,0.3c-0.1-0.9-0.2-1.8-0.2-2.7L639.2,416.3z"/>
		<path class="st59" d="M639.4,418.8c0.1-0.2,0.4-0.5,0.5-0.6c0.1,0.9,0.1,1.9-0.3,2.7C638.9,420.5,639.2,419.4,639.4,418.8z"/>
	</g>
</g>
</svg>
