<?xml version="1.0" encoding="utf-8"?>
<!-- Generator: Adobe Illustrator 21.1.0, SVG Export Plug-In . SVG Version: 6.00 Build 0)  -->
<svg version="1.1" id="Layer_1" xmlns="http://www.w3.org/2000/svg" xmlns:xlink="http://www.w3.org/1999/xlink" x="0px" y="0px"
	 viewBox="0 0 1000 1300" style="enable-background:new 0 0 1000 1300;" xml:space="preserve">
<style type="text/css">
	.st0{fill:#A84333;}
	.st1{fill:#113928;}
	.st2{fill:#FFFFFF;}
	.st3{fill:#E9D0CC;}
</style>
<g id="g33588_1_">
	<path id="path33590_1_" class="st0" d="M532.5,354.7c4-1.1,16.5-8.8,23.5-6.9c81.6,21,125.6,21.6,158.6-39.3
		c0.3-0.4-0.5,2.4-1.9,6.2c-2,5.7-4,10.2-5.7,13.3c0,0,19.3,6.4,20.6,28c0,0-5-20.3-24.2-23c0,0-5.9,9-8.3,10.2
		c0,0,17.2,6.9,19.6,26.1c0,0-5.2-17.5-23.4-22.5c0,0-7.4,7.5-11.6,8.8c0,0,16.5,3.7,22.9,24.7c0,0-13.6-17-30.1-20.7
		c0,0-27.8,18.1-117.7-6.4C555.2,353.4,547.6,350.6,532.5,354.7z"/>
	<path id="path33592_1_" class="st0" d="M716.3,299.4c29.1-4.4,53.3-28.7,53.3-28.7c-25.1,21.9-52.9,11-52.9,11
		c26.8-1.8,39.4-34.4,39.4-34.4c-8.2,20.5-47.6,23.8-47.6,23.8c22.7-5.5,32.1-36.9,32.1-36.9c-14.7,33.6-47.7,26.9-47.7,26.9
		c20.8-3.7,27.4-36.2,27.4-36.2c-10.6,39.7-46.7,26.5-46.7,26.5c16.8-1.5,22.9-32.9,22.9-32.9c-4.4,26.9-35.7,25.6-35.7,25.6
		c-75.1-12.4-128.2,96.9-128.2,96.9C646.4,195.6,716.3,299.4,716.3,299.4"/>
	<path id="path33594_1_" class="st1" d="M670,302.2c0,0,0.3,1,0.8,2.8c0.1,0.4,0.3,1,0.4,1.5c0.1,0.6,0.3,1.2,0.4,1.9l0.4,2.2
		c0.1,0.7,0.1,1.6,0.3,2.5c0,0.4,0.1,0.9,0.1,1.3v1.5c0,1,0.1,2.1,0.1,3.1c0,1.2-0.1,2.2-0.1,3.4c-0.1,1.2-0.3,2.4-0.4,3.7
		c-0.8,5-2.4,10.9-5.7,16.2c-3.3,5.5-8.2,10.3-14.4,13.6c-0.8,0.4-1.6,0.7-2.4,1l-1.2,0.4l-0.7,0.3h-0.4l-0.3,0.1
		c-1.6,0.4-3,0.9-4.9,1.2c-3.6,0.6-7.1,0.4-10.7,0c-3.6-0.6-7-1.8-10.4-3.2c-3.3-1.6-6.5-3.7-9.5-6.1l-2.1-1.9
		c-0.8-0.6-1.3-1.5-2-2.1l-1.1-1c-0.3-0.4-0.7-0.7-0.9-1.2c-0.7-0.7-1.2-1.6-1.9-2.4c-2.4-3.2-4.2-7.1-5.8-10.9
		c-0.7-2.2-1.3-3.8-1.7-6.1c-0.5-2.2-0.8-4.3-1.1-6.5c-0.3-4.3-0.1-8.7,0.8-12.8c0.9-4.1,2.2-8.3,4.1-12c2-3.7,4.2-7.1,6.9-10
		c2.6-2.8,5.7-5.3,8.9-7.1c1.6-1,3.2-1.6,4.9-2.5l0.3-0.1h0.3l0.3-0.1l0.5-0.1l1.2-0.3c0.8-0.3,1.5-0.4,2.4-0.7
		c1.7-0.3,3.6-0.7,5.2-0.9c0.8,0,1.6-0.1,2.5-0.1c0.8,0,1.6,0,2.4,0.1c1.6,0,3.2,0.3,4.6,0.6c0.8,0.1,1.5,0.3,2.2,0.6
		c0.7,0.3,1.5,0.4,2.1,0.6c5.7,2.1,10.2,5.5,13.6,8.9l2.4,2.7l2,2.7c0.7,0.9,1.2,1.8,1.7,2.5c0.3,0.4,0.5,0.7,0.8,1.2
		c0.3,0.4,0.4,0.7,0.7,1.2c0.4,0.7,0.8,1.5,1.2,2.2c0.4,0.7,0.7,1.5,0.9,2.1l0.8,1.8c0.3,0.6,0.4,1,0.5,1.5
		C669.6,301.2,670,302.2,670,302.2z"/>
	<path id="circle33596_1_" d="M650.3,311.5c0,12.5-7.3,22.7-16.4,22.7s-16.4-10.1-16.4-22.7c0-12.5,7.3-22.7,16.4-22.7
		S650.3,299,650.3,311.5z"/>
	<path id="ellipse33598_1_" class="st2" d="M644.5,298c1.9,3.2,2.4,7.1,1,8.7s-4.1,0.4-6-2.8c-1.9-3.2-2.4-7-1-8.7
		C639.9,293.5,642.6,294.8,644.5,298z"/>
	<path id="path33600_1_" class="st3" d="M536.9,311.5c0,0,0.5-0.7,1.3-2.4c0.9-1.5,2.1-3.8,3.8-6.6c0.9-1.3,1.9-2.9,2.9-4.6
		c0.5-0.7,1.1-1.6,1.6-2.6c0.5-0.9,1.2-1.6,1.9-2.6c1.3-1.8,2.6-3.8,4.1-5.7c1.5-2,3-4,4.8-6c1.7-2,3.4-4.2,5.3-6.4
		c1.9-2,3.8-4.2,5.9-6.4c2.1-2,4.2-4.2,6.5-6.2c1.2-1.1,2.2-2,3.4-3.1c1.2-0.9,2.4-2,3.6-2.9c4.9-3.8,10-7.7,15.6-10.8
		c2.8-1.6,5.6-3.1,8.3-4.6c2.9-1.3,5.7-2.7,8.6-3.7c5.8-2.2,11.8-3.8,17.6-5.1c5.8-1.1,11.8-1.8,17.3-1.8c5.7-0.2,11.1,0.2,16.3,0.9
		c2.5,0.2,5,0.7,7.4,1.1c2.4,0.5,4.8,0.9,6.9,1.6c2.2,0.5,4.4,1.1,6.3,1.8c2,0.5,3.8,1.3,5.7,2c1.7,0.5,3.4,1.3,4.9,2
		c1.5,0.5,2.9,1.3,4.1,1.8c2.5,1.1,4.4,2.2,5.7,2.9l2,1.1c0,0-0.7-0.2-2.1-0.7c-1.3-0.5-3.3-1.3-5.8-2c-1.3-0.4-2.6-0.9-4.2-1.3
		c-1.6-0.4-3.2-0.9-4.9-1.5c-1.7-0.5-3.7-0.9-5.7-1.5c-2-0.5-4.1-0.9-6.3-1.3c-2.2-0.5-4.5-0.7-6.9-1.1c-2.4-0.2-4.9-0.5-7.4-0.7
		c-5-0.4-10.4-0.4-15.9,0c-5.6,0.2-11.2,1.1-16.9,2.4c-5.7,1.1-11.5,2.9-17.1,5.1c-2.9,0.9-5.7,2.4-8.5,3.5
		c-2.8,1.5-5.6,2.7-8.2,4.2c-2.6,1.5-5.3,3.1-7.9,4.8c-1.3,0.9-2.5,1.8-3.8,2.6c-1.2,0.9-2.5,1.6-3.7,2.7l-3.6,2.7
		c-1.2,0.9-2.2,2-3.4,2.9c-2.2,1.8-4.5,3.8-6.6,5.8c-2.1,1.8-4.1,4-6.1,5.8c-2,2-3.7,4-5.4,5.8c-3.4,3.8-6.5,7.5-9.1,11
		c-0.7,0.9-1.3,1.6-2,2.4c-0.7,0.7-1.2,1.6-1.7,2.4c-1.2,1.5-2.1,2.9-3,4.2C539,308.6,536.9,311.5,536.9,311.5z"/>
	<path id="path33602_1_" class="st0" d="M446.4,356.3c-4-1.1-16.5-8.8-23.5-6.9c-81.6,21-125.6,21.6-158.6-39.3
		c-0.3-0.4,0.5,2.4,1.9,6.2c2,5.7,4,10.2,5.7,13.3c0,0-19.3,6.4-20.6,28c0,0,5-20.3,24.2-23c0,0,5.9,9,8.3,10.2
		c0,0-17.2,6.9-19.6,26.1c0,0,5.2-17.5,23.4-22.5c0,0,7.4,7.5,11.6,8.8c0,0-16.5,3.7-22.9,24.7c0,0,13.6-17,30.1-20.7
		c0,0,27.8,18.1,117.7-6.4C423.7,354.8,431.3,352.1,446.4,356.3z"/>
	<path id="path33604_1_" class="st0" d="M262.6,301.1c-29.1-4.4-53.3-28.7-53.3-28.7c25.1,21.9,52.9,11,52.9,11
		c-26.8-1.8-39.4-34.4-39.4-34.4c8.2,20.5,47.6,23.8,47.6,23.8c-22.7-5.5-32.1-36.9-32.1-36.9c14.8,33.5,47.9,26.9,47.9,26.9
		c-20.8-3.7-27.4-36.2-27.4-36.2c10.6,39.7,46.7,26.5,46.7,26.5c-16.8-1.5-22.9-32.9-22.9-32.9c4.4,26.9,35.7,25.6,35.7,25.6
		c75.1-12.4,128.2,96.9,128.2,96.9C332.5,197.3,262.6,301.1,262.6,301.1"/>
	<path id="path33606_1_" class="st1" d="M304.9,300c0,0,0.4-0.9,0.9-2.9c0.1-0.5,0.3-1.1,0.5-1.5l0.8-1.8c0.3-0.6,0.5-1.4,0.9-2.1
		c0.4-0.8,0.8-1.5,1.2-2.3c0.3-0.5,0.4-0.8,0.7-1.2c0.3-0.5,0.5-0.8,0.8-1.2c0.5-0.8,1.1-1.8,1.7-2.6l2-2.7l2.4-2.7
		c3.4-3.5,7.9-7,13.6-9.1c0.7-0.2,1.5-0.5,2.1-0.6c0.8-0.2,1.5-0.5,2.2-0.6c1.6-0.3,3-0.6,4.6-0.6c0.8,0,1.6-0.2,2.4-0.2
		s1.6,0.2,2.5,0.2c1.6,0,3.4,0.5,5.2,0.9c0.9,0.2,1.6,0.5,2.4,0.8l1.2,0.3l0.5,0.2l0.3,0.2h0.3l0.3,0.2c1.6,0.8,3.3,1.5,4.9,2.6
		c3.2,1.8,6.2,4.4,8.9,7.3c2.6,3,5,6.5,6.9,10.4c1.9,3.8,3.3,8.1,4.1,12.3c0.8,4.4,1.1,8.8,0.8,13.3c-0.3,2.3-0.5,4.4-1.1,6.7
		c-0.4,2.3-1.2,4.1-1.7,6.1v0.3l-0.1,0.3l-0.1,0.3l-0.3,0.8l-0.7,1.5c-0.4,1.1-0.9,2-1.3,2.9c-0.9,2-2.1,3.7-3.2,5.5
		c-0.5,0.9-1.2,1.7-1.9,2.4c-0.3,0.5-0.7,0.8-0.9,1.2l-1.1,1.1c-0.7,0.8-1.3,1.5-2,2.1l-2.1,2c-3,2.4-6.2,4.6-9.5,6.2
		c-3.4,1.5-6.9,2.7-10.4,3.4c-3.6,0.5-7.1,0.8-10.7,0c-1.9-0.3-3.3-0.8-4.9-1.2l-0.3-0.2h-0.4l-0.7-0.3l-1.2-0.5
		c-0.8-0.3-1.6-0.6-2.4-1.1c-6.1-3.2-11.1-8.4-14.4-14c-3.3-5.6-4.9-11.6-5.7-16.8c-0.1-1.4-0.3-2.6-0.4-3.8c0-1.2-0.1-2.4-0.1-3.5
		c0-1.1,0.1-2.3,0.1-3.2V313c0-0.5,0.1-0.9,0.1-1.4c0.1-0.9,0.1-1.8,0.3-2.6l0.4-2.3c0.1-0.8,0.3-1.4,0.4-2s0.3-1.1,0.4-1.5
		C304.6,301,304.9,300,304.9,300z"/>
	<path id="circle33608_1_" d="M361.2,313.2c0,12.5-7.3,22.7-16.4,22.7s-16.4-10.1-16.4-22.7c0-12.5,7.3-22.7,16.4-22.7
		S361.2,300.6,361.2,313.2z"/>
	<path id="ellipse33610_1_" class="st2" d="M334.3,299.5c1.9-3.2,4.6-4.4,6-2.8c1.4,1.6,1,5.5-1,8.7c-1.9,3.2-4.6,4.4-6,2.8
		S332.4,302.7,334.3,299.5z"/>
	<path id="path33612_1_" class="st3" d="M442,313.2c0,0-2.1-2.9-5.7-8c-0.9-1.3-2-2.6-3-4.2c-0.5-0.7-1.2-1.5-1.7-2.4
		c-0.7-0.7-1.3-1.6-2-2.4c-2.6-3.5-5.8-6.9-9.1-11c-1.7-1.8-3.6-3.8-5.4-5.8c-2-1.8-3.8-4-6.1-5.8c-2.1-2-4.2-4-6.6-5.8
		c-1.2-0.9-2.2-1.8-3.4-2.9l-3.6-2.7c-1.2-0.9-2.4-1.8-3.7-2.7c-1.2-0.9-2.5-1.8-3.8-2.6c-2.6-1.6-5.2-3.3-7.9-4.8
		c-2.6-1.6-5.4-2.9-8.2-4.2c-2.8-1.3-5.6-2.6-8.5-3.5c-5.7-2.2-11.4-4-17.1-5.1c-5.7-1.1-11.4-2-16.9-2.4c-5.6-0.4-10.8-0.4-15.9,0
		c-2.5,0.2-5,0.5-7.4,0.7c-2.4,0.4-4.6,0.5-6.9,1.1c-2.2,0.4-4.4,0.9-6.3,1.3c-2,0.4-3.8,0.9-5.7,1.5c-1.7,0.4-3.4,0.9-4.9,1.5
		c-1.6,0.4-2.9,0.9-4.2,1.3c-2.5,0.9-4.5,1.6-5.8,2c-1.3,0.5-2.1,0.7-2.1,0.7s0.7-0.4,2-1.1c1.3-0.7,3.2-1.6,5.7-2.9
		c1.2-0.5,2.6-1.3,4.1-1.8c1.5-0.7,3.2-1.3,4.9-2s3.6-1.3,5.7-2c2-0.7,4.1-1.3,6.3-1.8c2.2-0.5,4.5-1.1,6.9-1.6
		c2.4-0.4,4.9-0.9,7.4-1.1c5.2-0.7,10.6-0.9,16.3-0.9c5.7,0.2,11.5,0.7,17.3,1.8c5.8,1.1,11.8,2.7,17.6,5.1c2.9,1.1,5.8,2.4,8.6,3.7
		c2.8,1.5,5.7,2.7,8.3,4.6c5.6,3.1,10.7,6.9,15.6,10.8c1.2,0.9,2.4,2,3.6,2.9c1.2,0.9,2.4,2,3.4,3.1c2.2,2,4.4,4.2,6.5,6.2
		s4,4.4,5.9,6.4c1.9,2.2,3.6,4.4,5.3,6.4c1.7,2,3.2,4.2,4.8,6c1.5,2,2.8,4,4.1,5.7c0.7,0.9,1.2,1.8,1.9,2.6c0.5,0.9,1.1,1.6,1.6,2.6
		c1.1,1.6,2,3.1,2.9,4.6c1.7,2.7,2.9,4.9,3.8,6.6C441.5,312.4,442,313.2,442,313.2z"/>
</g>
</svg>
