<?xml version="1.0" encoding="utf-8"?>
<!-- Generator: Adobe Illustrator 21.1.0, SVG Export Plug-In . SVG Version: 6.00 Build 0)  -->
<svg version="1.1"
	 id="svg2" inkscape:output_extension="org.inkscape.output.svg.inkscape" inkscape:version="0.47pre1 r21720" sodipodi:docname="hair_manga.svg" sodipodi:version="0.32" xmlns:cc="http://creativecommons.org/ns#" xmlns:dc="http://purl.org/dc/elements/1.1/" xmlns:inkscape="http://www.inkscape.org/namespaces/inkscape" xmlns:ns1="http://sozi.baierouge.fr" xmlns:rdf="http://www.w3.org/1999/02/22-rdf-syntax-ns#" xmlns:sodipodi="http://sodipodi.sourceforge.net/DTD/sodipodi-0.dtd" xmlns:svg="http://www.w3.org/2000/svg"
	 xmlns="http://www.w3.org/2000/svg" xmlns:xlink="http://www.w3.org/1999/xlink" x="0px" y="0px" viewBox="0 0 984 798"
	 style="enable-background:new 0 0 984 798;" xml:space="preserve">
<style type="text/css">
	.st0{fill:url(#path1342_1_);stroke:#000000;stroke-width:0.5;}
	.st1{fill:url(#path11907_1_);stroke:#000000;stroke-width:0.5;}
	.st2{fill:url(#path11909_1_);stroke:#000000;stroke-width:0.5;}
	.st3{fill:url(#path5900_1_);}
	.st4{fill:url(#path5904_1_);}
	.st5{fill:url(#path5908_1_);}
	.st6{fill:url(#path5912_1_);}
	.st7{fill:url(#path9328_1_);stroke:#000000;}
	.st8{fill:url(#path9330_1_);stroke:#000000;}
	.st9{fill:url(#path9334_1_);stroke:#000000;}
	.st10{fill:url(#path9336_1_);stroke:#000000;}
	.st11{fill:url(#path9332_1_);stroke:#000000;}
	.st12{fill:url(#path9326_1_);stroke:#000000;}
	.st13{fill:url(#path4122_2_);}
	.st14{fill:url(#path4106_1_);}
</style>
<sodipodi:namedview  bordercolor="#666666" borderopacity="1.0" id="base" inkscape:current-layer="layer11" inkscape:cx="308.85061" inkscape:cy="107.01592" inkscape:document-units="px" inkscape:guide-bbox="true" inkscape:pageopacity="0.0" inkscape:pageshadow="2" inkscape:window-height="824" inkscape:window-maximized="0" inkscape:window-width="1270" inkscape:window-x="164" inkscape:window-y="25" inkscape:zoom="1.4142136" pagecolor="#ffffff" showgrid="false" showguides="true">
	</sodipodi:namedview>
<g id="layer11" transform="translate(-151.24 -30.356)" inkscape:groupmode="layer" inkscape:label="front hair dark">
	<g id="g3141">
		<linearGradient id="path1342_1_" gradientUnits="userSpaceOnUse" x1="303.4377" y1="400.5142" x2="941.5541" y2="400.5142">
			<stop  offset="0" style="stop-color:#FFCB15"/>
			<stop  offset="0.2969" style="stop-color:#F5F5F5"/>
			<stop  offset="1" style="stop-color:#FFD555"/>
		</linearGradient>
		<path id="path1342_2_" sodipodi:nodetypes="ccccccccccccccccccccccccccccccccc" class="st0" d="M419.8,349
			c-14.6,41.5,34.6,124.1,47.6,136.4c-8-18.9-14.1-136.7-2.5-160.5c-3.1,27.3,48.3,130.5,74.3,145c-17.7-20.8-23-152.9,0-173.3
			c-27.3,50.4,25.9,167.9,50,167.9c-34.7-57-11.4-158.5,16.3-181.4c-19.1,20.3-24.2,45.7-24.2,45.7c0,29.6,50.2,120.8,85.4,134.3
			c-29.1-36.3-46.3-172.6-6.5-186.8c-8.6,11.9,1.9,46.1,1.9,46.1c9,26,28.7,108.5,27.2,135.4c34.7-41.9,12.8-176.8,12.8-186.8
			c36.3,28.9,42.4,121.2,50,146.4c16.6-25.6,32.9-113.2,18.7-127c15.3,1.4,51.6,101.6,47.6,132.3c23.6-14.4,2.7-122.4,2.7-122.4
			c53.1,47,57.8,282.1,57,304c26.6-30.4,7.6-265.5-6.2-275.6c12.8,8.6,18.2,130.6,18.2,130.6c6.5,2.6,11.9,108.3,11.9,108.3
			c24.2-38.3-0.6-241.1-1.2-252.4c0.4,13.1,19.2,84.1,19.2,84l-5,17.9c0,0,23.5,55.4,11,105.9C990,261.4,851.1,79.4,575.5,154.9
			c-170.9-1.2-403.4,299.5-180.2,508.5c-24.3-29.9-56.7-246.5-35-282.4c-18.3,36.7-1.6,128.6-1.6,128.6
			c16.2,50.4,20.2,103.6,36.6,138.8c8.3-63.3-15.5-249.8,5.3-286.1"/>
		
			<linearGradient id="path11907_1_" gradientUnits="userSpaceOnUse" x1="1079.8694" y1="568.8073" x2="730.2707" y2="1482.017" gradientTransform="matrix(1 0 0 1 -604.96 -476.26)">
			<stop  offset="0" style="stop-color:#FFCB15"/>
			<stop  offset="0.2969" style="stop-color:#F5F5F5"/>
			<stop  offset="1" style="stop-color:#FFD555"/>
		</linearGradient>
		<path id="path11907" sodipodi:nodetypes="ccccccccccccc" class="st1" d="M433.9,221.6c-160-156.7-288.4,324.1-273.5,493.2
			c4.9-73.7,64-278,94.3-338.5c-0.6,1.3,14.3-46.3,29.6-63.1c-49.1,60.2-101.9,361.7-60.8,461.4c-12.6-83.7,45.9-341.2,60.8-358.9
			C250.2,450.8,235,787,256.9,815.5c0.1-71.1,49.4-342.9,73.4-414c-21.7,67.2-23.9,95.4-24.1,95.4c-16.4,88.7,22,307.1,33.6,331.5
			c-1.8-107.6,12.6-372.9,23-407.8c12.5-30.4,26.1-41.4,36.8-53.7C420.8,342.2,444.2,237.4,433.9,221.6L433.9,221.6z"/>
		
			<linearGradient id="path11909_1_" gradientUnits="userSpaceOnUse" x1="1419.4569" y1="576.9528" x2="1779.8994" y2="1317.9862" gradientTransform="matrix(1 0 0 1 -604.96 -476.26)">
			<stop  offset="0" style="stop-color:#FFCB15"/>
			<stop  offset="0.2969" style="stop-color:#F5F5F5"/>
			<stop  offset="1" style="stop-color:#FFD555"/>
		</linearGradient>
		<path id="path11909" sodipodi:nodetypes="cccccccccccc" class="st2" d="M855.1,234.5c16.5-92.9,72.4-94.8,97.7-74.2
			c147.7,106.8,176.5,454,172.3,489.8c-16.2-53.7-78.1-286-94.2-300.2c14.9,26.7,56.2,305,62.1,350.8
			c-52.8-33.2-86.1-257.5-101.1-287.6c26.5,60.1,39.1,252.7,27.5,312.8c-9.1-68-25.3-181.8-40.2-205.5
			c-3.9-15.7-8.1-102.8-21.9-142.3c11.5,42.7,41.4,316.2,36.8,376.1C952.9,711.4,908,495,906.8,450.9
			C906.7,418.9,848.1,286.6,855.1,234.5z"/>
		
			<linearGradient id="path5900_1_" gradientUnits="userSpaceOnUse" x1="1002.4787" y1="746.2877" x2="992.5027" y2="1205.603" gradientTransform="matrix(1 0 0 1 -638.942 -422.936)">
			<stop  offset="0" style="stop-color:#7F5100"/>
			<stop  offset="0.2972" style="stop-color:#BF8A00"/>
			<stop  offset="1" style="stop-color:#AA6D00"/>
		</linearGradient>
		<path id="path5900" sodipodi:nodetypes="ccc" class="st3" d="M409.9,226.6c-78.4,164.6-98.3,376-78.4,580.3
			C283.6,601.3,335.7,288.1,409.9,226.6z"/>
		
			<linearGradient id="path5904_1_" gradientUnits="userSpaceOnUse" x1="962.611" y1="725.7886" x2="952.6442" y2="1184.6825" gradientTransform="matrix(1 0 0 1 -673.22 -421.686)">
			<stop  offset="0" style="stop-color:#7F5100"/>
			<stop  offset="0.2972" style="stop-color:#BF8A00"/>
			<stop  offset="1" style="stop-color:#AA6D00"/>
		</linearGradient>
		<path id="path5904" sodipodi:nodetypes="ccc" class="st4" d="M361.4,217.1c-86.3,109.4-148.9,347.6-141.6,569.3
			C185.7,560.2,260.8,285.1,361.4,217.1z"/>
		
			<linearGradient id="path5908_1_" gradientUnits="userSpaceOnUse" x1="1616.3888" y1="700.4401" x2="1606.421" y2="1159.3706" gradientTransform="matrix(-1 0 0 1 2544.99 -445.936)">
			<stop  offset="0" style="stop-color:#7F5100"/>
			<stop  offset="0.2972" style="stop-color:#BF8A00"/>
			<stop  offset="1" style="stop-color:#AA6D00"/>
		</linearGradient>
		<path id="path5908" sodipodi:nodetypes="ccc" class="st5" d="M884.4,313.6c26.6,159.8,40.9,296.9,100,419.1
			C926.8,486.1,937.9,435.5,884.4,313.6z"/>
		
			<linearGradient id="path5912_1_" gradientUnits="userSpaceOnUse" x1="1570.3588" y1="798.9727" x2="1560.3855" y2="1258.1543" gradientTransform="matrix(-1 0 0 1 2533.04 -400.186)">
			<stop  offset="0" style="stop-color:#7F5100"/>
			<stop  offset="0.2972" style="stop-color:#BF8A00"/>
			<stop  offset="1" style="stop-color:#AA6D00"/>
		</linearGradient>
		<path id="path5912" sodipodi:nodetypes="ccc" class="st6" d="M942.7,429.5c9.3,83.9,34,138.4,47.3,276.4
			C980.6,557.2,976.6,494.8,942.7,429.5z"/>
		
			<linearGradient id="path9328_1_" gradientUnits="userSpaceOnUse" x1="1076.3125" y1="612.0959" x2="1016.7684" y2="596.21" gradientTransform="matrix(1 0 0 1 -604.96 -476.26)">
			<stop  offset="0" style="stop-color:#EF1616"/>
			<stop  offset="1" style="stop-color:#AA1200"/>
		</linearGradient>
		<path id="path9328" sodipodi:nodetypes="ccccccccccc" class="st7" d="M424.3,209.9c-11.8-19.2-27.2-79.3-32.9-109
			c-5.4-24.3,8-35.3,13-32.3c9.5,0,17.1,1.8,23.5,5.6c10.2,3.6,9,11.7,17.1,9.5c8.1-2.1,4.8-10.1,15.5-17.9s19.8-13.9,27.3-13
			c4.6,2.6,9.3,8.3,7.3,19.1c0.6,12.3-10.8,43.7-18.3,68.1c-3.5,13.6-15.7,54.8-19.9,75.9C449.9,220.3,432.2,211.4,424.3,209.9
			L424.3,209.9z"/>
		
			<linearGradient id="path9330_1_" gradientUnits="userSpaceOnUse" x1="1047.7623" y1="796.364" x2="1000.9254" y2="778.6168" gradientTransform="matrix(1 0 0 1 -604.96 -476.26)">
			<stop  offset="0" style="stop-color:#EF1616"/>
			<stop  offset="1" style="stop-color:#AA1200"/>
		</linearGradient>
		<path id="path9330" sodipodi:nodetypes="cccccccc" class="st8" d="M424.7,239.1c-13.9,16.6-23.2,48-26.5,62.7
			c-7.3,12.3-10.2,64.1-9,71.5c6.2-6.6,11.1-12.6,14.3-10.5c5.5,4.3,7.1,15.2,12.6,23c7.5,3.9,12.5,3,14.3-2.7
			c1.8-15.2,13.6-116.6,15.5-136.4C437.5,241.1,431.4,239.7,424.7,239.1L424.7,239.1z"/>
		
			<linearGradient id="path9334_1_" gradientUnits="userSpaceOnUse" x1="1387.0275" y1="600.5107" x2="1451.1604" y2="578.9271" gradientTransform="matrix(1 0 0 1 -604.96 -476.26)">
			<stop  offset="0" style="stop-color:#EF1616"/>
			<stop  offset="1" style="stop-color:#AA1200"/>
		</linearGradient>
		<path id="path9334" sodipodi:nodetypes="cccccccccc" class="st9" d="M844.4,174.2c10-19.7,18-122.1,18.6-132.5
			c-5.4,6.1-2.2,0-4.4-2.2c-2.2-1.7-1.1-1.4-4.4-6.6c-11.7-8.2-35.8,5.3-46.4,12.3c-8.4,9.7-28.6,15.7-32.9,15.7
			c-8.3,8.3-1.5,23,1.2,32.8c3.9,14,11.8,27.8,14.6,34c11,24.3,23.1,47.6,29.3,58C826.1,184.8,836.9,179.6,844.4,174.2L844.4,174.2z
			"/>
		
			<linearGradient id="path9336_1_" gradientUnits="userSpaceOnUse" x1="1447.7168" y1="768.3758" x2="1509.6614" y2="743.4753" gradientTransform="matrix(1 0 0 1 -604.96 -476.26)">
			<stop  offset="0" style="stop-color:#EF1616"/>
			<stop  offset="1" style="stop-color:#AA1200"/>
		</linearGradient>
		<path id="path9336" sodipodi:nodetypes="cccccccc" class="st10" d="M845.6,201.6c29.9,27,57.7,100.3,61.7,125.1
			c3.1,10.9,1.1,26.1-0.4,27.9c-5.1,3-16.2,4-21.4-0.5c-5.4-5.7-20-3-24.4,6.6c-10.9,10.8-12.2,19.2-12.6,18.4
			c-8.9-17-20.4-147.8-19.4-167C832.3,208.6,843.8,202.5,845.6,201.6L845.6,201.6z"/>
		
			<linearGradient id="path9332_1_" gradientUnits="userSpaceOnUse" x1="1436.6814" y1="668.2717" x2="1459.6172" y2="658.6495" gradientTransform="matrix(1 0 0 1 -604.96 -476.26)">
			<stop  offset="0" style="stop-color:#EF1616"/>
			<stop  offset="1" style="stop-color:#AA1200"/>
		</linearGradient>
		<path id="path9332" sodipodi:nodetypes="ccccc" class="st11" d="M845.6,161.9c-6.6-4.8-27.3,6.2-29.6,17.9
			c-0.7,8.3,12.5,32.2,17.1,37.5c3.8,3.1,8.2-0.1,17.5-9.5C852.2,195.7,850.1,169.4,845.6,161.9L845.6,161.9z"/>
		
			<linearGradient id="path9326_1_" gradientUnits="userSpaceOnUse" x1="1043.5083" y1="702.4361" x2="1014.2907" y2="697.9719" gradientTransform="matrix(1 0 0 1 -604.96 -476.26)">
			<stop  offset="0" style="stop-color:#EF1616"/>
			<stop  offset="1" style="stop-color:#AA1200"/>
		</linearGradient>
		<path id="path9326" sodipodi:nodetypes="cccccc" class="st12" d="M413.7,206c-1.6,7.9-4.6,23.1-2,34.5
			c8.6,10.9,17.7,13.5,30.1,15.7c5.5-10,7.5-19.5,9.8-33.5c2.2-14,0.9-8.7-0.8-23C444.1,195.7,423.2,194.7,413.7,206L413.7,206z"/>
		
			<linearGradient id="path4122_2_" gradientUnits="userSpaceOnUse" x1="1744.36" y1="1104.9281" x2="1744.36" y2="1104.9281" gradientTransform="matrix(-1 0 0 0.8086 2460.26 -476.1449)">
			<stop  offset="0" style="stop-color:#8A8A8A"/>
			<stop  offset="0.2969" style="stop-color:#9F9F9F"/>
			<stop  offset="1" style="stop-color:#6E6E6E"/>
		</linearGradient>
		<path id="path4122_1_" sodipodi:nodetypes="ccc" class="st13" d="M715.9,417.3"/>
		
			<linearGradient id="path4106_1_" gradientUnits="userSpaceOnUse" x1="1552.0282" y1="657.2081" x2="1544.4696" y2="1005.2203" gradientTransform="matrix(-1 0 0 1 2484.8301 -497.65)">
			<stop  offset="0" style="stop-color:#7F5100"/>
			<stop  offset="0.2972" style="stop-color:#BF8A00"/>
			<stop  offset="1" style="stop-color:#AA6D00"/>
		</linearGradient>
		<path id="path4106" sodipodi:nodetypes="ccc" class="st14" d="M863,212.4c71.4,48,113.1,126.2,147.2,246
			C983.2,292.7,942.7,249.4,863,212.4z"/>
	</g>
</g>
</svg>
