<?xml version="1.0" encoding="utf-8"?>
<!-- Generator: Adobe Illustrator 21.1.0, SVG Export Plug-In . SVG Version: 6.00 Build 0)  -->
<svg version="1.1"
	 id="svg2" xmlns:cc="http://creativecommons.org/ns#" xmlns:dc="http://purl.org/dc/elements/1.1/" xmlns:inkscape="http://www.inkscape.org/namespaces/inkscape" xmlns:ns1="http://sozi.baierouge.fr" xmlns:rdf="http://www.w3.org/1999/02/22-rdf-syntax-ns#" xmlns:sodipodi="http://sodipodi.sourceforge.net/DTD/sodipodi-0.dtd"
	 xmlns="http://www.w3.org/2000/svg" xmlns:xlink="http://www.w3.org/1999/xlink" x="0px" y="0px" viewBox="0 0 900 800"
	 style="enable-background:new 0 0 900 800;" xml:space="preserve">
<style type="text/css">
	.st0{fill:#FFFFFF;}
	.st1{fill:#CFCFCF;}
	.st2{fill:#F2F2F2;}
	.st3{fill:#BFBFBF;}
	.st4{fill:#A7A7A7;}
	.st5{fill:#C0C0C0;}
	.st6{fill:#D9D9D9;}
	.st7{fill:#D6D6D6;}
	.st8{fill:#A5A5A5;}
</style>
<path id="path14" inkscape:connector-curvature="0" class="st0" d="M227.3,275.1c32.6-2.9,50.7,9.1,54,36c3,23.8,0.6,38.3-7.4,43.5
	c-2.3,1.5-4.2,5.6-5.7,12.3c-0.3,3.4-0.8,7.8-1.6,13.2l-15.6,54.6c-3,10-5.7,25-8.3,45L232,523l0.5,1.1c-0.1,1-1.2,3.6-3.3,7.5
	l-4.8,19c-1.8,5.7-3.4,16.3-4.6,32l-0.1,1c3.8,19.5,6,31.8,6.5,36.9c2.4,26.6,1.3,48.3-3.2,65.4c-7.4,26-23.1,46.7-47.5,61.9
	c13.6-14,18.4-28.1,14.6-42.5c-2-8-8.9-19.8-20.6-35.4l-7.2-10.3c-1.2-1.1-2.1-2.2-2.4-3.3c-0.3,3.7,0.3,7.8,1.7,11.9
	c0.3,1.4,6.3,12.9,17.9,34.7c-36.5-27.5-55.4-54.9-56.9-82.3c-0.3-7.6,1.1-15.3,3.9-23.2l0.2-3.1l1.3,0.1c0.6-1.7,1.1-3.1,1.7-4.5
	c-0.3-2.1-0.3-3.9-0.2-5.6l0.6-7.7c-0.5,0.6-1,1.3-1.5,1.9l0.7,0.5c-0.1,1-2.1,3.5-5.9,7.3c-2.5,3.9-4.3,7.5-5.6,10.9
	c-1.2,3.3-2.2,7.5-3.1,12.5l-0.7,16.4c-4-11.3-6.9-19.6-8.6-25.3c-1.8-5.3-2.9-10.3-3.6-15.1l-0.6,0l-0.6-2.1l0.8-0.5
	c-0.7-2.8-0.9-5.3-0.7-7.7l0.3-3.6c0.4-5.1,2.1-11.1,4.7-18.1c3.9-9.9,6.2-16.9,7-20.9c-5.3,4.7-9.2,8-12.1,9.8
	c-4.2,2.4-9.7,3.9-16.4,4.3c10.6-9.8,17-21.5,19.4-35.4c1.4-6.7,1.1-16-1.1-27.7c-2.5-13.2-3.6-22.5-3.2-27.9
	c0.8-4.7,2.6-10.4,5.3-17c1.6-4,3.2-7.1,4.7-9.3c-8.2,2.1-15.2,6.1-21,12.2c-6.8,7-9.7,14.2-9,21.8c1.8,11.6,5.3,19.1,10.6,22.3
	c-4.1-2.4-7.8-5.4-10.9-9.1c2.3,5,5.5,9.4,9.5,13.5c-9.9-4.9-16.9-13.8-21.2-26.8c-3.9-13.3-2.2-24.6,4.7-34
	c5.4-6.1,12.7-13.7,21.9-23c8.7-8.2,15-15,19-20.5c3.9-4.8,5.2-14.8,3.7-30c-1.9-15.9,0.9-29,8.4-39.3c6-8.1,13.8-14.7,23.5-19.6
	c5.5-3.7,11.8-6.8,18.7-9.3c3.7-1.8,7.8-3.4,12.4-4.6C190.4,279.9,206.2,277.2,227.3,275.1z"/>
<path id="path16" inkscape:connector-curvature="0" class="st0" d="M228.5,225.4c0.9,0.1,2,0.4,3.2,0.7c10,3.2,16.3,9.7,19.1,19.4
	c2.1,7.7,2.9,16.4,2.7,26.4c-0.6,13-3.4,21.1-8.6,24.4c-2.3,1.5-4.1,5.5-5.7,11.9c-0.3,3.4-0.7,7.6-1.6,12.7
	c-1.4,6.1-5.5,18.8-12.3,38c-5.2,15.7-8.6,28.2-10.4,37.7c-5,24.2-16,44.9-32.8,61.9c-3.4,4.2-6.9,7.8-10.2,11
	c-0.9,0.6-1.7,1.2-2.2,1.9c-13,17.7-31.2,28.7-54.6,33.1c-30.6,5.1-46.9,8.4-48.8,10.1c-7.6,6.6-11.2,16.5-11,29.9
	c-0.1,6.5,0.8,12.4,2.6,17.6c-10-19.9-12.6-38.1-7.8-54.4c2.4-8.4,7.7-17.2,16-26.4c9.2-9.6,14.9-17.9,17.3-25.2
	c2.9-8.7,2.1-20.5-2.6-35.6c-4.9-16.8-7.3-26.7-7-29.8c0.5-5.8,2.6-12,6.2-19l5.4-8.8c-33.7,11.4-50.3,26-49.5,43.7
	c0.6,9.3,4.4,17.2,11.5,24c-9.9-4.5-16.1-12.6-18.8-24.1c-2.6-11.9-0.2-22.4,7.2-31.7c0.5-1,1.2-1.7,2.3-2.3l1.5-1.9
	c1.5-1.6,2.9-3.2,4.4-4.8c1.9-1.9,3.9-4,5.8-6.2l1.5-1.5c2.9-3.2,6.3-6.5,10.1-9.9c11.4-10.8,19.3-18.7,23.1-23.8
	c0.5-0.8,1-1.6,1.6-2.7l0-0.3c0.5-1,1.1-2.2,1.6-3.4l-1-0.1c1.2-9.6,1.5-17.5,0.8-23.5c-1.5-15.5,1.6-28.4,9.1-38.8
	c8.6-12.7,22.2-21.8,40.8-27.5c5.9-1.9,13.4-3.5,22.4-4.9c9-1.7,19.6-3,31.7-4.1C207.5,217.5,219.6,219.7,228.5,225.4z"/>
<path id="path18" inkscape:connector-curvature="0" class="st0" d="M598.3,196c2.7,5,3.2,10.6,1.3,17c-5.3,15.9-19.3,22.7-42.3,20.2
	c-14.6-1.5-25.5-1.2-32.8,1.1c-8.2,2.1-13.6,7.3-16.5,15.6c-1.8,6-4.3,13.7-7.7,22.9c-4.1,6.5-12.5,10-25.5,10.3
	c-15.9,0.1-29-3.8-39.1-11.7c-11.3-9.3-16.1-22.6-14.3-39.6c1.4-12.2,6.9-23.3,16.6-33.5c13.2-15.1,31-21.7,53.6-19.9
	c13.6,1.1,28.4,5.8,44.2,14.2c17.1,9.4,29,14.8,36,16.2c7,1.2,12.9,0.1,17.6-3.2c4.8-3.7,5.9-8.8,3.9-15.1
	C593.4,190.5,598.3,196,598.3,196z"/>
<path id="path20" inkscape:connector-curvature="0" class="st0" d="M439.4,198.4c21.1,9.2,33.4,22.8,36.8,40.8
	c3.7,15.7,0.4,30.7-9.5,45.4c-15.6,22.6-36.4,30-62.5,21.8c-23.9-7.4-37.4-19.7-40.5-37c-0.6-3.5-1.6-6.7-2.5-9.9
	c-1.1-2.5-2.2-4.7-2.7-6.8c-8.1-16.7-22.4-29.6-43-38.6c-20.7-8.8-34.7-22.2-42.2-40.2c-8.3-19.4-3.9-35.5,13.1-48.2
	c20.3-15.1,42.4-20.9,66-17.3c11.9,2,21.6,5.2,29.2,9.9c-23.8-7.7-42-8.2-54.6-1.6c-13,7.1-19.5,15.5-19.3,25.1
	c0.2,9.3,6.5,17.7,18.7,25.5c11.9,7.4,29,12.9,51.5,16.4C404.6,187.5,425.2,192.5,439.4,198.4z"/>
<path id="path22" inkscape:connector-curvature="0" class="st0" d="M384.5,226.9c9.5,15.8,12.4,30.9,9.1,45.4
	c-3.8,20.5-15.2,34.8-34,42.9c-17,6.9-36.6,7.8-58.9,2.6c-17.5-4.1-27.8-10.7-31.1-19.9l-2.4-29.9c-1-10.4-6.7-18.3-17.4-24
	c-9-4.5-23.7-8-44.5-10.7c-33.4-4.3-50.3-16.4-50.5-36.3c-0.2-8.2,2.5-14.9,8.2-19.9c2.9-2.5,5.7-4.3,8.5-5.5
	c-5.4,6.8-5.2,13.1,0.6,19c5.4,5.6,12.9,8.5,22.6,9c10.7,0.5,29.6-2.3,56.7-8.4c24.5-5.6,46.3-6.9,65.7-4.1
	C349,192.3,371.4,205.4,384.5,226.9z"/>
<path id="path24" inkscape:connector-curvature="0" class="st0" d="M299.5,230.5c20.8,7.8,35.7,18.3,44.9,31.7
	c12.6,18.8,13.8,36.2,3.2,52.5c-9.1,14.2-25.6,25.3-49.2,33c-18.7,5.7-33.1,5.7-43.4,0.3l-25.5-23c-9.2-8.3-20.6-11.8-34.5-10.5
	c-11.7,1.1-27.7,5.9-47.8,14.2c-32.6,14.1-57.4,13.3-73.8-2.7c-6.6-6.3-9.4-13.2-8.3-20.6l2.6-9c0.1,0.9,0.3,1.7,0.5,2.7l10.5,10.5
	c3,1.3,6.2,2.1,9.8,2.4c8.4,0.3,18.7-3.3,30.9-10.9c-1.5,1.5-2.9,2.9-4.3,4.2c9.4-6,22.3-17.3,38.6-33.9
	c17.3-17.7,35.7-30.4,55-38.2c14.7-5.7,29.2-9,43.6-9.9C268.1,222.5,284,224.9,299.5,230.5z"/>
<path id="path32" inkscape:connector-curvature="0" class="st1" d="M123.6,586.2c-2.5,3.9-4.3,7.5-5.6,10.9
	c-1.2,3.3-2.2,7.5-3.1,12.5c0.3-4.1,0.9-7.5,1.4-10.1c1.2-4,3.3-8.3,6.4-12.9C122.9,586.3,123.2,586.2,123.6,586.2z"/>
<path id="path34" inkscape:connector-curvature="0" class="st2" d="M79.6,476.7c2.3,5,5.5,9.4,9.5,13.5
	c-9.9-4.9-16.9-13.8-21.2-26.8c-3.9-13.3-2.2-24.6,4.7-34c5.4-6.1,12.7-13.7,21.9-23c8.7-8.2,15-15,19-20.5c3.9-4.8,5.2-14.8,3.7-30
	c-1.9-15.9,0.9-29,8.4-39.3c6-8.1,13.8-14.7,23.5-19.6c-7,4.6-12.8,10.1-17.3,16.6c-7.5,10.4-10.5,23.5-9,39.3
	c1.5,15.1,0.4,24.9-3,29.4c-3.9,4.8-10.4,11.6-19.6,20.5c-8.7,8.9-15.7,16.7-21.2,23.5c-7.4,9-9.6,20-6.6,33.3
	C73.9,466.3,76.3,472,79.6,476.7z M129.7,584.1l0.6-7.7c-0.5,0.6-1,1.3-1.5,1.9l-1.2-1.1c-0.5,0.3-0.9,0.7-1.4,1.4
	c-1-3.8-1.4-7.3-1.1-10.2c2.1-3.6,4.6-8,7.7-13.2c2.4-2.6,6.7-6.3,12.9-11.3c-4.4,10.6-4.6,22.7-0.8,36.4c-2.3,7-4,17.2-5.1,30.7
	c0.3-3.3-0.9-6.9-3.2-10.8C135.8,597.9,133.5,592.6,129.7,584.1z M101.4,571.7c0.4-5.1,2.1-11.1,4.7-18.1c3.9-9.9,6.2-16.9,7-20.9
	c-5.3,4.7-9.2,8-12.1,9.8c-4.2,2.4-9.7,3.9-16.4,4.3c10.6-9.8,17-21.5,19.4-35.4c1.4-6.7,1.1-16-1.1-27.7
	c-2.5-13.2-3.6-22.5-3.2-27.9c0.8-4.7,2.6-10.4,5.3-17c1.6-4,3.2-7.1,4.7-9.3c0.9-0.3,1.8-0.5,2.7-0.8c-8.3,14.8-7.9,30.9,0.9,48.7
	c6.6,12.2,8,23.6,4,34.1l7.5-10.1c-0.7,9.2-4.8,18.1-12,26.7c6.1-4,12.5-9.3,19.2-15.8c0,5.8-2.3,16.3-7.2,31.2
	c-2.4,8-3.9,15.1-4.3,21.1c-1,1.3-1.5,2.4-1.6,3.5c-0.8,4.1-2.7,9.5-5.9,16.4c-1.2-1.1-1.8-3.3-1.5-6.9c0.7-3.7,1.1-6.2,1.2-7.6
	l1.3-16.3C110.6,553.8,106.4,559.7,101.4,571.7z"/>
<path id="path36" inkscape:connector-curvature="0" class="st3" d="M102.3,585.6l2.1-0.4l0.1-1.5l1.2,1.1c-0.5,5.8,0.9,8.8,4.1,9
	c2.2,0.2,6.1-1.9,11.8-6.3c0.5-0.3,0.9-0.6,1.4-0.9c-3,4.6-5.1,8.8-6.4,12.9c-0.7,2.7-1.1,6-1.4,10.1l-0.7,16.4
	c-4-11.3-6.9-19.6-8.6-25.3C104,595.4,102.8,590.4,102.3,585.6z"/>
<path id="path38" inkscape:connector-curvature="0" class="st4" d="M126.8,597.2l-0.1,1.6c6.1,13.8,10.6,23.6,13.8,29.3l1.4-0.3
	l1-3.6l10.2,14.2c2.5-2.9,3.8-7.1,4.2-12.5c1-7.1,1.8-11.2,2.3-12c3.3-14.1,5-22.6,5.2-25.2l0.7,0.1c3.9,19,9.1,33.6,15.9,43.7
	l1.4-0.3l2.1-26.4c-1.6-2.2-1.8-11.1-0.6-26.8c1.3-16.9,3.8-27.7,7.3-32.2l0.6,0.5c0.7,13.4,1.3,34.1,1.8,62.1
	c1.6,24.8,5.5,45.8,11.7,62.9l2-0.3l2.6-33.6l-0.6-0.5l4.2-60.6c1.1-13.6,4.4-25.5,10.1-35.6c2.5-3.9,4.4-7.2,5.5-9.7l-4.8,19
	c-1.8,5.7-3.4,16.3-4.6,32l-0.1,1c3.8,19.5,6,31.8,6.5,36.9c2.4,26.6,1.3,48.3-3.2,65.4c-7.4,26-23.1,46.7-47.5,61.9
	c13.6-14,18.4-28.1,14.6-42.5c-2-8-8.9-19.8-20.6-35.4l-7.2-10.3c-1.2-1.1-2.1-2.2-2.4-3.3c-0.3,3.7,0.3,7.8,1.7,11.9
	c0.3,1.4,6.3,12.9,17.9,34.7c-36.5-27.5-55.4-54.9-56.9-82.3C122.7,613,123.9,605.2,126.8,597.2z"/>
<path id="path40" inkscape:connector-curvature="0" class="st5" d="M144.8,580.1l0.1-1l6-16.4c2.7-11.8,5.1-19.9,7.3-24.5l1.4-18.3
	c-6.5,2.9-12.4,9-18.1,18.1c4.1-12,6.5-21,7.5-27c0.3-4.1-0.3-9.4-2.2-16c-2-8.3-3.1-13.9-3.3-16.6c0.3-20.5-0.6-35.8-2.4-45.9
	c-0.3-2.4-2.9-13.9-8-34.4c-3.8-14.2-5.3-25.9-4.6-34.7c0.5-11.9,1-20.7,1.5-26.5c1.3-10.9,4.2-19.7,8.8-26.5
	c7-9.4,16.6-16.9,29.1-22.3c3.7-1.8,7.8-3.4,12.4-4.6c10.5-3.3,26.3-5.9,47.3-8.1c32.6-2.9,50.7,9.1,54,36c3,23.8,0.6,38.3-7.4,43.5
	c-2.3,1.5-4.2,5.6-5.7,12.3c-0.3,3.4-0.8,7.8-1.6,13.2L251.2,435c-3,10-5.7,25-8.3,45l-10.7,43.2l0.5,1.1c-0.1,1-1.2,3.6-3.3,7.5
	c-1.1,2.7-2.8,5.8-5.5,9.7c-5.7,10.2-9,22-10.1,35.6l-4.2,60.6l0.6,0.5l-2.6,33.6l-2,0.3c-6.2-17.2-10.2-38.1-11.7-62.9
	c-0.5-28-1.1-48.7-1.8-62.1l-0.6-0.5c-3.5,4.5-6,15.3-7.3,32.2c-1.2,15.7-1,24.6,0.6,26.8l-2.1,26.4l-1.4,0.3
	c-6.8-10.1-12-24.7-15.9-43.7l-0.7-0.1c-0.2,2.7-1.9,11.2-5.2,25.2c-0.5,1-1.3,5-2.3,12c-0.4,5.4-1.8,9.6-4.2,12.5L143,624.1l-1,3.6
	l-1.4,0.3c-3.1-5.7-7.7-15.4-13.8-29.3l0.4-4.5l1.3,0.1c0.6-1.7,1.1-3.1,1.7-4.5c-0.3-2.1-0.3-3.9-0.2-5.6
	c3.8,8.5,6.1,13.8,6.8,15.9c2.2,3.8,3.3,7.4,3.2,10.8C140.7,597.3,142.4,587.1,144.8,580.1z"/>
<path id="path42" inkscape:connector-curvature="0" class="st6" d="M122.9,586.6c-0.5,0.3-0.9,0.6-1.4,0.9
	c-5.7,4.3-9.6,6.4-11.8,6.3c-3.1-0.2-4.5-3.2-4.1-9l-1.2-1.1l-0.1,1.5l-2.1,0.4l-0.6,0l-0.6-2.1l0.8-0.5c-0.7-2.8-0.9-5.3-0.7-7.7
	l0.3-3.6c4.9-11.9,9.3-17.9,12.7-18l-1.3,16.3c-0.1,1.4-0.4,3.8-1.2,7.6c-0.3,3.4,0.1,5.7,1.5,6.9c3.2-6.9,5.1-12.4,5.9-16.4
	c0.1-1,0.6-2.2,1.6-3.5c0.5-6.1,1.9-13.2,4.3-21.1c4.7-15,7-25.4,7.2-31.2c-6.8,6.7-13.1,12-19.2,15.8c7.4-8.7,11.3-17.5,12-26.7
	l-7.5,10.1c4-10.7,2.6-22.1-4-34.1c-8.9-17.7-9.1-33.9-0.9-48.7c-0.9,0.3-1.8,0.5-2.7,0.8c-8.2,2.1-15.2,6.1-21,12.2
	c-6.8,7-9.7,14.2-9,21.8c1.8,11.6,5.3,19.1,10.6,22.3c-4.1-2.4-7.8-5.4-10.9-9.1c-3.2-4.7-5.6-10.3-7.3-16.9
	c-3-13.2-0.8-24.3,6.6-33.3c5.4-6.8,12.4-14.6,21.2-23.5c9.2-8.9,15.6-15.7,19.6-20.5c3.5-4.5,4.5-14.4,3-29.4
	c-1.4-15.9,1.5-28.9,9-39.3c4.5-6.5,10.3-12,17.3-16.6c5.5-3.7,11.8-6.8,18.7-9.3c-12.5,5.5-22.1,12.9-29.1,22.3
	c-4.5,6.8-7.5,15.6-8.8,26.5c-0.5,5.8-1,14.5-1.5,26.5c-0.7,8.9,0.9,20.4,4.6,34.7c5.1,20.6,7.7,32,8,34.4
	c1.9,10.1,2.6,25.3,2.4,45.9c0.2,2.8,1.3,8.3,3.3,16.6c1.7,6.6,2.5,12,2.2,16c-0.9,6.1-3.4,15.1-7.5,27c5.6-9.2,11.6-15.2,18.1-18.1
	l-1.4,18.3c-2.1,4.6-4.6,12.8-7.3,24.5l-6,16.4l-0.1,1c-3.8-13.7-3.5-25.7,0.8-36.4c-6.2,5-10.5,8.8-12.9,11.3
	c-3.1,5.2-5.7,9.6-7.7,13.2c-0.2,3.1,0.1,6.5,1.1,10.2c0.5-0.6,1-1.2,1.4-1.4l1.2,1.1l0.7,0.5c-0.1,1-2.1,3.5-5.9,7.3
	C123.2,586.2,122.9,586.3,122.9,586.6z"/>
<path id="path44" inkscape:connector-curvature="0" class="st0" d="M38.3,372.5l1.5-1.9c1.5-1.6,2.9-3.2,4.4-4.8
	c1.9-1.9,3.9-4,5.8-6.2l1.5-1.5c8.2-7.9,16.4-14.1,24.8-18.6c-7.2,6.3-12.9,11.5-17.3,15.5c-8.2,7.6-14.1,14.4-17.7,20.7
	c-8.3,14.3-10.2,26.5-6.1,36.4c-2.4-3.6-3.8-8.1-4.3-13.1C28.9,389.4,31.4,380.6,38.3,372.5z M116.7,249c4.2-2.4,8.1-4.2,11.7-5.2
	c-11.2,6.3-20.1,16.2-27,29.6c-3.2,6.9-5.5,13-6.8,18.4c-2.3-4.6-0.8-12.8,4.6-24.8C102.5,259.9,108.3,253.8,116.7,249z
	 M108.2,357.5c4.4-4.5,8.8-8,13.5-10.7c-14.4,13.3-21.5,28.2-21.5,45c0.2,8.2,1.6,15.1,4.3,20.8c-5.4-5.6-8.6-15.3-9.7-29.4
	C94.6,374.5,99.1,366,108.2,357.5z M105.9,378.3l3.1-4.9l-2.9,19.8C104.3,387.5,104.2,382.6,105.9,378.3z M88.9,279.7
	c-0.4-6.9,2.5-14.3,8.4-22.4l9.4-10c-7.9,10-12.9,22.4-15,37.3c-0.8,4.7-1,9.3-0.8,13.5L88.9,279.7z M88.4,422.6
	c-4.7-13.7-7.5-23.3-8.4-28.9c-1.7-12.7,4.1-26.3,17.3-40.7c-8,11-11.9,20.8-11.7,29.3c0.2,8.9,4.6,20.7,13.3,35.4
	c12.4,21.5,6.5,41.7-18.1,60.6c-10.4,7.4-18.4,16.1-24.1,26.3c-3.1,4.9-4.9,9-5.6,12.4c0.3-9.6,5.3-20,15.1-31.6
	c12.3-14.8,19.5-24.6,21.6-29.6C92.1,446.6,92.3,435.5,88.4,422.6z"/>
<path id="path46" inkscape:connector-curvature="0" class="st4" d="M228.5,225.4c0.9,0.1,2,0.4,3.2,0.7c10,3.2,16.3,9.7,19.1,19.4
	c2.1,7.7,2.9,16.4,2.7,26.4c-0.6,13-3.4,21.1-8.6,24.4c-2.3,1.5-4.1,5.5-5.7,11.9c-0.3,3.4-0.7,7.6-1.6,12.7
	c-1.4,6.1-5.5,18.8-12.3,38c-5.2,15.7-8.6,28.2-10.4,37.7c-5,24.2-16,44.9-32.8,61.9c-0.5,0.3-0.9,0.6-1.4,0.9
	c-6.2,5.6-14.3,11.4-24.1,17.5c-11.1,6.7-20.3,10.6-27.5,12.1c13.9-7,23.4-17.6,28.5-31.6c4.5-12,7.8-25.4,9.8-40.2
	c-1.2-13-1.2-22.8,0.2-29.1c0.7-3,3.9-13.9,9.8-32.6c-11.2,6.7-18.7,15.4-22.7,26.4c1-7.5,3.9-16.2,8.8-26.5
	c7.9-15.1,12.1-23.7,12.6-25.7c-5,1-11.9,3.6-20.7,8.1c0.7-9.2,7.3-19.1,19.7-29.7c-10.7,5.7-25.6,11.8-44.7,18.5
	c4.4-5.5,7.4-12.6,9-21.3c1.7-9.8,3.1-17,4.4-21.7c5.9-24.5,19.8-40.9,41.9-49.5l-14.9,2.9c8.9-5.8,19-9.8,30.2-12
	C211.2,223.1,220.2,223.2,228.5,225.4z"/>
<path id="path48" inkscape:connector-curvature="0" class="st5" d="M182.4,458.6c-3.4,4.2-6.9,7.8-10.2,11c-0.9,0.6-1.7,1.2-2.2,1.9
	c-7.6,5.8-16.2,10.8-25.8,14.9c-1.9,0.9-7.5,2.6-17.1,5.3c-8.2,2.4-13.4,4.5-15.8,6.4c19.2-16.9,31.1-36.5,35.9-58.7
	c3-15.9,5.7-27.8,8.1-35.8c3.3-13.4,7.7-24.9,13.4-34.2c-9.2,9.8-18,29-26.5,57.4c-7.8,25.4-19.1,43.4-34.3,54.2
	c15.3-24,21.9-45.9,19.8-65.6c-3.2-27.9,2.5-50.5,16.6-67.9c-7.4,2.8-14.2,8.1-20.6,15.9c-5.9,6.7-10,13.7-12.2,21.1
	c-1.5-9.4,0.1-17.9,4.7-25.8c1.5-2.6,5.2-6.2,11-10.9c5.3-4.7,8.4-8.6,9.5-11.6c-5.2,4-12.7,7.1-22.7,9c-11.7,1.5-20.3,2.9-25.6,4.2
	c-12.3,3.1-24.6,10.9-37.2,23.2c4.7-8.9,16.8-19.6,36.5-32.1c10.3-6.4,19.2-16.1,26.9-29.2c3.6-5.5,6-9.8,7.7-12.8
	c2.6-4.9,4.4-9.2,5.8-12.9c1.9-7.7,4.9-14.6,8.9-20.8c2.5-3.6,7.9-9.7,16.1-18.3c-5,0.6-11.7,3.3-20,8.1
	c9.7-10.5,19.6-16.7,29.4-18.7c-28.9-1.2-49.3,6.6-61.3,23.9c10.2-15.9,22.6-26.2,37.2-30.9c6-2.3,13.3-4.2,21.7-6
	c9-1.7,19.6-3,31.7-4.1c15.7-1.5,27.9,0.6,36.8,6.4c-8.1-2.3-17.3-2.4-27.3-0.1c-11.2,2.2-21.3,6.2-30.2,12l14.9-2.9
	c-22.1,8.5-36,25-41.9,49.5c-1.3,4.7-2.7,11.9-4.4,21.7c-1.6,8.8-4.5,15.9-9,21.3c19.2-6.6,34.1-12.9,44.7-18.5
	c-12.4,10.7-19,20.5-19.7,29.7c8.8-4.4,15.7-7.1,20.7-8.1c-0.6,2-4.8,10.6-12.6,25.7c-4.8,10.1-7.7,19-8.8,26.5
	c4-11,11.5-19.8,22.7-26.4c-5.9,18.7-9.1,29.5-9.8,32.6c-1.4,6.4-1.6,16.1-0.2,29.1c-2.1,14.9-5.3,28.4-9.8,40.2
	c-5.1,13.9-14.5,24.4-28.5,31.6c7.2-1.5,16.5-5.6,27.5-12.1c9.8-6.1,17.9-12,24.1-17.5C180.9,459.5,182.4,458.6,182.4,458.6z"/>
<path id="path50" inkscape:connector-curvature="0" class="st6" d="M51.4,358.2c2.9-3.2,6.3-6.5,10.1-9.9
	c11.4-10.8,19.3-18.7,23.1-23.8c0.5-0.8,1-1.6,1.6-2.7l0-0.3c0.5-1,1.1-2.2,1.6-3.4l-1-0.1c1.2-9.6,1.5-17.5,0.8-23.5
	c-1.5-15.5,1.6-28.4,9.1-38.8c8.6-12.7,22.2-21.8,40.8-27.5c5.9-1.9,13.4-3.5,22.4-4.9c-8.6,1.7-15.9,3.7-21.7,6
	c-14.6,4.7-27,15-37.2,30.9c12-17.2,32.4-25.1,61.3-23.9c-10,2-19.8,8.2-29.4,18.7c8.3-4.8,15-7.6,20-8.1
	c-8.3,8.6-13.6,14.7-16.1,18.3c-4.1,6.2-7,13.2-8.9,20.8c-1.2,3.7-3.2,8-5.8,12.9c-1.6,3-4.1,7.2-7.7,12.8
	c-7.7,13.1-16.6,22.8-26.9,29.2c-19.7,12.5-31.8,23.1-36.5,32.1c12.6-12.4,24.9-20.1,37.2-23.2c5.5-1.3,14-2.7,25.6-4.2
	c10-2,17.5-4.9,22.7-9c-1.1,3-4.3,6.9-9.5,11.6c-5.7,4.7-9.3,8.3-11,10.9c-4.6,7.9-6.2,16.4-4.7,25.8c2.4-7.4,6.5-14.3,12.2-21.1
	c6.4-7.7,13.2-13,20.6-15.9c-14.3,17.4-19.8,40-16.6,67.9c2,19.7-4.6,41.4-19.8,65.6c15.1-10.8,26.5-28.9,34.3-54.2
	c8.5-28.5,17.2-47.5,26.5-57.4c-5.6,9.5-10.1,20.9-13.4,34.2c-2.4,8-5.1,19.9-8.1,35.8c-4.9,22.2-16.8,41.7-35.9,58.7
	c2.4-1.9,7.6-4,15.8-6.4c9.6-2.7,15.2-4.4,17.1-5.3c9.7-4,18.2-9.1,25.8-14.9c-13,17.7-31.2,28.7-54.6,33.1
	c-30.6,5.1-46.9,8.4-48.8,10.1c-7.6,6.6-11.2,16.5-11,29.9c-0.1,6.5,0.8,12.4,2.6,17.6c-10-19.9-12.6-38.1-7.8-54.4
	c2.4-8.4,7.7-17.2,16-26.4c9.2-9.6,14.9-17.9,17.3-25.2c2.9-8.7,2.1-20.5-2.6-35.6c-4.9-16.8-7.3-26.7-7-29.8c0.5-5.8,2.6-12,6.2-19
	l5.4-8.8c-33.7,11.4-50.3,26-49.5,43.7c0.6,9.3,4.4,17.2,11.5,24c-9.9-4.5-16.1-12.6-18.8-24.1c-2.6-11.9-0.2-22.4,7.2-31.7
	c0.5-1,1.2-1.7,2.3-2.3c-6.9,8-9.3,16.9-7.4,26.6c0.5,5.2,1.9,9.5,4.3,13.1c-4.1-9.9-2-22.1,6.1-36.4c3.6-6.2,9.5-13.1,17.7-20.7
	c4.3-4.1,10.1-9.3,17.3-15.5C67.8,344.1,59.6,350.2,51.4,358.2z M116.7,249c-8.4,4.8-14.2,10.9-17.5,18c-5.4,11.9-6.9,20.1-4.6,24.8
	c1.3-5.4,3.6-11.5,6.8-18.4c6.9-13.5,15.8-23.3,27-29.6C124.8,244.8,120.8,246.6,116.7,249z M88.9,279.7l2.3,18.3
	c-0.3-4.2-0.1-8.8,0.8-13.5c2-14.8,7-27.3,15-37.3l-9.4,10C91.4,265.3,88.6,272.8,88.9,279.7z M105.9,378.3
	c-1.7,4.3-1.6,9.2,0.2,14.9l2.9-19.8L105.9,378.3z M108.2,357.5c-9.1,8.5-13.5,17.1-13.3,25.7c1.1,14.1,4.4,23.9,9.7,29.4
	c-2.7-5.7-4.2-12.5-4.3-20.8c0-16.8,7.1-31.8,21.5-45C117,349.5,112.5,353,108.2,357.5z M88.4,422.6c3.9,13,3.8,24-0.5,33.2
	c-2.2,5-9.3,14.8-21.6,29.6c-9.8,11.6-14.8,22-15.1,31.6c0.7-3.4,2.5-7.5,5.6-12.4c5.7-10.1,13.7-18.9,24.1-26.3
	c24.7-18.8,30.5-39.1,18.1-60.6c-8.7-14.7-13.1-26.5-13.3-35.4c-0.2-8.6,3.7-18.3,11.7-29.3c-13.2,14.4-18.8,27.9-17.3,40.7
	C80.9,399.3,83.7,408.9,88.4,422.6z"/>
<path id="path52" inkscape:connector-curvature="0" class="st0" d="M510.5,209.6c-9.8,0.3-16.6,3.6-20.9,10.1l4.7-8.3
	c6.2-5,16.4-5,30.8-0.1C520.7,209.9,515.8,209.4,510.5,209.6z M476,207.5l6-8.8l0.3-0.2c-0.9,0.2-1.7,0.4-2.4,0.6
	c-5.5,2.3-11.8,7.1-19.1,14.4l-8.7,10.1l11.5-20.1c10.7-10.8,24.4-13.1,41.3-7c4.9,0.4,10.3,1.5,16.4,3.3
	c-5.7-1.5-11.6-2.2-17.8-1.9C490.2,197.5,481,200.6,476,207.5z M573.5,214.5c-7.6,0.4-15.7-1-24.3-4.4c-5.2-1.8-13.8-6.1-25.8-12.7
	c-10.3-5.6-19.5-8.7-27.9-9.4c-8.8-1-18.9,0.6-30.4,4.8l17.2-6.9c15.4-3.2,30.7-1.1,46.2,6.2c20.2,10,32.8,15.9,38,17.2
	c10.9,3.2,19.5,1.5,25.8-5.2C590.5,210.2,584.3,213.6,573.5,214.5z M559.5,215c12.3,2,22.4,0.2,30.4-5.3c-4,5.7-10.8,8.7-20,8.6
	c-5.8-0.1-11.9-1.4-18.4-4l-7.7-3.7L559.5,215z"/>
<path id="path54" inkscape:connector-curvature="0" class="st5" d="M479.6,186.3c-20.7,4.2-31.5,12.7-32,25.7l2.9-2.9
	c-4.1,12-5.3,22.5-3.8,31.4c8.5-11.6,13.2-18,14.1-19.3c-0.5,6.5-0.6,10.1-0.3,11.3c5.6-8.8,10.2-15.1,14.1-18.9
	c6.3-6.4,13.7-10.3,22.2-12.2c9.5-1.3,19.3,0.1,29.7,4.4c3,1.3,7.8,3.5,14.2,6.7c6,2.5,11,3.7,15,3.7c-6.7,0.2-13.7-1.1-21.1-3.7
	c-18.7-6.5-32-7.4-39.5-2.5c-4.2,2.4-7.2,6.6-9,12.7c-1.2,4.4-1.8,8.1-1.5,11.2c0,0.3,2.5-1.9,7.8-6.6c6.8-6.7,14.6-9.9,23.5-9.9
	c7.6,0.2,19,1.8,34.4,4.7c13.9,2.5,22.9,3.5,26.4,3.1c8.6-1,15.2-4.7,20.2-11.2c-2.9,8.7-10.2,13.9-21.9,15.6
	c-5.4,0.9-14.4,1.2-26.8,0.5c-11.5-0.9-19.7-0.6-24.7,0.6c-14.2,4.4-22.1,12.3-23.8,23.7l-3,12.1c-1.2,3.7-3.5,6.6-6.6,8.7
	c-6.5,3.9-16.7,4.6-30.2,2.2c-16.7-3-27.7-11.2-32.8-24.6c-5.1-14.1-3.3-27.9,5.3-41.6c6.7-11.5,15.8-19.9,27.3-25.5
	c9.3-4.4,20.7-5.9,34.4-4.5c10.2,1.1,18.8,3.3,26.1,6.6C509.6,183.2,495.9,182.6,479.6,186.3z"/>
<path id="path56" inkscape:connector-curvature="0" class="st6" d="M598.3,196c2.7,5,3.2,10.6,1.3,17c-5.3,15.9-19.3,22.7-42.3,20.2
	c-14.6-1.5-25.5-1.2-32.8,1.1c-8.2,2.1-13.6,7.3-16.5,15.6c-1.8,6-4.3,13.7-7.7,22.9c-4.1,6.5-12.5,10-25.5,10.3
	c-15.9,0.1-29-3.8-39.1-11.7c-11.3-9.3-16.1-22.6-14.3-39.6c1.4-12.2,6.9-23.3,16.6-33.5c13.2-15.1,31-21.7,53.6-19.9
	c13.6,1.1,28.4,5.8,44.2,14.2c17.1,9.4,29,14.8,36,16.2c7,1.2,12.9,0.1,17.6-3.2c4.8-3.7,5.9-8.8,3.9-15.1
	C593.4,190.5,598.3,196,598.3,196z M479.6,186.3c16.3-3.5,29.8-2.9,40.6,1.6c-7.3-3.3-16.1-5.5-26.1-6.6
	c-13.7-1.4-25.1,0.1-34.4,4.5c-11.4,5.6-20.6,14.1-27.3,25.5c-8.7,13.7-10.3,27.5-5.3,41.6c5.2,13.4,16.1,21.6,32.8,24.6
	c13.5,2.4,23.6,1.7,30.2-2.2c3.3-2.1,5.4-5.1,6.6-8.7l3-12.1c1.8-11.5,9.7-19.4,23.8-23.7c5-1.3,13.2-1.5,24.7-0.6
	c12.4,0.6,21.4,0.5,26.8-0.5c11.7-1.8,19-7,21.9-15.6c-5,6.5-11.6,10.2-20.2,11.2c-3.6,0.4-12.4-0.6-26.4-3.1
	c-15.4-2.9-26.8-4.5-34.4-4.7c-8.9,0-16.7,3.3-23.5,9.9c-5.3,4.7-7.8,6.9-7.8,6.6c-0.2-3.1,0.2-6.8,1.5-11.2
	c1.8-5.9,4.8-10.1,9-12.7c7.5-4.9,20.8-4,39.8,2.7c7.4,2.6,14.4,3.9,21.1,3.7c-4,0-9-1.2-15-3.7c-6.4-3.2-11.2-5.4-14.2-6.7
	c-10.4-4.2-20.2-5.7-29.7-4.4c-8.5,1.7-16,5.7-22.2,12.2c-3.9,3.8-8.7,10.1-14.1,18.9c-0.4-1.1-0.2-4.8,0.3-11.3
	c-1,1.3-5.8,7.8-14.1,19.3c-1.5-9-0.3-19.5,3.8-31.4l-2.9,2.9C448.3,198.9,458.9,190.4,479.6,186.3z M559.5,215l-15.7-4.3l7.7,3.7
	c6.5,2.6,12.6,3.8,18.4,4c9.4,0,16-2.9,20-8.6C582,215.2,571.7,217,559.5,215z M573.5,214.5c10.8-0.9,17-4.3,18.8-10.3
	c-6.3,6.7-14.9,8.4-25.8,5.2c-5.2-1.4-17.9-7.2-38-17.2c-15.5-7.4-30.8-9.5-46.2-6.2l-17.2,6.9c11.5-4.2,21.6-5.8,30.4-4.8
	c8.4,0.7,17.7,3.8,27.9,9.4c12,6.8,20.4,11,25.6,12.7C557.9,213.5,565.9,214.9,573.5,214.5z M476,207.5c5-6.8,14.2-10,27.4-9.6
	c6.3-0.2,12.1,0.5,17.8,1.9c-6.1-1.8-11.5-3-16.4-3.3c-16.9-6.1-30.6-3.8-41.3,7l-11.4,20.1l8.7-10.1c7.3-7.3,13.6-12.1,19.1-14.4
	c0.6-0.2,1.5-0.5,2.4-0.6l-0.3,0.2L476,207.5z M510.5,209.6c5.4-0.3,10.2,0.3,14.6,1.7c-14.3-4.9-24.6-4.8-30.8,0.1l-4.7,8.3
	C493.8,213.3,500.8,209.8,510.5,209.6z"/>
<path id="path58" inkscape:connector-curvature="0" class="st0" d="M431.7,202.4c4.2,3.1,7.1,5.7,8.7,7.9
	c-5.8-5.6-16.3-10.3-31.6-14.2l-1.3-0.1c1.7,0.5,3.5,1.1,5.2,2c12,6.1,19.2,12.6,21.8,19.6c-4.1-4.4-10.1-8.1-17.9-11.1
	c-2.2-0.9-10.1-3.5-24-7.9c-25.8-6.8-40-10.7-43.1-11.6L370,189c-33.4-5.7-54.3-15.9-63-30.5c-4.8-7.6-5.2-15.2-1.6-23.2
	c2.7-6,6-9.8,9.7-11.6l-5.7,6.6c-4,5.5-4.9,11.3-2.7,17.1c6.1,18.3,29,30.5,68.5,36.6c18.5,2.8,34,5.9,46.7,9.2
	c-6.1-1.2-12.3-2-18.5-2.5l-7.4-0.6C411,193,422.8,196.9,431.7,202.4z M307.1,125c3.3-2.8,6.8-4.9,10.5-6.4
	c-6.5,3.9-12,9.4-16.6,16.6c-2.1,3.6-3.5,6.9-4,10C296.5,137.3,300,130.7,307.1,125z M308.4,116.5c7-3.6,14.1-5.5,21.9-5.9
	c-16,4.9-27.5,13-34.6,24.5c-3.6,5.5-5.6,10.6-6,15.4C287.8,135.2,294,123.9,308.4,116.5z"/>
<path id="path60" inkscape:connector-curvature="0" class="st5" d="M372.5,276.8c2.1,1.9,4.2,3.4,6.3,4.6c3.4,2,9.5,6.4,18.3,13.2
	c9.8,5.6,21.2,5.8,34.6,0.6c12.4-4.7,20.3-13,23.9-24.7c3.5-11,2.1-21.5-4.2-31.6c-2.7-5-5.7-8.9-9.2-12c-0.4-1.1-0.4-2.1-0.4-3.1
	c-0.7-2.5-2.7-5.3-6-8.7c-3.8-3-6.4-5.4-8.2-7.3c4,0.7,11.3,5,22.3,13c-2.4-9.1-11.6-17.1-27.5-24.2c6.7-0.2,14.1,2.1,22,6.9
	c6.8,4.3,12.5,9,16.9,14.1c10.2,12.1,12.7,27.9,7.6,47.7c-5.6,20.1-16.1,33.1-31.7,39.1c-13.3,5-24.9,4.9-34.7-0.7
	c-8.8-6.7-14.9-11.2-18.3-13.2c-4.7-2.8-8.4-6.6-11.1-11.6C373.3,278.1,372.9,277.5,372.5,276.8z M407,211.8l-1.2-1.1
	c-2.6-1.2-7.6-3-14.9-5.3c-7-1.9-11.9-3.7-14.9-5.3c3.4,2,8.3,4.5,14.7,7.8c6,2.9,10.4,5.7,13.3,8.7c-4.8-1.1-8-2-9.9-2.8l2.9,6.8
	c-6.7-5-11.8-8.8-15.2-11.5c-5.9-4.2-11.6-7.2-17.3-9.1c-19-6.3-34.1-12-45.3-17.4c2.8,3.6,7.6,6.9,14.5,9.8l16,7.9l0.6,0
	c5.1,2.8,9.1,5.6,12,8.7c0.8,1.1,2.1,3.4,4.2,7c1.1,3.2,2.3,5.3,3.5,6.4c-5.5-3.9-14.2-8.6-26.2-14.4c0.8,1.8,3.3,9.5,7.5,23.2
	c-5.3-5.9-12.9-11.2-22.9-15.6c-21.4-9.9-35.8-19.4-43.1-28.5c-12.6-15.3-16.4-29.6-11.4-42.9l11.9-14.9l-6.9,12.8
	c-3.9,9.6-3.6,17.9,0.7,24.7c7.1,11.9,18.9,22.8,35.5,33c4.7,2.8,9.2,5.3,13.4,7.7c-6.4-3.9-15.2-10.6-26.4-20
	c-13.4-11.3-20-23.3-19.9-35.9l3.5-11c-2.7,11.1,0.5,21.6,9.6,31.5c6.2,6.6,16,13.9,29.6,21.8c11.5,7.1,24.5,13.3,39.2,18.9
	c-4.1-4.1-16.2-11.4-36.3-22.2c-12.4-6.5-20.4-15.1-24-26l-0.8-6.7c1.1,2.5,2.7,5,4.8,7.6c3.2,4.4,7.4,8.1,12.5,11.3
	c8.5,5.1,24.3,12.5,47.6,22.2c-4.7-2.1-8.2-4.8-10.7-8c7.8,2.7,19.7,6.3,35.8,11c13.3,4.5,24.4,9.4,32.9,14.9
	C418.6,214.3,412.3,212.5,407,211.8L407,211.8z"/>
<path id="path62" inkscape:connector-curvature="0" class="st6" d="M372.5,276.8c0.4,0.7,0.8,1.4,1.2,2.1c2.7,5,6.4,8.8,11.1,11.6
	c3.4,2,9.6,6.5,18.3,13.2c9.8,5.6,21.4,5.8,34.7,0.7c15.6-6,26.2-19,31.7-39.1c5.1-19.8,2.6-35.6-7.6-47.7
	c-4.5-5.1-10.1-9.8-16.9-14.1c-8.1-4.7-15.4-7-22-6.9c15.9,7.1,25.1,15.1,27.5,24.2c-11-8.1-18.3-12.4-22.3-13
	c1.6,1.8,4.4,4.2,8.2,7.3c3.3,3.3,5.3,6.2,6,8.7c-0.1,1,0,2.1,0.4,3.1c-3.3-3.3-6.8-5.8-10.7-7.5c-1.1,2.7-2.7,4-5.1,4.2
	c-0.9-0.4-1.7-1-2.5-1.8c-3.4-2-7.3-4-11.6-6c-2.5-1.9-4.4-3.2-5.6-4.1c5.3,0.8,11.5,2.5,18.9,5.1c-8.5-5.5-19.4-10.4-32.9-14.9
	c-16.1-4.7-28-8.4-35.8-11c2.4,3.3,5.9,5.9,10.7,8c-23.3-9.7-39.2-17.1-47.6-22.2c-5.1-3.1-9.3-6.9-12.5-11.3
	c-2-2.6-3.6-5.1-4.8-7.6l0.8,6.7c3.6,10.9,11.5,19.5,24,26c20.1,10.8,32.2,18.3,36.3,22.2c-14.7-5.6-27.8-11.9-39.2-18.9
	c-13.5-7.9-23.5-15.2-29.6-21.8c-9-10-12.2-20.4-9.6-31.5l-3.5,11c-0.1,12.6,6.5,24.6,19.9,35.9c11.3,9.3,20,16.1,26.4,20
	c-4.3-2.4-8.7-4.9-13.4-7.7c-16.8-9.9-28.5-20.8-35.6-32.7c-4.4-6.8-4.6-15.1-0.7-24.7l6.9-12.8l-11.9,14.9
	c-5.1,13.3-1.3,27.5,11.4,42.9c7.3,9.1,21.7,18.6,43.1,28.5c9.9,4.5,17.5,9.7,22.9,15.6c1.4,4.5,3,9.6,4.8,15.2
	c0.7,2.1,1.5,4,2.2,5.8c-8.1-16.7-22.4-29.6-43-38.6c-20.7-8.8-34.7-22.2-42.2-40.2c-8.3-19.4-3.9-35.5,13.1-48.2
	c20.3-15.1,42.4-20.9,66-17.3c11.9,2,21.6,5.2,29.2,9.9c-23.8-7.7-42-8.2-54.6-1.6c-13,7.1-19.5,15.5-19.3,25.1
	c0.2,9.3,6.5,17.7,18.7,25.5c11.9,7.4,29,12.9,51.5,16.4c26.7,4.1,47.3,9.2,61.5,15.1c21.1,9.2,33.4,22.8,36.8,40.8
	c3.7,15.7,0.4,30.7-9.5,45.4c-15.6,22.6-36.4,30-62.5,21.8c-23.9-7.4-37.4-19.7-40.5-37c-0.6-3.5-1.6-6.7-2.5-9.9
	C364.3,266.5,368,272.3,372.5,276.8z M431.7,202.4c-8.9-5.5-20.8-9.5-35.8-12l7.4,0.6c6.2,0.5,12.4,1.3,18.5,2.5
	c-12.7-3.4-28.2-6.4-46.7-9.2c-39.5-6.2-62.3-18.3-68.5-36.6c-2.2-6-1.3-11.7,2.7-17.1l5.9-6.7c-3.7,1.8-6.8,5.6-9.7,11.6
	c-3.7,7.9-3.2,15.6,1.6,23.2c8.7,14.7,29.6,24.8,63,30.5l-20.6-2.1c3,0.9,17.5,4.8,43.1,11.6c13.9,4.5,21.9,7.2,24,7.9
	c7.8,3,13.7,6.8,17.9,11.1c-2.6-7.1-9.8-13.6-21.8-19.6c-1.7-0.8-3.4-1.5-5.2-2l1.3,0.1c15.3,3.9,25.8,8.6,31.6,14.2
	C438.8,208.1,435.9,205.6,431.7,202.4z M308.4,116.5c-14.4,7.4-20.6,18.7-18.7,33.9c0.4-4.8,2.4-10,6-15.4
	c7.1-11.4,18.6-19.6,34.6-24.5C322.6,110.9,315.4,112.9,308.4,116.5z M307.1,125c-7.1,5.6-10.6,12.3-10.2,20.2c0.7-3,2-6.4,4-10
	c4.6-7.2,10.1-12.7,16.6-16.6C313.9,120.1,310.3,122.2,307.1,125z"/>
<path id="path64" inkscape:connector-curvature="0" class="st4" d="M351.5,231.5c-4.4-13.7-6.8-21.3-7.7-23.1
	c12,5.7,20.7,10.5,26.2,14.4c-1.2-1.1-2.4-3.3-3.5-6.4c-1.9-3.6-3.3-5.8-4.2-7c-2.9-3-6.8-5.8-12-8.7l-0.6,0l-16-7.9
	c-6.9-2.9-11.7-6.2-14.5-9.8c11.2,5.3,26.2,11.1,45.3,17.4c5.7,1.8,11.4,4.9,17.3,9.1c3.4,2.7,8.4,6.5,15.2,11.5l-2.9-6.8
	c1.7,0.8,5.1,1.8,9.9,2.8c-2.9-3-7.3-5.8-13.3-8.7c-6.4-3.2-11.3-5.8-14.7-7.8c3,1.6,7.9,3.4,14.9,5.3c7.4,2.3,12.3,4,14.9,5.3
	c0.4,0.4,0.8,0.8,1.2,1.1c1.3,0.8,3.1,2.2,5.6,4.1c4.3,2,8.2,4.1,11.6,6c0.8,0.8,1.7,1.3,2.5,1.8c2.2-0.2,3.8-1.6,5.1-4.2
	c3.9,1.7,7.5,4.2,10.7,7.5c3.3,3,6.3,7,9.2,12c6.3,10.1,7.8,20.6,4.2,31.6c-3.6,11.7-11.5,19.9-23.9,24.7
	c-13.3,5.1-24.8,4.9-34.6-0.6c-8.8-6.7-14.9-11.2-18.3-13.2c-2.1-1.2-4.2-2.7-6.3-4.6c-4.6-4.5-8.3-10.2-11.3-17.3
	c-1.1-2.5-2.2-4.7-2.7-6.8c-0.8-1.8-1.5-3.8-2.2-5.8C354.5,241.1,352.8,236.1,351.5,231.5L351.5,231.5z"/>
<path id="path66" inkscape:connector-curvature="0" class="st0" d="M162.4,193.2l0.2-10.3c0.3,7.2,3.7,14.1,9.7,20.7
	c3.3,3.7,6.6,6.5,10,8.4C171,208.5,164.4,202.1,162.4,193.2z M174.3,202.2l-5.4-6.6c9.6,9,23,14.1,40.1,15.5
	c8.9,0.7,16.6,0.5,23.4-0.7c-13.2,3.8-26.2,4.2-38.8,1.5C185.7,210.3,179.3,207.1,174.3,202.2z M170.9,195.3l-2.9-6.8
	c6.4,9.7,17.6,14.4,33.7,13.9c7.6-0.1,27.3-3.1,59.4-9.2c24-4.6,45.8-2.6,65.5,6.2c9.9,4.2,17.6,8.9,22.8,14.1
	c-14.5-9-28.4-14.3-42-16.1c-11.9-1.3-25.8-0.1-41.6,3.4c-20.4,4.2-33.8,6.7-40.6,7.6c-13.5,1.7-25.2,1.1-35.2-1.7
	C180.9,203.9,174.5,200.1,170.9,195.3z M341.1,218.9c5.3,6.2,7.9,12.4,7.9,18.5c-8-11.9-17.1-20.3-27.4-25.2
	c-5.2-2.1-10.7-3.9-17-5.4c7.4,2,13.2,4.6,17.4,8c4.6,4.1,6.2,8.1,5,12.2c-4.2-9.6-15.4-16.2-33.8-20.1l-25.8-2.5
	c8.5-0.4,15.9-0.1,22.5,0.7l-4.7-0.8C311.9,202.3,330.4,207.1,341.1,218.9z"/>
<path id="path68" inkscape:connector-curvature="0" class="st6" d="M355.4,274.9l-11.8-27.1c-1.1,3-2.7,7.6-4.3,13.5
	c-4.4-12.3-8.6-21.3-12.6-27.1c-6.4-9.4-15.2-16.4-26.3-21c-11.3-4.3-25.6-5.7-43.1-3.8c-9,1.7-16.3,3-21.7,3.9
	c-7.7,1.1-13.7,1.7-18.1,1.7l5.3,0.4c7.5,0.9,14.6,0.9,21.2,0.1c10.4-1.2,20.3-1.3,30-0.2c12.4,1.3,21.1,4.2,26.1,8.7
	c5,4.5,7.6,10.5,7.9,18.1c0,5.8-0.8,10.3-2.4,13.6l-7.8-10.3c-7.3-9.8-17-16.1-29.1-18.7c-10.5-2.2-26.9-3.8-49-4.9
	c-20.4-0.9-33-2.1-37.8-3.4c-7.4-2.6-13.4-6.8-18.4-12.2l-5.3-7.6l3.3,9.5c4.4,6.8,11.2,12.2,20.7,16c7.3,3,19.8,5.7,37.4,8.1
	c16.3,2.6,27.5,5.6,34.1,8.7c17.1,8.9,25,20.6,23.8,35.2l-1.2,14.8c0.5,4.8,2.6,8.9,6.3,12.3c7.1,6.6,20.7,10.6,41.1,11.9
	c24.2,1.9,42.6-4.5,54.9-19.2c12.8-15.4,15.9-32.5,9.4-51.6c-5.9-15.9-15.7-28.5-29.7-38.2c-11.4-8.1-26.4-13.4-45.4-15.8
	c-17.6-2.4-33-1.8-46.1,2c18.2-4.7,39.5-2,64,8.1c27.1,11,38.8,24.4,34.9,40.1l-3.7-3.9C363.7,251.3,361.6,264,355.4,274.9z
	 M384.5,226.9c9.5,15.8,12.4,30.9,9.1,45.4c-3.8,20.5-15.2,34.8-34,42.9c-17,6.9-36.6,7.8-58.9,2.6c-17.5-4.1-27.8-10.7-31.1-19.9
	l-2.4-29.9c-1-10.4-6.7-18.3-17.4-24c-9-4.5-23.7-8-44.5-10.7c-33.4-4.3-50.3-16.4-50.5-36.3c-0.2-8.2,2.5-14.9,8.2-19.9
	c2.9-2.5,5.7-4.3,8.5-5.5c-5.4,6.8-5.2,13.1,0.6,19c5.4,5.6,12.9,8.5,22.6,9c10.7,0.5,29.6-2.3,56.7-8.4c24.5-5.6,46.3-6.9,65.7-4.1
	C349,192.3,371.4,205.4,384.5,226.9z M341.1,218.9c-10.7-11.8-29.2-16.7-55.6-14.6l4.7,0.8c-6.6-0.9-14.2-1.1-22.5-0.7l25.8,2.5
	c18.4,3.8,29.6,10.5,33.8,20.1c1.2-4-0.4-8-5-12.2c-4.2-3.4-10.1-6-17.4-8c6.1,1.5,11.8,3.3,17,5.4c10.3,4.9,19.5,13.3,27.4,25.2
	C349,231.3,346.4,225.2,341.1,218.9z M170.9,195.3c3.6,4.7,9.9,8.5,19.2,11.2c10,2.8,21.7,3.4,35.2,1.7c6.8-0.8,20.3-3.3,40.6-7.6
	c15.9-3.6,29.6-4.6,41.6-3.4c13.5,1.7,27.7,7.1,42,16.1c-5.4-5.2-13-9.9-22.8-14.1c-19.8-8.7-41.7-10.8-65.5-6.2
	c-32,6.1-51.8,9.1-59.4,9.2c-16.1,0.5-27.2-4.2-33.7-13.9C168.1,188.5,170.9,195.3,170.9,195.3z M174.3,202.2
	c5,4.8,11.4,8.1,19.3,9.7c12.7,2.7,25.7,2.2,38.8-1.5c-6.8,1.2-14.5,1.4-23.4,0.7c-17.3-1.4-30.5-6.5-40.1-15.5
	C168.9,195.6,174.3,202.2,174.3,202.2z M162.4,193.2c2,9.1,8.6,15.3,19.9,18.9c-3.4-2-6.8-4.9-10-8.4c-6.2-6.6-9.3-13.5-9.7-20.7
	L162.4,193.2z"/>
<path id="path70" inkscape:connector-curvature="0" class="st5" d="M355.4,274.9c6.2-10.8,8.2-23.6,6.3-38.4l3.7,3.9
	c3.9-15.8-7.8-29.2-34.9-40.1c-24.5-10.1-45.8-12.8-64-8.1c13.2-3.8,28.6-4.4,46.1-2c19,2.5,34.2,7.8,45.4,15.8
	c14,9.7,23.8,22.4,29.7,38.2c6.5,19,3.4,36.1-9.4,51.6c-12.2,14.8-30.6,21.1-54.9,19.2c-20.4-1.3-34.1-5.3-41.1-11.9
	c-3.7-3.4-5.8-7.4-6.3-12.3l1.2-14.8c1.1-14.5-6.9-26.3-23.8-35.2c-6.4-3.2-17.8-6.2-34.1-8.7c-17.6-2.4-30.1-5.1-37.4-8.1
	c-9.5-3.8-16.4-9.2-20.7-16l-3.3-9.5l5.3,7.6c4.9,5.5,11,9.5,18.4,12.2c4.8,1.4,17.3,2.5,37.8,3.4c22.1,1,38.4,2.7,49,4.9
	c12.3,2.7,21.9,8.9,29.1,18.7l7.8,10.3c1.6-3.3,2.4-7.9,2.4-13.6c-0.3-7.6-2.9-13.6-7.9-18.1s-13.7-7.4-26.1-8.7
	c-9.7-1.1-19.7-1.1-30,0.2c-6.8,0.8-13.7,0.8-21.2-0.1l-5.3-0.4c4.5,0,10.4-0.6,18.1-1.7c5.4-0.9,12.7-2.2,21.7-3.9
	c17.5-1.7,31.8-0.4,43.1,3.8c11.2,4.6,20,11.6,26.3,21c4,5.8,8.2,14.8,12.6,27.1c1.8-6,3.2-10.5,4.3-13.5
	C343.4,247.8,355.4,274.9,355.4,274.9z"/>
<path id="path72" inkscape:connector-curvature="0" class="st0" d="M208.6,233.2c14.7-5.7,29.2-9,43.6-9.9c8.5,0,17.3,1.2,26.3,3.7
	c10.5,2.5,19.6,6.1,27.1,10.8c3,1.6,5.7,3.3,8.2,5.2c-21.4-9.6-40-14.5-55.4-15.1c-11.6-0.2-24.3,1.5-38.4,5.2
	c-1.8,0.2-3.6,0.5-5.4,1.2l-19.8,6.7C199.3,237.7,204,235.1,208.6,233.2z M213.4,240.2c15.6-6,31.5-7.7,47.8-4.9
	c8.8,1.4,16.4,3.7,22.8,6.9c-6.9-2.9-13.9-4.9-20.9-5.7c-11-1.9-23.5-1.5-37.5,1.2C221.6,238.2,217.5,239.2,213.4,240.2z M236.8,240
	c13.4-1.7,24-1,31.8,1.9c-17.5-3.8-41.4,1.2-71.8,14.9l-41,21.3C182.9,255.8,209.8,242.9,236.8,240z M115,305.2
	c-1.5,0.8-2.9,1.6-4.2,2.2c-9.3,4.8-18.3,6.3-27,4.5c-6.6-1.2-11.1-4.1-13.7-8.5c-0.8-1.4-1.4-3-1.9-4.5l10.5,10.5
	c3,1.3,6.2,2.1,9.8,2.4c8.4,0.3,18.7-3.3,30.9-10.9C117.7,302.5,116.3,303.9,115,305.2z"/>
<path id="path74" inkscape:connector-curvature="0" class="st6" d="M305.6,237.6c-7.7-4.7-16.7-8.3-27.1-10.8
	c-9.2-2.4-18-3.6-26.3-3.7c16-0.8,31.8,1.6,47.4,7.4c20.8,7.8,35.7,18.3,44.9,31.7c12.6,18.8,13.8,36.2,3.2,52.5
	c-9.1,14.2-25.6,25.3-49.2,33c-18.7,5.7-33.1,5.7-43.4,0.3l-25.5-23c-9.2-8.3-20.6-11.8-34.5-10.5c-11.7,1.1-27.7,5.9-47.8,14.2
	c-32.6,14.1-57.4,13.3-73.8-2.7c-6.6-6.3-9.4-13.2-8.3-20.6l2.5-9.1c0.1,0.9,0.3,1.7,0.5,2.7c0.5,1.6,1.2,3.1,1.9,4.5
	c2.6,4.4,7.2,7.3,13.7,8.5c8.8,1.7,17.8,0.1,27-4.5c1.2-0.7,2.6-1.4,4.2-2.2c9.4-6,22.3-17.3,38.6-33.9c17.3-17.7,35.7-30.4,55-38.2
	c-4.6,2-9.3,4.5-14,7.6l19.8-6.7c1.8-0.5,3.6-1,5.4-1.2c-4.6,1.4-8.9,3-13,4.6c-14.8,6.4-26.2,13.7-34.4,21.9
	c9.6-8.5,23.2-14.9,40.9-19.3c4.1-1,8.2-2,12.2-2.7c14-2.7,26.5-3.1,37.5-1.2c7.1,0.9,13.9,2.8,20.9,5.7c4.3,1.7,8.6,3.8,12.7,6.1
	c-1.7-0.8-3.6-1.4-5.8-1.9c-3-0.9-6.6-1.3-10.6-1.4c-7.5-0.6-13.1,0-16.8,1.8c3.3,3,6,5,8.3,6.4c-10.2-0.8-17.1-0.3-20.8,1.5
	l14.8,6.9c-19.5-1.5-35.9-1-49.5,1.7c-15.9,3.2-29.9,9.6-42.2,19.3c-7.2,6.3-12.6,11.1-16.4,14.6c-5.3,4.7-10.2,8.2-14.8,10.6
	l4.8-2.1c7.4-3.2,13.9-7,19.6-11.3c8.5-6.5,18.5-12.3,30-17.2c6-3,10.2-4.7,12.4-5.1c1.3,0.1,4,0.7,7.9,1.6c3.9,1.3,6.1,1.8,6.6,1.5
	l-11,4.3l21.1,3.7c-10.3,0.9-18,1.8-22.8,2.8c-12.2,2.5-28.6,9.8-49.1,21.7c-20.5,11.8-36.7,18.8-48.3,21.3
	c-8.2,1.8-16.6,1.8-25.4,0.1l-11-3.4l10.8,6c9.1,3.5,19.1,4.2,30.4,2.4c8.6-1.4,21.7-5.6,39.6-12.8c16.1-6.6,28.3-10.3,36.8-10.9
	c22.3-2,38.7,3.4,48.8,16.1c2.9,3.3,6.5,7.5,11,12.6c4.2,3.8,9.3,6,15.5,6.8c11.5,1.6,26.6-2.4,45.7-11.8
	c22.6-11.6,33.7-26.4,32.8-44.6c-0.7-19.2-11.7-34.7-33.1-46.7C312.5,240.6,309.1,239,305.6,237.6z M236.8,240
	c-27,3-54,15.8-81.2,38.3l41.1-21.4c30.3-13.7,54.4-18.6,71.8-14.9C260.8,238.9,250.3,238.3,236.8,240z"/>
<path id="path76" inkscape:connector-curvature="0" class="st5" d="M219.9,233c14.1-3.7,26.9-5.4,38.4-5.2
	c15.6,0.5,34,5.5,55.4,15.1c-2.5-1.9-5.2-3.6-8.2-5.2c3.5,1.3,6.9,2.9,10.3,4.9c21.4,11.9,32.3,27.4,33.1,46.7
	c0.8,18.2-10.2,33-32.8,44.6c-19,9.4-34.2,13.4-45.7,11.8c-6.2-0.8-11.4-3.1-15.5-6.8c-4.5-5.1-8.2-9.3-11-12.6
	c-10.1-12.8-26.4-18.2-48.8-16.1c-8.5,0.7-20.8,4.3-36.8,10.9c-17.9,7-31.2,11.4-39.6,12.8c-11.3,1.9-21.5,1.1-30.4-2.4l-10.8-6
	l11,3.4c8.8,1.7,17.3,1.7,25.4-0.1c11.8-2.5,27.8-9.6,48.3-21.3c20.4-12.1,36.9-19.4,49.1-21.7c5-1,12.6-1.9,22.8-2.8l-21.1-3.7
	l11-4.3c-0.5,0.3-2.7-0.2-6.6-1.5c-3.9-1-6.6-1.5-7.9-1.6c-2.3,0.5-6.4,2.2-12.4,5.1c-11.4,4.9-21.5,10.6-30,17.2
	c-5.7,4.3-12.2,8.1-19.6,11.3l-4.8,2.1c4.6-2.4,9.5-5.9,14.8-10.6c3.8-3.5,9.3-8.3,16.4-14.6c12.3-9.7,26.4-16.1,42.2-19.3
	c13.6-2.7,30-3.2,49.5-1.7l-14.8-6.9c3.7-1.8,10.7-2.2,20.8-1.5c-2.1-1.2-4.9-3.2-8.3-6.4c3.7-1.8,9.2-2.4,16.8-1.8
	c4,0,7.5,0.5,10.6,1.4c2.2,0.5,4.1,1.2,5.8,1.9c-4.3-2.4-8.6-4.4-12.7-6.1c-6.4-3.2-14-5.5-22.8-6.9c-16.1-2.6-32.2-1-47.8,4.9
	c-17.7,4.4-31.3,10.9-40.9,19.3c8.2-8.3,19.6-15.5,34.4-21.9C211.1,235.9,215.4,234.3,219.9,233z"/>
<path id="path96" inkscape:connector-curvature="0" class="st7" d="M205,552.6c1.1-14-1.4-28-7.4-42c-1.8-5.3-3.2-12-4.4-20.3
	c-1.7-12.8-2.5-19.5-2.4-20.2c4.8,23.9,15.2,48.3,31,73.1l-0.2,2.5l-0.7-0.1l-9.1-10.4l-1.4,0.3l-0.9,11.7c0.4,1.1,0.6,3.2,0.8,6.7
	c-0.1,0.7,0,1.6,0.4,2.5C208.5,555.4,206.5,554.1,205,552.6z M201.1,549.2l-3.7-3.4c-0.9,0.6-1.5,1.9-1.6,4c-0.2,2,1.2,5,3.9,9
	c3.6,4.7,5.7,8.7,6.5,11.8c0.3,1.7,0.1,5.8-0.4,12.2c0.1,4.1,1.1,6.9,2.6,8.4c0,0.3,0.4,0.8,1.2,1.7l1.4-0.3c-0.2,2.7-0.2,5.9,0,9.7
	c1,4.2,2.7,7.9,5.1,11.1c-1.2-1.1-2.5-2.4-3.7-3.8c-2-2.6-3.2-5-3.4-7.5l-0.7,1c-1.2-2.1-2.2-4.3-2.9-6.4l0.1-1l-4.7-15.8
	c-4.7-20.2-8.5-35.1-11.8-45C189,534.9,201.1,549.2,201.1,549.2z"/>
<path id="path14_1_" inkscape:connector-curvature="0" class="st0" d="M687.8,268.3c-27.6-4.2-43.1,7.1-46.4,33.8
	c-3,23.6-1.2,38.2,5.4,43.7c2,1.6,3.4,5.8,4.6,12.5c0.2,3.4,0.5,7.8,1.1,13.3l12.1,55.2c2.4,10.1,4.3,25.2,6.1,45.3l8.2,43.6l-0.5,1
	c0,1,0.9,3.6,2.6,7.6l3.7,19.2c1.4,5.7,2.5,16.4,3.3,32.1l0,1c-3.6,19.3-5.7,31.5-6.2,36.6c-2.5,26.4-2,48.2,1.4,65.5
	c5.7,26.3,18.7,47.6,39,63.7c-11.2-14.5-15-28.8-11.6-43c1.9-8,7.9-19.4,18.1-34.6l6.3-10c1.1-1.1,1.8-2.1,2.1-3.2
	c0.2,3.8-0.4,7.8-1.7,11.8c-0.3,1.4-5.6,12.7-15.9,34c31.4-26.1,48-52.7,49.8-80c0.4-7.5-0.6-15.4-2.8-23.3l-0.1-3.1l-1.1,0.1
	c-0.5-1.7-0.9-3.1-1.3-4.6c0.3-2.1,0.3-3.9,0.2-5.6l-0.4-7.7c0.4,0.7,0.8,1.3,1.2,2l-0.6,0.5c0,1,1.7,3.6,4.9,7.5
	c2.1,4,3.5,7.7,4.5,11.1c0.9,3.4,1.7,7.6,2.3,12.7l0.3,16.4c3.6-11.1,6.3-19.3,7.8-25c1.6-5.2,2.7-10.2,3.3-15l0.5,0l0.5-2.1
	l-0.7-0.5c0.6-2.8,0.9-5.3,0.8-7.7l-0.2-3.6c-0.2-5.1-1.5-11.2-3.6-18.3c-3.1-10-4.9-17.1-5.5-21.2c4.4,4.9,7.7,8.3,10,10.2
	c3.5,2.6,8.1,4.3,13.8,4.9c-8.8-10.2-14-22.1-15.8-36.1c-1.1-6.8-0.6-16,1.5-27.6c2.4-13.1,3.5-22.4,3.2-27.7
	c-0.6-4.8-2-10.5-4.2-17.2c-1.3-4-2.6-7.2-3.8-9.5c6.9,2.4,12.7,6.7,17.6,13c5.6,7.3,8,14.6,7.2,22.1c-1.7,11.5-4.9,18.9-9.4,21.9
	c3.5-2.2,6.7-5.1,9.4-8.6c-2,4.9-4.8,9.2-8.3,13.1c8.5-4.5,14.6-13.1,18.5-25.9c3.5-13.2,2.4-24.5-3.4-34.1
	c-4.4-6.3-10.5-14.2-18.1-23.8c-7.2-8.6-12.4-15.6-15.7-21.3c-3.2-5-4.1-15-2.5-30.1c1.9-15.8-0.2-29-6.4-39.6
	c-4.9-8.3-11.4-15.2-19.5-20.5c-4.6-3.9-9.9-7.3-15.7-10c-3.1-1.9-6.6-3.7-10.4-5.1C719,274.5,705.7,271.2,687.8,268.3z"/>
<path id="path16_1_" inkscape:connector-curvature="0" class="st0" d="M687.8,218.6c-0.8,0-1.7,0.3-2.7,0.6
	c-8.5,2.8-14,9.1-16.6,18.7c-1.9,7.6-2.8,16.3-2.8,26.2c0.2,13,2.5,21.2,6.8,24.8c2,1.6,3.4,5.7,4.6,12.1c0.2,3.4,0.5,7.6,1.1,12.7
	c1,6.1,4.3,18.9,9.7,38.4c4.1,15.9,6.7,28.5,8.1,38c3.8,24.3,12.7,45.4,26.6,63.1c2.8,4.3,5.7,8.1,8.4,11.3c0.8,0.6,1.4,1.3,1.9,2
	c10.6,18.2,25.9,29.9,45.6,35.1c25.8,6.3,39.5,10.2,41.1,12c6.4,6.9,9.2,16.9,8.7,30.2c-0.1,6.5-0.9,12.3-2.6,17.4
	c8.9-19.4,11.4-37.6,7.7-54c-1.9-8.5-6.2-17.5-13.1-27c-7.6-9.9-12.3-18.5-14.1-25.9c-2.3-8.8-1.3-20.6,2.9-35.5
	c4.5-16.6,6.7-26.4,6.5-29.5c-0.3-5.8-1.9-12.1-4.9-19.3l-4.4-9c28.4,12.7,42.1,27.9,41.1,45.6c-0.7,9.3-4.1,17.1-10.2,23.5
	c8.5-4.2,13.9-11.9,16.4-23.3c2.5-11.7,0.6-22.4-5.5-32c-0.4-1-1-1.8-1.9-2.4l-1.2-2c-1.2-1.7-2.4-3.3-3.6-5c-1.6-2-3.2-4.2-4.8-6.4
	l-1.2-1.5c-2.4-3.3-5.2-6.7-8.4-10.3c-9.4-11.2-16-19.4-19.1-24.6c-0.4-0.8-0.8-1.7-1.3-2.8l0-0.3c-0.4-1-0.9-2.2-1.3-3.5l0.9,0
	c-0.8-9.6-0.9-17.5-0.2-23.5c1.5-15.5-0.8-28.4-7-39.1c-7-13-18.4-22.6-34-29.1c-5-2.2-11.2-4-18.9-5.7c-7.6-2-16.5-3.8-26.8-5.4
	C705.8,211.5,695.4,213.3,687.8,218.6z"/>
<path id="path18_1_" inkscape:connector-curvature="0" class="st0" d="M375.1,175c-2.4,4.9-2.9,10.5-1.5,16.9
	c4.1,16.1,15.9,23.4,35.4,21.8c12.4-0.9,21.6-0.2,27.7,2.4c6.9,2.4,11.4,7.8,13.7,16.2c1.4,6.1,3.4,13.9,6.1,23.2
	c3.3,6.7,10.4,10.5,21.4,11.3c13.5,0.7,24.6-2.6,33.3-10.2c9.8-8.9,14-22,12.9-39c-0.9-12.3-5.4-23.6-13.4-34.1
	c-10.9-15.6-25.8-22.8-45-21.9c-11.5,0.5-24.1,4.7-37.7,12.5c-14.7,8.8-24.9,13.7-30.8,14.8c-6,1-10.9-0.4-14.9-3.9
	c-4-3.9-4.8-9-3-15.2C379.4,169.7,375.1,175,375.1,175z"/>
<path id="path20_1_" inkscape:connector-curvature="0" class="st0" d="M509.6,183.5c-18.1,8.4-28.8,21.5-32,39.3
	c-3.4,15.5-1,30.7,7.2,45.7c12.8,23.2,30.2,31.4,52.5,24.2c20.4-6.4,32.1-18.2,35-35.4c0.6-3.4,1.4-6.7,2.3-9.8
	c1-2.4,1.9-4.6,2.4-6.7c7.1-16.4,19.5-28.7,37.2-36.9c17.7-8,29.8-20.9,36.5-38.5c7.4-19,4-35.3-10.2-48.6
	c-16.9-15.8-35.5-22.5-55.6-19.9c-10.1,1.5-18.4,4.4-25,8.8c20.3-6.8,35.7-6.6,46.2,0.5c10.9,7.6,16.2,16.2,15.9,25.8
	c-0.3,9.2-5.8,17.5-16.3,24.8c-10.2,7-24.8,11.8-43.9,14.4C539.3,173.9,521.8,178.2,509.6,183.5z"/>
<path id="path22_1_" inkscape:connector-curvature="0" class="st0" d="M555.7,214.1c-8.3,15.4-11.1,30.4-8.6,45
	c2.8,20.6,12.2,35.3,27.9,44.2c14.3,7.5,30.8,9.2,49.8,4.9c14.9-3.4,23.8-9.7,26.8-18.7l2.6-29.7c1-10.3,6.1-18.1,15.2-23.3
	c7.7-4.1,20.3-7.1,37.9-8.9c28.4-3,42.9-14.4,43.5-34.3c0.4-8.2-1.8-15-6.6-20.2c-2.4-2.6-4.7-4.6-7.1-5.8c4.5,7,4.1,13.3-0.9,19
	c-4.6,5.3-11.1,8-19.3,8.1c-9,0.1-25-3.4-47.8-10.5c-20.7-6.6-39.1-8.7-55.6-6.6C586.4,180.9,567.1,193.2,555.7,214.1z"/>
<path id="path24_1_" inkscape:connector-curvature="0" class="st0" d="M627.6,221c-17.8,7-30.6,16.9-38.7,29.9
	c-11.1,18.3-12.4,35.7-3.7,52.4c7.5,14.6,21.2,26.2,41.1,34.9c15.8,6.4,28,7,36.8,1.9l22.1-22c7.9-7.9,17.7-11,29.5-9.1
	c9.9,1.6,23.3,7,40.2,16c27.3,15.4,48.3,15.5,62.6,0.2c5.7-6.1,8.2-12.8,7.5-20.3l-2.1-9.1c-0.1,0.9-0.3,1.7-0.5,2.6l-9.1,10.1
	c-2.6,1.1-5.3,1.8-8.3,2c-7.2,0-15.8-4-25.9-12.1c1.2,1.5,2.4,3,3.6,4.4c-7.8-6.4-18.6-18.2-32-35.3c-14.3-18.4-29.6-31.8-45.8-40.2
	c-12.4-6.3-24.6-10.1-36.7-11.6C654.3,214.2,640.8,215.9,627.6,221z"/>
<path id="path32_1_" inkscape:connector-curvature="0" class="st1" d="M769.6,583.1c2.1,4,3.5,7.7,4.5,11.1
	c0.9,3.4,1.7,7.6,2.3,12.7c-0.2-4.1-0.6-7.5-1-10.1c-0.9-4.1-2.7-8.4-5.1-13.1C770.2,583.2,770,583.1,769.6,583.1z"/>
<path id="path34_1_" inkscape:connector-curvature="0" class="st2" d="M809,475.4c-2,4.9-4.8,9.2-8.3,13.1
	c8.5-4.5,14.6-13.1,18.5-25.9c3.5-13.2,2.4-24.5-3.4-34.1c-4.4-6.3-10.5-14.2-18.1-23.8c-7.2-8.6-12.4-15.6-15.7-21.3
	c-3.2-5-4.1-15-2.5-30.1c1.9-15.8-0.2-29-6.4-39.6c-4.9-8.3-11.4-15.2-19.5-20.5c5.9,4.9,10.7,10.6,14.4,17.2
	c6.1,10.7,8.4,23.9,6.9,39.6c-1.6,15-0.8,24.9,2,29.5c3.2,5,8.6,12,16.2,21.2c7.2,9.2,13,17.3,17.5,24.3c6.1,9.3,7.7,20.4,5,33.5
	C814.1,465.2,811.9,470.8,809,475.4z M764.4,580.7l-0.4-7.7c0.4,0.7,0.8,1.3,1.2,2l1.1-1.1c0.4,0.3,0.8,0.8,1.2,1.4
	c1-3.8,1.3-7.2,1.2-10.2c-1.7-3.7-3.8-8.1-6.3-13.5c-2-2.6-5.6-6.6-10.7-11.8c3.5,10.8,3.5,22.9-0.1,36.4c1.8,7.1,3.1,17.3,3.7,30.8
	c-0.2-3.3,0.9-6.9,2.9-10.6C759.1,594.3,761.1,589.1,764.4,580.7z M788.7,569.4c-0.2-5.1-1.5-11.2-3.6-18.3
	c-3.1-10-4.9-17.1-5.5-21.2c4.4,4.9,7.7,8.3,10,10.2c3.5,2.6,8.1,4.3,13.8,4.9c-8.8-10.2-14-22.1-15.8-36.1
	c-1.1-6.8-0.6-16,1.5-27.6c2.4-13.1,3.5-22.4,3.2-27.7c-0.6-4.8-2-10.5-4.2-17.2c-1.3-4-2.6-7.2-3.8-9.5c-0.8-0.3-1.5-0.6-2.3-0.9
	c6.7,15.1,6.1,31.2-1.7,48.6c-5.9,11.9-7.2,23.2-4.1,33.9l-6.1-10.4c0.4,9.2,3.7,18.3,9.7,27.1c-5.1-4.2-10.4-9.8-16-16.6
	c-0.1,5.8,1.6,16.3,5.5,31.4c1.9,8.1,3,15.2,3.3,21.3c0.8,1.3,1.2,2.4,1.3,3.6c0.6,4.1,2.1,9.6,4.7,16.6c1.1-1.1,1.6-3.3,1.4-6.8
	c-0.6-3.7-0.8-6.2-0.9-7.6l-0.8-16.4C781.3,551.2,784.7,557.3,788.7,569.4z"/>
<path id="path36_1_" inkscape:connector-curvature="0" class="st3" d="M787.7,583.3l-1.8-0.5l-0.1-1.5l-1.1,1.1
	c0.3,5.8-1,8.7-3.6,8.8c-1.9,0.1-5.1-2.2-9.9-6.7c-0.4-0.3-0.8-0.6-1.2-1c2.5,4.7,4.2,9,5.1,13.1c0.5,2.7,0.8,6,1,10.1l0.3,16.4
	c3.6-11.1,6.3-19.3,7.8-25C786,593,787.2,588.1,787.7,583.3z"/>
<path id="path38_1_" inkscape:connector-curvature="0" class="st4" d="M766.7,593.9l0.1,1.6c-5.4,13.6-9.5,23.1-12.2,28.7l-1.1-0.4
	l-0.8-3.6l-8.9,13.7c-2-3-3.1-7.3-3.4-12.6c-0.7-7.1-1.3-11.2-1.7-12.1c-2.5-14.2-3.8-22.7-3.9-25.3l-0.6,0
	c-3.6,18.9-8.4,33.2-14.3,43.1l-1.1-0.4l-1.2-26.5c1.4-2.1,1.7-11,1-26.7c-0.8-16.9-2.7-27.8-5.5-32.4l-0.5,0.5
	c-0.9,13.4-1.8,34-2.8,62c-1.9,24.7-5.5,45.5-11.2,62.4l-1.7-0.4l-1.6-33.7l0.5-0.5l-2.3-60.7c-0.6-13.6-3.2-25.6-7.8-36
	c-2.1-4-3.6-7.4-4.5-9.9l3.7,19.2c1.4,5.7,2.5,16.4,3.3,32.1l0,1c-3.6,19.3-5.7,31.5-6.2,36.6c-2.5,26.4-2,48.2,1.4,65.5
	c5.7,26.3,18.7,47.6,39,63.7c-11.2-14.5-15-28.8-11.6-43c1.9-8,7.9-19.4,18.1-34.6l6.3-10c1.1-1.1,1.8-2.1,2.1-3.2
	c0.2,3.8-0.4,7.8-1.7,11.8c-0.3,1.4-5.6,12.7-15.9,34c31.4-26.1,48-52.7,49.8-80C769.8,609.9,769,602,766.7,593.9z"/>
<path id="path40_1_" inkscape:connector-curvature="0" class="st5" d="M751.8,576.2l0-1l-4.8-16.6c-2.1-11.9-4-20.1-5.7-24.8
	l-0.9-18.3c5.4,3.2,10.4,9.4,14.9,18.8c-3.2-12.2-5.1-21.2-5.8-27.3c-0.2-4.1,0.4-9.4,2.1-15.9c1.9-8.2,2.9-13.8,3.1-16.4
	c0.2-20.5,1.2-35.7,2.9-45.7c0.3-2.4,2.7-13.8,7.5-34.1c3.5-14.1,5-25.6,4.5-34.5c-0.2-12-0.5-20.7-0.7-26.5
	c-0.9-10.9-3.2-19.8-6.9-26.8c-5.7-9.6-13.8-17.5-24.2-23.4c-3.1-1.9-6.6-3.7-10.4-5.1c-8.8-3.7-22.2-6.9-39.9-9.9
	c-27.6-4.2-43.1,7.1-46.4,33.8c-3,23.6-1.2,38.2,5.4,43.7c2,1.6,3.4,5.8,4.6,12.5c0.2,3.4,0.5,7.8,1.1,13.3l12.1,55.2
	c2.4,10.1,4.3,25.2,6.1,45.3l8.2,43.6l-0.5,1c0,1,0.9,3.6,2.6,7.6c0.9,2.7,2.3,5.9,4.5,9.9c4.6,10.4,7.2,22.3,7.8,36l2.3,60.7
	l-0.5,0.5l1.6,33.7l1.7,0.4c5.6-16.9,9.4-37.7,11.2-62.4c1-28,1.9-48.6,2.8-62l0.5-0.5c2.9,4.7,4.7,15.5,5.5,32.4
	c0.7,15.7,0.4,24.6-1,26.7l1.2,26.5l1.1,0.4c5.9-9.8,10.7-24.2,14.3-43.1l0.6,0c0.1,2.7,1.4,11.2,3.9,25.3c0.4,1,1,5.1,1.7,12.1
	c0.3,5.5,1.3,9.6,3.4,12.6l8.9-13.7l0.8,3.6l1.1,0.4c2.8-5.6,6.8-15.1,12.2-28.7l-0.2-4.5l-1.1,0.1c-0.5-1.7-0.9-3.1-1.3-4.6
	c0.3-2.1,0.3-3.9,0.2-5.6c-3.4,8.4-5.4,13.6-6.1,15.7c-2,3.7-2.9,7.3-2.9,10.6C754.9,593.5,753.6,583.3,751.8,576.2z"/>
<path id="path42_1_" inkscape:connector-curvature="0" class="st6" d="M770.2,583.5c0.4,0.3,0.8,0.6,1.2,1c4.7,4.6,8,6.8,9.9,6.7
	c2.6-0.1,3.9-3,3.6-8.8l1.1-1.1l0.1,1.5l1.8,0.5l0.5,0l0.5-2.1l-0.7-0.5c0.6-2.8,0.9-5.3,0.8-7.7l-0.2-3.6
	c-4-12.1-7.5-18.2-10.4-18.4l0.8,16.4c0.1,1.4,0.3,3.9,0.9,7.6c0.2,3.4-0.2,5.7-1.4,6.8c-2.6-7.1-4.1-12.6-4.7-16.6
	c0-1-0.5-2.3-1.3-3.6c-0.3-6.1-1.4-13.3-3.3-21.3c-3.7-15.2-5.5-25.6-5.5-31.4c5.6,6.9,10.9,12.5,16,16.6
	c-6.1-8.9-9.3-17.9-9.7-27.1l6.1,10.4c-3.1-10.8-1.8-22.1,4.1-33.9c7.9-17.3,8.4-33.5,1.7-48.6c0.8,0.3,1.5,0.6,2.3,0.9
	c6.9,2.4,12.7,6.7,17.6,13c5.6,7.3,8,14.6,7.2,22.1c-1.7,11.5-4.9,18.9-9.4,21.9c3.5-2.2,6.7-5.1,9.4-8.6c2.8-4.6,4.9-10,6.5-16.6
	c2.8-13.1,1.1-24.2-5-33.5c-4.5-7-10.2-15-17.5-24.3c-7.6-9.2-12.9-16.3-16.2-21.2c-2.9-4.7-3.6-14.5-2-29.5
	c1.5-15.8-0.7-28.9-6.9-39.6c-3.7-6.7-8.5-12.4-14.4-17.2c-4.6-3.9-9.9-7.3-15.7-10c10.5,6,18.5,13.7,24.2,23.4
	c3.7,7,6,15.9,6.9,26.8c0.3,5.8,0.6,14.6,0.7,26.5c0.4,8.9-1.2,20.3-4.5,34.5c-4.7,20.4-7.2,31.7-7.5,34.1
	c-1.8,10-2.7,25.2-2.9,45.7c-0.2,2.7-1.2,8.3-3.1,16.4c-1.6,6.6-2.3,11.8-2.1,15.9c0.7,6.1,2.6,15.3,5.8,27.3
	c-4.6-9.4-9.5-15.6-14.9-18.8l0.9,18.3c1.7,4.7,3.6,12.9,5.7,24.8L752,575l0,1c3.5-13.5,3.5-25.6,0.1-36.4
	c5.1,5.2,8.7,9.2,10.7,11.8c2.5,5.4,4.6,9.8,6.3,13.5c0.1,3.1-0.2,6.5-1.2,10.2c-0.4-0.7-0.8-1.2-1.2-1.4l-1.1,1.1l-0.6,0.5
	c0,1,1.7,3.6,4.9,7.5C770,583.1,770.2,583.2,770.2,583.5z"/>
<path id="path44_1_" inkscape:connector-curvature="0" class="st0" d="M846.1,372.9l-1.2-2c-1.2-1.7-2.4-3.3-3.6-5
	c-1.6-2-3.2-4.2-4.8-6.4l-1.2-1.5c-6.8-8.2-13.6-14.7-20.6-19.5c6,6.6,10.7,12,14.3,16.2c6.8,7.9,11.6,15,14.6,21.3
	c6.7,14.6,8.2,26.9,4.5,36.6c2.1-3.5,3.4-7.9,3.9-12.9C853.7,390.1,851.7,381.2,846.1,372.9z M782,246.5c-3.5-2.6-6.7-4.5-9.8-5.7
	c9.4,6.7,16.7,17,22.3,30.6c2.6,7.1,4.4,13.2,5.4,18.7c2-4.5,0.9-12.8-3.4-24.9C793.8,257.9,789,251.6,782,246.5z M787.1,355.2
	c-3.6-4.6-7.3-8.3-11.2-11.2c11.9,13.8,17.7,29,17.3,45.8c-0.4,8.2-1.7,15-4.1,20.6c4.6-5.3,7.6-14.9,8.8-29
	C798.3,372.8,794.7,364.1,787.1,355.2z M788.7,376.1l-2.5-5l2.1,19.8C789.9,385.4,790,380.4,788.7,376.1z M805,278.2
	c0.4-6.9-1.8-14.4-6.7-22.7l-7.8-10.3C797,255.5,801,268,802.4,283c0.6,4.8,0.7,9.3,0.4,13.5L805,278.2z M802.6,421
	c4.3-13.5,6.8-23,7.7-28.5c1.7-12.6-3-26.4-13.9-41.3c6.6,11.3,9.7,21.2,9.3,29.8c-0.3,8.9-4.3,20.5-11.9,34.9
	c-11,21-6.4,41.4,14.2,61.2c8.7,7.8,15.2,16.8,19.9,27.2c2.5,5,3.9,9.2,4.5,12.6c-0.1-9.6-4.1-20.2-12.2-32.1
	c-10.1-15.3-16-25.3-17.7-30.4C799.1,444.9,799,433.7,802.6,421z"/>
<path id="path46_1_" inkscape:connector-curvature="0" class="st4" d="M687.8,218.6c-0.8,0-1.7,0.3-2.7,0.6
	c-8.5,2.8-14,9.1-16.6,18.7c-1.9,7.6-2.8,16.3-2.8,26.2c0.2,13,2.5,21.2,6.8,24.8c2,1.6,3.4,5.7,4.6,12.1c0.2,3.4,0.5,7.6,1.1,12.7
	c1,6.1,4.3,18.9,9.7,38.4c4.1,15.9,6.7,28.5,8.1,38c3.8,24.3,12.7,45.4,26.6,63.1c0.4,0.3,0.8,0.6,1.2,1c5.2,5.8,11.9,12,20.1,18.4
	c9.2,7.1,17,11.4,23.1,13.2c-11.7-7.5-19.5-18.5-23.5-32.6c-3.6-12.1-6.1-25.7-7.5-40.6c1.3-12.9,1.5-22.7,0.4-29.1
	c-0.5-3.1-3-14-7.7-32.9c9.4,7.1,15.6,16.1,18.7,27.3c-0.7-7.5-3-16.4-6.9-26.8c-6.4-15.4-9.8-24.2-10.1-26.2
	c4.2,1.2,10,4.1,17.4,8.9c-0.4-9.2-5.8-19.3-16.1-30.5c9,6.1,21.4,12.8,37.5,20.2c-3.7-5.6-6-12.8-7.2-21.7
	c-1.2-9.9-2.3-17.1-3.3-21.8c-4.5-24.7-16-41.6-34.5-51l12.6,3.5c-7.4-6.1-15.9-10.5-25.4-13.2C702.5,217,694.8,216.7,687.8,218.6z"
	/>
<path id="path48_1_" inkscape:connector-curvature="0" class="st5" d="M722.3,453.3c2.8,4.3,5.7,8.1,8.4,11.3c0.8,0.6,1.4,1.3,1.9,2
	c6.3,6.1,13.5,11.4,21.6,15.9c1.6,1,6.3,2.9,14.3,5.9c6.9,2.8,11.3,5.1,13.3,7c-15.9-17.6-25.6-37.7-29.3-60
	c-2.3-16-4.3-27.9-6.2-36.1c-2.5-13.6-6.1-25.1-10.7-34.7c7.6,10.1,14.7,29.6,21.3,58.4c6.1,25.7,15.4,44.1,28,55.4
	c-12.5-24.6-17.6-46.7-15.5-66.3c3.2-27.7-1.1-50.5-12.7-68.5c6.2,3.1,11.8,8.7,17.1,16.6c4.8,7,8.2,14.1,9.9,21.5
	c1.5-9.3,0.3-17.9-3.5-25.9c-1.3-2.7-4.3-6.4-9.1-11.3c-4.4-4.9-6.9-8.9-7.8-11.9c4.3,4.2,10.7,7.6,19,9.8
	c9.9,1.9,17.1,3.6,21.6,5.1c10.3,3.6,20.6,11.8,31,24.6c-3.8-9.1-13.9-20.2-30.3-33.5c-8.6-6.8-16-16.8-22.3-30.2
	c-2.9-5.7-4.9-10-6.3-13c-2.1-5-3.6-9.4-4.6-13.1c-1.5-7.8-3.8-14.7-7.1-21.1c-2.1-3.7-6.5-10-13.3-18.9c4.2,0.8,9.8,3.8,16.7,8.9
	c-8-10.9-16.3-17.5-24.5-19.8c24.5-0.1,41.6,8.5,51.5,26.2c-8.3-16.2-18.6-27-30.9-32.3c-5-2.5-11.1-4.7-18.3-6.8
	c-7.6-2-16.5-3.8-26.8-5.4c-13.3-2.1-23.6-0.5-31.3,5c6.9-2,14.7-1.7,23.2,1c9.4,2.6,17.9,7,25.4,13.2l-12.6-3.5
	c18.5,9.4,30,26.4,34.5,51c1,4.7,2.1,12,3.3,21.8c1.2,8.8,3.5,16,7.2,21.7c-16.2-7.3-28.7-14.2-37.5-20.2
	c10.3,11.1,15.7,21.3,16.1,30.5c-7.4-4.8-13.2-7.7-17.4-8.9c0.5,2,3.9,10.8,10.1,26.2c3.9,10.3,6.2,19.3,6.9,26.8
	c-3.2-11.1-9.4-20.2-18.7-27.3c4.7,18.9,7.2,29.9,7.7,32.9c1.1,6.4,1,16.1-0.4,29.1c1.5,15,4,28.5,7.5,40.6
	c4,14.1,11.8,25,23.5,32.6c-6.1-1.8-13.9-6.2-23.1-13.2c-8.2-6.5-14.9-12.6-20.1-18.4C723.5,454.3,722.3,453.3,722.3,453.3z"/>
<path id="path50_1_" inkscape:connector-curvature="0" class="st6" d="M835.2,358.1c-2.4-3.3-5.2-6.7-8.4-10.3
	c-9.4-11.2-16-19.4-19.1-24.6c-0.4-0.8-0.8-1.7-1.3-2.8l0-0.3c-0.4-1-0.9-2.2-1.3-3.5l0.9,0c-0.8-9.6-0.9-17.5-0.2-23.5
	c1.5-15.5-0.8-28.4-7-39.1c-7-13-18.4-22.6-34-29.1c-5-2.2-11.2-4-18.9-5.7c7.3,2.1,13.4,4.3,18.3,6.8c12.3,5.2,22.6,16,30.9,32.3
	c-9.9-17.7-27-26.3-51.5-26.2c8.4,2.3,16.6,8.9,24.5,19.8c-6.9-5.1-12.6-8.2-16.7-8.9c6.8,8.9,11.3,15.2,13.3,18.9
	c3.3,6.3,5.7,13.4,7.1,21.1c0.9,3.7,2.5,8.1,4.6,13.1c1.3,3,3.4,7.4,6.3,13c6.3,13.4,13.7,23.4,22.3,30.2
	c16.4,13.2,26.5,24.3,30.3,33.5c-10.4-12.8-20.7-21-31-24.6c-4.6-1.5-11.8-3.2-21.6-5.1c-8.4-2.3-14.7-5.6-19-9.8
	c0.9,3,3.5,7,7.8,11.9c4.8,4.9,7.7,8.6,9.1,11.3c3.8,8,4.9,16.6,3.5,25.9c-1.9-7.4-5.2-14.6-9.9-21.5c-5.3-8-10.9-13.5-17.1-16.6
	c11.8,17.9,16,40.7,12.7,68.5c-2.1,19.6,3.1,41.6,15.5,66.3c-12.6-11.4-21.9-29.9-28-55.4c-6.6-28.7-13.7-48.1-21.3-58.4
	c4.6,9.7,8.2,21.3,10.7,34.7c1.9,8.1,4,20.1,6.2,36.1c3.7,22.4,13.4,42.3,29.3,60c-2-2-6.4-4.3-13.3-7c-8.1-3-12.8-5-14.3-5.9
	c-8.1-4.4-15.3-9.8-21.6-15.9c10.6,18.2,25.9,29.9,45.6,35.1c25.8,6.3,39.5,10.2,41.1,12c6.4,6.9,9.2,16.9,8.7,30.2
	c-0.1,6.5-0.9,12.3-2.6,17.4c8.9-19.4,11.4-37.6,7.7-54c-1.9-8.5-6.2-17.5-13.1-27c-7.6-9.9-12.3-18.5-14.1-25.9
	c-2.3-8.8-1.3-20.6,2.9-35.5c4.5-16.6,6.7-26.4,6.5-29.5c-0.3-5.8-1.9-12.1-4.9-19.3l-4.4-9c28.4,12.7,42.1,27.9,41.1,45.6
	c-0.7,9.3-4.1,17.1-10.2,23.5c8.5-4.2,13.9-11.9,16.4-23.3c2.5-11.7,0.6-22.4-5.5-32c-0.4-1-1-1.8-1.9-2.4
	c5.7,8.3,7.6,17.2,5.8,26.8c-0.5,5.2-1.8,9.4-3.9,12.9c3.7-9.7,2.1-22-4.5-36.6c-2.9-6.4-7.8-13.4-14.6-21.3
	c-3.6-4.3-8.4-9.6-14.3-16.2C821.6,343.4,828.4,349.8,835.2,358.1z M782,246.5c7,5.1,11.8,11.4,14.4,18.7
	c4.3,12.1,5.5,20.4,3.4,24.9c-1-5.4-2.8-11.6-5.4-18.7c-5.5-13.8-12.9-23.9-22.3-30.6C775.3,242,778.6,243.9,782,246.5z M805,278.2
	l-2.3,18.2c0.3-4.2,0.2-8.8-0.4-13.5c-1.4-14.9-5.4-27.5-11.9-37.8l7.8,10.3C803.2,263.7,805.4,271.4,805,278.2z M788.7,376.1
	c1.3,4.4,1.2,9.3-0.4,14.8l-2.1-19.8L788.7,376.1z M787.1,355.2c7.6,8.9,11.1,17.6,10.8,26.2c-1.2,14.1-4.2,23.7-8.8,29
	c2.4-5.6,3.8-12.4,4.1-20.6c0.3-16.8-5.4-32-17.3-45.8C779.8,346.9,783.6,350.6,787.1,355.2z M802.6,421
	c-3.5,12.8-3.7,23.9-0.2,33.2c1.7,5,7.6,15.1,17.7,30.4c8.1,11.9,12.1,22.6,12.2,32.1c-0.5-3.4-2-7.5-4.5-12.6
	c-4.6-10.3-11.2-19.4-19.9-27.2c-20.5-19.8-25.1-40.2-14.2-61.2c7.6-14.4,11.6-26,11.9-34.9c0.4-8.6-2.7-18.4-9.3-29.8
	c10.9,14.9,15.4,28.6,13.9,41.3C809.4,398,806.9,407.5,802.6,421z"/>
<path id="path52_1_" inkscape:connector-curvature="0" class="st0" d="M449.2,191.9c8.3,0.6,14,4.2,17.5,10.9l-3.8-8.5
	c-5.1-5.2-13.8-5.6-26.1-1.3C440.6,191.9,444.7,191.6,449.2,191.9z M478.5,191.1l-4.9-9l-0.3-0.2c0.8,0.2,1.4,0.5,2,0.7
	c4.6,2.5,9.9,7.5,15.9,15.1l7.1,10.4l-9.4-20.5c-8.8-11.2-20.4-14-34.8-8.6c-4.1,0.2-8.7,1.1-13.9,2.7c4.8-1.3,9.8-1.7,15.1-1.2
	C466.7,180.6,474.4,184.2,478.5,191.1z M395.7,194.4c6.4,0.7,13.3-0.4,20.7-3.5c4.4-1.6,11.8-5.6,22.1-11.7c8.8-5.2,16.7-8,23.9-8.3
	c7.5-0.7,16,1.3,25.7,6l-14.4-7.5c-13-3.8-26-2.3-39.2,4.5c-17.3,9.2-28.1,14.6-32.5,15.8c-9.3,2.8-16.5,0.8-21.8-6.2
	C381.4,189.5,386.6,193.2,395.7,194.4z M407.6,195.5c-10.5,1.5-19-0.7-25.7-6.4c3.3,5.9,9,9.2,16.8,9.4c4.9,0.1,10.1-0.9,15.7-3.2
	l6.6-3.4L407.6,195.5z"/>
<path id="path54_1_" inkscape:connector-curvature="0" class="st5" d="M475.8,169.8c17.4,5,26.4,13.9,26.6,26.9l-2.4-3
	c3.2,12.2,4.1,22.7,2.6,31.6c-7-11.9-10.8-18.5-11.6-19.9c0.3,6.5,0.3,10.1,0,11.3c-4.6-9-8.4-15.4-11.6-19.4
	c-5.2-6.6-11.4-10.9-18.6-13c-8-1.7-16.4-0.6-25.2,3.2c-2.6,1.1-6.6,3.2-12.1,6.2c-5.2,2.3-9.4,3.3-12.8,3.1
	c5.7,0.4,11.7-0.5,18-2.9c15.9-5.8,27.2-6.2,33.5-1c3.5,2.6,6,6.9,7.4,13c1,4.4,1.4,8.1,1,11.2c0,0.3-2.1-2-6.5-6.9
	c-5.6-6.9-12.2-10.5-19.7-10.8c-6.4,0-16.2,1.1-29.2,3.4c-11.8,1.9-19.5,2.6-22.4,2.1c-7.2-1.4-12.8-5.3-16.9-12
	c2.3,8.8,8.3,14.3,18.2,16.5c4.6,1.2,12.1,1.7,22.7,1.6c9.8-0.5,16.7,0.1,20.9,1.5c11.9,4.9,18.4,13.2,19.7,24.6l2.3,12.2
	c0.9,3.7,2.8,6.7,5.4,9c5.5,4.2,14.1,5.3,25.5,3.4c14.2-2.4,23.6-10.1,28.3-23.3c4.6-13.9,3.4-27.7-3.7-41.8
	c-5.4-11.7-13-20.5-22.6-26.5c-7.8-4.8-17.4-6.7-29-5.8c-8.6,0.7-16,2.6-22.2,5.6C450.5,165.7,462.1,165.6,475.8,169.8z"/>
<path id="path56_1_" inkscape:connector-curvature="0" class="st6" d="M375.1,175c-2.4,4.9-2.9,10.5-1.5,16.9
	c4.1,16.1,15.9,23.4,35.4,21.8c12.4-0.9,21.6-0.2,27.7,2.4c6.9,2.4,11.4,7.8,13.7,16.2c1.4,6.1,3.4,13.9,6.1,23.2
	c3.3,6.7,10.4,10.5,21.4,11.3c13.5,0.7,24.6-2.6,33.3-10.2c9.8-8.9,14-22,12.9-39c-0.9-12.3-5.4-23.6-13.4-34.1
	c-10.9-15.6-25.8-22.8-45-21.9c-11.5,0.5-24.1,4.7-37.7,12.5c-14.7,8.8-24.9,13.7-30.8,14.8c-6,1-10.9-0.4-14.9-3.9
	c-4-3.9-4.8-9-3-15.2C379.4,169.7,375.1,175,375.1,175z M475.8,169.8c-13.8-4.1-25.2-4.1-34.4,0c6.3-3,13.7-4.9,22.2-5.6
	c11.6-0.9,21.3,1.1,29,5.8c9.6,6,17.2,14.9,22.6,26.5c7.1,14,8.2,27.9,3.7,41.8c-4.7,13.2-14.1,20.9-28.3,23.3
	c-11.5,1.9-20.1,0.8-25.5-3.4c-2.7-2.3-4.5-5.3-5.4-9l-2.3-12.2c-1.3-11.6-7.8-19.8-19.7-24.6c-4.2-1.5-11.1-2-20.9-1.5
	c-10.5,0.2-18.1-0.3-22.7-1.6c-9.9-2.3-15.9-7.7-18.2-16.5c4.1,6.6,9.7,10.6,16.9,12c3,0.5,10.5-0.2,22.4-2.1
	c13.1-2.3,22.8-3.5,29.2-3.4c7.6,0.3,14.1,3.9,19.7,10.8c4.4,4.9,6.5,7.2,6.5,6.9c0.2-3.1-0.1-6.8-1-11.2c-1.4-6-3.9-10.3-7.4-13
	c-6.3-5.2-17.6-4.8-33.7,1.1c-6.3,2.3-12.3,3.3-18,2.9c3.4,0.2,7.6-0.8,12.8-3.1c5.5-3,9.6-5,12.1-6.2c8.9-3.8,17.2-4.9,25.2-3.2
	c7.1,2.1,13.5,6.3,18.6,13c3.2,4,7.1,10.4,11.6,19.4c0.3-1,0.3-4.8,0-11.3c0.8,1.3,4.8,8,11.6,19.9c1.5-9,0.6-19.5-2.6-31.6l2.4,3
	C502.1,183.7,493.3,174.7,475.8,169.8z M407.6,195.5l13.4-3.7l-6.6,3.4c-5.5,2.3-10.8,3.4-15.7,3.2c-7.9-0.3-13.5-3.5-16.8-9.4
	C388.6,194.8,397.2,197,407.6,195.5z M395.7,194.4c-9.1-1.3-14.3-4.9-15.7-11c5.2,6.9,12.5,9,21.8,6.2c4.5-1.2,15.3-6.5,32.5-15.8
	c13.2-6.8,26.2-8.3,39.2-4.5l14.4,7.5c-9.6-4.7-18.1-6.7-25.7-6c-7.1,0.3-15.1,3.1-23.9,8.3c-10.3,6.3-17.5,10.2-21.9,11.7
	C409,194,402.2,195.2,395.7,194.4z M478.5,191.1c-4.1-7-11.8-10.5-23-10.7c-5.3-0.4-10.3,0-15.1,1.2c5.2-1.6,9.8-2.5,13.9-2.7
	c14.4-5.5,26-2.6,34.8,8.6l9.2,20.5l-7.1-10.4c-6-7.6-11.3-12.6-15.9-15.1c-0.5-0.2-1.3-0.5-2-0.7l0.3,0.2L478.5,191.1z
	 M449.2,191.9c-4.5-0.5-8.7-0.1-12.4,1.1c12.2-4.3,20.9-3.8,26.1,1.3l3.8,8.5C463.3,196.3,457.4,192.6,449.2,191.9z"/>
<path id="path58_1_" inkscape:connector-curvature="0" class="st0" d="M516.1,187.8c-3.6,2.9-6.2,5.4-7.6,7.5c5-5.4,14-9.7,27-13
	l1.1-0.1c-1.5,0.4-3,0.9-4.4,1.8c-10.3,5.6-16.5,11.8-18.8,18.8c3.6-4.3,8.7-7.7,15.3-10.4c1.8-0.8,8.6-3.1,20.5-7
	c22-5.8,34.1-9.1,36.7-9.9l-17.4,1.3c28.4-4.4,46.3-13.8,54-28c4.2-7.4,4.7-15,1.8-23.1c-2.2-6.1-4.9-10-8-11.9l4.7,6.8
	c3.3,5.7,3.9,11.4,1.9,17.2c-5.6,18-25.1,29.3-58.7,34c-15.7,2.1-28.9,4.5-39.7,7.4c5.2-0.9,10.5-1.5,15.7-1.8l6.3-0.3
	C533.8,179.2,523.8,182.6,516.1,187.8z M623.2,115.3c-2.8-2.9-5.6-5.2-8.7-6.8c5.5,4.2,10,9.9,13.7,17.2c1.7,3.7,2.8,7,3.2,10.1
	C631.9,128,629.1,121.2,623.2,115.3z M622.2,106.7c-5.8-3.8-11.8-6.1-18.4-6.8c13.4,5.5,23,14.1,28.8,25.8
	c2.9,5.7,4.5,10.8,4.7,15.6C639.4,126.2,634.3,114.7,622.2,106.7z"/>
<path id="path60_1_" inkscape:connector-curvature="0" class="st5" d="M564.8,264.4c-1.8,1.8-3.6,3.2-5.4,4.4
	c-2.9,1.8-8.1,6.1-15.7,12.5c-8.4,5.2-18.1,4.9-29.3-0.7c-10.4-5.2-17-13.8-19.8-25.6c-2.8-11.2-1.4-21.6,4.2-31.4
	c2.4-4.9,5-8.7,8-11.7c0.3-1,0.4-2.1,0.4-3.1c0.6-2.4,2.4-5.2,5.3-8.4c3.3-2.9,5.5-5.2,7.1-6.9c-3.4,0.5-9.7,4.6-19.2,12.2
	c2.2-9,10.2-16.7,23.8-23.1c-5.7-0.4-12,1.6-18.8,6c-5.8,4-10.8,8.5-14.6,13.4c-8.9,11.7-11.3,27.4-7.3,47.4
	c4.3,20.3,13,33.7,26.1,40.3c11.2,5.5,21,5.9,29.4,0.7c7.6-6.4,12.8-10.6,15.7-12.5c4-2.6,7.2-6.3,9.7-11.2
	C564.1,265.7,564.4,265.1,564.8,264.4z M536.8,198.1l1.1-1.1c2.2-1.1,6.5-2.7,12.7-4.7c6-1.6,10.1-3.2,12.7-4.7
	c-2.9,1.8-7.1,4.2-12.6,7.2c-5.2,2.6-8.9,5.3-11.4,8.2c4.1-0.9,6.8-1.7,8.4-2.4l-2.6,6.7c5.8-4.7,10.2-8.3,13.1-10.9
	c5.1-4,10-6.7,14.8-8.4c16.2-5.5,29.1-10.7,38.7-15.6c-2.5,3.5-6.6,6.6-12.5,9.2l-13.7,7.2l-0.5,0c-4.4,2.6-7.8,5.3-10.3,8.2
	c-0.7,1.1-1.9,3.3-3.7,6.8c-1,3.1-2,5.2-3.1,6.3c4.7-3.6,12.2-8.1,22.5-13.4c-0.7,1.7-3,9.4-6.8,22.9c4.6-5.7,11.2-10.7,19.7-14.7
	c18.3-9.1,30.7-18,37.1-26.8c11-14.8,14.5-28.9,10.5-42.4l-9.8-15.4l5.6,13.1c3.1,9.8,2.7,18-1.1,24.7
	c-6.2,11.6-16.4,22.1-30.7,31.6c-4,2.6-7.9,4.9-11.5,7.1c5.5-3.7,13.1-10,22.7-19c11.6-10.8,17.4-22.5,17.6-35.1l-2.8-11.2
	c2,11.2-0.9,21.6-8.7,31.1c-5.4,6.4-13.8,13.3-25.5,20.7c-9.9,6.6-21,12.4-33.6,17.4c3.6-3.9,13.9-10.8,31.2-20.8
	c10.6-6,17.5-14.3,20.8-25l0.8-6.6c-1,2.4-2.4,4.9-4.2,7.4c-2.8,4.2-6.4,7.8-10.8,10.8c-7.3,4.8-20.8,11.6-40.8,20.4
	c4.1-1.9,7.1-4.4,9.2-7.6c-6.7,2.4-16.8,5.6-30.6,9.6c-11.4,3.9-20.8,8.5-28.1,13.6C527,200.2,532.3,198.7,536.8,198.1L536.8,198.1z
	"/>
<path id="path62_1_" inkscape:connector-curvature="0" class="st6" d="M564.8,264.4c-0.3,0.7-0.7,1.4-1,2.1
	c-2.4,4.9-5.6,8.6-9.7,11.2c-2.9,1.8-8.3,6.1-15.7,12.5c-8.4,5.2-18.2,5-29.4-0.7c-13.1-6.6-21.8-19.9-26.1-40.3
	c-3.9-20-1.5-35.7,7.3-47.4c3.9-5,8.7-9.4,14.6-13.4c7-4.4,13.1-6.4,18.8-6c-13.6,6.4-21.6,14.1-23.8,23.1
	c9.4-7.6,15.8-11.7,19.2-12.2c-1.4,1.8-3.8,4.1-7.1,6.9c-2.9,3.2-4.6,6-5.3,8.4c0,1,0,2.1-0.4,3.1c2.9-3.2,5.9-5.5,9.2-7
	c0.9,2.7,2.2,4.1,4.2,4.4c0.7-0.4,1.5-1,2.2-1.7c2.9-1.8,6.2-3.7,9.9-5.6c2.2-1.8,3.8-3,4.8-3.9c-4.5,0.6-9.8,2.1-16.1,4.4
	c7.3-5.1,16.6-9.7,28.1-13.6c13.8-4.1,23.9-7.3,30.6-9.6c-2.1,3.2-5.1,5.7-9.2,7.6c19.9-8.8,33.6-15.6,40.8-20.4
	c4.4-2.9,8-6.5,10.8-10.8c1.8-2.5,3.2-4.9,4.2-7.4l-0.8,6.6c-3.3,10.7-10.2,19-20.8,25c-17.2,10-27.6,17-31.2,20.8
	c12.6-5,23.7-10.8,33.6-17.4c11.6-7.4,20.2-14.3,25.5-20.7c7.8-9.6,10.8-19.9,8.7-31.1l2.8,11.2c-0.2,12.5-6,24.3-17.6,35.1
	c-9.8,8.9-17.2,15.3-22.7,19c3.7-2.2,7.4-4.6,11.5-7.1c14.4-9.2,24.6-19.7,30.8-31.3c3.8-6.7,4.2-14.9,1.1-24.7l-5.6-13.1l9.8,15.4
	c4,13.5,0.5,27.5-10.5,42.4c-6.4,8.8-18.8,17.7-37.1,26.8c-8.5,4.2-15,9-19.7,14.7c-1.3,4.4-2.7,9.5-4.3,15c-0.7,2.1-1.3,3.9-2,5.7
	c7.1-16.4,19.5-28.7,37.2-36.9c17.7-8,29.8-20.9,36.5-38.5c7.4-19,4-35.3-10.2-48.6c-16.9-15.8-35.5-22.5-55.6-19.9
	c-10.1,1.5-18.4,4.4-25,8.8c20.3-6.8,35.7-6.6,46.2,0.5c10.9,7.6,16.2,16.2,15.9,25.8c-0.3,9.2-5.8,17.5-16.3,24.8
	c-10.2,7-24.8,11.8-43.9,14.4c-22.7,3.1-40.2,7.3-52.4,12.7c-18.1,8.4-28.8,21.5-32,39.3c-3.4,15.5-1,30.7,7.2,45.7
	c12.8,23.2,30.2,31.4,52.5,24.2c20.4-6.4,32.1-18.2,35-35.4c0.6-3.4,1.4-6.7,2.3-9.8C572,254.5,568.7,260.1,564.8,264.4z
	 M516.1,187.8c7.7-5.1,17.8-8.7,30.5-10.7l-6.3,0.3c-5.3,0.2-10.5,0.8-15.7,1.8c10.8-2.9,24-5.3,39.7-7.4
	c33.6-4.6,53.1-15.9,58.7-34c2-5.9,1.3-11.7-1.9-17.2l-4.8-7c3.1,1.9,5.7,5.9,8,11.9c3,8.1,2.4,15.7-1.8,23.1
	c-7.6,14.4-25.5,23.6-54,28l17.5-1.3c-2.6,0.8-14.9,4.1-36.7,9.9c-11.9,4-18.7,6.3-20.5,7c-6.7,2.7-11.8,6.2-15.3,10.4
	c2.3-6.9,8.6-13.2,18.8-18.8c1.5-0.8,2.9-1.4,4.4-1.8l-1.1,0.1c-13,3.3-22,7.6-27,13C510,193.2,512.5,190.8,516.1,187.8z
	 M622.2,106.7c12.1,8,17.1,19.5,15.2,34.6c-0.2-4.8-1.9-10.1-4.7-15.6c-5.8-11.7-15.4-20.2-28.8-25.8
	C610.3,100.6,616.4,102.9,622.2,106.7z M623.2,115.3c5.9,5.9,8.8,12.7,8.2,20.6c-0.5-3.1-1.6-6.4-3.2-10.1
	c-3.7-7.3-8.3-13.1-13.7-17.2C617.5,110.1,620.5,112.4,623.2,115.3z"/>
<path id="path64_1_" inkscape:connector-curvature="0" class="st4" d="M583.4,220c4-13.5,6.2-21,7-22.8
	c-10.3,5.3-17.8,9.7-22.5,13.4c1.1-1.1,2.1-3.2,3.1-6.3c1.7-3.5,2.9-5.7,3.7-6.8c2.5-2.9,5.9-5.5,10.3-8.2l0.5,0l13.7-7.2
	c5.9-2.7,10-5.7,12.5-9.2c-9.6,4.9-22.4,10-38.7,15.6c-4.8,1.6-9.7,4.4-14.8,8.4c-2.9,2.5-7.2,6.1-13.1,10.9l2.6-6.7
	c-1.5,0.8-4.3,1.6-8.4,2.4c2.5-2.9,6.3-5.5,11.4-8.2c5.5-3,9.7-5.4,12.6-7.2c-2.6,1.5-6.8,3.1-12.7,4.7c-6.3,2-10.5,3.6-12.7,4.7
	c-0.4,0.4-0.7,0.7-1.1,1.1c-1.1,0.7-2.7,2.1-4.8,3.9c-3.7,1.9-7,3.7-9.9,5.6c-0.7,0.7-1.5,1.2-2.2,1.7c-1.9-0.3-3.2-1.8-4.2-4.4
	c-3.3,1.5-6.5,3.9-9.2,7c-2.9,2.9-5.5,6.7-8,11.7c-5.6,9.8-7,20.3-4.2,31.4c2.8,11.8,9.4,20.3,19.8,25.6c11.2,5.6,20.9,5.9,29.3,0.7
	c7.6-6.4,12.8-10.6,15.7-12.5c1.8-1.1,3.6-2.6,5.4-4.4c3.9-4.3,7.2-9.9,9.9-16.9c1-2.4,1.9-4.6,2.4-6.7c0.7-1.7,1.3-3.7,2-5.7
	C580.7,229.4,582.3,224.5,583.4,220L583.4,220z"/>
<path id="path66_1_" inkscape:connector-curvature="0" class="st0" d="M744.4,189l0-10.3c-0.4,7.2-3.4,13.9-8.6,20.3
	c-2.8,3.6-5.7,6.2-8.7,8C736.8,203.9,742.6,197.8,744.4,189z M734.1,197.6l4.7-6.4c-8.3,8.6-19.7,13.2-34.3,13.9
	c-7.5,0.4-14.1-0.1-19.8-1.6c11.1,4.3,22.1,5.2,32.8,3C724.3,205.2,729.8,202.2,734.1,197.6z M737.2,190.8l2.6-6.7
	c-5.6,9.5-15.2,13.7-28.8,12.6c-6.4-0.4-23.1-4.2-50.1-11.4c-20.2-5.6-38.8-4.3-55.6,3.6c-8.5,3.8-15.1,8.2-19.6,13.2
	c12.4-8.4,24.4-13.2,35.9-14.4c10.1-0.8,21.9,0.9,35.2,5c17.2,5,28.5,8,34.2,9.1c11.4,2.2,21.3,2.1,29.9-0.4
	C728.5,199,734,195.4,737.2,190.8z M592.5,207.8c-4.6,6-7,12.1-7.1,18.2c7-11.6,14.9-19.6,23.7-24.1c4.4-1.9,9.1-3.5,14.5-4.8
	c-6.3,1.7-11.2,4.1-14.9,7.3c-4,3.9-5.4,7.9-4.5,11.9c3.7-9.4,13.3-15.5,29-18.8l21.9-1.5c-7.2-0.7-13.5-0.7-19.1-0.1l4-0.6
	C617.6,192.3,601.8,196.4,592.5,207.8z"/>
<path id="path68_1_" inkscape:connector-curvature="0" class="st6" d="M579.3,263.1l10.6-26.6c0.9,3,2.1,7.6,3.4,13.6
	c4-12.1,7.7-21,11.2-26.6c5.6-9.1,13.2-15.8,22.7-20c9.6-3.9,21.8-4.7,36.6-2.2c7.6,2,13.7,3.6,18.3,4.7c6.5,1.4,11.5,2.2,15.3,2.4
	l-4.5,0.2c-6.4,0.6-12.4,0.4-18-0.8c-8.7-1.6-17.2-2-25.4-1.3c-10.5,0.8-17.9,3.3-22.3,7.6s-6.7,10.2-7.1,17.8
	c-0.1,5.8,0.5,10.3,1.8,13.7l6.8-10c6.3-9.5,14.7-15.4,25.1-17.6c9-1.8,22.9-2.8,41.6-3c17.3-0.1,28-0.8,32.1-2
	c6.3-2.3,11.5-6.2,15.8-11.4l4.7-7.4l-3,9.4c-3.8,6.7-9.8,11.7-17.9,15.2c-6.3,2.7-16.9,4.9-31.8,6.6c-13.8,2-23.4,4.5-29,7.4
	c-14.7,8.2-21.6,19.6-20.9,34.2l0.7,14.8c-0.5,4.8-2.4,8.8-5.6,12c-6.1,6.3-17.8,9.8-35.1,10.3c-20.6,1-36-6.2-46.1-21.3
	c-10.5-15.9-12.9-33.1-6.9-51.9c5.3-15.6,13.9-27.9,25.9-37c9.8-7.6,22.7-12.3,38.8-14c15-1.7,28-0.5,39,3.8
	c-15.3-5.4-33.5-3.6-54.4,5.6c-23.1,10-33.3,22.9-30.3,38.7l3.2-3.8C572.8,239.3,574.3,252.1,579.3,263.1z M555.7,214.1
	c-8.3,15.4-11.1,30.4-8.6,45c2.8,20.6,12.2,35.3,27.9,44.2c14.3,7.5,30.8,9.2,49.8,4.9c14.9-3.4,23.8-9.7,26.8-18.7l2.6-29.7
	c1-10.3,6.1-18.1,15.2-23.3c7.7-4.1,20.3-7.1,37.9-8.9c28.4-3,42.9-14.4,43.5-34.3c0.4-8.2-1.8-15-6.6-20.2
	c-2.4-2.6-4.7-4.6-7.1-5.8c4.5,7,4.1,13.3-0.9,19c-4.6,5.3-11.1,8-19.3,8.1c-9,0.1-25-3.4-47.8-10.5c-20.7-6.6-39.1-8.7-55.6-6.6
	C586.4,180.9,567.1,193.2,555.7,214.1z M592.5,207.8c9.3-11.4,25-15.5,47.4-12.5l-4,0.6c5.6-0.6,12-0.6,19.1,0.1l-21.9,1.5
	c-15.7,3.1-25.3,9.4-29,18.8c-0.9-4.1,0.5-8,4.5-11.9c3.6-3.2,8.7-5.6,14.9-7.3c-5.2,1.3-10,2.9-14.5,4.8
	c-8.8,4.5-16.7,12.5-23.7,24.1C585.6,219.9,587.9,213.8,592.5,207.8z M737.2,190.8c-3.2,4.6-8.5,8.1-16.5,10.5
	c-8.6,2.5-18.5,2.6-29.9,0.4c-5.7-1.1-17.1-4.1-34.2-9.1c-13.4-4.2-25-5.8-35.2-5c-11.5,1.2-23.6,6-35.9,14.4
	c4.7-5,11.2-9.4,19.6-13.2c17-8,35.5-9.2,55.6-3.6c27,7.3,43.7,11.1,50.1,11.4c13.6,1.1,23.1-3.1,28.8-12.6
	C739.7,184.1,737.2,190.8,737.2,190.8z M734.1,197.6c-4.3,4.6-9.8,7.6-16.5,9c-10.8,2.2-21.8,1.2-32.8-3c5.7,1.4,12.3,1.9,19.8,1.6
	c14.7-0.7,26-5.3,34.3-13.9C738.9,191.2,734.1,197.6,734.1,197.6z M744.4,189c-1.8,9-7.6,14.9-17.2,18.1c2.9-1.8,5.8-4.6,8.7-8
	c5.4-6.4,8.2-13.1,8.6-20.3L744.4,189z"/>
<path id="path70_1_" inkscape:connector-curvature="0" class="st5" d="M579.3,263.1c-5-11-6.5-23.9-4.6-38.6l-3.2,3.8
	c-3-15.9,7.2-28.8,30.3-38.7c20.9-9.2,39-11.1,54.4-5.6c-11.1-4.3-24.1-5.5-39-3.8c-16.1,1.8-29.1,6.5-38.8,14
	c-12,9.1-20.6,21.5-25.9,37c-5.9,18.7-3.6,35.9,6.9,51.9c10,15.3,25.5,22.3,46.1,21.3c17.3-0.5,29-4,35.1-10.3
	c3.2-3.2,5.1-7.2,5.6-12l-0.7-14.8c-0.7-14.6,6.3-26,20.9-34.2c5.5-3,15.2-5.5,29-7.4c15-1.7,25.6-3.9,31.8-6.6
	c8.1-3.5,14-8.5,17.9-15.2l3-9.4l-4.7,7.4c-4.3,5.3-9.5,9.1-15.8,11.4c-4.1,1.2-14.7,1.8-32.1,2c-18.7,0.2-32.6,1.2-41.6,3
	c-10.4,2.2-18.7,8.1-25.1,17.6l-6.8,10c-1.3-3.4-1.9-8-1.8-13.7c0.4-7.5,2.8-13.5,7.1-17.8c4.3-4.3,11.7-6.8,22.3-7.6
	c8.3-0.7,16.7-0.3,25.4,1.3c5.7,1.1,11.6,1.3,18,0.8l4.5-0.2c-3.8-0.2-8.8-1-15.3-2.4c-4.6-1.2-10.7-2.7-18.3-4.7
	c-14.8-2.4-27-1.6-36.6,2.2c-9.6,4.2-17.2,10.8-22.7,20c-3.5,5.6-7.2,14.5-11.2,26.6c-1.4-6.1-2.5-10.6-3.4-13.6
	C590,236.5,579.3,263.1,579.3,263.1z"/>
<path id="path72_1_" inkscape:connector-curvature="0" class="st0" d="M704.5,227.2c-12.4-6.3-24.6-10.1-36.7-11.6
	c-7.2-0.3-14.7,0.6-22.4,2.6c-8.9,2.1-16.7,5.3-23.2,9.7c-2.6,1.5-4.9,3.1-7.1,4.9c18.3-8.7,34.2-13,47.3-12.9
	c9.8,0.2,20.6,2.5,32.5,6.7c1.5,0.3,3,0.7,4.6,1.4l16.7,7.4C712.3,232.1,708.4,229.3,704.5,227.2z M700.3,234
	c-13.1-6.6-26.5-8.9-40.4-6.8c-7.5,1-13.9,3-19.4,6c5.9-2.7,11.9-4.3,17.9-4.9c9.4-1.5,19.9-0.6,31.8,2.6
	C693.4,231.7,696.8,232.8,700.3,234z M680.5,232.9c-11.3-2.2-20.3-1.9-27,0.7c14.9-3.1,35,2.8,60.5,17.7l34.4,22.9
	C725.8,250.7,703.3,236.8,680.5,232.9z M782.4,302.8c1.3,0.9,2.5,1.7,3.5,2.3c7.8,5.1,15.4,7,22.7,5.5c5.6-0.9,9.5-3.6,11.8-8
	c0.7-1.4,1.2-2.9,1.7-4.4l-9.1,10.1c-2.6,1.1-5.3,1.8-8.3,2c-7.2,0-15.8-4-25.9-12.1C780.1,299.9,781.3,301.3,782.4,302.8z"/>
<path id="path74_1_" inkscape:connector-curvature="0" class="st6" d="M622.2,227.8c6.6-4.4,14.3-7.6,23.2-9.7
	c7.8-2.1,15.3-2.9,22.4-2.6c-13.5-1.4-27,0.3-40.3,5.5c-17.8,7-30.6,16.9-38.7,29.9c-11.1,18.3-12.4,35.7-3.7,52.4
	c7.5,14.6,21.2,26.2,41.1,34.9c15.8,6.4,28,7,36.8,1.9l22.1-22c7.9-7.9,17.7-11,29.5-9.1c9.9,1.6,23.3,7,40.2,16
	c27.3,15.4,48.3,15.5,62.6,0.2c5.7-6.1,8.2-12.8,7.5-20.3l-1.9-9.1c-0.1,0.9-0.3,1.7-0.5,2.6c-0.4,1.6-1.1,3-1.7,4.4
	c-2.3,4.3-6.2,7-11.8,8c-7.5,1.4-15.1-0.5-22.7-5.5c-1-0.7-2.2-1.5-3.5-2.3c-7.8-6.4-18.6-18.2-32-35.3
	c-14.3-18.4-29.6-31.8-45.8-40.2c3.9,2.2,7.8,4.9,11.7,8.1l-16.7-7.4c-1.5-0.6-3.1-1.1-4.6-1.4c3.8,1.5,7.4,3.3,10.9,5.1
	c12.4,6.9,21.9,14.7,28.7,23.2c-7.9-8.9-19.3-15.7-34.3-20.8c-3.4-1.2-6.9-2.3-10.3-3.2c-11.8-3.2-22.4-4.1-31.8-2.6
	c-6,0.6-11.8,2.3-17.9,4.9c-3.7,1.5-7.4,3.4-10.9,5.6c1.5-0.8,3.1-1.3,4.9-1.7c2.6-0.8,5.6-1.1,9-1c6.4-0.3,11.1,0.5,14.2,2.4
	c-2.9,2.9-5.2,4.8-7.1,6c8.6-0.4,14.5,0.4,17.6,2.3l-12.6,6.3c16.5-0.8,30.4,0.4,41.9,3.6c13.4,3.8,25.1,10.8,35.4,20.9
	c6,6.6,10.5,11.6,13.6,15.2c4.4,4.9,8.4,8.6,12.3,11.2l-4-2.3c-6.2-3.5-11.7-7.5-16.4-12c-7.1-6.8-15.4-13-25.1-18.3
	c-5-3.2-8.5-5.1-10.4-5.6c-1.1,0.1-3.4,0.5-6.7,1.3c-3.3,1.2-5.2,1.6-5.6,1.3l9.3,4.7l-18,2.9c8.7,1.3,15.2,2.5,19.3,3.7
	c10.3,2.9,24,10.8,41.2,23.6c17.2,12.5,30.7,20.2,40.5,23.2c6.9,2.1,14.1,2.4,21.5,1l9.4-2.9l-9.3,5.6c-7.8,3.1-16.3,3.5-25.8,1.2
	c-7.2-1.7-18.3-6.4-33.3-14.3c-13.5-7.2-23.8-11.4-31-12.3c-18.8-2.9-32.8,1.9-41.7,14.3c-2.5,3.2-5.7,7.2-9.6,12.2
	c-3.6,3.6-8,5.6-13.3,6.2c-9.7,1.1-22.5-3.4-38.4-13.6c-18.9-12.4-28-27.6-26.9-45.8c1-19.2,10.6-34.2,28.9-45.3
	C616.3,230.5,619.3,229.1,622.2,227.8z M680.5,232.9c22.8,4.1,45.4,17.8,68,41.4l-34.4-23c-25.4-14.9-45.7-20.7-60.5-17.7
	C660.2,230.9,669.1,230.7,680.5,232.9z"/>
<path id="path76_1_" inkscape:connector-curvature="0" class="st5" d="M694.9,226.5c-11.9-4.2-22.7-6.5-32.5-6.7
	c-13.2-0.1-28.9,4.2-47.3,12.9c2.2-1.8,4.5-3.4,7.1-4.9c-3,1.2-5.9,2.7-8.8,4.5c-18.3,11.1-27.9,26.1-28.9,45.3
	c-1,18.2,8,33.4,26.9,45.8c15.9,10.1,28.7,14.7,38.4,13.6c5.2-0.6,9.7-2.6,13.3-6.2c3.9-5,7.1-9,9.6-12.2
	c8.8-12.4,22.7-17.1,41.7-14.3c7.2,1,17.6,5.1,31,12.3c15.1,7.7,26.2,12.6,33.3,14.3c9.5,2.3,18.2,1.9,25.8-1.2l9.3-5.6l-9.4,2.9
	c-7.5,1.4-14.6,1-21.5-1c-9.9-3-23.4-10.6-40.5-23.2c-17.1-12.9-30.9-20.8-41.2-23.6c-4.2-1.2-10.7-2.4-19.3-3.7l18-2.9l-9.3-4.7
	c0.4,0.3,2.3-0.1,5.6-1.3c3.4-0.8,5.6-1.3,6.7-1.3c1.9,0.6,5.4,2.5,10.4,5.6c9.5,5.4,18,11.5,25.1,18.3c4.7,4.6,10.2,8.5,16.4,12
	l4,2.3c-3.9-2.6-8-6.2-12.3-11.2c-3.2-3.6-7.7-8.6-13.6-15.2c-10.3-10.1-22-17.1-35.4-20.9c-11.5-3.2-25.3-4.4-41.9-3.6l12.6-6.3
	c-3.1-1.9-9-2.7-17.6-2.3c1.8-1.1,4.3-3,7.1-6c-3.1-1.9-7.8-2.7-14.2-2.4c-3.4-0.2-6.4,0.2-9,1c-1.9,0.4-3.5,1.1-4.9,1.7
	c3.7-2.2,7.3-4.1,10.9-5.6c5.5-3,12-5,19.4-6c13.7-2,27.3,0.2,40.4,6.8c14.9,5.1,26.3,12.1,34.3,20.8c-6.8-8.6-16.3-16.2-28.7-23.2
	C702.3,229.8,698.7,228,694.9,226.5z"/>
<path id="path92" inkscape:connector-curvature="0" class="st8" d="M455.6,365.5l0-0.5l-1.1,0.1
	C454.8,365.1,455.2,365.3,455.6,365.5z"/>
<path id="path96_1_" inkscape:connector-curvature="0" class="st7" d="M701.3,546.4c-0.7-14,1.7-27.9,7.1-41.7
	c1.6-5.2,3-11.9,4.1-20.1c1.7-12.7,2.5-19.4,2.5-20.1c-4.5,23.7-13.9,47.7-27.7,71.8l0.1,2.5l0.6,0l7.9-10.1l1.1,0.4l0.5,11.7
	c-0.3,1-0.6,3.2-0.8,6.6c0,0.7-0.1,1.6-0.4,2.5C698.3,549,700,547.8,701.3,546.4z M704.7,543.2l3.2-3.2c0.8,0.6,1.2,2,1.3,4
	c0.1,2-1.2,5-3.5,8.8c-3.2,4.6-5,8.4-5.7,11.5c-0.3,1.7-0.2,5.8,0.1,12.2c-0.2,4.1-1.1,6.9-2.4,8.3c0,0.3-0.3,0.8-1.1,1.6l-1.1-0.4
	c0.1,2.7,0,5.9-0.2,9.7c-0.9,4.1-2.4,7.7-4.5,10.9c1.1-1.1,2.2-2.3,3.2-3.7c1.8-2.5,2.8-4.9,3-7.3l0.5,1c1-2.1,1.9-4.2,2.6-6.3l0-1
	l4.3-15.6c4.3-20,7.9-34.8,10.9-44.5C715.2,529.3,704.7,543.2,704.7,543.2z"/>
<path id="path56_2_" inkscape:connector-curvature="0" class="st6" d="M298.3,127.9c-2.4,4.9-2.9,10.5-1.5,16.9
	c4.1,16.1,15.9,23.4,35.4,21.8c12.4-0.9,21.6-0.2,27.7,2.4c6.9,2.4,11.4,7.8,13.7,16.2c1.4,6.1,3.4,13.9,6.1,23.2
	c3.3,6.7,10.4,10.5,21.4,11.3c13.5,0.7,24.6-2.6,33.3-10.2c9.8-8.9,14-22,12.9-39c-0.9-12.3-5.4-23.6-13.4-34.1
	c-10.9-15.6-25.8-22.8-45-21.9c-11.5,0.5-24.1,4.7-37.7,12.5c-14.7,8.8-24.9,13.7-30.8,14.8c-6,1-10.9-0.4-14.9-3.9
	c-4-3.9-4.8-9-3-15.2C302.5,122.6,298.3,127.9,298.3,127.9z M399,122.7c-13.8-4.1-25.2-4.1-34.4,0c6.3-3,13.7-4.9,22.2-5.6
	c11.6-0.9,21.3,1.1,29,5.8c9.6,6,17.2,14.9,22.6,26.5c7.1,14,8.2,27.9,3.7,41.8c-4.7,13.2-14.1,20.9-28.3,23.3
	c-11.5,1.9-20.1,0.8-25.5-3.4c-2.7-2.3-4.5-5.3-5.4-9l-2.3-12.2c-1.3-11.6-7.8-19.8-19.7-24.6c-4.2-1.5-11.1-2-20.9-1.5
	c-10.5,0.2-18.1-0.3-22.7-1.6c-9.9-2.3-15.9-7.7-18.2-16.5c4.1,6.6,9.7,10.6,16.9,12c3,0.5,10.5-0.2,22.4-2.1
	c13.1-2.3,22.8-3.5,29.2-3.4c7.6,0.3,14.1,3.9,19.7,10.8c4.4,4.9,6.5,7.2,6.5,6.9c0.2-3.1-0.1-6.8-1-11.2c-1.4-6-3.9-10.3-7.4-13
	c-6.3-5.2-17.6-4.8-33.7,1.1c-6.3,2.3-12.3,3.3-18,2.9c3.4,0.2,7.6-0.8,12.8-3.1c5.5-3,9.6-5,12.1-6.2c8.9-3.8,17.2-4.9,25.2-3.2
	c7.1,2.1,13.5,6.3,18.6,13c3.2,4,7.1,10.4,11.6,19.4c0.3-1,0.3-4.8,0-11.3c0.8,1.3,4.8,8,11.6,19.9c1.5-9,0.6-19.5-2.6-31.6l2.4,3
	C425.3,136.6,416.4,127.6,399,122.7z M330.7,148.4l13.4-3.7l-6.6,3.4c-5.5,2.3-10.8,3.4-15.7,3.2c-7.9-0.3-13.5-3.5-16.8-9.4
	C311.7,147.7,320.4,149.9,330.7,148.4z M318.9,147.3c-9.1-1.3-14.3-4.9-15.7-11c5.2,6.9,12.5,9,21.8,6.2c4.5-1.2,15.3-6.5,32.5-15.8
	c13.2-6.8,26.2-8.3,39.2-4.5l14.4,7.5c-9.6-4.7-18.1-6.7-25.7-6c-7.1,0.3-15.1,3.1-23.9,8.3c-10.3,6.3-17.5,10.2-21.9,11.7
	C332.2,146.9,325.3,148.1,318.9,147.3z M401.6,144c-4.1-7-11.8-10.5-23-10.7c-5.3-0.4-10.3,0-15.1,1.2c5.2-1.6,9.8-2.5,13.9-2.7
	c14.4-5.5,26-2.6,34.8,8.6l9.2,20.5l-7.1-10.4c-6-7.6-11.3-12.6-15.9-15.1c-0.5-0.2-1.3-0.5-2-0.7l0.3,0.2L401.6,144z M372.4,144.8
	c-4.5-0.5-8.7-0.1-12.4,1.1c12.2-4.3,20.9-3.8,26.1,1.3l3.8,8.5C386.4,149.2,380.6,145.5,372.4,144.8z"/>
<path id="path54_2_" inkscape:connector-curvature="0" class="st5" d="M402.9,123.8c17.4,5,26.4,13.9,26.6,26.9l-2.4-3
	c3.2,12.2,4.1,22.7,2.6,31.6c-7-11.9-10.8-18.5-11.6-19.9c0.3,6.5,0.3,10.1,0,11.3c-4.6-9-8.4-15.4-11.6-19.4
	c-5.2-6.6-11.4-10.9-18.6-13c-8-1.7-16.4-0.6-25.2,3.2c-2.6,1.1-6.6,3.2-12.1,6.2c-5.2,2.3-9.4,3.3-12.8,3.1
	c5.7,0.4,11.7-0.5,18-2.9c15.9-5.8,27.2-6.2,33.5-1c3.5,2.6,6,6.9,7.4,13c1,4.4,1.4,8.1,1,11.2c0,0.3-2.1-2-6.5-6.9
	c-5.6-6.9-12.2-10.5-19.7-10.8c-6.4,0-16.2,1.1-29.2,3.4c-11.8,1.9-19.5,2.6-22.4,2.1c-7.2-1.4-12.8-5.3-16.9-12
	c2.3,8.8,8.3,14.3,18.2,16.5c4.6,1.2,12.1,1.7,22.7,1.6c9.8-0.5,16.7,0.1,20.9,1.5c11.9,4.9,18.4,13.2,19.7,24.6l2.3,12.2
	c0.9,3.7,2.8,6.7,5.4,9c5.5,4.2,14.1,5.3,25.5,3.4c14.2-2.4,23.6-10.1,28.3-23.3c4.6-13.9,3.4-27.7-3.7-41.8
	c-5.4-11.7-13-20.5-22.6-26.5c-7.8-4.8-17.4-6.7-29-5.8c-8.6,0.7-16,2.6-22.2,5.6C377.6,119.7,389.1,119.6,402.9,123.8z"/>
<path id="path62_2_" inkscape:connector-curvature="0" class="st6" d="M510.2,207.8c-0.3,0.7-0.7,1.4-1,2.1
	c-2.4,4.9-5.6,8.6-9.7,11.2c-2.9,1.8-8.3,6.1-15.7,12.5c-8.4,5.2-18.2,5-29.4-0.7c-13.1-6.6-21.8-19.9-26.1-40.3
	c-3.9-20-1.5-35.7,7.3-47.4c3.9-5,8.7-9.4,14.6-13.4c7-4.4,13.1-6.4,18.8-6c-13.6,6.4-21.6,14.1-23.8,23.1
	c9.4-7.6,15.8-11.7,19.2-12.2c-1.4,1.8-3.8,4.1-7.1,6.9c-2.9,3.2-4.6,6-5.3,8.4c0,1,0,2.1-0.4,3.1c2.9-3.2,5.9-5.5,9.2-7
	c0.9,2.7,2.2,4.1,4.2,4.4c0.7-0.4,1.5-1,2.2-1.7c2.9-1.8,6.2-3.7,9.9-5.6c2.2-1.8,3.8-3,4.8-3.9c-4.5,0.6-9.8,2.1-16.1,4.4
	c7.3-5.1,16.6-9.7,28.1-13.6c13.8-4.1,23.9-7.3,30.6-9.6c-2.1,3.2-5.1,5.7-9.2,7.6c19.9-8.8,33.6-15.6,40.8-20.4
	c4.4-2.9,8-6.5,10.8-10.8c1.8-2.5,3.2-4.9,4.2-7.4l-0.8,6.6c-3.3,10.7-10.2,19-20.8,25c-17.2,10-27.6,17-31.2,20.8
	c12.6-5,23.7-10.8,33.6-17.4c11.6-7.4,20.2-14.3,25.5-20.7c7.8-9.6,10.8-19.9,8.7-31.1l2.8,11.2c-0.2,12.5-6,24.3-17.6,35.1
	c-9.8,8.9-17.2,15.3-22.7,19c3.7-2.2,7.4-4.6,11.5-7.1c14.4-9.2,24.6-19.7,30.8-31.3c3.8-6.7,4.2-14.9,1.1-24.7L586.4,64l9.8,15.4
	c4,13.5,0.5,27.5-10.5,42.4c-6.4,8.8-18.8,17.7-37.1,26.8c-8.5,4.2-15,9-19.7,14.7c-1.3,4.4-2.7,9.5-4.3,15c-0.7,2.1-1.3,3.9-2,5.7
	c7.1-16.4,19.5-28.7,37.2-36.9c17.7-8,29.8-20.9,36.5-38.5c7.4-19,4-35.3-10.2-48.6c-16.9-15.8-35.5-22.5-55.6-19.9
	c-10.1,1.5-18.4,4.4-25,8.8c20.3-6.8,35.7-6.6,46.2,0.5c10.9,7.6,16.2,16.2,15.9,25.8c-0.3,9.2-5.8,17.5-16.3,24.8
	c-10.2,7-24.8,11.8-43.9,14.4c-22.7,3.1-40.2,7.3-52.4,12.7c-18.1,8.4-28.8,21.5-32,39.3c-3.4,15.5-1,30.7,7.2,45.7
	c12.8,23.2,30.2,31.4,52.5,24.2c20.4-6.4,32.1-18.2,35-35.4c0.6-3.4,1.4-6.7,2.3-9.8C517.4,197.9,514.1,203.5,510.2,207.8z
	 M461.5,131.3c7.7-5.1,17.8-8.7,30.5-10.7l-6.3,0.3c-5.3,0.2-10.5,0.8-15.7,1.8c10.8-2.9,24-5.3,39.7-7.4
	c33.6-4.6,53.1-15.9,58.7-34c2-5.9,1.3-11.7-1.9-17.2l-4.8-7c3.1,1.9,5.7,5.9,8,11.9c3,8.1,2.4,15.7-1.8,23.1
	c-7.6,14.4-25.5,23.6-54,28l17.5-1.3c-2.6,0.8-14.9,4.1-36.7,9.9c-11.9,4-18.7,6.3-20.5,7c-6.7,2.7-11.8,6.2-15.3,10.4
	c2.3-6.9,8.6-13.2,18.8-18.8c1.5-0.8,2.9-1.4,4.4-1.8l-1.1,0.1c-13,3.3-22,7.6-27,13C455.4,136.7,457.9,134.3,461.5,131.3z
	 M567.7,50.2c12.1,8,17.1,19.5,15.2,34.6c-0.2-4.8-1.9-10.1-4.7-15.6c-5.8-11.7-15.4-20.2-28.8-25.8C555.7,44,561.8,46.4,567.7,50.2
	z M568.6,58.8c5.9,5.9,8.8,12.7,8.2,20.6c-0.5-3.1-1.6-6.4-3.2-10.1c-3.7-7.3-8.3-13.1-13.7-17.2C562.9,53.6,565.9,55.8,568.6,58.8z
	"/>
<path id="path64_2_" inkscape:connector-curvature="0" class="st4" d="M528.9,163.4c4-13.5,6.2-21,7-22.8
	c-10.3,5.3-17.8,9.7-22.5,13.4c1.1-1.1,2.1-3.2,3.1-6.3c1.7-3.5,2.9-5.7,3.7-6.8c2.5-2.9,5.9-5.5,10.3-8.2l0.5,0l13.7-7.2
	c5.9-2.7,10-5.7,12.5-9.2c-9.6,4.9-22.4,10-38.7,15.6c-4.8,1.6-9.7,4.4-14.8,8.4c-2.9,2.5-7.2,6.1-13.1,10.9l2.6-6.7
	c-1.5,0.8-4.3,1.6-8.4,2.4c2.5-2.9,6.3-5.5,11.4-8.2c5.5-3,9.7-5.4,12.6-7.2c-2.6,1.5-6.8,3.1-12.7,4.7c-6.3,2-10.5,3.6-12.7,4.7
	c-0.4,0.4-0.7,0.7-1.1,1.1c-1.1,0.7-2.7,2.1-4.8,3.9c-3.7,1.9-7,3.7-9.9,5.6c-0.7,0.7-1.5,1.2-2.2,1.7c-1.9-0.3-3.2-1.8-4.2-4.4
	c-3.3,1.5-6.5,3.9-9.2,7c-2.9,2.9-5.5,6.7-8,11.7c-5.6,9.8-7,20.3-4.2,31.4c2.8,11.8,9.4,20.3,19.8,25.6c11.2,5.6,20.9,5.9,29.3,0.7
	c7.6-6.4,12.8-10.6,15.7-12.5c1.8-1.1,3.6-2.6,5.4-4.4c3.9-4.3,7.2-9.9,9.9-16.9c1-2.4,1.9-4.6,2.4-6.7c0.7-1.7,1.3-3.7,2-5.7
	C526.2,172.9,527.7,167.9,528.9,163.4L528.9,163.4z"/>
<path id="path74_2_" inkscape:connector-curvature="0" class="st6" d="M541,140.2c3.3-2.2,7.2-3.8,11.6-4.9c3.9-1,7.6-1.4,11.2-1.3
	c-6.7-0.7-13.5,0.2-20.1,2.8c-8.9,3.5-15.3,8.4-19.3,14.9c-5.5,9.1-6.2,17.8-1.9,26.1c3.7,7.3,10.6,13.1,20.5,17.4
	c7.9,3.2,13.9,3.5,18.3,1l11-11c4-3.9,8.8-5.5,14.7-4.6c4.9,0.8,11.6,3.5,20.1,8c13.6,7.7,24.1,7.7,31.2,0.1c2.9-3,4.1-6.4,3.7-10.1
	l-1-4.6c0,0.5-0.1,0.9-0.3,1.3c-0.2,0.8-0.6,1.5-0.8,2.2c-1.2,2.2-3.1,3.5-5.9,4c-3.7,0.7-7.5-0.3-11.3-2.8
	c-0.5-0.4-1.1-0.7-1.7-1.2c-3.9-3.2-9.3-9.1-16-17.6c-7.1-9.2-14.8-15.9-22.9-20.1c1.9,1.1,3.9,2.4,5.8,4l-8.3-3.7
	c-0.8-0.3-1.5-0.6-2.3-0.7c1.9,0.8,3.7,1.6,5.4,2.5c6.2,3.5,10.9,7.3,14.3,11.6c-4-4.4-9.6-7.8-17.1-10.4c-1.7-0.6-3.4-1.1-5.1-1.6
	c-5.9-1.6-11.2-2-15.9-1.3c-3,0.3-5.9,1.1-8.9,2.5c-1.8,0.8-3.7,1.7-5.4,2.8c0.7-0.4,1.5-0.6,2.5-0.9c1.3-0.4,2.8-0.5,4.5-0.5
	c3.2-0.1,5.5,0.3,7.1,1.2c-1.4,1.4-2.6,2.4-3.6,3c4.3-0.2,7.2,0.2,8.8,1.1l-6.3,3.1c8.3-0.4,15.2,0.2,20.9,1.8
	c6.7,1.9,12.5,5.4,17.7,10.4c3,3.3,5.2,5.8,6.8,7.6c2.2,2.5,4.2,4.3,6.2,5.6l-2-1.2c-3.1-1.7-5.8-3.8-8.2-6
	c-3.5-3.4-7.7-6.5-12.5-9.1c-2.5-1.6-4.3-2.5-5.2-2.8c-0.6,0-1.7,0.2-3.4,0.7c-1.7,0.6-2.6,0.8-2.8,0.6l4.6,2.3l-9,1.4
	c4.4,0.6,7.6,1.2,9.6,1.8c5.1,1.5,12,5.4,20.5,11.8c8.6,6.3,15.3,10.1,20.2,11.6c3.4,1,7,1.2,10.7,0.5l4.7-1.5l-4.6,2.8
	c-3.9,1.5-8.1,1.7-12.9,0.6c-3.6-0.9-9.1-3.2-16.6-7.1c-6.7-3.6-11.9-5.7-15.5-6.2c-9.4-1.4-16.4,0.9-20.8,7.1
	c-1.2,1.6-2.8,3.6-4.8,6.1c-1.8,1.8-4,2.8-6.6,3.1c-4.9,0.6-11.2-1.7-19.2-6.8c-9.4-6.2-14-13.8-13.4-22.9
	c0.5-9.6,5.3-17.1,14.4-22.6C538,141.5,539.5,140.9,541,140.2z M570.1,142.7c11.4,2,22.7,8.9,33.9,20.6l-17.1-11.5
	c-12.7-7.4-22.8-10.3-30.2-8.8C559.9,141.7,564.4,141.6,570.1,142.7z"/>
<path id="path76_2_" inkscape:connector-curvature="0" class="st5" d="M573.2,138.1c-5.9-2.1-11.3-3.2-16.2-3.3
	c-6.6,0-14.4,2.1-23.6,6.4c1.1-0.9,2.2-1.7,3.5-2.4c-1.5,0.6-2.9,1.3-4.4,2.3c-9.1,5.5-13.9,13-14.4,22.6c-0.5,9.1,4,16.6,13.4,22.9
	c7.9,5,14.3,7.3,19.2,6.8c2.6-0.3,4.8-1.3,6.6-3.1c2-2.5,3.6-4.5,4.8-6.1c4.4-6.2,11.3-8.5,20.8-7.1c3.6,0.5,8.8,2.5,15.5,6.2
	c7.5,3.9,13.1,6.3,16.6,7.1c4.8,1.1,9.1,0.9,12.9-0.6l4.6-2.8l-4.7,1.5c-3.7,0.7-7.3,0.5-10.7-0.5c-5-1.5-11.7-5.3-20.2-11.6
	c-8.5-6.4-15.4-10.4-20.5-11.8c-2.1-0.6-5.3-1.2-9.6-1.8l9-1.4l-4.6-2.3c0.2,0.2,1.1-0.1,2.8-0.6c1.7-0.4,2.8-0.6,3.4-0.7
	c1,0.3,2.7,1.2,5.2,2.8c4.8,2.7,9,5.7,12.5,9.1c2.4,2.3,5.1,4.3,8.2,6l2,1.2c-1.9-1.3-4-3.1-6.2-5.6c-1.6-1.8-3.8-4.3-6.8-7.6
	c-5.1-5-11-8.5-17.7-10.4c-5.7-1.6-12.6-2.2-20.9-1.8l6.3-3.1c-1.5-1-4.5-1.3-8.8-1.1c0.9-0.6,2.1-1.5,3.6-3c-1.5-1-3.9-1.4-7.1-1.2
	c-1.7-0.1-3.2,0.1-4.5,0.5c-0.9,0.2-1.7,0.5-2.5,0.9c1.8-1.1,3.7-2,5.4-2.8c2.8-1.5,6-2.5,9.7-3c6.8-1,13.6,0.1,20.1,3.4
	c7.5,2.6,13.1,6,17.1,10.4c-3.4-4.3-8.1-8.1-14.3-11.6C576.9,139.7,575.1,138.8,573.2,138.1z"/>
</svg>
