<?xml version="1.0" encoding="utf-8"?>
<!-- Generator: Adobe Illustrator 21.1.0, SVG Export Plug-In . SVG Version: 6.00 Build 0)  -->
<svg version="1.1" id="Layer_1" xmlns="http://www.w3.org/2000/svg" xmlns:xlink="http://www.w3.org/1999/xlink" x="0px" y="0px"
	 viewBox="0 0 750 815.6" style="enable-background:new 0 0 750 815.6;" xml:space="preserve">
<style type="text/css">
	.st0{fill:#3F1C08;stroke:#000000;}
</style>
<path id="path162_2_" class="st0" d="M603,573c-16.6-21,11.3-63.2,22-85.3c-19.2-16.2-3.4-61.8,7.3-79.9c-9.4-2.1-55-11-62-22.8
	c-7.7-20.2-10.9-33-11.3-54c-20.4,25.8-73.6,12.8-72.7-24c-13,15.5-59.1-2.5-71.3-20.7c-1.2-2.5-4.7,40.7-17.3,49.3
	c-13.3,12-19.3,14.4-38.1,12.4c-19.2-0.6-30-32.4-31.5-55.5c-6.4,30.8-50.9,63.3-67.8,39.7c-5.4,10.2-3.3,33.3-12,44.7
	c-19.4,5.8-33.2,23.6-45.5,3.3c-3.9,19.4-14.5,35.6-31.4,38c11,18.2-20.5,45.8-39.8,60c8.8,23.8,22,25.9,4.7,47.3
	c10.3,21.9,18,29.7,9.6,56.4c-10.2,17.9-15.9,9.3-26.3-9.8c-5.3-8.9-13.9,14.1-38,14c-35.3-4.7,21.4-24.5,19.3-40.7
	c-21.3,28.7-18.6-2.7-24.7-4.7c-0.2-7.2-46,17.3-37.3-16.7c-2.7-33.3,25.3-28.3,32-50c1.7-6.8-30.2,15.1-34.1,5.7
	c-13.3-16-10.3-41.6-3.1-60.6c5.4-11.9-7.4-15.3-10.4-24c1.6-4.9-4.6-10-0.9-17.5c-2.6-17.3,15.8-24.6,16.3-39.6
	c-16.4-17.2-6.6-44.2,3.3-62.5c-10.4-22.2,2.5-50.4,20.8-59.4c6.3-8.3,1-22,7.7-30c4.2-21.3,25.8-17.1,34.7-31.8
	c5.3-20.6,20.4-33.3,38.1-34.2c5.5,0.3,9.3-4.9,11.3-10.6c4.9-13.4,16.3-19.6,26.6-25c3.5,1.9,18.2-7.5,25.3-1.6
	c10.5-19,25.2-29.2,42.2-28.3c11.5,3,23.9,4.2,32.3-8.2c7.4,0.2,14.8-9.1,21.6-5.4c8.6-3,13.7,8.3,21.6,6.6
	c9.9,13.3,13.1-9.9,22-13.6c24.8-15.2,59.3-15.1,79.2,10c3.5,23.7,21.8-1.9,33.1,4.2c16.9-9,29.4,14.9,44.9,15.9
	c18.5-6.3,40.7,5.7,49.9,26.2c16.7,5.2,38,3,48.2,23.6c6.9,5.8,6.3,21.8,16.6,21.7l0,0c13.2,0.4,24.9,10.3,31.9,22.9
	c-0.2,2.6,4.4,17.4,10.8,21.2c9.6,1.8,20.5,11.9,26.7,23.2c5.4,6.3,1,16.4,4.4,23.4c-1,11.5,12.8,13,15.9,23.2
	c8.4,10.5,11.1,26.6,6.8,39.6c-7.1,17.1,14.9,34.6,7.5,47.5c2.8,11.9-7,19.6-10.3,29c11.5,12.8,21.1,30.1,14.5,50.7
	c-4.8,6.6-17.2,14.7-10.8,24.9c10,25.2,3.1,61.9-19.6,73.2c-4.7,8.4,3.5,9.3,5.5,18.2c9.7,5,0.6,24.1,0.7,29.3
	c-6.9,16.8-28.6,22.8-43.1,28.4"/>
</svg>
