<?xml version="1.0" encoding="utf-8"?>
<!-- Generator: Adobe Illustrator 21.1.0, SVG Export Plug-In . SVG Version: 6.00 Build 0)  -->
<svg version="1.1"
	 id="svg2" inkscape:output_extension="org.inkscape.output.svg.inkscape" inkscape:version="0.47pre1 r21720" sodipodi:docname="hair_manga.svg" sodipodi:version="0.32" xmlns:cc="http://creativecommons.org/ns#" xmlns:dc="http://purl.org/dc/elements/1.1/" xmlns:inkscape="http://www.inkscape.org/namespaces/inkscape" xmlns:ns1="http://sozi.baierouge.fr" xmlns:rdf="http://www.w3.org/1999/02/22-rdf-syntax-ns#" xmlns:sodipodi="http://sodipodi.sourceforge.net/DTD/sodipodi-0.dtd" xmlns:svg="http://www.w3.org/2000/svg"
	 xmlns="http://www.w3.org/2000/svg" xmlns:xlink="http://www.w3.org/1999/xlink" x="0px" y="0px" viewBox="0 0 984 836"
	 style="enable-background:new 0 0 984 836;" xml:space="preserve">
<style type="text/css">
	.st0{fill:url(#path1342_1_);stroke:#000000;stroke-width:0.5;}
	.st1{fill:url(#path11907_1_);stroke:#000000;stroke-width:0.5;}
	.st2{fill:url(#path11909_1_);stroke:#000000;stroke-width:0.5;}
	.st3{fill:url(#path5900_1_);}
	.st4{fill:url(#path5904_1_);}
	.st5{fill:url(#path5908_1_);}
	.st6{fill:url(#path5912_1_);}
	.st7{fill:url(#path9328_1_);stroke:#000000;}
	.st8{fill:url(#path9330_1_);stroke:#000000;}
	.st9{fill:url(#path9334_1_);stroke:#000000;}
	.st10{fill:url(#path9336_1_);stroke:#000000;}
	.st11{fill:url(#path9332_1_);stroke:#000000;}
	.st12{fill:url(#path9326_1_);stroke:#000000;}
	.st13{fill:url(#path4122_2_);}
	.st14{fill:url(#path4106_1_);}
</style>
<sodipodi:namedview  bordercolor="#666666" borderopacity="1.0" id="base" inkscape:current-layer="layer11" inkscape:cx="308.85061" inkscape:cy="107.01592" inkscape:document-units="px" inkscape:guide-bbox="true" inkscape:pageopacity="0.0" inkscape:pageshadow="2" inkscape:window-height="824" inkscape:window-maximized="0" inkscape:window-width="1270" inkscape:window-x="164" inkscape:window-y="25" inkscape:zoom="1.4142136" pagecolor="#ffffff" showgrid="false" showguides="true">
	</sodipodi:namedview>
<g id="layer11" transform="translate(-151.24 -30.356)" inkscape:groupmode="layer" inkscape:label="front hair dark">
	<g id="g3141">
		
			<linearGradient id="path1342_1_" gradientUnits="userSpaceOnUse" x1="454.6985" y1="488.1745" x2="1092.6508" y2="488.1745" gradientTransform="matrix(1 0 0 -1 -151.24 906.356)">
			<stop  offset="0" style="stop-color:#FFCB15"/>
			<stop  offset="0.2969" style="stop-color:#F5F5F5"/>
			<stop  offset="1" style="stop-color:#FFD555"/>
		</linearGradient>
		<path id="path1342_2_" sodipodi:nodetypes="ccccccccccccccccccccccccccccccccc" class="st0" d="M391.9,440.4
			c-14.6,43.5,62.5,53.8,75.5,66.7c-8-19.8-11.8-103.5-0.2-128.4c-3.1,28.6,46,97,72,112.1c-17.7-21.8-23-160.2,0-181.5
			c-27.3,52.8,25.9,175.9,50,175.9C568.6,420,541.8,357,569.5,333c-8.6,22.3-2,50.5,5.4,65c15.3,30.3,56.6,71.5,91.8,85.7
			c-29.1-38-41.2-85.5-37.5-109.7c3-19.7,19-28.7,19-28.7c9,27.2,42.6,104.6,41.1,132.8c34.7-43.9,24.6-144.7,24.6-155.1
			c36.3,30.3,30.6,86.4,38.2,112.8c16.6-26.8,32.9-118.6,18.7-133c15.3,1.5,51.6,106.4,47.6,138.6c23.6-15.1,2.7-128.2,2.7-128.2
			c53.1,49.2,57.8,295.5,57,318.5c26.6-31.8,7.6-278.1-6.2-288.7c12.8,9,18.2,136.8,18.2,136.8c6.5,2.7,11.9,113.5,11.9,113.5
			c24.2-40.1-0.6-252.6-1.2-264.4c0.4,13.7,19.2,88.1,19.2,88l-5,18.8c0,0,23.5,58,11,110.9c64-274.1-74.9-464.7-350.5-385.6
			c-170.9-1.3-403.4,313.8-180.2,532.7c-24.3-31.3-56.7-258.2-35-295.8c-18.3,38.4-1.6,134.7-1.6,134.7
			c16.2,52.8,20.2,108.5,36.6,145.4c8.3-66.3-25.9-191.4-5.1-229.5"/>
		
			<linearGradient id="path11907_1_" gradientUnits="userSpaceOnUse" x1="1239.3972" y1="332.3582" x2="874.4656" y2="-620.9039" gradientTransform="matrix(1 0 0 -1 -756.2 430.096)">
			<stop  offset="0" style="stop-color:#FFCB15"/>
			<stop  offset="0.2969" style="stop-color:#F5F5F5"/>
			<stop  offset="1" style="stop-color:#FFD555"/>
		</linearGradient>
		<path id="path11907" sodipodi:nodetypes="ccccccccccccc" class="st1" d="M433.9,230.7c-160-164.2-288.4,339.5-273.5,516.7
			c4.9-77.2,64-291.2,94.3-354.6c-0.6,1.4,14.3-48.5,29.6-66.1c-49.1,63.1-101.9,378.9-60.8,483.4c-12.6-87.7,45.9-357.4,60.8-376
			c-34.1,36.8-49.3,389-27.4,418.8c0.1-74.5,49.4-359.2,73.4-433.7c-21.7,70.4-23.9,99.9-24.1,99.9c-16.4,92.9,22,321.7,33.6,347.3
			c-1.8-112.7,12.6-390.6,23-427.2c12.5-31.8,26.1-43.4,36.8-56.3C420.8,357.1,444.2,247.3,433.9,230.7L433.9,230.7z"/>
		
			<linearGradient id="path11909_1_" gradientUnits="userSpaceOnUse" x1="1562.5579" y1="323.7708" x2="1938.9557" y2="-450.065" gradientTransform="matrix(1 0 0 -1 -756.2 430.096)">
			<stop  offset="0" style="stop-color:#FFCB15"/>
			<stop  offset="0.2969" style="stop-color:#F5F5F5"/>
			<stop  offset="1" style="stop-color:#FFD555"/>
		</linearGradient>
		<path id="path11909" sodipodi:nodetypes="cccccccccccc" class="st2" d="M855.1,244.2c16.5-97.3,72.4-99.3,97.7-77.7
			c147.7,111.9,176.5,475.6,172.3,513.1c-16.2-56.3-78.1-299.6-94.2-314.5c14.9,28,56.2,319.5,62.1,367.5
			c-52.8-34.8-86.1-269.8-101.1-301.3c26.5,63,39.1,264.7,27.5,327.7c-9.1-71.2-25.3-190.5-40.2-215.3
			c-3.9-16.4-8.1-107.7-21.9-149.1c11.5,44.7,41.4,331.2,36.8,394c-41.2-44.8-86.1-271.5-87.3-317.7
			C906.7,437.4,848.1,298.8,855.1,244.2z"/>
		
			<linearGradient id="path5900_1_" gradientUnits="userSpaceOnUse" x1="1153.8492" y1="146.0682" x2="1143.3998" y2="-335.0436" gradientTransform="matrix(1 0 0 -1 -790.182 483.42)">
			<stop  offset="0" style="stop-color:#7F5100"/>
			<stop  offset="0.2972" style="stop-color:#BF8A00"/>
			<stop  offset="1" style="stop-color:#AA6D00"/>
		</linearGradient>
		<path id="path5900" sodipodi:nodetypes="ccc" class="st3" d="M409.9,236c-78.4,172.4-98.3,393.9-78.4,607.9
			C283.6,628.5,335.7,300.4,409.9,236z"/>
		
			<linearGradient id="path5904_1_" gradientUnits="userSpaceOnUse" x1="1113.9525" y1="167.4666" x2="1103.5139" y2="-313.1503" gradientTransform="matrix(1 0 0 -1 -824.46 484.67)">
			<stop  offset="0" style="stop-color:#7F5100"/>
			<stop  offset="0.2972" style="stop-color:#BF8A00"/>
			<stop  offset="1" style="stop-color:#AA6D00"/>
		</linearGradient>
		<path id="path5904" sodipodi:nodetypes="ccc" class="st4" d="M361.4,226c-86.3,114.6-148.9,364.1-141.6,596.4
			C185.7,585.4,260.8,297.2,361.4,226z"/>
		
			<linearGradient id="path5908_1_" gradientUnits="userSpaceOnUse" x1="1753.9412" y1="195.1629" x2="1743.5013" y2="-285.4971" gradientTransform="matrix(-1 0 0 -1 2682.23 460.42)">
			<stop  offset="0" style="stop-color:#7F5100"/>
			<stop  offset="0.2972" style="stop-color:#BF8A00"/>
			<stop  offset="1" style="stop-color:#AA6D00"/>
		</linearGradient>
		<path id="path5908" sodipodi:nodetypes="ccc" class="st5" d="M884.4,327.1c26.6,167.4,40.9,311,100,439
			C926.8,507.8,937.9,454.8,884.4,327.1z"/>
		
			<linearGradient id="path5912_1_" gradientUnits="userSpaceOnUse" x1="1707.7727" y1="89.8003" x2="1697.3265" y2="-391.1544" gradientTransform="matrix(-1 0 0 -1 2670.28 506.17)">
			<stop  offset="0" style="stop-color:#7F5100"/>
			<stop  offset="0.2972" style="stop-color:#BF8A00"/>
			<stop  offset="1" style="stop-color:#AA6D00"/>
		</linearGradient>
		<path id="path5912" sodipodi:nodetypes="ccc" class="st6" d="M942.7,448.5c9.3,87.9,34,145,47.3,289.6
			C980.6,582.3,976.6,516.9,942.7,448.5z"/>
		
			<linearGradient id="path9328_1_" gradientUnits="userSpaceOnUse" x1="1227.0565" y1="289.4268" x2="1167.4202" y2="305.3372" gradientTransform="matrix(1 0 0 -1 -756.2 430.096)">
			<stop  offset="0" style="stop-color:#EF1616"/>
			<stop  offset="1" style="stop-color:#AA1200"/>
		</linearGradient>
		<path id="path9328" sodipodi:nodetypes="ccccccccccc" class="st7" d="M424.3,218.5c-11.8-20.1-27.2-83.1-32.9-114.2
			c-5.4-25.5,8-37,13-33.8c9.5,0,17.1,1.9,23.5,5.9c10.2,3.8,9,12.3,17.1,10c8.1-2.2,4.8-10.6,15.5-18.8s19.8-14.6,27.3-13.6
			c4.6,2.7,9.3,8.7,7.3,20c0.6,12.9-10.8,45.8-18.3,71.3c-3.5,14.2-15.7,57.4-19.9,79.5C449.9,229.4,432.2,220,424.3,218.5
			L424.3,218.5z"/>
		
			<linearGradient id="path9330_1_" gradientUnits="userSpaceOnUse" x1="1199.7819" y1="96.1629" x2="1151.4739" y2="114.4675" gradientTransform="matrix(1 0 0 -1 -756.2 430.096)">
			<stop  offset="0" style="stop-color:#EF1616"/>
			<stop  offset="1" style="stop-color:#AA1200"/>
		</linearGradient>
		<path id="path9330" sodipodi:nodetypes="cccccccc" class="st8" d="M424.7,249.1c-13.9,17.4-23.2,50.3-26.5,65.7
			c-7.3,12.9-10.2,67.2-9,74.9c6.2-6.9,11.1-13.2,14.3-11c5.5,4.5,7.1,15.9,12.6,24.1c7.5,4.1,12.5,3.1,14.3-2.8
			C432.2,384,444,277.8,445.9,257C437.5,251.1,431.4,249.7,424.7,249.1L424.7,249.1z"/>
		
			<linearGradient id="path9334_1_" gradientUnits="userSpaceOnUse" x1="1538.3728" y1="302.1387" x2="1603.0686" y2="323.9117" gradientTransform="matrix(1 0 0 -1 -756.2 430.096)">
			<stop  offset="0" style="stop-color:#EF1616"/>
			<stop  offset="1" style="stop-color:#AA1200"/>
		</linearGradient>
		<path id="path9334" sodipodi:nodetypes="cccccccccc" class="st9" d="M844.4,181.1c10-20.6,18-127.9,18.6-138.8
			c-5.4,6.4-2.2,0-4.4-2.3c-2.2-1.8-1.1-1.5-4.4-6.9c-11.7-8.6-35.8,5.6-46.4,12.9c-8.4,10.2-28.6,16.4-32.9,16.4
			c-8.3,8.7-1.5,24.1,1.2,34.4c3.9,14.7,11.8,29.1,14.6,35.6c11,25.5,23.1,49.9,29.3,60.8C826.1,192.2,836.9,186.7,844.4,181.1
			L844.4,181.1z"/>
		
			<linearGradient id="path9336_1_" gradientUnits="userSpaceOnUse" x1="1598.0941" y1="125.2399" x2="1661.457" y2="150.7106" gradientTransform="matrix(1 0 0 -1 -756.2 430.096)">
			<stop  offset="0" style="stop-color:#EF1616"/>
			<stop  offset="1" style="stop-color:#AA1200"/>
		</linearGradient>
		<path id="path9336" sodipodi:nodetypes="cccccccc" class="st10" d="M845.6,209.8c29.9,28.3,57.7,105.1,61.7,131.1
			c3.1,11.4,1.1,27.3-0.4,29.2c-5.1,3.1-16.2,4.2-21.4-0.5c-5.4-6-20-3.1-24.4,6.9c-10.9,11.3-12.2,20.1-12.6,19.3
			c-8.9-17.8-20.4-154.8-19.4-174.9C832.3,217.1,843.8,210.7,845.6,209.8L845.6,209.8z"/>
		
			<linearGradient id="path9332_1_" gradientUnits="userSpaceOnUse" x1="1588.0272" y1="230.5003" x2="1611.3148" y2="240.2702" gradientTransform="matrix(1 0 0 -1 -756.2 430.096)">
			<stop  offset="0" style="stop-color:#EF1616"/>
			<stop  offset="1" style="stop-color:#AA1200"/>
		</linearGradient>
		<path id="path9332" sodipodi:nodetypes="ccccc" class="st11" d="M845.6,168.2c-6.6-5-27.3,6.5-29.6,18.8
			c-0.7,8.7,12.5,33.7,17.1,39.3c3.8,3.2,8.2-0.1,17.5-10C852.2,203.6,850.1,176,845.6,168.2L845.6,168.2z"/>
		
			<linearGradient id="path9326_1_" gradientUnits="userSpaceOnUse" x1="1194.7001" y1="194.5604" x2="1165.4475" y2="199.0299" gradientTransform="matrix(1 0 0 -1 -756.2 430.096)">
			<stop  offset="0" style="stop-color:#EF1616"/>
			<stop  offset="1" style="stop-color:#AA1200"/>
		</linearGradient>
		<path id="path9326" sodipodi:nodetypes="cccccc" class="st12" d="M413.7,214.4c-1.6,8.3-4.6,24.2-2,36.1
			c8.6,11.4,17.7,14.1,30.1,16.4c5.5-10.5,7.5-20.4,9.8-35.1c2.2-14.7,0.9-9.1-0.8-24.1C444.1,203.6,423.2,202.5,413.7,214.4
			L413.7,214.4z"/>
		
			<linearGradient id="path4122_2_" gradientUnits="userSpaceOnUse" x1="1881.6" y1="-271.5515" x2="1881.6" y2="-271.5515" gradientTransform="matrix(-1 0 0 -0.8086 2597.5 216.1578)">
			<stop  offset="0" style="stop-color:#8A8A8A"/>
			<stop  offset="0.2969" style="stop-color:#9F9F9F"/>
			<stop  offset="1" style="stop-color:#6E6E6E"/>
		</linearGradient>
		<path id="path4122_1_" sodipodi:nodetypes="ccc" class="st13" d="M715.9,435.7"/>
		
			<linearGradient id="path4106_1_" gradientUnits="userSpaceOnUse" x1="1689.4686" y1="242.8726" x2="1681.5549" y2="-121.4902" gradientTransform="matrix(-1 0 0 -1 2622.0701 408.706)">
			<stop  offset="0" style="stop-color:#7F5100"/>
			<stop  offset="0.2972" style="stop-color:#BF8A00"/>
			<stop  offset="1" style="stop-color:#AA6D00"/>
		</linearGradient>
		<path id="path4106" sodipodi:nodetypes="ccc" class="st14" d="M863,221.1c71.4,50.3,113.1,132.2,147.2,257.7
			C983.2,305.2,942.7,259.8,863,221.1z"/>
	</g>
</g>
</svg>
