<?xml version="1.0" encoding="utf-8"?>
<!-- Generator: Adobe Illustrator 21.1.0, SVG Export Plug-In . SVG Version: 6.00 Build 0)  -->
<svg version="1.1"
	 id="svg3273" inkscape:version="0.48.4 r9939" sodipodi:docname="AnimeHair1.svg" xmlns:cc="http://creativecommons.org/ns#" xmlns:dc="http://purl.org/dc/elements/1.1/" xmlns:inkscape="http://www.inkscape.org/namespaces/inkscape" xmlns:ns1="http://sozi.baierouge.fr" xmlns:rdf="http://www.w3.org/1999/02/22-rdf-syntax-ns#" xmlns:sodipodi="http://sodipodi.sourceforge.net/DTD/sodipodi-0.dtd"
	 xmlns="http://www.w3.org/2000/svg" xmlns:xlink="http://www.w3.org/1999/xlink" x="0px" y="0px" viewBox="0 0 387 340"
	 style="enable-background:new 0 0 387 340;" xml:space="preserve">
<style type="text/css">
	.st0{fill:#322821;}
	.st1{fill:none;stroke:#776363;stroke-width:3;}
</style>
<sodipodi:namedview  bordercolor="#666666" borderopacity="1.0" id="base" inkscape:current-layer="layer1" inkscape:cx="376.52623" inkscape:cy="456.38499" inkscape:document-units="px" inkscape:pageopacity="0.0" inkscape:pageshadow="2" inkscape:window-height="423" inkscape:window-maximized="0" inkscape:window-width="463" inkscape:window-x="78" inkscape:window-y="78" inkscape:zoom="0.35" pagecolor="#ffffff" showgrid="false">
	</sodipodi:namedview>
<g id="layer1" inkscape:groupmode="layer" inkscape:label="Layer 1">
	<g id="path2993" inkscape:connector-curvature="0" sodipodi:nodetypes="ssaaacaccaccacaacacaaaas">
		<path class="st0" d="M248.5,56.1c-8.8-0.3-9.9-19.5-73.8-16.3c-36.7,1.9-73.3,26.9-94.6,56.7c-18.3,25.5-21.6,60.5-19.5,91.7
			c1.7,25.5,9.2,50.1,22.1,72.4c6.7,24.3-6.3,53.9-6.3,53.9s57.6-72.4,66.5-108.9c5.2-21.2,30.6-58.4,30.6-58.4
			c-4.2,59-0.2,96.7-16.3,136.8c0,0,32.2-36.5,44.8-57.1c16.5-27,39.9-86.1,39.9-86.1c-6,33.5,6.3,49,15.3,71.8
			c0,0,7.4,33.9,10.7,47.4c4,16.5,2.5,50.7,2.5,50.7s10.9-35.6,13-53.9c2-17.3,1.9-35,0-52.3c-2.2-19.6-13-57.9-13-57.9
			c13.4,33.4,33.1,42,34.1,70.8c0.9,25.7,18.3,96.2,18.3,96.2s-9.2-45.1,1.2-68.8c10.4-23.5,14.7-49.9,14.7-75.7
			c0-22.9-1.7-47.5-13-67.6c-9.9-17.7-26.4-32.6-44.8-41.1C271,55.7,261.7,56.7,248.5,56.1L248.5,56.1z"/>
		<path class="st1" d="M248.5,56.1c-8.8-0.3-9.9-19.5-73.8-16.3c-36.7,1.9-73.3,26.9-94.6,56.7c-18.3,25.5-21.6,60.5-19.5,91.7
			c1.7,25.5,9.2,50.1,22.1,72.4c6.8,26.1-6.3,53.9-6.3,53.9s57.6-72.4,66.5-108.9c5.2-21.2,30.6-58.4,30.6-58.4
			c-7.5,48,5.5,90.3-16.3,136.8c0,0,32.2-36.5,44.8-57.1c16.5-27,39.9-86.1,39.9-86.1c-6,33.5,6.3,49,15.3,71.8
			c0,0,7.4,33.9,10.7,47.4c4,16.5,2.5,50.7,2.5,50.7s10.9-35.6,13-53.9c2-17.3,1.9-35,0-52.3c-2.2-19.6-13-57.9-13-57.9
			c13.4,33.4,33.1,42,34.1,70.8c0.9,25.7,18.3,96.2,18.3,96.2s-9.2-45.1,1.2-68.8c10.4-23.5,14.7-49.9,14.7-75.7
			c0-22.9-1.7-47.5-13-67.6c-9.9-17.7-26.4-32.6-44.8-41.1C271,55.7,261.7,56.7,248.5,56.1L248.5,56.1z"/>
	</g>
</g>
</svg>
