<?xml version="1.0" encoding="utf-8"?>
<!-- Generator: Adobe Illustrator 21.1.0, SVG Export Plug-In . SVG Version: 6.00 Build 0)  -->
<svg version="1.1"
	 id="svg2" inkscape:version="0.48.3.1 r9886" sodipodi:docname="_svgclean2.svg" xmlns:cc="http://creativecommons.org/ns#" xmlns:dc="http://purl.org/dc/elements/1.1/" xmlns:inkscape="http://www.inkscape.org/namespaces/inkscape" xmlns:rdf="http://www.w3.org/1999/02/22-rdf-syntax-ns#" xmlns:sodipodi="http://sodipodi.sourceforge.net/DTD/sodipodi-0.dtd"
	 xmlns="http://www.w3.org/2000/svg" xmlns:xlink="http://www.w3.org/1999/xlink" x="0px" y="0px" viewBox="0 0 1000 1526"
	 style="enable-background:new 0 0 1000 1526;" xml:space="preserve">
<style type="text/css">
	.st0{fill:#FFAAAA;}
	.st1{fill:#1A1A1A;}
</style>
<sodipodi:namedview  bordercolor="#666666" borderopacity="1.0" fit-margin-bottom="0" fit-margin-left="0" fit-margin-right="0" fit-margin-top="0" id="base" inkscape:current-layer="layer1" inkscape:cx="914.1584" inkscape:cy="1531.7374" inkscape:document-units="px" inkscape:pageopacity="0.0" inkscape:pageshadow="2" inkscape:window-height="452" inkscape:window-maximized="0" inkscape:window-width="512" inkscape:window-x="0" inkscape:window-y="0" inkscape:zoom="0.35000001" pagecolor="#ffffff" showgrid="false">
	</sodipodi:namedview>
<g id="g3379">
	<path id="path4572" inkscape:connector-curvature="0" class="st0" d="M557.5,768.2c0,0-4.7-27.7-31.3-31.6
		c-14.9,4.8-25,11.2-42.6-3.4c-18.1,0.3-46.4,6.8-46.7,32.8c14.4,4.4,19.7,9.7,26,18.6c6.2,8.9,26.3,7.5,26.3,7.5s14.1,5.6,22,3.5
		c8-2,21.2-8.8,24.4-14.3c3.2-5.4,8.6-9.5,11.6-9.6C550.2,771.9,557.5,768.2,557.5,768.2L557.5,768.2z"/>
	<path id="path3056" inkscape:connector-curvature="0" class="st1" d="M506.6,780c-0.2-0.4-0.2-1.1,0-1.4s0.1-1.1-0.2-1.6
		c-0.5-0.8-0.4-1.1,0.1-1.1c0.5,0,0.6-0.2,0.1-0.4c-0.3-0.2-1-1.5-1.4-2.8c-0.4-1.3-1-2.7-1.1-3c-0.2-0.3-0.4-0.9-0.4-1.3
		c-0.2-1.3-1.2-1.8-2.4-1.1c-1.1,0.6-1.1,1-0.7,4.2c0.3,2.5,0.2,3.8-0.2,4.3c-1,1-2.6-0.5-2.6-2.6c-0.1-3.7-0.8-5.6-2.3-5.8
		c-0.8-0.1-1.9-0.4-2.4-0.6c-0.7-0.2-0.9,0-0.9,0.8c0,0.6-0.6,2.3-1.3,3.7c-1.4,2.6-2.5,3-3.7,1.3c-0.5-0.8-0.4-1.1,0.3-1.6
		c0.5-0.4,1-1,1-1.2c0.1-0.3,0.2-1.5,0.4-2.7c0.5-2.6-0.2-3.4-2.2-2.4c-1.2,0.5-1.8,0.5-2.9-0.1c-0.8-0.4-2.4-0.8-3.5-0.8
		c-1.1,0-2.4-0.1-2.7-0.1c-1.4,0-6.8,0.8-9,1.3c-4.5,1.1-10,1.6-10.5,0.8c-0.4-0.5-0.5-0.5-0.5,0c0,0.9-2.7,1-3.5,0.1
		c-1.1-1.2-0.1-2.4,2.2-2.7c3.4-0.4,5.5-0.1,5.5,0.8c0,0.4,0.2,0.6,0.6,0.4c0.3-0.2,0.4-0.6,0.2-0.9c-0.2-0.3,0.2-0.5,0.9-0.5
		c1.5-0.1,1.6-0.1,3.9-0.7c1.2-0.3,2.1-0.3,2.7,0.1c0.7,0.5,0.8,0.5,0.4,0c-0.5-0.8-0.4-0.8,3.2-1.1c1.5-0.1,2.7-0.3,2.7-0.3
		c0-0.1,0.9-0.2,2.1-0.4c1.1-0.2,2.3-0.5,2.6-0.8c0.7-0.6,1.1-2.9,0.5-2.6c-1,0.6-1-2.3,0-3.4c1.7-2,2.9-1.6,2.9,0.8
		c0,1.7,0.2,2.2,1.5,2.7c0.8,0.3,1.8,1.2,2.2,1.9c0.4,0.8,0.9,1.3,1.2,1.3c0.2,0,1.6,0.7,3,1.6c4.1,2.5,8.4,2.3,9.1-0.5
		c0.2-0.8,0.6-1.3,0.9-1.1c0.2,0.1,0.7,0,0.9-0.3c0.6-1,1.4-0.6,1.6,0.7c0.2,1.3,0.2,1.3,2.3,0.4c1.1-0.5,2.2-1,2.4-1
		c0.2-0.1,1.1-0.4,2-0.8c0.9-0.4,1.9-0.7,2.2-0.7c0.3,0,0.6-0.3,0.6-0.7c0-0.5,0.2-0.5,0.7,0c0.4,0.3,1,0.6,1.4,0.6
		c0.4,0,0.2-0.3-0.2-0.4c-0.6-0.3-0.2-0.9,1.5-2.2c2.4-1.8,11-6,12.4-6c0.4,0,1-0.3,1.2-0.6c0.6-0.9,1.5-0.7,1.5,0.4
		c0,0.6-1.1,1.4-2.9,2.2c-1.6,0.7-3.7,1.9-4.9,2.7c-1.1,0.8-2.3,1.3-2.6,1.1c-0.3-0.2-0.4-0.1-0.2,0.3c0.2,0.3-0.5,1.1-1.6,1.8
		c-2.7,1.6-5.3,3.9-5,4.4c0.1,0.3,2.1,0.3,4.4,0c5.6-0.6,8.8-0.3,9,1c0.2,1-2.1,1.7-5,1.6c-0.7,0-4,0.1-7.5,0.2
		c-3.4,0.1-7.2,0.2-8.2,0.1c-1.9-0.1-1.9-0.1-1.6,1.6c0.2,1,0.8,2.8,1.3,4.1c0.5,1.3,0.9,4,1,6c0.1,3-0.1,3.5-1,3.7
		C507.4,780.8,506.8,780.5,506.6,780L506.6,780z M535.1,738.6c0-0.3-0.2-0.5-0.5-0.5s-0.5,0.4-0.5,0.8c0,0.4,0.2,0.6,0.5,0.5
		C534.9,739.2,535.1,738.8,535.1,738.6L535.1,738.6z M542.3,742.6c-0.6-0.5-0.7-0.4-0.3,0.3c0.2,0.5,0.6,0.8,0.7,0.6
		C542.9,743.4,542.7,743,542.3,742.6L542.3,742.6z M439.5,756.8c0-0.1-0.2-0.1-0.6,0.1c-0.3,0.2-0.6,0.1-0.6-0.3
		c0-0.4-0.2-0.5-0.4-0.3c-0.6,0.5,0.4,1.5,1,1.1C439.3,757.3,439.5,757,439.5,756.8L439.5,756.8z M502.5,797.2
		c-1.6-0.1-4.9-0.9-7.3-1.6c-3.6-1.1-5.2-1.3-9.8-1.1c-3,0.1-6.7,0.1-8.2-0.1c-3.9-0.4-9-2.2-10.6-3.5c-0.7-0.6-1.4-1.1-1.6-1
		c-0.6,0.6-6.6-6.1-8.2-9.1c-1-1.8-2.2-3.6-2.7-4s-0.9-1-0.9-1.3c0-0.8-5.6-5.1-6.5-5.1c-0.4,0-0.6-0.2-0.6-0.4s-1.1-0.6-2.6-0.8
		c-2.7-0.3-4.3-1.6-3.7-3.1c0.4-0.9,0.5-0.9,5.1,0.3c3.8,1,8.3,3.4,9.6,5.1c0.5,0.6,1.9,2.1,3,3.2s2.1,2.2,2.1,2.5
		c0,0.3,0.2,0.5,0.6,0.5c0.4,0,0.6,0.5,0.6,1.1c0,3.9,7.4,10.3,12.9,11.2c0.9,0.1,2.4,0.4,3.2,0.5c0.8,0.1,4.5,0.1,8.2,0
		c4-0.1,6.8,0,7,0.3s0.9,0.5,1.5,0.5s1.3,0.5,1.6,1.2c0.4,1.1,0.5,1.1,0.8,0.3c0.3-0.8,0.6-0.9,1.9-0.3c3.3,1.5,14.4,0.6,21.3-1.7
		c3.3-1.1,3.2-1.1,2.8,0.4c-0.4,1.2-0.3,1.2,0.4,0.1c0.4-0.6,0.7-1.3,0.8-1.6c0-0.3,0.6-0.6,1.3-0.6c0.7,0,1.2-0.3,1.2-0.5
		c-0.1-0.3,0.4-0.8,1.1-1.1c2.5-1.3,3.7-2.4,5.7-5.2c1.1-1.6,2.3-2.7,2.6-2.6c0.3,0.2,0.4,0,0.1-0.3c-0.5-0.7,1.7-3.5,2.2-3
		c0.2,0.2,0.4-0.1,0.4-0.5c0-0.4,0.7-1.3,1.5-1.8c1.7-1.1,2.4-1.2,1.7-0.3c-0.2,0.4-0.2,0.5,0.2,0.3c0.4-0.3,0.6-0.6,0.4-0.8
		c-0.3-0.4,3.8-2.3,5-2.3c0.3,0,2.1-0.7,3.9-1.5c1.8-0.8,3.6-1.3,3.9-1.1c0.3,0.2,0.6,0.2,0.6,0c0-1-3.3-9.2-4.8-12.1
		c-2.6-4.8-9.3-11.8-13.1-13.4c-0.8-0.3-2.3-1.1-3.3-1.7c-3.4-2.1-9.1-3.1-11.3-2c-0.7,0.4-1.5,0.8-1.7,0.8s-0.6,0.2-0.7,0.3
		c-0.3,0.1-0.3,0.2-3,0.9c-1,0.3-2.1,0.7-2.4,0.9c-1.1,0.8-6.5,1.8-10.1,2c-4.5,0.2-8.5-0.6-12-2.3c-1.5-0.8-3.2-1.6-3.7-1.9
		c-0.6-0.3-1.6-1-2.1-1.5c-1.9-1.6-3.5-2.3-6.3-2.7c-1.5-0.1-2.9-0.6-3.1-0.9c-0.3-0.4-0.4-0.4-0.4,0.2s-0.7,0.9-2.4,1
		c-1.4,0.1-3.4,0.4-4.6,0.8s-3.4,0.8-4.9,1c-1.5,0.3-2.9,0.6-3.2,1s-1,0.5-1.5,0.6c-1.2,0.1-5.2,2-6.8,3.4c-0.7,0.6-2,1.5-2.9,2
		c-0.9,0.5-1.7,1.5-2,2.1c-0.2,0.6-0.6,1-0.8,0.9c-0.5-0.3-6.8,8.3-8.8,11.9c-0.7,1.4-1.4,2.2-1.4,1.7c0-0.4-0.2-0.6-0.4-0.4
		c-0.2,0.2-0.1,0.7,0.4,1.1c0.4,0.4,0.6,0.8,0.3,0.8c-0.2,0,0,0.6,0.5,1.3c0.9,1.3,0.7,2-0.4,2c-1.5,0-2.3-1-2.5-3.2
		c-0.2-1.8-0.1-2.1,0.3-1c0.5,1.3,0.5,1.3,0.6,0.1c0.1-0.6-0.2-1.3-0.6-1.5c-0.8-0.4-0.7-2.5,0.1-2.3c0.4,0.1,0.7-0.5,0.8-1.3
		c0.1-0.8,0.9-2.4,1.9-3.6c3.4-4.4,9.3-11.1,9.8-11.2c0.3,0,0.9-0.4,1.3-0.9c0.4-0.5,1.6-1.4,2.6-2c2-1.3,13.9-5.3,17.4-5.8
		c1.2-0.2,3.9-0.8,5.8-1.2c2-0.4,4.3-0.7,5.2-0.5c0.9,0.2,1.7,0.2,1.9,0.1c0.2-0.1,1.2,0,2.4,0.3c1.9,0.5,3.7,2.3,3.4,3.3
		c-0.1,0.3,0.3,0.4,0.8,0.4c1.2-0.1,2.7,1.3,2.2,1.8c-0.2,0.3-0.1,0.3,0.3,0c0.4-0.3,1.6,0.1,2.7,0.6c3.5,1.8,14.2,3.7,13.2,2.3
		c-0.2-0.3,0.5-0.4,1.4-0.5c0.9,0,3-0.4,4.5-0.9c1.6-0.4,2.8-0.7,2.8-0.6c0,0.1,0.4-0.1,0.9-0.4c0.5-0.4,1.1-0.6,1.2-0.4
		c0.2,0.2,0.7-0.1,1.2-0.5c0.5-0.4,1.1-0.7,1.4-0.5c0.3,0.2,0.6,0.1,0.6-0.2c0-0.4,1.2-1,3.6-1.6c2.4-0.6,15.9,5.3,15.1,6.5
		c-0.2,0.3-0.1,0.4,0.2,0.2c0.4-0.2,1.1,0.2,1.7,0.8s1.4,1.3,1.9,1.3c0.9,0.1,3.4,2.7,5.5,5.7c1.2,1.7,1.4,2.4,0.9,2.9
		c-0.5,0.5-0.4,0.6,0.3,0.3c0.7-0.3,1.2,0.1,1.9,1.1c0.9,1.6,1.9,4.7,1.5,4.8c-0.1,0.1,0.2,0.5,0.7,1.1s1.3,2.4,1.7,4.1
		c0.4,1.7,1.1,3.4,1.6,3.7c1.3,1-0.7,2.3-7.8,5.6c-3.6,1.6-7.1,3.2-7.8,3.5c-0.7,0.3-2.2,2-3.6,3.6c-1.3,1.7-2.7,3.4-3.1,3.9
		c-0.4,0.4-0.7,1-0.7,1.3c0,0.9-5.8,5.9-6.5,5.5c-0.4-0.2-0.6-0.1-0.5,0.3c0.2,1-12.7,5.1-18,5.7c-2.5,0.3-4.7,0.6-4.9,0.6
		C505.6,797.5,504.1,797.4,502.5,797.2L502.5,797.2z"/>
</g>
</svg>
