<?xml version="1.0" encoding="utf-8"?>
<!-- Generator: Adobe Illustrator 21.1.0, SVG Export Plug-In . SVG Version: 6.00 Build 0)  -->
<svg version="1.1"
	 id="svg4662" inkscape:version="0.48.3.1 r9886" sodipodi:docname="New document 4" xmlns:cc="http://creativecommons.org/ns#" xmlns:dc="http://purl.org/dc/elements/1.1/" xmlns:inkscape="http://www.inkscape.org/namespaces/inkscape" xmlns:ns1="http://sozi.baierouge.fr" xmlns:rdf="http://www.w3.org/1999/02/22-rdf-syntax-ns#" xmlns:sodipodi="http://sodipodi.sourceforge.net/DTD/sodipodi-0.dtd" xmlns:svg="http://www.w3.org/2000/svg"
	 xmlns="http://www.w3.org/2000/svg" xmlns:xlink="http://www.w3.org/1999/xlink" x="0px" y="0px" viewBox="0 0 1000 1526"
	 style="enable-background:new 0 0 1000 1526;" xml:space="preserve">
<style type="text/css">
	.st0{fill:url(#path4303_1_);stroke:#000000;}
	.st1{fill:url(#path4438_1_);}
	.st2{fill:url(#path4163_1_);}
	.st3{fill:url(#path4165_1_);}
	.st4{fill:url(#path3015_1_);}
	.st5{fill:url(#path3017_1_);}
	.st6{opacity:0.7037;enable-background:new    ;}
	.st7{fill:#FFFFFF;}
	.st8{opacity:0.2428;enable-background:new    ;}
	.st9{opacity:0.3786;enable-background:new    ;}
	.st10{opacity:0.609;enable-background:new    ;}
</style>
<title  id="title4771">Joker Smile</title>
<sodipodi:namedview  bordercolor="#666666" borderopacity="1.0" fit-margin-bottom="0.5" fit-margin-left="0.5" fit-margin-right="0.5" fit-margin-top="0.5" id="base" inkscape:current-layer="layer1" inkscape:cx="-78.199135" inkscape:cy="32.169693" inkscape:document-units="px" inkscape:pageopacity="0.0" inkscape:pageshadow="2" inkscape:showpageshadow="false" inkscape:window-height="1026" inkscape:window-maximized="1" inkscape:window-width="1631" inkscape:window-x="49" inkscape:window-y="24" inkscape:zoom="3.3535948" pagecolor="#ffffff" showborder="false" showgrid="false">
	</sodipodi:namedview>
<g id="layer1" transform="translate(-281.73 -696.28)" inkscape:groupmode="layer" inkscape:label="Layer 1">
	
		<radialGradient id="path4303_1_" cx="1176.3523" cy="2453.7639" r="62.3756" gradientTransform="matrix(0.9804 -0.1932 0.2341 0.3526 -955.2604 822.4517)" gradientUnits="userSpaceOnUse">
		<stop  offset="0" style="stop-color:#4D4D4D"/>
		<stop  offset="1" style="stop-color:#000000"/>
	</radialGradient>
	<path id="path4303" inkscape:connector-curvature="0" sodipodi:nodetypes="ccc" class="st0" d="M668,1439.2
		c73.1,58.6,116.7,72.7,225.6-0.6C816.1,1452,739.8,1458.8,668,1439.2z"/>
	
		<radialGradient id="path4438_1_" cx="1559.5382" cy="215.4559" r="19.9907" gradientTransform="matrix(1.948730e-02 0.9522 -2.4835 1.509619e-02 1282.4706 -19.4762)" gradientUnits="userSpaceOnUse">
		<stop  offset="0" style="stop-color:#FF0000"/>
		<stop  offset="1" style="stop-color:#000000"/>
	</radialGradient>
	<path id="path4438" inkscape:connector-curvature="0" sodipodi:nodetypes="cccccc" class="st1" d="M745.4,1475.7
		c6.9-13.9,22.4-6.9,34.5-8.2c7.3-4.5,19-4.4,29-1.2c15.1,7.6,0.5,9.1-3.3,15.3l-59.2,1.8L745.4,1475.7z"/>
	
		<radialGradient id="path4163_1_" cx="1146.405" cy="1175.3676" r="59.4899" gradientTransform="matrix(2.8914 -9.223599e-02 0.1141 1.0621 -2668.8203 314.8882)" gradientUnits="userSpaceOnUse">
		<stop  offset="0" style="stop-color:#FFFFFF"/>
		<stop  offset="1" style="stop-color:#000000"/>
	</radialGradient>
	<path id="path4163" inkscape:connector-curvature="0" sodipodi:nodetypes="ccc" class="st2" d="M670.8,1439.9
		c76.1,22.9,147.6,18.8,218-1.6C775.9,1477.5,764.6,1471.6,670.8,1439.9z"/>
	
		<radialGradient id="path4165_1_" cx="479.83" cy="857.0845" r="58.6832" gradientTransform="matrix(0.1478 -1.4167 2.9473 9.130521e-02 -1818.3225 2087.2903)" gradientUnits="userSpaceOnUse">
		<stop  offset="0" style="stop-color:#FFFFFF"/>
		<stop  offset="1" style="stop-color:#000000"/>
	</radialGradient>
	<path id="path4165" inkscape:connector-curvature="0" sodipodi:nodetypes="ccc" class="st3" d="M675.6,1443.9
		c112.4,77.3,131.9,37.3,215.2-3.9C792.5,1482.4,777.3,1494.8,675.6,1443.9z"/>
	
		<radialGradient id="path3015_1_" cx="1086.3582" cy="1211.486" r="77.8747" gradientTransform="matrix(3.8971 -0.1257 0.1091 1.0048 -3584.4116 383.7727)" gradientUnits="userSpaceOnUse">
		<stop  offset="0" style="stop-color:#D40000"/>
		<stop  offset="1" style="stop-color:#000000"/>
	</radialGradient>
	<path id="path3015" inkscape:connector-curvature="0" sodipodi:nodetypes="cscsc" class="st4" d="M641.3,1431.4
		c45,6.4,80.2,55.8,135.6,55.9c52.5,0.1,99.3-51.8,145.8-57.7c-36.2,9.6-95.1,76.3-147,76.1C725.7,1505.4,665.5,1438.9,641.3,1431.4
		L641.3,1431.4z"/>
	
		<radialGradient id="path3017_1_" cx="1137.8083" cy="1781.8351" r="76.9885" gradientTransform="matrix(3.3061 2.764772e-03 -1.377892e-03 0.4984 -2979.3821 544.3995)" gradientUnits="userSpaceOnUse">
		<stop  offset="0" style="stop-color:#D40000"/>
		<stop  offset="1" style="stop-color:#000000"/>
	</radialGradient>
	<path id="path3017" inkscape:connector-curvature="0" sodipodi:nodetypes="cccc" class="st5" d="M640.7,1431.3
		c54.1,13.5,126.8-7.9,135.1,15c11.9-21,76-4.4,147-16.8C828.8,1463.3,723.5,1464.2,640.7,1431.3L640.7,1431.3z"/>
	<g id="path4514" inkscape:connector-curvature="0" sodipodi:nodetypes="ccc" class="st6">
		<path class="st7" d="M781.4,1445.2c10.3-4.2,23.8-6.6,39.3-8C800.8,1436.1,788.5,1437.5,781.4,1445.2z"/>
	</g>
	<g id="path4524" inkscape:connector-curvature="0" sodipodi:nodetypes="ccc" class="st6">
		<path class="st7" d="M774.5,1444.8c-10.3-4.2-23.8-6.6-39.3-8C755,1435.8,767.3,1437,774.5,1444.8z"/>
	</g>
	<g id="path4526" inkscape:connector-curvature="0" sodipodi:nodetypes="ccc" class="st8">
		<path d="M673.1,1440.8c80.9,20.1,143.7,11.8,215.7-0.6C815.6,1452,743.3,1456.3,673.1,1440.8z"/>
	</g>
	<g id="path4544" inkscape:connector-curvature="0" sodipodi:nodetypes="cscc" class="st9">
		<path d="M669.2,1449.4c35.1,23.4,70.2,49.9,106.7,50.4c35.3,0.4,72.1-24.4,109-49.5C784.1,1520.4,770,1525.2,669.2,1449.4
			L669.2,1449.4z"/>
	</g>
	<g id="path4554" inkscape:connector-curvature="0" sodipodi:nodetypes="cscc" class="st10">
		<path class="st7" d="M688.1,1451.7c26.9,20.9,55,35.4,87.5,35.5c39.9,0.1,73.4-21,92.8-35.1
			C802.4,1505.3,748.9,1506.8,688.1,1451.7z"/>
	</g>
</g>
</svg>
