<?xml version="1.0" encoding="utf-8"?>
<!-- Generator: Adobe Illustrator 21.1.0, SVG Export Plug-In . SVG Version: 6.00 Build 0)  -->
<svg version="1.1"
	 id="svg2" inkscape:version="0.48.3.1 r9886" sodipodi:docname="_svgclean2.svg" xmlns:cc="http://creativecommons.org/ns#" xmlns:dc="http://purl.org/dc/elements/1.1/" xmlns:inkscape="http://www.inkscape.org/namespaces/inkscape" xmlns:rdf="http://www.w3.org/1999/02/22-rdf-syntax-ns#" xmlns:sodipodi="http://sodipodi.sourceforge.net/DTD/sodipodi-0.dtd"
	 xmlns="http://www.w3.org/2000/svg" xmlns:xlink="http://www.w3.org/1999/xlink" x="0px" y="0px" viewBox="0 0 1000 1540"
	 style="enable-background:new 0 0 1000 1540;" xml:space="preserve">
<style type="text/css">
	.st0{fill:#F5D8CE;}
	.st1{fill:#B48C7F;}
	.st2{fill:#ECC4A8;}
	.st3{fill:#FBF3EE;}
</style>
<path class="st0" d="M468.9,190.2c-7.4,18-23.7,60.4-27.9,73c-2,5.9-3.6,12.7-5.5,20.7c-1.5,6.1-8.1,9-8.7,15
	c-0.5,4.6,8.8,10.3,8.8,10.3c0.1,0.5,14,3.5,17.4-1.1c3.8-5.3,18.1,3,24.4,2.7c6.2-0.3,23.9-11.1,23.9-11.1l2.7,2.8l-7.1,5.9
	c0,0,9.6,4.3,12,3.6c3.4-0.9,8.9-4.9,10.6-8.1c1.7-3.1,1.9-16.6,1.9-16.6s-13.1-20-18.4-44c-4.4-19.8-7.8-51-15.5-59.2
	C479.8,175.9,472.1,182.5,468.9,190.2z"/>
<sodipodi:namedview  bordercolor="#666666" borderopacity="1.0" fit-margin-bottom="0" fit-margin-left="0" fit-margin-right="0" fit-margin-top="0" id="base" inkscape:current-layer="layer1" inkscape:cx="914.1584" inkscape:cy="1531.7374" inkscape:document-units="px" inkscape:pageopacity="0.0" inkscape:pageshadow="2" inkscape:window-height="452" inkscape:window-maximized="0" inkscape:window-width="512" inkscape:window-x="0" inkscape:window-y="0" inkscape:zoom="0.35000001" pagecolor="#ffffff" showgrid="false">
	</sodipodi:namedview>
<path id="path3050" inkscape:connector-curvature="0" class="st1" d="M433.6,289c-3.3,4.7-4,6-4,8.3c0,2.5,0.8,3.9,3.3,6.4
	c1.1,1.1,1.9,2.3,1.7,2.6c-0.2,0.4,0,0.5,0.6,0.3c0.5-0.2,1.6,0,2.3,0.4c0.8,0.5,2.1,0.9,2.9,1.1s1.8,0.4,2.2,0.5
	c0.4,0.1,2.9,0.2,5.5,0.1c3.3-0.1,4.8-0.3,4.7-0.7c0-0.4-0.2-0.7-0.4-0.6c-0.2,0-0.9-0.6-1.6-1.2c-1.3-1.3-1.6-1.5-2.6-1.4
	c-0.3,0.1-1.3-0.6-2.1-1.3c-1.1-1-1.3-1.6-1.1-2.8c0.3-1.7,1.8-2.8,5.5-3.8c2.2-0.6,2.5-0.6,2.6,0.3c0,0.6,0.1,0.7,0.3,0.2
	c0.3-1,1.3-1,3.3,0.1c1.3,0.7,1.9,1.5,2.3,3c0.3,1.3,1,2.3,1.8,2.7c0.7,0.3,1.3,0.9,1.3,1.2s0.2,0.5,0.4,0.3s0.8,0.2,1.3,0.9
	c0.4,0.7,0.8,1,0.8,0.6c0-0.5,0.4-0.4,1.4,0.2c0.8,0.5,1.4,1,1.3,1.2s0.6,0.3,1.6,0.3s2.6,0.3,3.7,0.8c2.5,1,6.9,0.8,9.3-0.5
	c1-0.5,1.8-1.2,1.8-1.4s0.4-0.6,0.8-0.8c0.5-0.3,1.5-1,2.3-1.6c3.8-3.2,5.4-4.3,7.5-4.7c1.2-0.3,2.4-0.6,2.8-0.7
	c0.3-0.2,0.6-0.1,0.6,0.2c0,0.3,0.4,0.4,0.9,0.2c0.5-0.2,1.7,0.1,2.6,0.6s1.8,0.9,2,0.8s0.5,0.8,0.7,2c0.5,2.9-0.7,4.2-4.4,4.6
	c-1.5,0.2-2.9,0.6-3.2,0.9c-0.2,0.4,0,0.5,0.5,0.4s2,0.3,3.2,0.9c2.4,1.2,5,1.7,6.9,1.4c0.7-0.1,1.6-0.3,2.1-0.4s0.8-0.4,0.8-0.7
	s0.3-0.4,0.7-0.3c0.4,0.2,0.7,0.1,0.7-0.2c0-0.3,0.8-1.3,1.7-2.3c1-1,1.6-1.5,1.4-1c-0.2,0.5,0,0.2,0.5-0.7c0.4-0.9,1.7-2.7,2.6-4.2
	c1.2-1.8,1.6-2.7,1.1-2.9c-0.5-0.2-0.5-0.3,0-0.4c0.4-0.1,0.5-0.4,0.2-0.8c-0.2-0.5-0.1-0.5,0.5,0.1c0.8,0.7,0.8,0.6,0.3-0.9
	c-0.3-0.9-0.4-2.1-0.3-2.7c0.7-3.2-2.7-8.8-5.8-9.4c-2.5-0.5-2.9-2.1-0.3-1.7c1,0.2,2.3,0.6,2.9,0.9c0.5,0.3,1.1,0.6,1.3,0.6
	c1,0.1,2.4,1.5,2.2,2.1c-0.2,0.4-0.1,0.5,0.2,0.3c0.3-0.3,1,0.3,1.5,1.1c1.2,1.8,1.9,5.2,1.2,5.7c-0.2,0.2-0.4,0.7-0.4,1
	s0.2,0.4,0.5,0.2c0.6-0.5,0.6,0.5,0,3.5c-0.7,3.2-2.4,6.9-2.8,5.8c-0.2-0.5-0.3-0.4-0.3,0.3c0,0.9-1.9,4.1-1.9,3.3
	c0-0.2-0.6,0.4-1.3,1.3c-2,2.5-6.5,5.6-8.8,6c-1.2,0.3-2.9,0.2-4-0.1l0,0c-1-0.3-1.7-0.8-1.5-1.1c0.2-0.3,0-0.3-0.4-0.1
	c-1.2,0.7-5.7-1.6-7.4-3.8c-1.4-1.7-1.9-2-4.1-2c-1.7,0-2.8,0.4-3.7,1.2c-2.2,2-4.9,3.5-6.5,3.7c-2.2,0.2-9.1-0.6-9.1-1
	s-1.8-0.6-4.1-0.5c-0.7,0-1.4-0.2-1.4-0.4c0-0.2-0.9-0.5-2.1-0.6c-1.1-0.1-2.5-0.3-3.1-0.4c-0.5-0.1-1.2-0.2-1.4-0.2
	c-0.2,0-0.2-0.4,0-0.7c0.2-0.5,0.1-0.5-0.2-0.2c-0.3,0.3-0.9,0.2-1.3-0.2c-0.5-0.5-0.7-0.5-0.7,0.1c0,0.4-0.2,0.6-0.5,0.4
	s-0.3,0.1-0.2,0.5c1,2.7-8.2,4.1-15.5,2.3c-4.3-1-9.5-4.5-10.7-7c-0.3-0.8-0.6-1.2-0.7-0.8c0,0.3-0.5-0.4-1-1.6
	c-1.7-3.7-1.3-7.7,1-10.7c0.5-0.6,1.4-1.8,2-2.6s6.6-12.5,7.2-13"/>
<path id="path3046" inkscape:connector-curvature="0" class="st2" d="M501.4,269.9c-0.8-0.7-1.9-4.8-2.3-9.4
	c-0.2-2.1-0.2-2.7,0.2-2.3c0.5,0.4,1.5,3.9,1.8,6.4c0,0.4,0.3,0.8,0.5,0.8s0.3,0.2,0.1,0.4c-0.1,0.2,0.1,1.1,0.5,1.9
	C503.6,270.3,503.1,271.4,501.4,269.9L501.4,269.9z M499.5,276.3c-1.5-0.8-4.2-11.2-5-18.7c-0.3-2.9-0.6-5.9-0.7-6.7s-0.1-4,0-7.2
	c0.1-3.2,0.2-7.5,0.3-9.7c0.1-2.2,0.2-5.4,0.3-7.2c0.1-1.8,0.1-4,0-4.9s0-1.6,0.2-1.6s0.3-1.2,0.3-2.6c0-1.4,0.1-2.8,0.4-3
	c0.3-0.3,0.4,0.5,0.4,1.8c0,1.2,0,7.1,0,13s0,11.2,0,11.8s-0.1,2.3,0,3.6c0,1.8-0.1,2.5-0.5,2.3s-0.4-0.1-0.1,0.3
	c0.6,0.9,0.7,2.6,0.1,2.6c-0.3,0-0.3,0.1,0,0.3c0.3,0.2,0.8,2.3,1,4.7c0.7,6.4,1.7,10.8,3.1,14c0.4,1,0.8,2.2,0.8,2.7s0.2,1,0.5,1
	c0.7,0,0.7,2.9,0,3.4C500.4,276.5,499.8,276.5,499.5,276.3L499.5,276.3z"/>
<path class="st2" d="M466.4,196.4c0,0-20,65.8-24.8,75.8c-1,2.1-3.3,8.3-2.9,10.5c0.8,4.9,4.5,18.8,4.5,18.8s-1-2.9,1.6-10.6
	c0.6-1.8-1.3-12.7,2.6-19.8C453.3,260.3,466.4,196.4,466.4,196.4z"/>
<polygon class="st3" points="476,194.5 463,287.5 463,295.2 466.6,289.2 "/>
<polygon class="st3" points="471.8,292.6 484.5,292.6 466.4,296.4 469.5,292.6 "/>
</svg>
