<?xml version="1.0" encoding="utf-8"?>
<!-- Generator: Adobe Illustrator 21.1.0, SVG Export Plug-In . SVG Version: 6.00 Build 0)  -->
<svg version="1.1"
	 id="svg2" inkscape:export-filename="/home/chris/comedy5.png" inkscape:export-xdpi="90" inkscape:export-ydpi="90" inkscape:version="0.48.0 r9654" sodipodi:docname="comedy.svg" xmlns:cc="http://creativecommons.org/ns#" xmlns:dc="http://purl.org/dc/elements/1.1/" xmlns:inkscape="http://www.inkscape.org/namespaces/inkscape" xmlns:ns1="http://sozi.baierouge.fr" xmlns:rdf="http://www.w3.org/1999/02/22-rdf-syntax-ns#" xmlns:sodipodi="http://sodipodi.sourceforge.net/DTD/sodipodi-0.dtd" xmlns:svg="http://www.w3.org/2000/svg"
	 xmlns="http://www.w3.org/2000/svg" xmlns:xlink="http://www.w3.org/1999/xlink" x="0px" y="0px" viewBox="0 0 1000 1540"
	 style="enable-background:new 0 0 1000 1540;" xml:space="preserve">
<style type="text/css">
	.st0{fill:#FAC6AD;stroke:#8F5F5F;}
	.st1{fill:#BB9582;}
	.st2{fill:#EEEEEC;}
</style>
<sodipodi:namedview  bordercolor="#666666" borderopacity="1.0" fit-margin-bottom="1" fit-margin-left="1" fit-margin-right="1" fit-margin-top="1" id="base" inkscape:current-layer="layer2" inkscape:cx="45.29645" inkscape:cy="71.835415" inkscape:document-units="px" inkscape:guide-bbox="true" inkscape:pageopacity="0.0" inkscape:pageshadow="2" inkscape:window-height="975" inkscape:window-maximized="1" inkscape:window-width="1280" inkscape:window-x="0" inkscape:window-y="24" inkscape:zoom="1" pagecolor="#ffffff" showgrid="false" showguides="true">
	</sodipodi:namedview>
<g id="layer2" transform="translate(-3.3797 73.053)" inkscape:groupmode="layer" inkscape:label="h&amp;s">
	<g id="g3057" transform="matrix(1.6429 0 0 1.6429 -2.8031 -81.212)">
		<path id="use3019" inkscape:connector-curvature="0" sodipodi:nodetypes="ccccc" class="st0" d="M307.7,145.7
			c5.7,5,10.6,10.6,12.3,19.4c-1.8,7.9-5.3,12.4-11.4,15.1c-5.9,2-8.1,0.6-12.1,0.1L307.7,145.7z"/>
		<path id="path3017" inkscape:connector-curvature="0" sodipodi:nodetypes="ccccc" class="st0" d="M265.7,145.7
			c-5.7,5-10.6,10.6-12.3,19.4c1.8,7.9,5.3,12.4,11.4,15.1c5.9,2,8.1,0.6,12.1,0.1L265.7,145.7z"/>
		<path id="path3011" inkscape:connector-curvature="0" sodipodi:nodetypes="cccccccc" class="st0" d="M272.1,131.6
			c0.1,5-13,17.3-9.9,40.3c6.7,12,10.2,12.4,24.5,13.4c17.4-1.4,19.4-4.6,23.7-13.4c4.7-24.4-8.4-34.9-10.6-40.3l-5.6-29.3
			l-16.6-0.7L272.1,131.6z"/>
		<path id="path3808" inkscape:connector-curvature="0" sodipodi:nodetypes="ccccccccc" class="st1" d="M291.9,106.8l6,34.2
			c2.1,4.6,6.4,8.5,7.3,14.6c0.4,4.2,2,11.4-3.5,18.8c-4.7,5-19.5,10.5-32.9,5.6c1.8,3.2,16,7.5,31.8,2.2c5.6-3.2,10.9-6.1,10-25
			c-1.3-9.1-4.6-17.6-10.6-22.9C297.2,129,294.8,117.4,291.9,106.8L291.9,106.8z"/>
		<path id="path3810" inkscape:connector-curvature="0" sodipodi:nodetypes="cccc" class="st1" d="M306.3,180.2
			c4.2,0.6,11.9-7.4,12.7-14.1c-1.7,1-4.3,6.6-9.1,8.2C308.9,175.7,307.9,177.9,306.3,180.2L306.3,180.2z"/>
		<path id="path3812" inkscape:connector-curvature="0" sodipodi:nodetypes="cccc" class="st1" d="M266.7,180
			c-3.2-0.6-5.7-2.9-7.9-4.6c1,0.4,2.9,1.1,4.7,0.3L266.7,180z"/>
		<path id="path3814" inkscape:connector-curvature="0" sodipodi:nodetypes="cccc" class="st2" d="M271.8,145.6
			c-2.2,7.1-4.9,14.4-2.9,20.8c5.6,2.8,7.7,1.1,11.3,1.4C270.2,164.4,272.1,158.4,271.8,145.6L271.8,145.6z"/>
		<path id="path3816" inkscape:connector-curvature="0" sodipodi:nodetypes="cccc" class="st2" d="M257.9,157.4
			c-1.4,2.6-2.5,7.9-2,10.6c0.7,0.8,1,1.5,2.8,1.4C257.3,167.6,256.8,165.7,257.9,157.4L257.9,157.4z"/>
	</g>
</g>
</svg>
