<?xml version="1.0" encoding="utf-8"?>
<!-- Generator: Adobe Illustrator 21.1.0, SVG Export Plug-In . SVG Version: 6.00 Build 0)  -->
<svg version="1.1" id="Layer_1" xmlns="http://www.w3.org/2000/svg" xmlns:xlink="http://www.w3.org/1999/xlink" x="0px" y="0px"
	 viewBox="0 0 187 260" style="enable-background:new 0 0 187 260;" xml:space="preserve">
<style type="text/css">
	.st0{fill:none;stroke:#000000;stroke-width:2;}
	.st1{stroke:#000000;stroke-width:2.5208;stroke-linecap:round;stroke-linejoin:round;}
</style>
<path id="path2985" class="st0" d="M130,19.2C146.5,87,92.1,123.4,57.1,145.1c-31.5,19.6-31.2,57.2,3.4,65.4
	c20.1,4.8,30.6,7.1,45.7,11.7c23,7,14.8,31.7,1.9,33.6"/>
<path id="path2987" class="st1" d="M111.6,211.2c-12.7-1.5-20.6-5.4-20-9.2c0.5-3.9,11.3-5.8,24-4.3s22.6,5.9,22.1,9.7
	c-0.3,2.3-4.3,3.9-10.1,4.5c-2.6,0.7,15.8-3.6,5.2-7.7c-2.9-1.2-9-3.2-17.1-4.1c-14.8-1.5-18,0.9-17.9,2.8
	C97.9,206.3,111.6,211.2,111.6,211.2L111.6,211.2z"/>
<path id="path3758" class="st0" d="M149.5,177.9c32,21.4,17.5,46.2-17.7,43.4"/>
</svg>
