<?xml version="1.0" encoding="utf-8"?>
<!-- Generator: Adobe Illustrator 21.1.0, SVG Export Plug-In . SVG Version: 6.00 Build 0)  -->
<svg version="1.1"
	 id="svg2" xmlns:cc="http://creativecommons.org/ns#" xmlns:dc="http://purl.org/dc/elements/1.1/" xmlns:inkscape="http://www.inkscape.org/namespaces/inkscape" xmlns:ns1="http://sozi.baierouge.fr" xmlns:rdf="http://www.w3.org/1999/02/22-rdf-syntax-ns#" xmlns:sodipodi="http://sodipodi.sourceforge.net/DTD/sodipodi-0.dtd" xmlns:svg="http://www.w3.org/2000/svg"
	 xmlns="http://www.w3.org/2000/svg" xmlns:xlink="http://www.w3.org/1999/xlink" x="0px" y="0px" viewBox="0 0 1000 1541.5"
	 style="enable-background:new 0 0 1000 1541.5;" xml:space="preserve">
<style type="text/css">
	.st0{fill:#F4D5C2;stroke:#000000;stroke-miterlimit:10;}
	.st1{fill:#61351A;stroke:#000000;stroke-width:0.998;}
	.st2{fill:#412311;stroke:#000000;stroke-width:0.998;}
	.st3{fill:#CDB5A7;}
	.st4{fill:#F5EFEB;}
</style>
<path id="path3873" class="st0" d="M449.7,156.1c6.2,35.9,7.2,93-0.6,97.8c-8.6,7.3-25.7,28.9-22.4,40.5
	c5.3,22.1,28.1,15.5,58.1,18.4c27.4,2.6,46.3-11.1,42.8-23.4c-1.2-12.6-9.4-27.3-26.2-48.7c-11.1-21-2.3-58,4.2-84.7"/>
<path id="path3875" class="st1" d="M443.4,300.6c9.4-10.1,18-5.4,26.7,3.1C457.1,306,448.5,304.8,443.4,300.6z"/>
<path id="path3877" class="st2" d="M497.5,300.1c12.2,4,14.2-0.2,17.3-3.5C507.5,290.7,502.4,295,497.5,300.1z"/>
<path class="st3" d="M495.1,164.1c-0.9-8.3-7.3,49.6-8.7,66.2c-1,11.3,31.4,62.4,31.4,50.1c0-13.1-25.8-37.7-25.4-51.9
	C492.7,214.8,495.4,166.8,495.1,164.1z"/>
<path class="st4" d="M461.8,271.5c10.6,8.5,26.1,9.8,26.1,9.8s-26.8,6.9-30.9,0.4C455.4,279.4,461.8,271.5,461.8,271.5z"/>
</svg>
